G04 #@! TF.GenerationSoftware,KiCad,Pcbnew,9.0.0*
G04 #@! TF.CreationDate,2025-03-16T21:41:20+01:00*
G04 #@! TF.ProjectId,lightThermo,6c696768-7454-4686-9572-6d6f2e6b6963,1.0*
G04 #@! TF.SameCoordinates,PX47868c0PY7d687e0*
G04 #@! TF.FileFunction,Copper,L1,Top*
G04 #@! TF.FilePolarity,Positive*
%FSLAX46Y46*%
G04 Gerber Fmt 4.6, Leading zero omitted, Abs format (unit mm)*
G04 Created by KiCad (PCBNEW 9.0.0) date 2025-03-16 21:41:20*
%MOMM*%
%LPD*%
G01*
G04 APERTURE LIST*
G04 Aperture macros list*
%AMRoundRect*
0 Rectangle with rounded corners*
0 $1 Rounding radius*
0 $2 $3 $4 $5 $6 $7 $8 $9 X,Y pos of 4 corners*
0 Add a 4 corners polygon primitive as box body*
4,1,4,$2,$3,$4,$5,$6,$7,$8,$9,$2,$3,0*
0 Add four circle primitives for the rounded corners*
1,1,$1+$1,$2,$3*
1,1,$1+$1,$4,$5*
1,1,$1+$1,$6,$7*
1,1,$1+$1,$8,$9*
0 Add four rect primitives between the rounded corners*
20,1,$1+$1,$2,$3,$4,$5,0*
20,1,$1+$1,$4,$5,$6,$7,0*
20,1,$1+$1,$6,$7,$8,$9,0*
20,1,$1+$1,$8,$9,$2,$3,0*%
G04 Aperture macros list end*
G04 #@! TA.AperFunction,ComponentPad*
%ADD10C,1.600000*%
G04 #@! TD*
G04 #@! TA.AperFunction,ComponentPad*
%ADD11R,2.200000X2.200000*%
G04 #@! TD*
G04 #@! TA.AperFunction,ComponentPad*
%ADD12O,2.200000X2.200000*%
G04 #@! TD*
G04 #@! TA.AperFunction,ComponentPad*
%ADD13R,1.700000X1.700000*%
G04 #@! TD*
G04 #@! TA.AperFunction,ComponentPad*
%ADD14O,1.700000X1.700000*%
G04 #@! TD*
G04 #@! TA.AperFunction,ComponentPad*
%ADD15O,2.200000X3.500000*%
G04 #@! TD*
G04 #@! TA.AperFunction,ComponentPad*
%ADD16R,1.500000X2.500000*%
G04 #@! TD*
G04 #@! TA.AperFunction,ComponentPad*
%ADD17O,1.500000X2.500000*%
G04 #@! TD*
G04 #@! TA.AperFunction,ComponentPad*
%ADD18C,2.000000*%
G04 #@! TD*
G04 #@! TA.AperFunction,ComponentPad*
%ADD19RoundRect,0.250000X-1.050000X1.050000X-1.050000X-1.050000X1.050000X-1.050000X1.050000X1.050000X0*%
G04 #@! TD*
G04 #@! TA.AperFunction,ComponentPad*
%ADD20C,2.600000*%
G04 #@! TD*
G04 #@! TA.AperFunction,Conductor*
%ADD21C,1.000000*%
G04 #@! TD*
G04 #@! TA.AperFunction,Conductor*
%ADD22C,0.250000*%
G04 #@! TD*
G04 #@! TA.AperFunction,Profile*
%ADD23C,0.050000*%
G04 #@! TD*
G04 APERTURE END LIST*
D10*
G04 #@! TO.P,C3,1*
G04 #@! TO.N,Net-(J1-3V3(OUT))*
X45600000Y13450000D03*
G04 #@! TO.P,C3,2*
G04 #@! TO.N,GND*
X43100000Y13450000D03*
G04 #@! TD*
D11*
G04 #@! TO.P,D1,1,K*
G04 #@! TO.N,Net-(D1-K)*
X38080000Y71500000D03*
D12*
G04 #@! TO.P,D1,2,A*
G04 #@! TO.N,Net-(D1-A)*
X27920000Y71500000D03*
G04 #@! TD*
D10*
G04 #@! TO.P,C4,1*
G04 #@! TO.N,Net-(J1-3V3(OUT))*
X52350000Y47550000D03*
G04 #@! TO.P,C4,2*
G04 #@! TO.N,GND*
X52350000Y45050000D03*
G04 #@! TD*
D13*
G04 #@! TO.P,J3,1,SDA*
G04 #@! TO.N,Net-(J2-I2C0_SDA)*
X7025000Y24300000D03*
D14*
G04 #@! TO.P,J3,2,SCL*
G04 #@! TO.N,Net-(J2-I2C0_SCL)*
X7025000Y21760000D03*
G04 #@! TO.P,J3,3,-*
G04 #@! TO.N,GND*
X7025000Y19220000D03*
G04 #@! TO.P,J3,4,+*
G04 #@! TO.N,Net-(J1-3V3(OUT))*
X7025000Y16680000D03*
G04 #@! TD*
D10*
G04 #@! TO.P,C1,1*
G04 #@! TO.N,GND*
X47250000Y71500000D03*
G04 #@! TO.P,C1,2*
G04 #@! TO.N,Net-(D1-K)*
X44750000Y71500000D03*
G04 #@! TD*
D13*
G04 #@! TO.P,J2,1,UART0_TX*
G04 #@! TO.N,Net-(J2-UART0_TX)*
X20220000Y62205000D03*
D14*
G04 #@! TO.P,J2,2,UART0_RX*
G04 #@! TO.N,Net-(J2-UART0_RX)*
X20220000Y59665000D03*
G04 #@! TO.P,J2,3,GND*
G04 #@! TO.N,GND*
X20220000Y57125000D03*
G04 #@! TO.P,J2,4,GP2*
G04 #@! TO.N,unconnected-(J2-GP2-Pad4)*
X20220000Y54585000D03*
G04 #@! TO.P,J2,5,GP3*
G04 #@! TO.N,unconnected-(J2-GP3-Pad5)*
X20220000Y52045000D03*
G04 #@! TO.P,J2,6,GP4*
G04 #@! TO.N,unconnected-(J2-GP4-Pad6)*
X20220000Y49505000D03*
G04 #@! TO.P,J2,7,GP5*
G04 #@! TO.N,unconnected-(J2-GP5-Pad7)*
X20220000Y46965000D03*
G04 #@! TO.P,J2,8,GND*
G04 #@! TO.N,GND*
X20220000Y44425000D03*
G04 #@! TO.P,J2,9,GP6*
G04 #@! TO.N,unconnected-(J2-GP6-Pad9)*
X20220000Y41885000D03*
G04 #@! TO.P,J2,10,GP7*
G04 #@! TO.N,unconnected-(J2-GP7-Pad10)*
X20220000Y39345000D03*
G04 #@! TO.P,J2,11,I2C0_SDA*
G04 #@! TO.N,Net-(J2-I2C0_SDA)*
X20220000Y36805000D03*
G04 #@! TO.P,J2,12,I2C0_SCL*
G04 #@! TO.N,Net-(J2-I2C0_SCL)*
X20220000Y34265000D03*
G04 #@! TO.P,J2,13,GND*
G04 #@! TO.N,GND*
X20220000Y31725000D03*
G04 #@! TO.P,J2,14,GP10*
G04 #@! TO.N,unconnected-(J2-GP10-Pad14)*
X20220000Y29185000D03*
G04 #@! TO.P,J2,15,GP11*
G04 #@! TO.N,unconnected-(J2-GP11-Pad15)*
X20220000Y26645000D03*
G04 #@! TO.P,J2,16,GP12*
G04 #@! TO.N,unconnected-(J2-GP12-Pad16)*
X20220000Y24105000D03*
G04 #@! TO.P,J2,17,GP13*
G04 #@! TO.N,unconnected-(J2-GP13-Pad17)*
X20220000Y21565000D03*
G04 #@! TO.P,J2,18,GND*
G04 #@! TO.N,GND*
X20220000Y19025000D03*
G04 #@! TO.P,J2,19,GP14*
G04 #@! TO.N,unconnected-(J2-GP14-Pad19)*
X20220000Y16485000D03*
G04 #@! TO.P,J2,20,GP15*
G04 #@! TO.N,Net-(J2-GP15)*
X20220000Y13945000D03*
G04 #@! TD*
D13*
G04 #@! TO.P,J4,1,+*
G04 #@! TO.N,Net-(J1-3V3(OUT))*
X49000000Y54350000D03*
D14*
G04 #@! TO.P,J4,2,-*
G04 #@! TO.N,GND*
X49000000Y56890000D03*
G04 #@! TO.P,J4,3,SCL*
G04 #@! TO.N,Net-(J1-I2C1_SCL)*
X49000000Y59430000D03*
G04 #@! TO.P,J4,4,SDA*
G04 #@! TO.N,Net-(J1-I2C1_SDA)*
X49000000Y61970000D03*
G04 #@! TD*
D10*
G04 #@! TO.P,C2,1*
G04 #@! TO.N,GND*
X14450000Y18500000D03*
G04 #@! TO.P,C2,2*
G04 #@! TO.N,Net-(J1-3V3(OUT))*
X14450000Y16000000D03*
G04 #@! TD*
D13*
G04 #@! TO.P,J1,1,VBUS*
G04 #@! TO.N,unconnected-(J1-VBUS-Pad1)*
X38000000Y62180000D03*
D14*
G04 #@! TO.P,J1,2,VSYS*
G04 #@! TO.N,Net-(D1-K)*
X38000000Y59640000D03*
G04 #@! TO.P,J1,3,GND*
G04 #@! TO.N,GND*
X38000000Y57100000D03*
G04 #@! TO.P,J1,4,3V3_EN*
G04 #@! TO.N,unconnected-(J1-3V3_EN-Pad4)*
X38000000Y54560000D03*
G04 #@! TO.P,J1,5,3V3(OUT)*
G04 #@! TO.N,Net-(J1-3V3(OUT))*
X38000000Y52020000D03*
G04 #@! TO.P,J1,6,ADC_VREF*
G04 #@! TO.N,unconnected-(J1-ADC_VREF-Pad6)*
X38000000Y49480000D03*
G04 #@! TO.P,J1,7,GP28*
G04 #@! TO.N,unconnected-(J1-GP28-Pad7)*
X38000000Y46940000D03*
G04 #@! TO.P,J1,8,GND*
G04 #@! TO.N,GND*
X38000000Y44400000D03*
G04 #@! TO.P,J1,9,GP27*
G04 #@! TO.N,unconnected-(J1-GP27-Pad9)*
X38000000Y41860000D03*
G04 #@! TO.P,J1,10,GP26*
G04 #@! TO.N,unconnected-(J1-GP26-Pad10)*
X38000000Y39320000D03*
G04 #@! TO.P,J1,11,RUN*
G04 #@! TO.N,unconnected-(J1-RUN-Pad11)*
X38000000Y36780000D03*
G04 #@! TO.P,J1,12,GP22*
G04 #@! TO.N,unconnected-(J1-GP22-Pad12)*
X38000000Y34240000D03*
G04 #@! TO.P,J1,13,GND*
G04 #@! TO.N,GND*
X38000000Y31700000D03*
G04 #@! TO.P,J1,14,GP21*
G04 #@! TO.N,unconnected-(J1-GP21-Pad14)*
X38000000Y29160000D03*
G04 #@! TO.P,J1,15,GP20*
G04 #@! TO.N,unconnected-(J1-GP20-Pad15)*
X38000000Y26620000D03*
G04 #@! TO.P,J1,16,I2C1_SCL*
G04 #@! TO.N,Net-(J1-I2C1_SCL)*
X38000000Y24080000D03*
G04 #@! TO.P,J1,17,I2C1_SDA*
G04 #@! TO.N,Net-(J1-I2C1_SDA)*
X38000000Y21540000D03*
G04 #@! TO.P,J1,18,GND*
G04 #@! TO.N,GND*
X38000000Y19000000D03*
G04 #@! TO.P,J1,19,GP17*
G04 #@! TO.N,unconnected-(J1-GP17-Pad19)*
X38000000Y16460000D03*
G04 #@! TO.P,J1,20,GP16*
G04 #@! TO.N,unconnected-(J1-GP16-Pad20)*
X38000000Y13920000D03*
G04 #@! TD*
D15*
G04 #@! TO.P,SW1,*
G04 #@! TO.N,*
X21000000Y71500000D03*
X12800000Y71500000D03*
D16*
G04 #@! TO.P,SW1,1,A*
G04 #@! TO.N,Net-(D1-A)*
X18900000Y71500000D03*
D17*
G04 #@! TO.P,SW1,2,B*
G04 #@! TO.N,Net-(J6-Pin_5)*
X16900000Y71500000D03*
G04 #@! TO.P,SW1,3*
G04 #@! TO.N,N/C*
X14900000Y71500000D03*
G04 #@! TD*
D18*
G04 #@! TO.P,SW2,1,1*
G04 #@! TO.N,GND*
X26000000Y9120000D03*
X32500000Y9120000D03*
G04 #@! TO.P,SW2,2,2*
G04 #@! TO.N,Net-(J2-GP15)*
X26000000Y4620000D03*
X32500000Y4620000D03*
G04 #@! TD*
D19*
G04 #@! TO.P,J6,1,Pin_1*
G04 #@! TO.N,Net-(J2-UART0_RX)*
X7000000Y59500000D03*
D20*
G04 #@! TO.P,J6,2,Pin_2*
G04 #@! TO.N,Net-(J2-UART0_TX)*
X7000000Y54500000D03*
G04 #@! TO.P,J6,3,Pin_3*
G04 #@! TO.N,GND*
X7000000Y49500000D03*
G04 #@! TO.P,J6,4,Pin_4*
X7000000Y44500000D03*
G04 #@! TO.P,J6,5,Pin_5*
G04 #@! TO.N,Net-(J6-Pin_5)*
X7000000Y39500000D03*
G04 #@! TO.P,J6,6,Pin_6*
G04 #@! TO.N,GND*
X7000000Y34500000D03*
G04 #@! TD*
D13*
G04 #@! TO.P,J5,1,SDA*
G04 #@! TO.N,Net-(J1-I2C1_SDA)*
X47500000Y26540000D03*
D14*
G04 #@! TO.P,J5,2,SCL*
G04 #@! TO.N,Net-(J1-I2C1_SCL)*
X47500000Y24000000D03*
G04 #@! TO.P,J5,3,-*
G04 #@! TO.N,GND*
X47500000Y21460000D03*
G04 #@! TO.P,J5,4,+*
G04 #@! TO.N,Net-(J1-3V3(OUT))*
X47500000Y18920000D03*
G04 #@! TD*
D21*
G04 #@! TO.N,Net-(D1-A)*
X20500000Y67500000D02*
X26950000Y67500000D01*
X26950000Y67500000D02*
X27920000Y68470000D01*
X18900000Y71500000D02*
X18900000Y69100000D01*
X27920000Y68470000D02*
X27920000Y71500000D01*
X18900000Y69100000D02*
X20500000Y67500000D01*
G04 #@! TO.N,Net-(D1-K)*
X36000000Y67000000D02*
X35000000Y66000000D01*
X35000000Y60500000D02*
X35860000Y59640000D01*
X38080000Y71500000D02*
X44750000Y71500000D01*
X44750000Y71500000D02*
X44750000Y69500000D01*
X35860000Y59640000D02*
X38000000Y59640000D01*
X43850000Y68600000D02*
X42600000Y68600000D01*
X42600000Y68600000D02*
X41000000Y67000000D01*
X35000000Y66000000D02*
X35000000Y60500000D01*
X44750000Y69500000D02*
X43850000Y68600000D01*
X41000000Y67000000D02*
X36000000Y67000000D01*
D22*
G04 #@! TO.N,Net-(J2-UART0_TX)*
X20220000Y62205000D02*
X5705000Y62205000D01*
X4500000Y57000000D02*
X7000000Y54500000D01*
X5705000Y62205000D02*
X4500000Y61000000D01*
X4500000Y61000000D02*
X4500000Y57000000D01*
G04 #@! TO.N,Net-(J2-GP15)*
X26000000Y4620000D02*
X32500000Y4620000D01*
X26000000Y4620000D02*
X24380000Y4620000D01*
X24380000Y4620000D02*
X23500000Y5500000D01*
X22500000Y14000000D02*
X22445000Y13945000D01*
X22445000Y13945000D02*
X20220000Y13945000D01*
X23500000Y5500000D02*
X23500000Y13000000D01*
X23500000Y13000000D02*
X22500000Y14000000D01*
G04 #@! TO.N,Net-(J2-UART0_RX)*
X20220000Y59665000D02*
X12665000Y59665000D01*
X12665000Y59665000D02*
X12500000Y59500000D01*
X12500000Y59500000D02*
X7000000Y59500000D01*
G04 #@! TO.N,Net-(J2-I2C0_SDA)*
X13800000Y24300000D02*
X7025000Y24300000D01*
X15500000Y35000000D02*
X15500000Y26000000D01*
X17305000Y36805000D02*
X15500000Y35000000D01*
X15500000Y26000000D02*
X13800000Y24300000D01*
X20220000Y36805000D02*
X17305000Y36805000D01*
G04 #@! TO.N,Net-(J2-I2C0_SCL)*
X20220000Y34265000D02*
X17765000Y34265000D01*
X12760000Y21760000D02*
X7025000Y21760000D01*
X16500000Y25500000D02*
X12760000Y21760000D01*
X17765000Y34265000D02*
X16500000Y33000000D01*
X16500000Y33000000D02*
X16500000Y25500000D01*
D21*
G04 #@! TO.N,Net-(J1-3V3(OUT))*
X49000000Y50900000D02*
X52350000Y47550000D01*
X51250000Y10750000D02*
X56000000Y15500000D01*
X41800000Y53400000D02*
X40420000Y52020000D01*
X56000000Y15500000D02*
X56000000Y43900000D01*
X45600000Y11250000D02*
X46100000Y10750000D01*
X40500000Y2500000D02*
X42000000Y4000000D01*
X46100000Y10750000D02*
X51250000Y10750000D01*
X54050000Y67000000D02*
X44200000Y67000000D01*
X40420000Y52020000D02*
X38000000Y52020000D01*
X45600000Y13450000D02*
X45600000Y11250000D01*
X49000000Y54350000D02*
X49000000Y50900000D01*
X17200000Y2500000D02*
X40500000Y2500000D01*
X53750000Y47550000D02*
X56000000Y49800000D01*
X14450000Y16000000D02*
X14450000Y5250000D01*
X45600000Y17020000D02*
X47500000Y18920000D01*
X14450000Y5250000D02*
X17200000Y2500000D01*
X52350000Y47550000D02*
X53750000Y47550000D01*
X14450000Y16000000D02*
X7705000Y16000000D01*
X7705000Y16000000D02*
X7025000Y16680000D01*
X56000000Y49800000D02*
X56000000Y65050000D01*
X56000000Y65050000D02*
X54050000Y67000000D01*
X41800000Y64600000D02*
X41800000Y53400000D01*
X44200000Y67000000D02*
X41800000Y64600000D01*
X45600000Y13450000D02*
X45600000Y17020000D01*
X56000000Y43900000D02*
X52350000Y47550000D01*
X42000000Y6650000D02*
X46100000Y10750000D01*
X42000000Y4000000D02*
X42000000Y6650000D01*
D22*
G04 #@! TO.N,Net-(J1-I2C1_SCL)*
X51580000Y59430000D02*
X49000000Y59430000D01*
X38000000Y24080000D02*
X40480000Y24080000D01*
X46600000Y49350000D02*
X43550000Y52400000D01*
X43950000Y42800000D02*
X46600000Y45450000D01*
X35000000Y10500000D02*
X36000000Y9500000D01*
X38000000Y24080000D02*
X36080000Y24080000D01*
X36000000Y9500000D02*
X40000000Y9500000D01*
X52450000Y64100000D02*
X52450000Y60300000D01*
X46600000Y45450000D02*
X46600000Y49350000D01*
X44500000Y23000000D02*
X45500000Y24000000D01*
X40000000Y9500000D02*
X41500000Y11000000D01*
X52450000Y60300000D02*
X51580000Y59430000D01*
X36080000Y24080000D02*
X35000000Y23000000D01*
X35000000Y23000000D02*
X35000000Y10500000D01*
X51200000Y65350000D02*
X52450000Y64100000D01*
X44500000Y22000000D02*
X44500000Y23000000D01*
X45300000Y65350000D02*
X51200000Y65350000D01*
X45500000Y24000000D02*
X47500000Y24000000D01*
X43550000Y52400000D02*
X43550000Y63600000D01*
X41500000Y11000000D02*
X41500000Y19000000D01*
X43550000Y63600000D02*
X45300000Y65350000D01*
X40480000Y24080000D02*
X43950000Y27550000D01*
X41500000Y19000000D02*
X44500000Y22000000D01*
X43950000Y27550000D02*
X43950000Y42800000D01*
G04 #@! TO.N,Net-(J1-I2C1_SDA)*
X47850000Y45500000D02*
X51950000Y41400000D01*
X49590000Y26540000D02*
X47500000Y26540000D01*
X42040000Y21540000D02*
X43000000Y22500000D01*
X44540000Y26540000D02*
X47500000Y26540000D01*
X49000000Y61970000D02*
X46620000Y61970000D01*
X51950000Y41400000D02*
X51950000Y28900000D01*
X46620000Y61970000D02*
X45050000Y60400000D01*
X47850000Y49700000D02*
X47850000Y45500000D01*
X51950000Y28900000D02*
X49590000Y26540000D01*
X45050000Y60400000D02*
X45050000Y52500000D01*
X43000000Y22500000D02*
X43000000Y25000000D01*
X45050000Y52500000D02*
X47850000Y49700000D01*
X43000000Y25000000D02*
X44540000Y26540000D01*
X38000000Y21540000D02*
X42040000Y21540000D01*
D21*
G04 #@! TO.N,Net-(J6-Pin_5)*
X3000000Y43500000D02*
X3000000Y63000000D01*
X14500000Y64500000D02*
X16900000Y66900000D01*
X3000000Y63000000D02*
X4500000Y64500000D01*
X4500000Y64500000D02*
X14500000Y64500000D01*
X7000000Y39500000D02*
X3000000Y43500000D01*
X16900000Y66900000D02*
X16900000Y71500000D01*
G04 #@! TD*
D23*
X0Y76500000D02*
X63500000Y76500000D01*
X63500000Y0D01*
X0Y0D01*
X0Y76500000D01*
M02*
