G04 #@! TF.GenerationSoftware,KiCad,Pcbnew,9.0.0*
G04 #@! TF.CreationDate,2025-03-16T21:41:20+01:00*
G04 #@! TF.ProjectId,lightThermo,6c696768-7454-4686-9572-6d6f2e6b6963,1.0*
G04 #@! TF.SameCoordinates,PX47868c0PY7d687e0*
G04 #@! TF.FileFunction,Legend,Top*
G04 #@! TF.FilePolarity,Positive*
%FSLAX46Y46*%
G04 Gerber Fmt 4.6, Leading zero omitted, Abs format (unit mm)*
G04 Created by KiCad (PCBNEW 9.0.0) date 2025-03-16 21:41:20*
%MOMM*%
%LPD*%
G01*
G04 APERTURE LIST*
%ADD10C,0.100000*%
%ADD11C,0.150000*%
%ADD12C,0.120000*%
G04 #@! TA.AperFunction,Profile*
%ADD13C,0.050000*%
G04 #@! TD*
G04 APERTURE END LIST*
D10*
X420038Y33827694D02*
X372419Y33732456D01*
X372419Y33732456D02*
X372419Y33589599D01*
X372419Y33589599D02*
X420038Y33446742D01*
X420038Y33446742D02*
X515276Y33351504D01*
X515276Y33351504D02*
X610514Y33303885D01*
X610514Y33303885D02*
X800990Y33256266D01*
X800990Y33256266D02*
X943847Y33256266D01*
X943847Y33256266D02*
X1134323Y33303885D01*
X1134323Y33303885D02*
X1229561Y33351504D01*
X1229561Y33351504D02*
X1324800Y33446742D01*
X1324800Y33446742D02*
X1372419Y33589599D01*
X1372419Y33589599D02*
X1372419Y33684837D01*
X1372419Y33684837D02*
X1324800Y33827694D01*
X1324800Y33827694D02*
X1277180Y33875313D01*
X1277180Y33875313D02*
X943847Y33875313D01*
X943847Y33875313D02*
X943847Y33684837D01*
X1372419Y34303885D02*
X372419Y34303885D01*
X372419Y34303885D02*
X1372419Y34875313D01*
X1372419Y34875313D02*
X372419Y34875313D01*
X1372419Y35351504D02*
X372419Y35351504D01*
X372419Y35351504D02*
X372419Y35589599D01*
X372419Y35589599D02*
X420038Y35732456D01*
X420038Y35732456D02*
X515276Y35827694D01*
X515276Y35827694D02*
X610514Y35875313D01*
X610514Y35875313D02*
X800990Y35922932D01*
X800990Y35922932D02*
X943847Y35922932D01*
X943847Y35922932D02*
X1134323Y35875313D01*
X1134323Y35875313D02*
X1229561Y35827694D01*
X1229561Y35827694D02*
X1324800Y35732456D01*
X1324800Y35732456D02*
X1372419Y35589599D01*
X1372419Y35589599D02*
X1372419Y35351504D01*
X18137217Y4151391D02*
X17803884Y4151391D01*
X17803884Y3627581D02*
X17803884Y4627581D01*
X17803884Y4627581D02*
X18280074Y4627581D01*
X19089598Y4294248D02*
X19089598Y3627581D01*
X18661027Y4294248D02*
X18661027Y3770439D01*
X18661027Y3770439D02*
X18708646Y3675200D01*
X18708646Y3675200D02*
X18803884Y3627581D01*
X18803884Y3627581D02*
X18946741Y3627581D01*
X18946741Y3627581D02*
X19041979Y3675200D01*
X19041979Y3675200D02*
X19089598Y3722820D01*
X19565789Y4294248D02*
X19565789Y3627581D01*
X19565789Y4199010D02*
X19613408Y4246629D01*
X19613408Y4246629D02*
X19708646Y4294248D01*
X19708646Y4294248D02*
X19851503Y4294248D01*
X19851503Y4294248D02*
X19946741Y4246629D01*
X19946741Y4246629D02*
X19994360Y4151391D01*
X19994360Y4151391D02*
X19994360Y3627581D01*
X20899122Y3675200D02*
X20803884Y3627581D01*
X20803884Y3627581D02*
X20613408Y3627581D01*
X20613408Y3627581D02*
X20518170Y3675200D01*
X20518170Y3675200D02*
X20470551Y3722820D01*
X20470551Y3722820D02*
X20422932Y3818058D01*
X20422932Y3818058D02*
X20422932Y4103772D01*
X20422932Y4103772D02*
X20470551Y4199010D01*
X20470551Y4199010D02*
X20518170Y4246629D01*
X20518170Y4246629D02*
X20613408Y4294248D01*
X20613408Y4294248D02*
X20803884Y4294248D01*
X20803884Y4294248D02*
X20899122Y4246629D01*
X21184837Y4294248D02*
X21565789Y4294248D01*
X21327694Y4627581D02*
X21327694Y3770439D01*
X21327694Y3770439D02*
X21375313Y3675200D01*
X21375313Y3675200D02*
X21470551Y3627581D01*
X21470551Y3627581D02*
X21565789Y3627581D01*
X21899123Y3627581D02*
X21899123Y4294248D01*
X21899123Y4627581D02*
X21851504Y4579962D01*
X21851504Y4579962D02*
X21899123Y4532343D01*
X21899123Y4532343D02*
X21946742Y4579962D01*
X21946742Y4579962D02*
X21899123Y4627581D01*
X21899123Y4627581D02*
X21899123Y4532343D01*
X22518170Y3627581D02*
X22422932Y3675200D01*
X22422932Y3675200D02*
X22375313Y3722820D01*
X22375313Y3722820D02*
X22327694Y3818058D01*
X22327694Y3818058D02*
X22327694Y4103772D01*
X22327694Y4103772D02*
X22375313Y4199010D01*
X22375313Y4199010D02*
X22422932Y4246629D01*
X22422932Y4246629D02*
X22518170Y4294248D01*
X22518170Y4294248D02*
X22661027Y4294248D01*
X22661027Y4294248D02*
X22756265Y4246629D01*
X22756265Y4246629D02*
X22803884Y4199010D01*
X22803884Y4199010D02*
X22851503Y4103772D01*
X22851503Y4103772D02*
X22851503Y3818058D01*
X22851503Y3818058D02*
X22803884Y3722820D01*
X22803884Y3722820D02*
X22756265Y3675200D01*
X22756265Y3675200D02*
X22661027Y3627581D01*
X22661027Y3627581D02*
X22518170Y3627581D01*
X23280075Y4294248D02*
X23280075Y3627581D01*
X23280075Y4199010D02*
X23327694Y4246629D01*
X23327694Y4246629D02*
X23422932Y4294248D01*
X23422932Y4294248D02*
X23565789Y4294248D01*
X23565789Y4294248D02*
X23661027Y4246629D01*
X23661027Y4246629D02*
X23708646Y4151391D01*
X23708646Y4151391D02*
X23708646Y3627581D01*
X61586704Y41256266D02*
X61586704Y41732456D01*
X61872419Y41161028D02*
X60872419Y41494361D01*
X60872419Y41494361D02*
X61872419Y41827694D01*
X61872419Y42161028D02*
X60872419Y42161028D01*
X60872419Y42161028D02*
X61586704Y42494361D01*
X61586704Y42494361D02*
X60872419Y42827694D01*
X60872419Y42827694D02*
X61872419Y42827694D01*
X60872419Y43494361D02*
X60872419Y43589599D01*
X60872419Y43589599D02*
X60920038Y43684837D01*
X60920038Y43684837D02*
X60967657Y43732456D01*
X60967657Y43732456D02*
X61062895Y43780075D01*
X61062895Y43780075D02*
X61253371Y43827694D01*
X61253371Y43827694D02*
X61491466Y43827694D01*
X61491466Y43827694D02*
X61681942Y43780075D01*
X61681942Y43780075D02*
X61777180Y43732456D01*
X61777180Y43732456D02*
X61824800Y43684837D01*
X61824800Y43684837D02*
X61872419Y43589599D01*
X61872419Y43589599D02*
X61872419Y43494361D01*
X61872419Y43494361D02*
X61824800Y43399123D01*
X61824800Y43399123D02*
X61777180Y43351504D01*
X61777180Y43351504D02*
X61681942Y43303885D01*
X61681942Y43303885D02*
X61491466Y43256266D01*
X61491466Y43256266D02*
X61253371Y43256266D01*
X61253371Y43256266D02*
X61062895Y43303885D01*
X61062895Y43303885D02*
X60967657Y43351504D01*
X60967657Y43351504D02*
X60920038Y43399123D01*
X60920038Y43399123D02*
X60872419Y43494361D01*
X60872419Y44446742D02*
X60872419Y44541980D01*
X60872419Y44541980D02*
X60920038Y44637218D01*
X60920038Y44637218D02*
X60967657Y44684837D01*
X60967657Y44684837D02*
X61062895Y44732456D01*
X61062895Y44732456D02*
X61253371Y44780075D01*
X61253371Y44780075D02*
X61491466Y44780075D01*
X61491466Y44780075D02*
X61681942Y44732456D01*
X61681942Y44732456D02*
X61777180Y44684837D01*
X61777180Y44684837D02*
X61824800Y44637218D01*
X61824800Y44637218D02*
X61872419Y44541980D01*
X61872419Y44541980D02*
X61872419Y44446742D01*
X61872419Y44446742D02*
X61824800Y44351504D01*
X61824800Y44351504D02*
X61777180Y44303885D01*
X61777180Y44303885D02*
X61681942Y44256266D01*
X61681942Y44256266D02*
X61491466Y44208647D01*
X61491466Y44208647D02*
X61253371Y44208647D01*
X61253371Y44208647D02*
X61062895Y44256266D01*
X61062895Y44256266D02*
X60967657Y44303885D01*
X60967657Y44303885D02*
X60920038Y44351504D01*
X60920038Y44351504D02*
X60872419Y44446742D01*
X60967657Y45161028D02*
X60920038Y45208647D01*
X60920038Y45208647D02*
X60872419Y45303885D01*
X60872419Y45303885D02*
X60872419Y45541980D01*
X60872419Y45541980D02*
X60920038Y45637218D01*
X60920038Y45637218D02*
X60967657Y45684837D01*
X60967657Y45684837D02*
X61062895Y45732456D01*
X61062895Y45732456D02*
X61158133Y45732456D01*
X61158133Y45732456D02*
X61300990Y45684837D01*
X61300990Y45684837D02*
X61872419Y45113409D01*
X61872419Y45113409D02*
X61872419Y45732456D01*
X17394360Y75127581D02*
X17584836Y75127581D01*
X17584836Y75127581D02*
X17680074Y75079962D01*
X17680074Y75079962D02*
X17775312Y74984724D01*
X17775312Y74984724D02*
X17822931Y74794248D01*
X17822931Y74794248D02*
X17822931Y74460915D01*
X17822931Y74460915D02*
X17775312Y74270439D01*
X17775312Y74270439D02*
X17680074Y74175200D01*
X17680074Y74175200D02*
X17584836Y74127581D01*
X17584836Y74127581D02*
X17394360Y74127581D01*
X17394360Y74127581D02*
X17299122Y74175200D01*
X17299122Y74175200D02*
X17203884Y74270439D01*
X17203884Y74270439D02*
X17156265Y74460915D01*
X17156265Y74460915D02*
X17156265Y74794248D01*
X17156265Y74794248D02*
X17203884Y74984724D01*
X17203884Y74984724D02*
X17299122Y75079962D01*
X17299122Y75079962D02*
X17394360Y75127581D01*
X18251503Y74127581D02*
X18251503Y75127581D01*
X18251503Y75127581D02*
X18822931Y74127581D01*
X18822931Y74127581D02*
X18822931Y75127581D01*
X372419Y53661028D02*
X372419Y54232456D01*
X1372419Y53946742D02*
X372419Y53946742D01*
X372419Y54470552D02*
X1372419Y55137218D01*
X372419Y55137218D02*
X1372419Y54470552D01*
X1372419Y57875313D02*
X896228Y57541980D01*
X1372419Y57303885D02*
X372419Y57303885D01*
X372419Y57303885D02*
X372419Y57684837D01*
X372419Y57684837D02*
X420038Y57780075D01*
X420038Y57780075D02*
X467657Y57827694D01*
X467657Y57827694D02*
X562895Y57875313D01*
X562895Y57875313D02*
X705752Y57875313D01*
X705752Y57875313D02*
X800990Y57827694D01*
X800990Y57827694D02*
X848609Y57780075D01*
X848609Y57780075D02*
X896228Y57684837D01*
X896228Y57684837D02*
X896228Y57303885D01*
X372419Y58208647D02*
X1372419Y58875313D01*
X372419Y58875313D02*
X1372419Y58208647D01*
X991466Y38303885D02*
X991466Y39065789D01*
X1372419Y38684837D02*
X610514Y38684837D01*
X372419Y40018170D02*
X372419Y39541980D01*
X372419Y39541980D02*
X848609Y39494361D01*
X848609Y39494361D02*
X800990Y39541980D01*
X800990Y39541980D02*
X753371Y39637218D01*
X753371Y39637218D02*
X753371Y39875313D01*
X753371Y39875313D02*
X800990Y39970551D01*
X800990Y39970551D02*
X848609Y40018170D01*
X848609Y40018170D02*
X943847Y40065789D01*
X943847Y40065789D02*
X1181942Y40065789D01*
X1181942Y40065789D02*
X1277180Y40018170D01*
X1277180Y40018170D02*
X1324800Y39970551D01*
X1324800Y39970551D02*
X1372419Y39875313D01*
X1372419Y39875313D02*
X1372419Y39637218D01*
X1372419Y39637218D02*
X1324800Y39541980D01*
X1324800Y39541980D02*
X1277180Y39494361D01*
X372419Y40351504D02*
X1372419Y40684837D01*
X1372419Y40684837D02*
X372419Y41018170D01*
X61777180Y47875313D02*
X61824800Y47827694D01*
X61824800Y47827694D02*
X61872419Y47684837D01*
X61872419Y47684837D02*
X61872419Y47589599D01*
X61872419Y47589599D02*
X61824800Y47446742D01*
X61824800Y47446742D02*
X61729561Y47351504D01*
X61729561Y47351504D02*
X61634323Y47303885D01*
X61634323Y47303885D02*
X61443847Y47256266D01*
X61443847Y47256266D02*
X61300990Y47256266D01*
X61300990Y47256266D02*
X61110514Y47303885D01*
X61110514Y47303885D02*
X61015276Y47351504D01*
X61015276Y47351504D02*
X60920038Y47446742D01*
X60920038Y47446742D02*
X60872419Y47589599D01*
X60872419Y47589599D02*
X60872419Y47684837D01*
X60872419Y47684837D02*
X60920038Y47827694D01*
X60920038Y47827694D02*
X60967657Y47875313D01*
X61872419Y48732456D02*
X61348609Y48732456D01*
X61348609Y48732456D02*
X61253371Y48684837D01*
X61253371Y48684837D02*
X61205752Y48589599D01*
X61205752Y48589599D02*
X61205752Y48399123D01*
X61205752Y48399123D02*
X61253371Y48303885D01*
X61824800Y48732456D02*
X61872419Y48637218D01*
X61872419Y48637218D02*
X61872419Y48399123D01*
X61872419Y48399123D02*
X61824800Y48303885D01*
X61824800Y48303885D02*
X61729561Y48256266D01*
X61729561Y48256266D02*
X61634323Y48256266D01*
X61634323Y48256266D02*
X61539085Y48303885D01*
X61539085Y48303885D02*
X61491466Y48399123D01*
X61491466Y48399123D02*
X61491466Y48637218D01*
X61491466Y48637218D02*
X61443847Y48732456D01*
X61872419Y49208647D02*
X61205752Y49208647D01*
X61396228Y49208647D02*
X61300990Y49256266D01*
X61300990Y49256266D02*
X61253371Y49303885D01*
X61253371Y49303885D02*
X61205752Y49399123D01*
X61205752Y49399123D02*
X61205752Y49494361D01*
X61872419Y49827695D02*
X61205752Y49827695D01*
X61396228Y49827695D02*
X61300990Y49875314D01*
X61300990Y49875314D02*
X61253371Y49922933D01*
X61253371Y49922933D02*
X61205752Y50018171D01*
X61205752Y50018171D02*
X61205752Y50113409D01*
X61872419Y50446743D02*
X61205752Y50446743D01*
X60872419Y50446743D02*
X60920038Y50399124D01*
X60920038Y50399124D02*
X60967657Y50446743D01*
X60967657Y50446743D02*
X60920038Y50494362D01*
X60920038Y50494362D02*
X60872419Y50446743D01*
X60872419Y50446743D02*
X60967657Y50446743D01*
X61824800Y51303885D02*
X61872419Y51208647D01*
X61872419Y51208647D02*
X61872419Y51018171D01*
X61872419Y51018171D02*
X61824800Y50922933D01*
X61824800Y50922933D02*
X61729561Y50875314D01*
X61729561Y50875314D02*
X61348609Y50875314D01*
X61348609Y50875314D02*
X61253371Y50922933D01*
X61253371Y50922933D02*
X61205752Y51018171D01*
X61205752Y51018171D02*
X61205752Y51208647D01*
X61205752Y51208647D02*
X61253371Y51303885D01*
X61253371Y51303885D02*
X61348609Y51351504D01*
X61348609Y51351504D02*
X61443847Y51351504D01*
X61443847Y51351504D02*
X61539085Y50875314D01*
X61872419Y51780076D02*
X61205752Y51780076D01*
X61396228Y51780076D02*
X61300990Y51827695D01*
X61300990Y51827695D02*
X61253371Y51875314D01*
X61253371Y51875314D02*
X61205752Y51970552D01*
X61205752Y51970552D02*
X61205752Y52065790D01*
X61205752Y53018172D02*
X61205752Y53399124D01*
X61872419Y53161029D02*
X61015276Y53161029D01*
X61015276Y53161029D02*
X60920038Y53208648D01*
X60920038Y53208648D02*
X60872419Y53303886D01*
X60872419Y53303886D02*
X60872419Y53399124D01*
X61872419Y53875315D02*
X61824800Y53780077D01*
X61824800Y53780077D02*
X61777180Y53732458D01*
X61777180Y53732458D02*
X61681942Y53684839D01*
X61681942Y53684839D02*
X61396228Y53684839D01*
X61396228Y53684839D02*
X61300990Y53732458D01*
X61300990Y53732458D02*
X61253371Y53780077D01*
X61253371Y53780077D02*
X61205752Y53875315D01*
X61205752Y53875315D02*
X61205752Y54018172D01*
X61205752Y54018172D02*
X61253371Y54113410D01*
X61253371Y54113410D02*
X61300990Y54161029D01*
X61300990Y54161029D02*
X61396228Y54208648D01*
X61396228Y54208648D02*
X61681942Y54208648D01*
X61681942Y54208648D02*
X61777180Y54161029D01*
X61777180Y54161029D02*
X61824800Y54113410D01*
X61824800Y54113410D02*
X61872419Y54018172D01*
X61872419Y54018172D02*
X61872419Y53875315D01*
X61872419Y54637220D02*
X61205752Y54637220D01*
X61396228Y54637220D02*
X61300990Y54684839D01*
X61300990Y54684839D02*
X61253371Y54732458D01*
X61253371Y54732458D02*
X61205752Y54827696D01*
X61205752Y54827696D02*
X61205752Y54922934D01*
X61872419Y56494363D02*
X61872419Y56018173D01*
X61872419Y56018173D02*
X60872419Y56018173D01*
X61872419Y56827697D02*
X61205752Y56827697D01*
X60872419Y56827697D02*
X60920038Y56780078D01*
X60920038Y56780078D02*
X60967657Y56827697D01*
X60967657Y56827697D02*
X60920038Y56875316D01*
X60920038Y56875316D02*
X60872419Y56827697D01*
X60872419Y56827697D02*
X60967657Y56827697D01*
X61205752Y57732458D02*
X62015276Y57732458D01*
X62015276Y57732458D02*
X62110514Y57684839D01*
X62110514Y57684839D02*
X62158133Y57637220D01*
X62158133Y57637220D02*
X62205752Y57541982D01*
X62205752Y57541982D02*
X62205752Y57399125D01*
X62205752Y57399125D02*
X62158133Y57303887D01*
X61824800Y57732458D02*
X61872419Y57637220D01*
X61872419Y57637220D02*
X61872419Y57446744D01*
X61872419Y57446744D02*
X61824800Y57351506D01*
X61824800Y57351506D02*
X61777180Y57303887D01*
X61777180Y57303887D02*
X61681942Y57256268D01*
X61681942Y57256268D02*
X61396228Y57256268D01*
X61396228Y57256268D02*
X61300990Y57303887D01*
X61300990Y57303887D02*
X61253371Y57351506D01*
X61253371Y57351506D02*
X61205752Y57446744D01*
X61205752Y57446744D02*
X61205752Y57637220D01*
X61205752Y57637220D02*
X61253371Y57732458D01*
X61872419Y58208649D02*
X60872419Y58208649D01*
X61872419Y58637220D02*
X61348609Y58637220D01*
X61348609Y58637220D02*
X61253371Y58589601D01*
X61253371Y58589601D02*
X61205752Y58494363D01*
X61205752Y58494363D02*
X61205752Y58351506D01*
X61205752Y58351506D02*
X61253371Y58256268D01*
X61253371Y58256268D02*
X61300990Y58208649D01*
X61205752Y58970554D02*
X61205752Y59351506D01*
X60872419Y59113411D02*
X61729561Y59113411D01*
X61729561Y59113411D02*
X61824800Y59161030D01*
X61824800Y59161030D02*
X61872419Y59256268D01*
X61872419Y59256268D02*
X61872419Y59351506D01*
X60872419Y59541983D02*
X60872419Y60113411D01*
X61872419Y59827697D02*
X60872419Y59827697D01*
X61872419Y60446745D02*
X60872419Y60446745D01*
X61872419Y60875316D02*
X61348609Y60875316D01*
X61348609Y60875316D02*
X61253371Y60827697D01*
X61253371Y60827697D02*
X61205752Y60732459D01*
X61205752Y60732459D02*
X61205752Y60589602D01*
X61205752Y60589602D02*
X61253371Y60494364D01*
X61253371Y60494364D02*
X61300990Y60446745D01*
X61824800Y61732459D02*
X61872419Y61637221D01*
X61872419Y61637221D02*
X61872419Y61446745D01*
X61872419Y61446745D02*
X61824800Y61351507D01*
X61824800Y61351507D02*
X61729561Y61303888D01*
X61729561Y61303888D02*
X61348609Y61303888D01*
X61348609Y61303888D02*
X61253371Y61351507D01*
X61253371Y61351507D02*
X61205752Y61446745D01*
X61205752Y61446745D02*
X61205752Y61637221D01*
X61205752Y61637221D02*
X61253371Y61732459D01*
X61253371Y61732459D02*
X61348609Y61780078D01*
X61348609Y61780078D02*
X61443847Y61780078D01*
X61443847Y61780078D02*
X61539085Y61303888D01*
X61872419Y62208650D02*
X61205752Y62208650D01*
X61396228Y62208650D02*
X61300990Y62256269D01*
X61300990Y62256269D02*
X61253371Y62303888D01*
X61253371Y62303888D02*
X61205752Y62399126D01*
X61205752Y62399126D02*
X61205752Y62494364D01*
X61872419Y62827698D02*
X61205752Y62827698D01*
X61300990Y62827698D02*
X61253371Y62875317D01*
X61253371Y62875317D02*
X61205752Y62970555D01*
X61205752Y62970555D02*
X61205752Y63113412D01*
X61205752Y63113412D02*
X61253371Y63208650D01*
X61253371Y63208650D02*
X61348609Y63256269D01*
X61348609Y63256269D02*
X61872419Y63256269D01*
X61348609Y63256269D02*
X61253371Y63303888D01*
X61253371Y63303888D02*
X61205752Y63399126D01*
X61205752Y63399126D02*
X61205752Y63541983D01*
X61205752Y63541983D02*
X61253371Y63637222D01*
X61253371Y63637222D02*
X61348609Y63684841D01*
X61348609Y63684841D02*
X61872419Y63684841D01*
X61872419Y64303888D02*
X61824800Y64208650D01*
X61824800Y64208650D02*
X61777180Y64161031D01*
X61777180Y64161031D02*
X61681942Y64113412D01*
X61681942Y64113412D02*
X61396228Y64113412D01*
X61396228Y64113412D02*
X61300990Y64161031D01*
X61300990Y64161031D02*
X61253371Y64208650D01*
X61253371Y64208650D02*
X61205752Y64303888D01*
X61205752Y64303888D02*
X61205752Y64446745D01*
X61205752Y64446745D02*
X61253371Y64541983D01*
X61253371Y64541983D02*
X61300990Y64589602D01*
X61300990Y64589602D02*
X61396228Y64637221D01*
X61396228Y64637221D02*
X61681942Y64637221D01*
X61681942Y64637221D02*
X61777180Y64589602D01*
X61777180Y64589602D02*
X61824800Y64541983D01*
X61824800Y64541983D02*
X61872419Y64446745D01*
X61872419Y64446745D02*
X61872419Y64303888D01*
X52872419Y53353885D02*
X51872419Y53353885D01*
X51872419Y53353885D02*
X52586704Y53687218D01*
X52586704Y53687218D02*
X51872419Y54020551D01*
X51872419Y54020551D02*
X52872419Y54020551D01*
X52824800Y54877694D02*
X52872419Y54782456D01*
X52872419Y54782456D02*
X52872419Y54591980D01*
X52872419Y54591980D02*
X52824800Y54496742D01*
X52824800Y54496742D02*
X52729561Y54449123D01*
X52729561Y54449123D02*
X52348609Y54449123D01*
X52348609Y54449123D02*
X52253371Y54496742D01*
X52253371Y54496742D02*
X52205752Y54591980D01*
X52205752Y54591980D02*
X52205752Y54782456D01*
X52205752Y54782456D02*
X52253371Y54877694D01*
X52253371Y54877694D02*
X52348609Y54925313D01*
X52348609Y54925313D02*
X52443847Y54925313D01*
X52443847Y54925313D02*
X52539085Y54449123D01*
X52872419Y55353885D02*
X52205752Y55353885D01*
X52300990Y55353885D02*
X52253371Y55401504D01*
X52253371Y55401504D02*
X52205752Y55496742D01*
X52205752Y55496742D02*
X52205752Y55639599D01*
X52205752Y55639599D02*
X52253371Y55734837D01*
X52253371Y55734837D02*
X52348609Y55782456D01*
X52348609Y55782456D02*
X52872419Y55782456D01*
X52348609Y55782456D02*
X52253371Y55830075D01*
X52253371Y55830075D02*
X52205752Y55925313D01*
X52205752Y55925313D02*
X52205752Y56068170D01*
X52205752Y56068170D02*
X52253371Y56163409D01*
X52253371Y56163409D02*
X52348609Y56211028D01*
X52348609Y56211028D02*
X52872419Y56211028D01*
X52872419Y56830075D02*
X52824800Y56734837D01*
X52824800Y56734837D02*
X52777180Y56687218D01*
X52777180Y56687218D02*
X52681942Y56639599D01*
X52681942Y56639599D02*
X52396228Y56639599D01*
X52396228Y56639599D02*
X52300990Y56687218D01*
X52300990Y56687218D02*
X52253371Y56734837D01*
X52253371Y56734837D02*
X52205752Y56830075D01*
X52205752Y56830075D02*
X52205752Y56972932D01*
X52205752Y56972932D02*
X52253371Y57068170D01*
X52253371Y57068170D02*
X52300990Y57115789D01*
X52300990Y57115789D02*
X52396228Y57163408D01*
X52396228Y57163408D02*
X52681942Y57163408D01*
X52681942Y57163408D02*
X52777180Y57115789D01*
X52777180Y57115789D02*
X52824800Y57068170D01*
X52824800Y57068170D02*
X52872419Y56972932D01*
X52872419Y56972932D02*
X52872419Y56830075D01*
X52872419Y57591980D02*
X52205752Y57591980D01*
X52396228Y57591980D02*
X52300990Y57639599D01*
X52300990Y57639599D02*
X52253371Y57687218D01*
X52253371Y57687218D02*
X52205752Y57782456D01*
X52205752Y57782456D02*
X52205752Y57877694D01*
X52205752Y58115790D02*
X52872419Y58353885D01*
X52205752Y58591980D02*
X52872419Y58353885D01*
X52872419Y58353885D02*
X53110514Y58258647D01*
X53110514Y58258647D02*
X53158133Y58211028D01*
X53158133Y58211028D02*
X53205752Y58115790D01*
X51872419Y59925314D02*
X51872419Y60115790D01*
X51872419Y60115790D02*
X51920038Y60211028D01*
X51920038Y60211028D02*
X52015276Y60306266D01*
X52015276Y60306266D02*
X52205752Y60353885D01*
X52205752Y60353885D02*
X52539085Y60353885D01*
X52539085Y60353885D02*
X52729561Y60306266D01*
X52729561Y60306266D02*
X52824800Y60211028D01*
X52824800Y60211028D02*
X52872419Y60115790D01*
X52872419Y60115790D02*
X52872419Y59925314D01*
X52872419Y59925314D02*
X52824800Y59830076D01*
X52824800Y59830076D02*
X52729561Y59734838D01*
X52729561Y59734838D02*
X52539085Y59687219D01*
X52539085Y59687219D02*
X52205752Y59687219D01*
X52205752Y59687219D02*
X52015276Y59734838D01*
X52015276Y59734838D02*
X51920038Y59830076D01*
X51920038Y59830076D02*
X51872419Y59925314D01*
X52205752Y60782457D02*
X53205752Y60782457D01*
X52253371Y60782457D02*
X52205752Y60877695D01*
X52205752Y60877695D02*
X52205752Y61068171D01*
X52205752Y61068171D02*
X52253371Y61163409D01*
X52253371Y61163409D02*
X52300990Y61211028D01*
X52300990Y61211028D02*
X52396228Y61258647D01*
X52396228Y61258647D02*
X52681942Y61258647D01*
X52681942Y61258647D02*
X52777180Y61211028D01*
X52777180Y61211028D02*
X52824800Y61163409D01*
X52824800Y61163409D02*
X52872419Y61068171D01*
X52872419Y61068171D02*
X52872419Y60877695D01*
X52872419Y60877695D02*
X52824800Y60782457D01*
X52205752Y61544362D02*
X52205752Y61925314D01*
X51872419Y61687219D02*
X52729561Y61687219D01*
X52729561Y61687219D02*
X52824800Y61734838D01*
X52824800Y61734838D02*
X52872419Y61830076D01*
X52872419Y61830076D02*
X52872419Y61925314D01*
X52872419Y62258648D02*
X52205752Y62258648D01*
X51872419Y62258648D02*
X51920038Y62211029D01*
X51920038Y62211029D02*
X51967657Y62258648D01*
X51967657Y62258648D02*
X51920038Y62306267D01*
X51920038Y62306267D02*
X51872419Y62258648D01*
X51872419Y62258648D02*
X51967657Y62258648D01*
X52872419Y62877695D02*
X52824800Y62782457D01*
X52824800Y62782457D02*
X52777180Y62734838D01*
X52777180Y62734838D02*
X52681942Y62687219D01*
X52681942Y62687219D02*
X52396228Y62687219D01*
X52396228Y62687219D02*
X52300990Y62734838D01*
X52300990Y62734838D02*
X52253371Y62782457D01*
X52253371Y62782457D02*
X52205752Y62877695D01*
X52205752Y62877695D02*
X52205752Y63020552D01*
X52205752Y63020552D02*
X52253371Y63115790D01*
X52253371Y63115790D02*
X52300990Y63163409D01*
X52300990Y63163409D02*
X52396228Y63211028D01*
X52396228Y63211028D02*
X52681942Y63211028D01*
X52681942Y63211028D02*
X52777180Y63163409D01*
X52777180Y63163409D02*
X52824800Y63115790D01*
X52824800Y63115790D02*
X52872419Y63020552D01*
X52872419Y63020552D02*
X52872419Y62877695D01*
X52205752Y63639600D02*
X52872419Y63639600D01*
X52300990Y63639600D02*
X52253371Y63687219D01*
X52253371Y63687219D02*
X52205752Y63782457D01*
X52205752Y63782457D02*
X52205752Y63925314D01*
X52205752Y63925314D02*
X52253371Y64020552D01*
X52253371Y64020552D02*
X52348609Y64068171D01*
X52348609Y64068171D02*
X52872419Y64068171D01*
X2872419Y16661028D02*
X2872419Y17232456D01*
X3872419Y16946742D02*
X2872419Y16946742D01*
X2824800Y18280075D02*
X4110514Y17422933D01*
X3872419Y18613409D02*
X2872419Y18613409D01*
X3348609Y18613409D02*
X3348609Y19184837D01*
X3872419Y19184837D02*
X2872419Y19184837D01*
X3824800Y20375314D02*
X3872419Y20518171D01*
X3872419Y20518171D02*
X3872419Y20756266D01*
X3872419Y20756266D02*
X3824800Y20851504D01*
X3824800Y20851504D02*
X3777180Y20899123D01*
X3777180Y20899123D02*
X3681942Y20946742D01*
X3681942Y20946742D02*
X3586704Y20946742D01*
X3586704Y20946742D02*
X3491466Y20899123D01*
X3491466Y20899123D02*
X3443847Y20851504D01*
X3443847Y20851504D02*
X3396228Y20756266D01*
X3396228Y20756266D02*
X3348609Y20565790D01*
X3348609Y20565790D02*
X3300990Y20470552D01*
X3300990Y20470552D02*
X3253371Y20422933D01*
X3253371Y20422933D02*
X3158133Y20375314D01*
X3158133Y20375314D02*
X3062895Y20375314D01*
X3062895Y20375314D02*
X2967657Y20422933D01*
X2967657Y20422933D02*
X2920038Y20470552D01*
X2920038Y20470552D02*
X2872419Y20565790D01*
X2872419Y20565790D02*
X2872419Y20803885D01*
X2872419Y20803885D02*
X2920038Y20946742D01*
X3824800Y21756266D02*
X3872419Y21661028D01*
X3872419Y21661028D02*
X3872419Y21470552D01*
X3872419Y21470552D02*
X3824800Y21375314D01*
X3824800Y21375314D02*
X3729561Y21327695D01*
X3729561Y21327695D02*
X3348609Y21327695D01*
X3348609Y21327695D02*
X3253371Y21375314D01*
X3253371Y21375314D02*
X3205752Y21470552D01*
X3205752Y21470552D02*
X3205752Y21661028D01*
X3205752Y21661028D02*
X3253371Y21756266D01*
X3253371Y21756266D02*
X3348609Y21803885D01*
X3348609Y21803885D02*
X3443847Y21803885D01*
X3443847Y21803885D02*
X3539085Y21327695D01*
X3205752Y22232457D02*
X3872419Y22232457D01*
X3300990Y22232457D02*
X3253371Y22280076D01*
X3253371Y22280076D02*
X3205752Y22375314D01*
X3205752Y22375314D02*
X3205752Y22518171D01*
X3205752Y22518171D02*
X3253371Y22613409D01*
X3253371Y22613409D02*
X3348609Y22661028D01*
X3348609Y22661028D02*
X3872419Y22661028D01*
X3824800Y23089600D02*
X3872419Y23184838D01*
X3872419Y23184838D02*
X3872419Y23375314D01*
X3872419Y23375314D02*
X3824800Y23470552D01*
X3824800Y23470552D02*
X3729561Y23518171D01*
X3729561Y23518171D02*
X3681942Y23518171D01*
X3681942Y23518171D02*
X3586704Y23470552D01*
X3586704Y23470552D02*
X3539085Y23375314D01*
X3539085Y23375314D02*
X3539085Y23232457D01*
X3539085Y23232457D02*
X3491466Y23137219D01*
X3491466Y23137219D02*
X3396228Y23089600D01*
X3396228Y23089600D02*
X3348609Y23089600D01*
X3348609Y23089600D02*
X3253371Y23137219D01*
X3253371Y23137219D02*
X3205752Y23232457D01*
X3205752Y23232457D02*
X3205752Y23375314D01*
X3205752Y23375314D02*
X3253371Y23470552D01*
X3872419Y24089600D02*
X3824800Y23994362D01*
X3824800Y23994362D02*
X3777180Y23946743D01*
X3777180Y23946743D02*
X3681942Y23899124D01*
X3681942Y23899124D02*
X3396228Y23899124D01*
X3396228Y23899124D02*
X3300990Y23946743D01*
X3300990Y23946743D02*
X3253371Y23994362D01*
X3253371Y23994362D02*
X3205752Y24089600D01*
X3205752Y24089600D02*
X3205752Y24232457D01*
X3205752Y24232457D02*
X3253371Y24327695D01*
X3253371Y24327695D02*
X3300990Y24375314D01*
X3300990Y24375314D02*
X3396228Y24422933D01*
X3396228Y24422933D02*
X3681942Y24422933D01*
X3681942Y24422933D02*
X3777180Y24375314D01*
X3777180Y24375314D02*
X3824800Y24327695D01*
X3824800Y24327695D02*
X3872419Y24232457D01*
X3872419Y24232457D02*
X3872419Y24089600D01*
X3872419Y24851505D02*
X3205752Y24851505D01*
X3396228Y24851505D02*
X3300990Y24899124D01*
X3300990Y24899124D02*
X3253371Y24946743D01*
X3253371Y24946743D02*
X3205752Y25041981D01*
X3205752Y25041981D02*
X3205752Y25137219D01*
X420038Y43827694D02*
X372419Y43732456D01*
X372419Y43732456D02*
X372419Y43589599D01*
X372419Y43589599D02*
X420038Y43446742D01*
X420038Y43446742D02*
X515276Y43351504D01*
X515276Y43351504D02*
X610514Y43303885D01*
X610514Y43303885D02*
X800990Y43256266D01*
X800990Y43256266D02*
X943847Y43256266D01*
X943847Y43256266D02*
X1134323Y43303885D01*
X1134323Y43303885D02*
X1229561Y43351504D01*
X1229561Y43351504D02*
X1324800Y43446742D01*
X1324800Y43446742D02*
X1372419Y43589599D01*
X1372419Y43589599D02*
X1372419Y43684837D01*
X1372419Y43684837D02*
X1324800Y43827694D01*
X1324800Y43827694D02*
X1277180Y43875313D01*
X1277180Y43875313D02*
X943847Y43875313D01*
X943847Y43875313D02*
X943847Y43684837D01*
X1372419Y44303885D02*
X372419Y44303885D01*
X372419Y44303885D02*
X1372419Y44875313D01*
X1372419Y44875313D02*
X372419Y44875313D01*
X1372419Y45351504D02*
X372419Y45351504D01*
X372419Y45351504D02*
X372419Y45589599D01*
X372419Y45589599D02*
X420038Y45732456D01*
X420038Y45732456D02*
X515276Y45827694D01*
X515276Y45827694D02*
X610514Y45875313D01*
X610514Y45875313D02*
X800990Y45922932D01*
X800990Y45922932D02*
X943847Y45922932D01*
X943847Y45922932D02*
X1134323Y45875313D01*
X1134323Y45875313D02*
X1229561Y45827694D01*
X1229561Y45827694D02*
X1324800Y45732456D01*
X1324800Y45732456D02*
X1372419Y45589599D01*
X1372419Y45589599D02*
X1372419Y45351504D01*
X420038Y48827694D02*
X372419Y48732456D01*
X372419Y48732456D02*
X372419Y48589599D01*
X372419Y48589599D02*
X420038Y48446742D01*
X420038Y48446742D02*
X515276Y48351504D01*
X515276Y48351504D02*
X610514Y48303885D01*
X610514Y48303885D02*
X800990Y48256266D01*
X800990Y48256266D02*
X943847Y48256266D01*
X943847Y48256266D02*
X1134323Y48303885D01*
X1134323Y48303885D02*
X1229561Y48351504D01*
X1229561Y48351504D02*
X1324800Y48446742D01*
X1324800Y48446742D02*
X1372419Y48589599D01*
X1372419Y48589599D02*
X1372419Y48684837D01*
X1372419Y48684837D02*
X1324800Y48827694D01*
X1324800Y48827694D02*
X1277180Y48875313D01*
X1277180Y48875313D02*
X943847Y48875313D01*
X943847Y48875313D02*
X943847Y48684837D01*
X1372419Y49303885D02*
X372419Y49303885D01*
X372419Y49303885D02*
X1372419Y49875313D01*
X1372419Y49875313D02*
X372419Y49875313D01*
X1372419Y50351504D02*
X372419Y50351504D01*
X372419Y50351504D02*
X372419Y50589599D01*
X372419Y50589599D02*
X420038Y50732456D01*
X420038Y50732456D02*
X515276Y50827694D01*
X515276Y50827694D02*
X610514Y50875313D01*
X610514Y50875313D02*
X800990Y50922932D01*
X800990Y50922932D02*
X943847Y50922932D01*
X943847Y50922932D02*
X1134323Y50875313D01*
X1134323Y50875313D02*
X1229561Y50827694D01*
X1229561Y50827694D02*
X1324800Y50732456D01*
X1324800Y50732456D02*
X1372419Y50589599D01*
X1372419Y50589599D02*
X1372419Y50351504D01*
X23375312Y64627581D02*
X23041979Y65103772D01*
X22803884Y64627581D02*
X22803884Y65627581D01*
X22803884Y65627581D02*
X23184836Y65627581D01*
X23184836Y65627581D02*
X23280074Y65579962D01*
X23280074Y65579962D02*
X23327693Y65532343D01*
X23327693Y65532343D02*
X23375312Y65437105D01*
X23375312Y65437105D02*
X23375312Y65294248D01*
X23375312Y65294248D02*
X23327693Y65199010D01*
X23327693Y65199010D02*
X23280074Y65151391D01*
X23280074Y65151391D02*
X23184836Y65103772D01*
X23184836Y65103772D02*
X22803884Y65103772D01*
X24232455Y64627581D02*
X24232455Y65151391D01*
X24232455Y65151391D02*
X24184836Y65246629D01*
X24184836Y65246629D02*
X24089598Y65294248D01*
X24089598Y65294248D02*
X23899122Y65294248D01*
X23899122Y65294248D02*
X23803884Y65246629D01*
X24232455Y64675200D02*
X24137217Y64627581D01*
X24137217Y64627581D02*
X23899122Y64627581D01*
X23899122Y64627581D02*
X23803884Y64675200D01*
X23803884Y64675200D02*
X23756265Y64770439D01*
X23756265Y64770439D02*
X23756265Y64865677D01*
X23756265Y64865677D02*
X23803884Y64960915D01*
X23803884Y64960915D02*
X23899122Y65008534D01*
X23899122Y65008534D02*
X24137217Y65008534D01*
X24137217Y65008534D02*
X24232455Y65056153D01*
X24661027Y64675200D02*
X24756265Y64627581D01*
X24756265Y64627581D02*
X24946741Y64627581D01*
X24946741Y64627581D02*
X25041979Y64675200D01*
X25041979Y64675200D02*
X25089598Y64770439D01*
X25089598Y64770439D02*
X25089598Y64818058D01*
X25089598Y64818058D02*
X25041979Y64913296D01*
X25041979Y64913296D02*
X24946741Y64960915D01*
X24946741Y64960915D02*
X24803884Y64960915D01*
X24803884Y64960915D02*
X24708646Y65008534D01*
X24708646Y65008534D02*
X24661027Y65103772D01*
X24661027Y65103772D02*
X24661027Y65151391D01*
X24661027Y65151391D02*
X24708646Y65246629D01*
X24708646Y65246629D02*
X24803884Y65294248D01*
X24803884Y65294248D02*
X24946741Y65294248D01*
X24946741Y65294248D02*
X25041979Y65246629D01*
X25518170Y65294248D02*
X25518170Y64294248D01*
X25518170Y65246629D02*
X25613408Y65294248D01*
X25613408Y65294248D02*
X25803884Y65294248D01*
X25803884Y65294248D02*
X25899122Y65246629D01*
X25899122Y65246629D02*
X25946741Y65199010D01*
X25946741Y65199010D02*
X25994360Y65103772D01*
X25994360Y65103772D02*
X25994360Y64818058D01*
X25994360Y64818058D02*
X25946741Y64722820D01*
X25946741Y64722820D02*
X25899122Y64675200D01*
X25899122Y64675200D02*
X25803884Y64627581D01*
X25803884Y64627581D02*
X25613408Y64627581D01*
X25613408Y64627581D02*
X25518170Y64675200D01*
X26422932Y64627581D02*
X26422932Y65627581D01*
X26422932Y65246629D02*
X26518170Y65294248D01*
X26518170Y65294248D02*
X26708646Y65294248D01*
X26708646Y65294248D02*
X26803884Y65246629D01*
X26803884Y65246629D02*
X26851503Y65199010D01*
X26851503Y65199010D02*
X26899122Y65103772D01*
X26899122Y65103772D02*
X26899122Y64818058D01*
X26899122Y64818058D02*
X26851503Y64722820D01*
X26851503Y64722820D02*
X26803884Y64675200D01*
X26803884Y64675200D02*
X26708646Y64627581D01*
X26708646Y64627581D02*
X26518170Y64627581D01*
X26518170Y64627581D02*
X26422932Y64675200D01*
X27708646Y64675200D02*
X27613408Y64627581D01*
X27613408Y64627581D02*
X27422932Y64627581D01*
X27422932Y64627581D02*
X27327694Y64675200D01*
X27327694Y64675200D02*
X27280075Y64770439D01*
X27280075Y64770439D02*
X27280075Y65151391D01*
X27280075Y65151391D02*
X27327694Y65246629D01*
X27327694Y65246629D02*
X27422932Y65294248D01*
X27422932Y65294248D02*
X27613408Y65294248D01*
X27613408Y65294248D02*
X27708646Y65246629D01*
X27708646Y65246629D02*
X27756265Y65151391D01*
X27756265Y65151391D02*
X27756265Y65056153D01*
X27756265Y65056153D02*
X27280075Y64960915D01*
X28184837Y64627581D02*
X28184837Y65294248D01*
X28184837Y65103772D02*
X28232456Y65199010D01*
X28232456Y65199010D02*
X28280075Y65246629D01*
X28280075Y65246629D02*
X28375313Y65294248D01*
X28375313Y65294248D02*
X28470551Y65294248D01*
X28803885Y64627581D02*
X28803885Y65294248D01*
X28803885Y65103772D02*
X28851504Y65199010D01*
X28851504Y65199010D02*
X28899123Y65246629D01*
X28899123Y65246629D02*
X28994361Y65294248D01*
X28994361Y65294248D02*
X29089599Y65294248D01*
X29327695Y65294248D02*
X29565790Y64627581D01*
X29803885Y65294248D02*
X29565790Y64627581D01*
X29565790Y64627581D02*
X29470552Y64389486D01*
X29470552Y64389486D02*
X29422933Y64341867D01*
X29422933Y64341867D02*
X29327695Y64294248D01*
X30946743Y64627581D02*
X30946743Y65627581D01*
X30946743Y65627581D02*
X31327695Y65627581D01*
X31327695Y65627581D02*
X31422933Y65579962D01*
X31422933Y65579962D02*
X31470552Y65532343D01*
X31470552Y65532343D02*
X31518171Y65437105D01*
X31518171Y65437105D02*
X31518171Y65294248D01*
X31518171Y65294248D02*
X31470552Y65199010D01*
X31470552Y65199010D02*
X31422933Y65151391D01*
X31422933Y65151391D02*
X31327695Y65103772D01*
X31327695Y65103772D02*
X30946743Y65103772D01*
X31946743Y64627581D02*
X31946743Y65627581D01*
X32994361Y64722820D02*
X32946742Y64675200D01*
X32946742Y64675200D02*
X32803885Y64627581D01*
X32803885Y64627581D02*
X32708647Y64627581D01*
X32708647Y64627581D02*
X32565790Y64675200D01*
X32565790Y64675200D02*
X32470552Y64770439D01*
X32470552Y64770439D02*
X32422933Y64865677D01*
X32422933Y64865677D02*
X32375314Y65056153D01*
X32375314Y65056153D02*
X32375314Y65199010D01*
X32375314Y65199010D02*
X32422933Y65389486D01*
X32422933Y65389486D02*
X32470552Y65484724D01*
X32470552Y65484724D02*
X32565790Y65579962D01*
X32565790Y65579962D02*
X32708647Y65627581D01*
X32708647Y65627581D02*
X32803885Y65627581D01*
X32803885Y65627581D02*
X32946742Y65579962D01*
X32946742Y65579962D02*
X32994361Y65532343D01*
X33613409Y65627581D02*
X33803885Y65627581D01*
X33803885Y65627581D02*
X33899123Y65579962D01*
X33899123Y65579962D02*
X33994361Y65484724D01*
X33994361Y65484724D02*
X34041980Y65294248D01*
X34041980Y65294248D02*
X34041980Y64960915D01*
X34041980Y64960915D02*
X33994361Y64770439D01*
X33994361Y64770439D02*
X33899123Y64675200D01*
X33899123Y64675200D02*
X33803885Y64627581D01*
X33803885Y64627581D02*
X33613409Y64627581D01*
X33613409Y64627581D02*
X33518171Y64675200D01*
X33518171Y64675200D02*
X33422933Y64770439D01*
X33422933Y64770439D02*
X33375314Y64960915D01*
X33375314Y64960915D02*
X33375314Y65294248D01*
X33375314Y65294248D02*
X33422933Y65484724D01*
X33422933Y65484724D02*
X33518171Y65579962D01*
X33518171Y65579962D02*
X33613409Y65627581D01*
X50372419Y18084361D02*
X50372419Y18274837D01*
X50372419Y18274837D02*
X50420038Y18370075D01*
X50420038Y18370075D02*
X50515276Y18465313D01*
X50515276Y18465313D02*
X50705752Y18512932D01*
X50705752Y18512932D02*
X51039085Y18512932D01*
X51039085Y18512932D02*
X51229561Y18465313D01*
X51229561Y18465313D02*
X51324800Y18370075D01*
X51324800Y18370075D02*
X51372419Y18274837D01*
X51372419Y18274837D02*
X51372419Y18084361D01*
X51372419Y18084361D02*
X51324800Y17989123D01*
X51324800Y17989123D02*
X51229561Y17893885D01*
X51229561Y17893885D02*
X51039085Y17846266D01*
X51039085Y17846266D02*
X50705752Y17846266D01*
X50705752Y17846266D02*
X50515276Y17893885D01*
X50515276Y17893885D02*
X50420038Y17989123D01*
X50420038Y17989123D02*
X50372419Y18084361D01*
X51372419Y19417694D02*
X51372419Y18941504D01*
X51372419Y18941504D02*
X50372419Y18941504D01*
X50848609Y19751028D02*
X50848609Y20084361D01*
X51372419Y20227218D02*
X51372419Y19751028D01*
X51372419Y19751028D02*
X50372419Y19751028D01*
X50372419Y19751028D02*
X50372419Y20227218D01*
X51372419Y20655790D02*
X50372419Y20655790D01*
X50372419Y20655790D02*
X50372419Y20893885D01*
X50372419Y20893885D02*
X50420038Y21036742D01*
X50420038Y21036742D02*
X50515276Y21131980D01*
X50515276Y21131980D02*
X50610514Y21179599D01*
X50610514Y21179599D02*
X50800990Y21227218D01*
X50800990Y21227218D02*
X50943847Y21227218D01*
X50943847Y21227218D02*
X51134323Y21179599D01*
X51134323Y21179599D02*
X51229561Y21131980D01*
X51229561Y21131980D02*
X51324800Y21036742D01*
X51324800Y21036742D02*
X51372419Y20893885D01*
X51372419Y20893885D02*
X51372419Y20655790D01*
X51372419Y22417695D02*
X50372419Y22417695D01*
X50372419Y22417695D02*
X50372419Y22655790D01*
X50372419Y22655790D02*
X50420038Y22798647D01*
X50420038Y22798647D02*
X50515276Y22893885D01*
X50515276Y22893885D02*
X50610514Y22941504D01*
X50610514Y22941504D02*
X50800990Y22989123D01*
X50800990Y22989123D02*
X50943847Y22989123D01*
X50943847Y22989123D02*
X51134323Y22941504D01*
X51134323Y22941504D02*
X51229561Y22893885D01*
X51229561Y22893885D02*
X51324800Y22798647D01*
X51324800Y22798647D02*
X51372419Y22655790D01*
X51372419Y22655790D02*
X51372419Y22417695D01*
X51372419Y23417695D02*
X50705752Y23417695D01*
X50372419Y23417695D02*
X50420038Y23370076D01*
X50420038Y23370076D02*
X50467657Y23417695D01*
X50467657Y23417695D02*
X50420038Y23465314D01*
X50420038Y23465314D02*
X50372419Y23417695D01*
X50372419Y23417695D02*
X50467657Y23417695D01*
X51324800Y23846266D02*
X51372419Y23941504D01*
X51372419Y23941504D02*
X51372419Y24131980D01*
X51372419Y24131980D02*
X51324800Y24227218D01*
X51324800Y24227218D02*
X51229561Y24274837D01*
X51229561Y24274837D02*
X51181942Y24274837D01*
X51181942Y24274837D02*
X51086704Y24227218D01*
X51086704Y24227218D02*
X51039085Y24131980D01*
X51039085Y24131980D02*
X51039085Y23989123D01*
X51039085Y23989123D02*
X50991466Y23893885D01*
X50991466Y23893885D02*
X50896228Y23846266D01*
X50896228Y23846266D02*
X50848609Y23846266D01*
X50848609Y23846266D02*
X50753371Y23893885D01*
X50753371Y23893885D02*
X50705752Y23989123D01*
X50705752Y23989123D02*
X50705752Y24131980D01*
X50705752Y24131980D02*
X50753371Y24227218D01*
X50705752Y24703409D02*
X51705752Y24703409D01*
X50753371Y24703409D02*
X50705752Y24798647D01*
X50705752Y24798647D02*
X50705752Y24989123D01*
X50705752Y24989123D02*
X50753371Y25084361D01*
X50753371Y25084361D02*
X50800990Y25131980D01*
X50800990Y25131980D02*
X50896228Y25179599D01*
X50896228Y25179599D02*
X51181942Y25179599D01*
X51181942Y25179599D02*
X51277180Y25131980D01*
X51277180Y25131980D02*
X51324800Y25084361D01*
X51324800Y25084361D02*
X51372419Y24989123D01*
X51372419Y24989123D02*
X51372419Y24798647D01*
X51372419Y24798647D02*
X51324800Y24703409D01*
X51372419Y25751028D02*
X51324800Y25655790D01*
X51324800Y25655790D02*
X51229561Y25608171D01*
X51229561Y25608171D02*
X50372419Y25608171D01*
X51372419Y26560552D02*
X50848609Y26560552D01*
X50848609Y26560552D02*
X50753371Y26512933D01*
X50753371Y26512933D02*
X50705752Y26417695D01*
X50705752Y26417695D02*
X50705752Y26227219D01*
X50705752Y26227219D02*
X50753371Y26131981D01*
X51324800Y26560552D02*
X51372419Y26465314D01*
X51372419Y26465314D02*
X51372419Y26227219D01*
X51372419Y26227219D02*
X51324800Y26131981D01*
X51324800Y26131981D02*
X51229561Y26084362D01*
X51229561Y26084362D02*
X51134323Y26084362D01*
X51134323Y26084362D02*
X51039085Y26131981D01*
X51039085Y26131981D02*
X50991466Y26227219D01*
X50991466Y26227219D02*
X50991466Y26465314D01*
X50991466Y26465314D02*
X50943847Y26560552D01*
X50705752Y26941505D02*
X51372419Y27179600D01*
X50705752Y27417695D02*
X51372419Y27179600D01*
X51372419Y27179600D02*
X51610514Y27084362D01*
X51610514Y27084362D02*
X51658133Y27036743D01*
X51658133Y27036743D02*
X51705752Y26941505D01*
D11*
X43583333Y11040420D02*
X43535714Y10992800D01*
X43535714Y10992800D02*
X43392857Y10945181D01*
X43392857Y10945181D02*
X43297619Y10945181D01*
X43297619Y10945181D02*
X43154762Y10992800D01*
X43154762Y10992800D02*
X43059524Y11088039D01*
X43059524Y11088039D02*
X43011905Y11183277D01*
X43011905Y11183277D02*
X42964286Y11373753D01*
X42964286Y11373753D02*
X42964286Y11516610D01*
X42964286Y11516610D02*
X43011905Y11707086D01*
X43011905Y11707086D02*
X43059524Y11802324D01*
X43059524Y11802324D02*
X43154762Y11897562D01*
X43154762Y11897562D02*
X43297619Y11945181D01*
X43297619Y11945181D02*
X43392857Y11945181D01*
X43392857Y11945181D02*
X43535714Y11897562D01*
X43535714Y11897562D02*
X43583333Y11849943D01*
X43916667Y11945181D02*
X44535714Y11945181D01*
X44535714Y11945181D02*
X44202381Y11564229D01*
X44202381Y11564229D02*
X44345238Y11564229D01*
X44345238Y11564229D02*
X44440476Y11516610D01*
X44440476Y11516610D02*
X44488095Y11468991D01*
X44488095Y11468991D02*
X44535714Y11373753D01*
X44535714Y11373753D02*
X44535714Y11135658D01*
X44535714Y11135658D02*
X44488095Y11040420D01*
X44488095Y11040420D02*
X44440476Y10992800D01*
X44440476Y10992800D02*
X44345238Y10945181D01*
X44345238Y10945181D02*
X44059524Y10945181D01*
X44059524Y10945181D02*
X43964286Y10992800D01*
X43964286Y10992800D02*
X43916667Y11040420D01*
X3238095Y8745181D02*
X3238095Y9745181D01*
X3238095Y9268991D02*
X3809523Y9268991D01*
X3809523Y8745181D02*
X3809523Y9745181D01*
X4190476Y9745181D02*
X4809523Y9745181D01*
X4809523Y9745181D02*
X4476190Y9364229D01*
X4476190Y9364229D02*
X4619047Y9364229D01*
X4619047Y9364229D02*
X4714285Y9316610D01*
X4714285Y9316610D02*
X4761904Y9268991D01*
X4761904Y9268991D02*
X4809523Y9173753D01*
X4809523Y9173753D02*
X4809523Y8935658D01*
X4809523Y8935658D02*
X4761904Y8840420D01*
X4761904Y8840420D02*
X4714285Y8792800D01*
X4714285Y8792800D02*
X4619047Y8745181D01*
X4619047Y8745181D02*
X4333333Y8745181D01*
X4333333Y8745181D02*
X4238095Y8792800D01*
X4238095Y8792800D02*
X4190476Y8840420D01*
X32261905Y68575181D02*
X32261905Y69575181D01*
X32261905Y69575181D02*
X32500000Y69575181D01*
X32500000Y69575181D02*
X32642857Y69527562D01*
X32642857Y69527562D02*
X32738095Y69432324D01*
X32738095Y69432324D02*
X32785714Y69337086D01*
X32785714Y69337086D02*
X32833333Y69146610D01*
X32833333Y69146610D02*
X32833333Y69003753D01*
X32833333Y69003753D02*
X32785714Y68813277D01*
X32785714Y68813277D02*
X32738095Y68718039D01*
X32738095Y68718039D02*
X32642857Y68622800D01*
X32642857Y68622800D02*
X32500000Y68575181D01*
X32500000Y68575181D02*
X32261905Y68575181D01*
X33785714Y68575181D02*
X33214286Y68575181D01*
X33500000Y68575181D02*
X33500000Y69575181D01*
X33500000Y69575181D02*
X33404762Y69432324D01*
X33404762Y69432324D02*
X33309524Y69337086D01*
X33309524Y69337086D02*
X33214286Y69289467D01*
X37818095Y68945181D02*
X37818095Y69945181D01*
X38389523Y68945181D02*
X37960952Y69516610D01*
X38389523Y69945181D02*
X37818095Y69373753D01*
X52133333Y42490420D02*
X52085714Y42442800D01*
X52085714Y42442800D02*
X51942857Y42395181D01*
X51942857Y42395181D02*
X51847619Y42395181D01*
X51847619Y42395181D02*
X51704762Y42442800D01*
X51704762Y42442800D02*
X51609524Y42538039D01*
X51609524Y42538039D02*
X51561905Y42633277D01*
X51561905Y42633277D02*
X51514286Y42823753D01*
X51514286Y42823753D02*
X51514286Y42966610D01*
X51514286Y42966610D02*
X51561905Y43157086D01*
X51561905Y43157086D02*
X51609524Y43252324D01*
X51609524Y43252324D02*
X51704762Y43347562D01*
X51704762Y43347562D02*
X51847619Y43395181D01*
X51847619Y43395181D02*
X51942857Y43395181D01*
X51942857Y43395181D02*
X52085714Y43347562D01*
X52085714Y43347562D02*
X52133333Y43299943D01*
X52990476Y43061848D02*
X52990476Y42395181D01*
X52752381Y43442800D02*
X52514286Y42728515D01*
X52514286Y42728515D02*
X53133333Y42728515D01*
X6691666Y27615181D02*
X6691666Y26900896D01*
X6691666Y26900896D02*
X6644047Y26758039D01*
X6644047Y26758039D02*
X6548809Y26662800D01*
X6548809Y26662800D02*
X6405952Y26615181D01*
X6405952Y26615181D02*
X6310714Y26615181D01*
X7072619Y27615181D02*
X7691666Y27615181D01*
X7691666Y27615181D02*
X7358333Y27234229D01*
X7358333Y27234229D02*
X7501190Y27234229D01*
X7501190Y27234229D02*
X7596428Y27186610D01*
X7596428Y27186610D02*
X7644047Y27138991D01*
X7644047Y27138991D02*
X7691666Y27043753D01*
X7691666Y27043753D02*
X7691666Y26805658D01*
X7691666Y26805658D02*
X7644047Y26710420D01*
X7644047Y26710420D02*
X7596428Y26662800D01*
X7596428Y26662800D02*
X7501190Y26615181D01*
X7501190Y26615181D02*
X7215476Y26615181D01*
X7215476Y26615181D02*
X7120238Y26662800D01*
X7120238Y26662800D02*
X7072619Y26710420D01*
X46533333Y68990420D02*
X46485714Y68942800D01*
X46485714Y68942800D02*
X46342857Y68895181D01*
X46342857Y68895181D02*
X46247619Y68895181D01*
X46247619Y68895181D02*
X46104762Y68942800D01*
X46104762Y68942800D02*
X46009524Y69038039D01*
X46009524Y69038039D02*
X45961905Y69133277D01*
X45961905Y69133277D02*
X45914286Y69323753D01*
X45914286Y69323753D02*
X45914286Y69466610D01*
X45914286Y69466610D02*
X45961905Y69657086D01*
X45961905Y69657086D02*
X46009524Y69752324D01*
X46009524Y69752324D02*
X46104762Y69847562D01*
X46104762Y69847562D02*
X46247619Y69895181D01*
X46247619Y69895181D02*
X46342857Y69895181D01*
X46342857Y69895181D02*
X46485714Y69847562D01*
X46485714Y69847562D02*
X46533333Y69799943D01*
X47485714Y68895181D02*
X46914286Y68895181D01*
X47200000Y68895181D02*
X47200000Y69895181D01*
X47200000Y69895181D02*
X47104762Y69752324D01*
X47104762Y69752324D02*
X47009524Y69657086D01*
X47009524Y69657086D02*
X46914286Y69609467D01*
X19886666Y65520181D02*
X19886666Y64805896D01*
X19886666Y64805896D02*
X19839047Y64663039D01*
X19839047Y64663039D02*
X19743809Y64567800D01*
X19743809Y64567800D02*
X19600952Y64520181D01*
X19600952Y64520181D02*
X19505714Y64520181D01*
X20315238Y65424943D02*
X20362857Y65472562D01*
X20362857Y65472562D02*
X20458095Y65520181D01*
X20458095Y65520181D02*
X20696190Y65520181D01*
X20696190Y65520181D02*
X20791428Y65472562D01*
X20791428Y65472562D02*
X20839047Y65424943D01*
X20839047Y65424943D02*
X20886666Y65329705D01*
X20886666Y65329705D02*
X20886666Y65234467D01*
X20886666Y65234467D02*
X20839047Y65091610D01*
X20839047Y65091610D02*
X20267619Y64520181D01*
X20267619Y64520181D02*
X20886666Y64520181D01*
X47366666Y52095181D02*
X47366666Y51380896D01*
X47366666Y51380896D02*
X47319047Y51238039D01*
X47319047Y51238039D02*
X47223809Y51142800D01*
X47223809Y51142800D02*
X47080952Y51095181D01*
X47080952Y51095181D02*
X46985714Y51095181D01*
X48271428Y51761848D02*
X48271428Y51095181D01*
X48033333Y52142800D02*
X47795238Y51428515D01*
X47795238Y51428515D02*
X48414285Y51428515D01*
X58738095Y8745181D02*
X58738095Y9745181D01*
X58738095Y9268991D02*
X59309523Y9268991D01*
X59309523Y8745181D02*
X59309523Y9745181D01*
X60214285Y9411848D02*
X60214285Y8745181D01*
X59976190Y9792800D02*
X59738095Y9078515D01*
X59738095Y9078515D02*
X60357142Y9078515D01*
X6838095Y74145181D02*
X6838095Y75145181D01*
X6838095Y74668991D02*
X7409523Y74668991D01*
X7409523Y74145181D02*
X7409523Y75145181D01*
X8409523Y74145181D02*
X7838095Y74145181D01*
X8123809Y74145181D02*
X8123809Y75145181D01*
X8123809Y75145181D02*
X8028571Y75002324D01*
X8028571Y75002324D02*
X7933333Y74907086D01*
X7933333Y74907086D02*
X7838095Y74859467D01*
X16533333Y16890420D02*
X16485714Y16842800D01*
X16485714Y16842800D02*
X16342857Y16795181D01*
X16342857Y16795181D02*
X16247619Y16795181D01*
X16247619Y16795181D02*
X16104762Y16842800D01*
X16104762Y16842800D02*
X16009524Y16938039D01*
X16009524Y16938039D02*
X15961905Y17033277D01*
X15961905Y17033277D02*
X15914286Y17223753D01*
X15914286Y17223753D02*
X15914286Y17366610D01*
X15914286Y17366610D02*
X15961905Y17557086D01*
X15961905Y17557086D02*
X16009524Y17652324D01*
X16009524Y17652324D02*
X16104762Y17747562D01*
X16104762Y17747562D02*
X16247619Y17795181D01*
X16247619Y17795181D02*
X16342857Y17795181D01*
X16342857Y17795181D02*
X16485714Y17747562D01*
X16485714Y17747562D02*
X16533333Y17699943D01*
X16914286Y17699943D02*
X16961905Y17747562D01*
X16961905Y17747562D02*
X17057143Y17795181D01*
X17057143Y17795181D02*
X17295238Y17795181D01*
X17295238Y17795181D02*
X17390476Y17747562D01*
X17390476Y17747562D02*
X17438095Y17699943D01*
X17438095Y17699943D02*
X17485714Y17604705D01*
X17485714Y17604705D02*
X17485714Y17509467D01*
X17485714Y17509467D02*
X17438095Y17366610D01*
X17438095Y17366610D02*
X16866667Y16795181D01*
X16866667Y16795181D02*
X17485714Y16795181D01*
X37666666Y65495181D02*
X37666666Y64780896D01*
X37666666Y64780896D02*
X37619047Y64638039D01*
X37619047Y64638039D02*
X37523809Y64542800D01*
X37523809Y64542800D02*
X37380952Y64495181D01*
X37380952Y64495181D02*
X37285714Y64495181D01*
X38666666Y64495181D02*
X38095238Y64495181D01*
X38380952Y64495181D02*
X38380952Y65495181D01*
X38380952Y65495181D02*
X38285714Y65352324D01*
X38285714Y65352324D02*
X38190476Y65257086D01*
X38190476Y65257086D02*
X38095238Y65209467D01*
X55288095Y74195181D02*
X55288095Y75195181D01*
X55288095Y74718991D02*
X55859523Y74718991D01*
X55859523Y74195181D02*
X55859523Y75195181D01*
X56288095Y75099943D02*
X56335714Y75147562D01*
X56335714Y75147562D02*
X56430952Y75195181D01*
X56430952Y75195181D02*
X56669047Y75195181D01*
X56669047Y75195181D02*
X56764285Y75147562D01*
X56764285Y75147562D02*
X56811904Y75099943D01*
X56811904Y75099943D02*
X56859523Y75004705D01*
X56859523Y75004705D02*
X56859523Y74909467D01*
X56859523Y74909467D02*
X56811904Y74766610D01*
X56811904Y74766610D02*
X56240476Y74195181D01*
X56240476Y74195181D02*
X56859523Y74195181D01*
X13576667Y68102800D02*
X13719524Y68055181D01*
X13719524Y68055181D02*
X13957619Y68055181D01*
X13957619Y68055181D02*
X14052857Y68102800D01*
X14052857Y68102800D02*
X14100476Y68150420D01*
X14100476Y68150420D02*
X14148095Y68245658D01*
X14148095Y68245658D02*
X14148095Y68340896D01*
X14148095Y68340896D02*
X14100476Y68436134D01*
X14100476Y68436134D02*
X14052857Y68483753D01*
X14052857Y68483753D02*
X13957619Y68531372D01*
X13957619Y68531372D02*
X13767143Y68578991D01*
X13767143Y68578991D02*
X13671905Y68626610D01*
X13671905Y68626610D02*
X13624286Y68674229D01*
X13624286Y68674229D02*
X13576667Y68769467D01*
X13576667Y68769467D02*
X13576667Y68864705D01*
X13576667Y68864705D02*
X13624286Y68959943D01*
X13624286Y68959943D02*
X13671905Y69007562D01*
X13671905Y69007562D02*
X13767143Y69055181D01*
X13767143Y69055181D02*
X14005238Y69055181D01*
X14005238Y69055181D02*
X14148095Y69007562D01*
X14481429Y69055181D02*
X14719524Y68055181D01*
X14719524Y68055181D02*
X14910000Y68769467D01*
X14910000Y68769467D02*
X15100476Y68055181D01*
X15100476Y68055181D02*
X15338572Y69055181D01*
X16243333Y68055181D02*
X15671905Y68055181D01*
X15957619Y68055181D02*
X15957619Y69055181D01*
X15957619Y69055181D02*
X15862381Y68912324D01*
X15862381Y68912324D02*
X15767143Y68817086D01*
X15767143Y68817086D02*
X15671905Y68769467D01*
X50938095Y8845181D02*
X50938095Y9845181D01*
X50938095Y9368991D02*
X51509523Y9368991D01*
X51509523Y8845181D02*
X51509523Y9845181D01*
X52414285Y9845181D02*
X52223809Y9845181D01*
X52223809Y9845181D02*
X52128571Y9797562D01*
X52128571Y9797562D02*
X52080952Y9749943D01*
X52080952Y9749943D02*
X51985714Y9607086D01*
X51985714Y9607086D02*
X51938095Y9416610D01*
X51938095Y9416610D02*
X51938095Y9035658D01*
X51938095Y9035658D02*
X51985714Y8940420D01*
X51985714Y8940420D02*
X52033333Y8892800D01*
X52033333Y8892800D02*
X52128571Y8845181D01*
X52128571Y8845181D02*
X52319047Y8845181D01*
X52319047Y8845181D02*
X52414285Y8892800D01*
X52414285Y8892800D02*
X52461904Y8940420D01*
X52461904Y8940420D02*
X52509523Y9035658D01*
X52509523Y9035658D02*
X52509523Y9273753D01*
X52509523Y9273753D02*
X52461904Y9368991D01*
X52461904Y9368991D02*
X52414285Y9416610D01*
X52414285Y9416610D02*
X52319047Y9464229D01*
X52319047Y9464229D02*
X52128571Y9464229D01*
X52128571Y9464229D02*
X52033333Y9416610D01*
X52033333Y9416610D02*
X51985714Y9368991D01*
X51985714Y9368991D02*
X51938095Y9273753D01*
X47238095Y42245181D02*
X47238095Y43245181D01*
X47238095Y42768991D02*
X47809523Y42768991D01*
X47809523Y42245181D02*
X47809523Y43245181D01*
X48761904Y43245181D02*
X48285714Y43245181D01*
X48285714Y43245181D02*
X48238095Y42768991D01*
X48238095Y42768991D02*
X48285714Y42816610D01*
X48285714Y42816610D02*
X48380952Y42864229D01*
X48380952Y42864229D02*
X48619047Y42864229D01*
X48619047Y42864229D02*
X48714285Y42816610D01*
X48714285Y42816610D02*
X48761904Y42768991D01*
X48761904Y42768991D02*
X48809523Y42673753D01*
X48809523Y42673753D02*
X48809523Y42435658D01*
X48809523Y42435658D02*
X48761904Y42340420D01*
X48761904Y42340420D02*
X48714285Y42292800D01*
X48714285Y42292800D02*
X48619047Y42245181D01*
X48619047Y42245181D02*
X48380952Y42245181D01*
X48380952Y42245181D02*
X48285714Y42292800D01*
X48285714Y42292800D02*
X48238095Y42340420D01*
X27916667Y10712800D02*
X28059524Y10665181D01*
X28059524Y10665181D02*
X28297619Y10665181D01*
X28297619Y10665181D02*
X28392857Y10712800D01*
X28392857Y10712800D02*
X28440476Y10760420D01*
X28440476Y10760420D02*
X28488095Y10855658D01*
X28488095Y10855658D02*
X28488095Y10950896D01*
X28488095Y10950896D02*
X28440476Y11046134D01*
X28440476Y11046134D02*
X28392857Y11093753D01*
X28392857Y11093753D02*
X28297619Y11141372D01*
X28297619Y11141372D02*
X28107143Y11188991D01*
X28107143Y11188991D02*
X28011905Y11236610D01*
X28011905Y11236610D02*
X27964286Y11284229D01*
X27964286Y11284229D02*
X27916667Y11379467D01*
X27916667Y11379467D02*
X27916667Y11474705D01*
X27916667Y11474705D02*
X27964286Y11569943D01*
X27964286Y11569943D02*
X28011905Y11617562D01*
X28011905Y11617562D02*
X28107143Y11665181D01*
X28107143Y11665181D02*
X28345238Y11665181D01*
X28345238Y11665181D02*
X28488095Y11617562D01*
X28821429Y11665181D02*
X29059524Y10665181D01*
X29059524Y10665181D02*
X29250000Y11379467D01*
X29250000Y11379467D02*
X29440476Y10665181D01*
X29440476Y10665181D02*
X29678572Y11665181D01*
X30011905Y11569943D02*
X30059524Y11617562D01*
X30059524Y11617562D02*
X30154762Y11665181D01*
X30154762Y11665181D02*
X30392857Y11665181D01*
X30392857Y11665181D02*
X30488095Y11617562D01*
X30488095Y11617562D02*
X30535714Y11569943D01*
X30535714Y11569943D02*
X30583333Y11474705D01*
X30583333Y11474705D02*
X30583333Y11379467D01*
X30583333Y11379467D02*
X30535714Y11236610D01*
X30535714Y11236610D02*
X29964286Y10665181D01*
X29964286Y10665181D02*
X30583333Y10665181D01*
X11786666Y47545181D02*
X11786666Y46830896D01*
X11786666Y46830896D02*
X11739047Y46688039D01*
X11739047Y46688039D02*
X11643809Y46592800D01*
X11643809Y46592800D02*
X11500952Y46545181D01*
X11500952Y46545181D02*
X11405714Y46545181D01*
X12691428Y47545181D02*
X12500952Y47545181D01*
X12500952Y47545181D02*
X12405714Y47497562D01*
X12405714Y47497562D02*
X12358095Y47449943D01*
X12358095Y47449943D02*
X12262857Y47307086D01*
X12262857Y47307086D02*
X12215238Y47116610D01*
X12215238Y47116610D02*
X12215238Y46735658D01*
X12215238Y46735658D02*
X12262857Y46640420D01*
X12262857Y46640420D02*
X12310476Y46592800D01*
X12310476Y46592800D02*
X12405714Y46545181D01*
X12405714Y46545181D02*
X12596190Y46545181D01*
X12596190Y46545181D02*
X12691428Y46592800D01*
X12691428Y46592800D02*
X12739047Y46640420D01*
X12739047Y46640420D02*
X12786666Y46735658D01*
X12786666Y46735658D02*
X12786666Y46973753D01*
X12786666Y46973753D02*
X12739047Y47068991D01*
X12739047Y47068991D02*
X12691428Y47116610D01*
X12691428Y47116610D02*
X12596190Y47164229D01*
X12596190Y47164229D02*
X12405714Y47164229D01*
X12405714Y47164229D02*
X12310476Y47116610D01*
X12310476Y47116610D02*
X12262857Y47068991D01*
X12262857Y47068991D02*
X12215238Y46973753D01*
X47166666Y29855181D02*
X47166666Y29140896D01*
X47166666Y29140896D02*
X47119047Y28998039D01*
X47119047Y28998039D02*
X47023809Y28902800D01*
X47023809Y28902800D02*
X46880952Y28855181D01*
X46880952Y28855181D02*
X46785714Y28855181D01*
X48119047Y29855181D02*
X47642857Y29855181D01*
X47642857Y29855181D02*
X47595238Y29378991D01*
X47595238Y29378991D02*
X47642857Y29426610D01*
X47642857Y29426610D02*
X47738095Y29474229D01*
X47738095Y29474229D02*
X47976190Y29474229D01*
X47976190Y29474229D02*
X48071428Y29426610D01*
X48071428Y29426610D02*
X48119047Y29378991D01*
X48119047Y29378991D02*
X48166666Y29283753D01*
X48166666Y29283753D02*
X48166666Y29045658D01*
X48166666Y29045658D02*
X48119047Y28950420D01*
X48119047Y28950420D02*
X48071428Y28902800D01*
X48071428Y28902800D02*
X47976190Y28855181D01*
X47976190Y28855181D02*
X47738095Y28855181D01*
X47738095Y28855181D02*
X47642857Y28902800D01*
X47642857Y28902800D02*
X47595238Y28950420D01*
D12*
G04 #@! TO.C,C3*
X42730000Y14505000D02*
X42730000Y14570000D01*
X42730000Y12330000D02*
X42730000Y12395000D01*
X45970000Y14570000D02*
X42730000Y14570000D01*
X45970000Y14505000D02*
X45970000Y14570000D01*
X45970000Y12330000D02*
X42730000Y12330000D01*
X45970000Y12330000D02*
X45970000Y12395000D01*
G04 #@! TO.C,D1*
X29260000Y71500000D02*
X30280000Y71500000D01*
X30280000Y72970000D02*
X30280000Y70030000D01*
X30280000Y70030000D02*
X35720000Y70030000D01*
X34700000Y70030000D02*
X34700000Y72970000D01*
X34820000Y70030000D02*
X34820000Y72970000D01*
X34940000Y70030000D02*
X34940000Y72970000D01*
X35720000Y72970000D02*
X30280000Y72970000D01*
X35720000Y70030000D02*
X35720000Y72970000D01*
X36740000Y71500000D02*
X35720000Y71500000D01*
G04 #@! TO.C,C4*
X51230000Y47920000D02*
X51230000Y44680000D01*
X51295000Y47920000D02*
X51230000Y47920000D01*
X51295000Y44680000D02*
X51230000Y44680000D01*
X53470000Y47920000D02*
X53405000Y47920000D01*
X53470000Y47920000D02*
X53470000Y44680000D01*
X53470000Y44680000D02*
X53405000Y44680000D01*
G04 #@! TO.C,J3*
X5695000Y23030000D02*
X5695000Y15350000D01*
X5695000Y23030000D02*
X8355000Y23030000D01*
X5695000Y15350000D02*
X8355000Y15350000D01*
X7025000Y25630000D02*
X8355000Y25630000D01*
X8355000Y25630000D02*
X8355000Y24300000D01*
X8355000Y23030000D02*
X8355000Y15350000D01*
G04 #@! TO.C,C1*
X44380000Y72555000D02*
X44380000Y72620000D01*
X44380000Y70380000D02*
X44380000Y70445000D01*
X47620000Y72620000D02*
X44380000Y72620000D01*
X47620000Y72555000D02*
X47620000Y72620000D01*
X47620000Y70380000D02*
X44380000Y70380000D01*
X47620000Y70380000D02*
X47620000Y70445000D01*
G04 #@! TO.C,J2*
X18890000Y60935000D02*
X18890000Y12615000D01*
X18890000Y60935000D02*
X21550000Y60935000D01*
X18890000Y12615000D02*
X21550000Y12615000D01*
X20220000Y63535000D02*
X21550000Y63535000D01*
X21550000Y63535000D02*
X21550000Y62205000D01*
X21550000Y60935000D02*
X21550000Y12615000D01*
G04 #@! TO.C,J4*
X47670000Y55620000D02*
X47670000Y63300000D01*
X47670000Y53020000D02*
X47670000Y54350000D01*
X49000000Y53020000D02*
X47670000Y53020000D01*
X50330000Y63300000D02*
X47670000Y63300000D01*
X50330000Y55620000D02*
X47670000Y55620000D01*
X50330000Y55620000D02*
X50330000Y63300000D01*
G04 #@! TO.C,C2*
X13330000Y18870000D02*
X13330000Y15630000D01*
X13395000Y18870000D02*
X13330000Y18870000D01*
X13395000Y15630000D02*
X13330000Y15630000D01*
X15570000Y18870000D02*
X15505000Y18870000D01*
X15570000Y18870000D02*
X15570000Y15630000D01*
X15570000Y15630000D02*
X15505000Y15630000D01*
G04 #@! TO.C,J1*
X36670000Y60910000D02*
X36670000Y12590000D01*
X36670000Y60910000D02*
X39330000Y60910000D01*
X36670000Y12590000D02*
X39330000Y12590000D01*
X38000000Y63510000D02*
X39330000Y63510000D01*
X39330000Y63510000D02*
X39330000Y62180000D01*
X39330000Y60910000D02*
X39330000Y12590000D01*
G04 #@! TO.C,SW1*
X12490000Y73760000D02*
X12490000Y73450000D01*
X12490000Y73760000D02*
X21310000Y73760000D01*
X12490000Y69240000D02*
X12490000Y69550000D01*
X18400000Y68540000D02*
X19400000Y68540000D01*
X18900000Y69040000D02*
X18400000Y68540000D01*
X19400000Y68540000D02*
X18900000Y69040000D01*
X21310000Y73760000D02*
X21310000Y73450000D01*
X21310000Y69550000D02*
X21310000Y69240000D01*
X21310000Y69240000D02*
X12490000Y69240000D01*
G04 #@! TO.C,SW2*
X25750000Y7620000D02*
X25750000Y6120000D01*
X27000000Y3620000D02*
X31500000Y3620000D01*
X31500000Y10120000D02*
X27000000Y10120000D01*
X32750000Y6120000D02*
X32750000Y7620000D01*
G04 #@! TO.C,J6*
X1880000Y62120000D02*
X1880000Y59800000D01*
X1880000Y59200000D02*
X1880000Y31880000D01*
X2400000Y62120000D02*
X2400000Y31880000D01*
X3500000Y62120000D02*
X3500000Y31880000D01*
X5220000Y60993000D02*
X5210000Y61002000D01*
X5509000Y61280000D02*
X5498000Y61290000D01*
X5606000Y55607000D02*
X5210000Y56002000D01*
X5606000Y50607000D02*
X5210000Y51002000D01*
X5606000Y45607000D02*
X5210000Y46002000D01*
X5606000Y40607000D02*
X5210000Y41002000D01*
X5606000Y35607000D02*
X5210000Y36002000D01*
X5894000Y55895000D02*
X5498000Y56290000D01*
X5894000Y50895000D02*
X5498000Y51290000D01*
X5894000Y45895000D02*
X5498000Y46290000D01*
X5894000Y40895000D02*
X5498000Y41290000D01*
X5894000Y35895000D02*
X5498000Y36290000D01*
X8502000Y52710000D02*
X8106000Y53106000D01*
X8502000Y47710000D02*
X8106000Y48106000D01*
X8502000Y42710000D02*
X8106000Y43106000D01*
X8502000Y37710000D02*
X8106000Y38106000D01*
X8502000Y32710000D02*
X8106000Y33106000D01*
X8790000Y52998000D02*
X8394000Y53394000D01*
X8790000Y47998000D02*
X8394000Y48394000D01*
X8790000Y42998000D02*
X8394000Y43394000D01*
X8790000Y37998000D02*
X8394000Y38394000D01*
X8790000Y32998000D02*
X8394000Y33394000D01*
X11120000Y62120000D02*
X1880000Y62120000D01*
X11120000Y62120000D02*
X11120000Y31880000D01*
X11120000Y31880000D02*
X1880000Y31880000D01*
X5220000Y57950000D02*
G75*
G02*
X5219585Y61049523I1780000J1550000D01*
G01*
X5450000Y61280000D02*
G75*
G02*
X8549523Y61280415I1550000J-1780000D01*
G01*
X8550000Y57720000D02*
G75*
G02*
X5450477Y57719585I-1550000J1780001D01*
G01*
X8780000Y61050000D02*
G75*
G02*
X8780415Y57950477I-1780001J-1550000D01*
G01*
X9360000Y54500000D02*
G75*
G02*
X4640000Y54500000I-2360000J0D01*
G01*
X4640000Y54500000D02*
G75*
G02*
X9360000Y54500000I2360000J0D01*
G01*
X9360000Y49500000D02*
G75*
G02*
X4640000Y49500000I-2360000J0D01*
G01*
X4640000Y49500000D02*
G75*
G02*
X9360000Y49500000I2360000J0D01*
G01*
X9360000Y44500000D02*
G75*
G02*
X4640000Y44500000I-2360000J0D01*
G01*
X4640000Y44500000D02*
G75*
G02*
X9360000Y44500000I2360000J0D01*
G01*
X9360000Y39500000D02*
G75*
G02*
X4640000Y39500000I-2360000J0D01*
G01*
X4640000Y39500000D02*
G75*
G02*
X9360000Y39500000I2360000J0D01*
G01*
X9360000Y34500000D02*
G75*
G02*
X4640000Y34500000I-2360000J0D01*
G01*
X4640000Y34500000D02*
G75*
G02*
X9360000Y34500000I2360000J0D01*
G01*
X1880000Y59500000D02*
X1270000Y59060000D01*
X1270000Y59940000D01*
X1880000Y59500000D01*
G36*
X1880000Y59500000D02*
G01*
X1270000Y59060000D01*
X1270000Y59940000D01*
X1880000Y59500000D01*
G37*
G04 #@! TO.C,J5*
X46170000Y25270000D02*
X46170000Y17590000D01*
X46170000Y25270000D02*
X48830000Y25270000D01*
X46170000Y17590000D02*
X48830000Y17590000D01*
X47500000Y27870000D02*
X48830000Y27870000D01*
X48830000Y27870000D02*
X48830000Y26540000D01*
X48830000Y25270000D02*
X48830000Y17590000D01*
G04 #@! TD*
D13*
X0Y76500000D02*
X63500000Y76500000D01*
X63500000Y0D01*
X0Y0D01*
X0Y76500000D01*
M02*
