G04 #@! TF.GenerationSoftware,KiCad,Pcbnew,9.0.0*
G04 #@! TF.CreationDate,2025-03-16T21:41:20+01:00*
G04 #@! TF.ProjectId,lightThermo,6c696768-7454-4686-9572-6d6f2e6b6963,1.0*
G04 #@! TF.SameCoordinates,PX47868c0PY7d687e0*
G04 #@! TF.FileFunction,Copper,L2,Bot*
G04 #@! TF.FilePolarity,Positive*
%FSLAX46Y46*%
G04 Gerber Fmt 4.6, Leading zero omitted, Abs format (unit mm)*
G04 Created by KiCad (PCBNEW 9.0.0) date 2025-03-16 21:41:20*
%MOMM*%
%LPD*%
G01*
G04 APERTURE LIST*
G04 Aperture macros list*
%AMRoundRect*
0 Rectangle with rounded corners*
0 $1 Rounding radius*
0 $2 $3 $4 $5 $6 $7 $8 $9 X,Y pos of 4 corners*
0 Add a 4 corners polygon primitive as box body*
4,1,4,$2,$3,$4,$5,$6,$7,$8,$9,$2,$3,0*
0 Add four circle primitives for the rounded corners*
1,1,$1+$1,$2,$3*
1,1,$1+$1,$4,$5*
1,1,$1+$1,$6,$7*
1,1,$1+$1,$8,$9*
0 Add four rect primitives between the rounded corners*
20,1,$1+$1,$2,$3,$4,$5,0*
20,1,$1+$1,$4,$5,$6,$7,0*
20,1,$1+$1,$6,$7,$8,$9,0*
20,1,$1+$1,$8,$9,$2,$3,0*%
G04 Aperture macros list end*
G04 #@! TA.AperFunction,ComponentPad*
%ADD10C,1.600000*%
G04 #@! TD*
G04 #@! TA.AperFunction,ComponentPad*
%ADD11R,2.200000X2.200000*%
G04 #@! TD*
G04 #@! TA.AperFunction,ComponentPad*
%ADD12O,2.200000X2.200000*%
G04 #@! TD*
G04 #@! TA.AperFunction,ComponentPad*
%ADD13R,1.700000X1.700000*%
G04 #@! TD*
G04 #@! TA.AperFunction,ComponentPad*
%ADD14O,1.700000X1.700000*%
G04 #@! TD*
G04 #@! TA.AperFunction,ComponentPad*
%ADD15O,2.200000X3.500000*%
G04 #@! TD*
G04 #@! TA.AperFunction,ComponentPad*
%ADD16R,1.500000X2.500000*%
G04 #@! TD*
G04 #@! TA.AperFunction,ComponentPad*
%ADD17O,1.500000X2.500000*%
G04 #@! TD*
G04 #@! TA.AperFunction,ComponentPad*
%ADD18C,2.000000*%
G04 #@! TD*
G04 #@! TA.AperFunction,ComponentPad*
%ADD19RoundRect,0.250000X-1.050000X1.050000X-1.050000X-1.050000X1.050000X-1.050000X1.050000X1.050000X0*%
G04 #@! TD*
G04 #@! TA.AperFunction,ComponentPad*
%ADD20C,2.600000*%
G04 #@! TD*
G04 #@! TA.AperFunction,Profile*
%ADD21C,0.050000*%
G04 #@! TD*
G04 APERTURE END LIST*
D10*
G04 #@! TO.P,C3,1*
G04 #@! TO.N,Net-(J1-3V3(OUT))*
X45600000Y13450000D03*
G04 #@! TO.P,C3,2*
G04 #@! TO.N,GND*
X43100000Y13450000D03*
G04 #@! TD*
D11*
G04 #@! TO.P,D1,1,K*
G04 #@! TO.N,Net-(D1-K)*
X38080000Y71500000D03*
D12*
G04 #@! TO.P,D1,2,A*
G04 #@! TO.N,Net-(D1-A)*
X27920000Y71500000D03*
G04 #@! TD*
D10*
G04 #@! TO.P,C4,1*
G04 #@! TO.N,Net-(J1-3V3(OUT))*
X52350000Y47550000D03*
G04 #@! TO.P,C4,2*
G04 #@! TO.N,GND*
X52350000Y45050000D03*
G04 #@! TD*
D13*
G04 #@! TO.P,J3,1,SDA*
G04 #@! TO.N,Net-(J2-I2C0_SDA)*
X7025000Y24300000D03*
D14*
G04 #@! TO.P,J3,2,SCL*
G04 #@! TO.N,Net-(J2-I2C0_SCL)*
X7025000Y21760000D03*
G04 #@! TO.P,J3,3,-*
G04 #@! TO.N,GND*
X7025000Y19220000D03*
G04 #@! TO.P,J3,4,+*
G04 #@! TO.N,Net-(J1-3V3(OUT))*
X7025000Y16680000D03*
G04 #@! TD*
D10*
G04 #@! TO.P,C1,1*
G04 #@! TO.N,GND*
X47250000Y71500000D03*
G04 #@! TO.P,C1,2*
G04 #@! TO.N,Net-(D1-K)*
X44750000Y71500000D03*
G04 #@! TD*
D13*
G04 #@! TO.P,J2,1,UART0_TX*
G04 #@! TO.N,Net-(J2-UART0_TX)*
X20220000Y62205000D03*
D14*
G04 #@! TO.P,J2,2,UART0_RX*
G04 #@! TO.N,Net-(J2-UART0_RX)*
X20220000Y59665000D03*
G04 #@! TO.P,J2,3,GND*
G04 #@! TO.N,GND*
X20220000Y57125000D03*
G04 #@! TO.P,J2,4,GP2*
G04 #@! TO.N,unconnected-(J2-GP2-Pad4)*
X20220000Y54585000D03*
G04 #@! TO.P,J2,5,GP3*
G04 #@! TO.N,unconnected-(J2-GP3-Pad5)*
X20220000Y52045000D03*
G04 #@! TO.P,J2,6,GP4*
G04 #@! TO.N,unconnected-(J2-GP4-Pad6)*
X20220000Y49505000D03*
G04 #@! TO.P,J2,7,GP5*
G04 #@! TO.N,unconnected-(J2-GP5-Pad7)*
X20220000Y46965000D03*
G04 #@! TO.P,J2,8,GND*
G04 #@! TO.N,GND*
X20220000Y44425000D03*
G04 #@! TO.P,J2,9,GP6*
G04 #@! TO.N,unconnected-(J2-GP6-Pad9)*
X20220000Y41885000D03*
G04 #@! TO.P,J2,10,GP7*
G04 #@! TO.N,unconnected-(J2-GP7-Pad10)*
X20220000Y39345000D03*
G04 #@! TO.P,J2,11,I2C0_SDA*
G04 #@! TO.N,Net-(J2-I2C0_SDA)*
X20220000Y36805000D03*
G04 #@! TO.P,J2,12,I2C0_SCL*
G04 #@! TO.N,Net-(J2-I2C0_SCL)*
X20220000Y34265000D03*
G04 #@! TO.P,J2,13,GND*
G04 #@! TO.N,GND*
X20220000Y31725000D03*
G04 #@! TO.P,J2,14,GP10*
G04 #@! TO.N,unconnected-(J2-GP10-Pad14)*
X20220000Y29185000D03*
G04 #@! TO.P,J2,15,GP11*
G04 #@! TO.N,unconnected-(J2-GP11-Pad15)*
X20220000Y26645000D03*
G04 #@! TO.P,J2,16,GP12*
G04 #@! TO.N,unconnected-(J2-GP12-Pad16)*
X20220000Y24105000D03*
G04 #@! TO.P,J2,17,GP13*
G04 #@! TO.N,unconnected-(J2-GP13-Pad17)*
X20220000Y21565000D03*
G04 #@! TO.P,J2,18,GND*
G04 #@! TO.N,GND*
X20220000Y19025000D03*
G04 #@! TO.P,J2,19,GP14*
G04 #@! TO.N,unconnected-(J2-GP14-Pad19)*
X20220000Y16485000D03*
G04 #@! TO.P,J2,20,GP15*
G04 #@! TO.N,Net-(J2-GP15)*
X20220000Y13945000D03*
G04 #@! TD*
D13*
G04 #@! TO.P,J4,1,+*
G04 #@! TO.N,Net-(J1-3V3(OUT))*
X49000000Y54350000D03*
D14*
G04 #@! TO.P,J4,2,-*
G04 #@! TO.N,GND*
X49000000Y56890000D03*
G04 #@! TO.P,J4,3,SCL*
G04 #@! TO.N,Net-(J1-I2C1_SCL)*
X49000000Y59430000D03*
G04 #@! TO.P,J4,4,SDA*
G04 #@! TO.N,Net-(J1-I2C1_SDA)*
X49000000Y61970000D03*
G04 #@! TD*
D10*
G04 #@! TO.P,C2,1*
G04 #@! TO.N,GND*
X14450000Y18500000D03*
G04 #@! TO.P,C2,2*
G04 #@! TO.N,Net-(J1-3V3(OUT))*
X14450000Y16000000D03*
G04 #@! TD*
D13*
G04 #@! TO.P,J1,1,VBUS*
G04 #@! TO.N,unconnected-(J1-VBUS-Pad1)*
X38000000Y62180000D03*
D14*
G04 #@! TO.P,J1,2,VSYS*
G04 #@! TO.N,Net-(D1-K)*
X38000000Y59640000D03*
G04 #@! TO.P,J1,3,GND*
G04 #@! TO.N,GND*
X38000000Y57100000D03*
G04 #@! TO.P,J1,4,3V3_EN*
G04 #@! TO.N,unconnected-(J1-3V3_EN-Pad4)*
X38000000Y54560000D03*
G04 #@! TO.P,J1,5,3V3(OUT)*
G04 #@! TO.N,Net-(J1-3V3(OUT))*
X38000000Y52020000D03*
G04 #@! TO.P,J1,6,ADC_VREF*
G04 #@! TO.N,unconnected-(J1-ADC_VREF-Pad6)*
X38000000Y49480000D03*
G04 #@! TO.P,J1,7,GP28*
G04 #@! TO.N,unconnected-(J1-GP28-Pad7)*
X38000000Y46940000D03*
G04 #@! TO.P,J1,8,GND*
G04 #@! TO.N,GND*
X38000000Y44400000D03*
G04 #@! TO.P,J1,9,GP27*
G04 #@! TO.N,unconnected-(J1-GP27-Pad9)*
X38000000Y41860000D03*
G04 #@! TO.P,J1,10,GP26*
G04 #@! TO.N,unconnected-(J1-GP26-Pad10)*
X38000000Y39320000D03*
G04 #@! TO.P,J1,11,RUN*
G04 #@! TO.N,unconnected-(J1-RUN-Pad11)*
X38000000Y36780000D03*
G04 #@! TO.P,J1,12,GP22*
G04 #@! TO.N,unconnected-(J1-GP22-Pad12)*
X38000000Y34240000D03*
G04 #@! TO.P,J1,13,GND*
G04 #@! TO.N,GND*
X38000000Y31700000D03*
G04 #@! TO.P,J1,14,GP21*
G04 #@! TO.N,unconnected-(J1-GP21-Pad14)*
X38000000Y29160000D03*
G04 #@! TO.P,J1,15,GP20*
G04 #@! TO.N,unconnected-(J1-GP20-Pad15)*
X38000000Y26620000D03*
G04 #@! TO.P,J1,16,I2C1_SCL*
G04 #@! TO.N,Net-(J1-I2C1_SCL)*
X38000000Y24080000D03*
G04 #@! TO.P,J1,17,I2C1_SDA*
G04 #@! TO.N,Net-(J1-I2C1_SDA)*
X38000000Y21540000D03*
G04 #@! TO.P,J1,18,GND*
G04 #@! TO.N,GND*
X38000000Y19000000D03*
G04 #@! TO.P,J1,19,GP17*
G04 #@! TO.N,unconnected-(J1-GP17-Pad19)*
X38000000Y16460000D03*
G04 #@! TO.P,J1,20,GP16*
G04 #@! TO.N,unconnected-(J1-GP16-Pad20)*
X38000000Y13920000D03*
G04 #@! TD*
D15*
G04 #@! TO.P,SW1,*
G04 #@! TO.N,*
X21000000Y71500000D03*
X12800000Y71500000D03*
D16*
G04 #@! TO.P,SW1,1,A*
G04 #@! TO.N,Net-(D1-A)*
X18900000Y71500000D03*
D17*
G04 #@! TO.P,SW1,2,B*
G04 #@! TO.N,Net-(J6-Pin_5)*
X16900000Y71500000D03*
G04 #@! TO.P,SW1,3*
G04 #@! TO.N,N/C*
X14900000Y71500000D03*
G04 #@! TD*
D18*
G04 #@! TO.P,SW2,1,1*
G04 #@! TO.N,GND*
X26000000Y9120000D03*
X32500000Y9120000D03*
G04 #@! TO.P,SW2,2,2*
G04 #@! TO.N,Net-(J2-GP15)*
X26000000Y4620000D03*
X32500000Y4620000D03*
G04 #@! TD*
D19*
G04 #@! TO.P,J6,1,Pin_1*
G04 #@! TO.N,Net-(J2-UART0_RX)*
X7000000Y59500000D03*
D20*
G04 #@! TO.P,J6,2,Pin_2*
G04 #@! TO.N,Net-(J2-UART0_TX)*
X7000000Y54500000D03*
G04 #@! TO.P,J6,3,Pin_3*
G04 #@! TO.N,GND*
X7000000Y49500000D03*
G04 #@! TO.P,J6,4,Pin_4*
X7000000Y44500000D03*
G04 #@! TO.P,J6,5,Pin_5*
G04 #@! TO.N,Net-(J6-Pin_5)*
X7000000Y39500000D03*
G04 #@! TO.P,J6,6,Pin_6*
G04 #@! TO.N,GND*
X7000000Y34500000D03*
G04 #@! TD*
D13*
G04 #@! TO.P,J5,1,SDA*
G04 #@! TO.N,Net-(J1-I2C1_SDA)*
X47500000Y26540000D03*
D14*
G04 #@! TO.P,J5,2,SCL*
G04 #@! TO.N,Net-(J1-I2C1_SCL)*
X47500000Y24000000D03*
G04 #@! TO.P,J5,3,-*
G04 #@! TO.N,GND*
X47500000Y21460000D03*
G04 #@! TO.P,J5,4,+*
G04 #@! TO.N,Net-(J1-3V3(OUT))*
X47500000Y18920000D03*
G04 #@! TD*
G04 #@! TA.AperFunction,Conductor*
G04 #@! TO.N,GND*
G36*
X62442539Y75479815D02*
G01*
X62488294Y75427011D01*
X62499500Y75375500D01*
X62499500Y1124500D01*
X62479815Y1057461D01*
X62427011Y1011706D01*
X62375500Y1000500D01*
X1124500Y1000500D01*
X1057461Y1020185D01*
X1011706Y1072989D01*
X1000500Y1124500D01*
X1000500Y5121289D01*
X2149500Y5121289D01*
X2149500Y4878712D01*
X2181161Y4638215D01*
X2243947Y4403896D01*
X2336773Y4179795D01*
X2336776Y4179788D01*
X2458064Y3969711D01*
X2458066Y3969708D01*
X2458067Y3969707D01*
X2605733Y3777264D01*
X2605739Y3777257D01*
X2777256Y3605740D01*
X2777262Y3605735D01*
X2969711Y3458064D01*
X3179788Y3336776D01*
X3403900Y3243946D01*
X3638211Y3181162D01*
X3818586Y3157416D01*
X3878711Y3149500D01*
X3878712Y3149500D01*
X4121289Y3149500D01*
X4174057Y3156447D01*
X4361789Y3181162D01*
X4596100Y3243946D01*
X4820212Y3336776D01*
X5030289Y3458064D01*
X5222738Y3605735D01*
X5394265Y3777262D01*
X5541936Y3969711D01*
X5663224Y4179788D01*
X5756054Y4403900D01*
X5818838Y4638211D01*
X5828307Y4710139D01*
X5831988Y4738098D01*
X24499500Y4738098D01*
X24499500Y4501903D01*
X24536446Y4268632D01*
X24609433Y4044004D01*
X24647288Y3969711D01*
X24716657Y3833567D01*
X24855483Y3642490D01*
X25022490Y3475483D01*
X25213567Y3336657D01*
X25312991Y3285998D01*
X25424003Y3229434D01*
X25424005Y3229434D01*
X25424008Y3229432D01*
X25544412Y3190311D01*
X25648631Y3156447D01*
X25881903Y3119500D01*
X25881908Y3119500D01*
X26118097Y3119500D01*
X26351368Y3156447D01*
X26575992Y3229432D01*
X26786433Y3336657D01*
X26977510Y3475483D01*
X27144517Y3642490D01*
X27283343Y3833567D01*
X27390568Y4044008D01*
X27463553Y4268632D01*
X27484977Y4403896D01*
X27500500Y4501903D01*
X27500500Y4738098D01*
X30999500Y4738098D01*
X30999500Y4501903D01*
X31036446Y4268632D01*
X31109433Y4044004D01*
X31147288Y3969711D01*
X31216657Y3833567D01*
X31355483Y3642490D01*
X31522490Y3475483D01*
X31713567Y3336657D01*
X31812991Y3285998D01*
X31924003Y3229434D01*
X31924005Y3229434D01*
X31924008Y3229432D01*
X32044412Y3190311D01*
X32148631Y3156447D01*
X32381903Y3119500D01*
X32381908Y3119500D01*
X32618097Y3119500D01*
X32851368Y3156447D01*
X33075992Y3229432D01*
X33286433Y3336657D01*
X33477510Y3475483D01*
X33644517Y3642490D01*
X33783343Y3833567D01*
X33890568Y4044008D01*
X33963553Y4268632D01*
X33984977Y4403896D01*
X34000500Y4501903D01*
X34000500Y4738098D01*
X33963553Y4971369D01*
X33914841Y5121288D01*
X33890568Y5195992D01*
X33890566Y5195995D01*
X33890566Y5195997D01*
X33783342Y5406434D01*
X33644517Y5597510D01*
X33477510Y5764517D01*
X33286433Y5903343D01*
X33285340Y5903900D01*
X33075996Y6010567D01*
X32851368Y6083554D01*
X32618097Y6120500D01*
X32618092Y6120500D01*
X32381908Y6120500D01*
X32381903Y6120500D01*
X32148631Y6083554D01*
X31924003Y6010567D01*
X31713566Y5903343D01*
X31604550Y5824138D01*
X31522490Y5764517D01*
X31522488Y5764515D01*
X31522487Y5764515D01*
X31355485Y5597513D01*
X31355485Y5597512D01*
X31355483Y5597510D01*
X31354459Y5596100D01*
X31216657Y5406434D01*
X31109433Y5195997D01*
X31036446Y4971369D01*
X30999500Y4738098D01*
X27500500Y4738098D01*
X27463553Y4971369D01*
X27414841Y5121288D01*
X27390568Y5195992D01*
X27390566Y5195995D01*
X27390566Y5195997D01*
X27283342Y5406434D01*
X27144517Y5597510D01*
X26977510Y5764517D01*
X26786433Y5903343D01*
X26785340Y5903900D01*
X26575996Y6010567D01*
X26351368Y6083554D01*
X26118097Y6120500D01*
X26118092Y6120500D01*
X25881908Y6120500D01*
X25881903Y6120500D01*
X25648631Y6083554D01*
X25424003Y6010567D01*
X25213566Y5903343D01*
X25104550Y5824138D01*
X25022490Y5764517D01*
X25022488Y5764515D01*
X25022487Y5764515D01*
X24855485Y5597513D01*
X24855485Y5597512D01*
X24855483Y5597510D01*
X24854459Y5596100D01*
X24716657Y5406434D01*
X24609433Y5195997D01*
X24536446Y4971369D01*
X24499500Y4738098D01*
X5831988Y4738098D01*
X5834760Y4759150D01*
X5834760Y4759151D01*
X5850500Y4878712D01*
X5850500Y5121289D01*
X5838422Y5213028D01*
X5818838Y5361789D01*
X5756054Y5596100D01*
X5663224Y5820212D01*
X5541936Y6030289D01*
X5394265Y6222738D01*
X5394260Y6222744D01*
X5222743Y6394261D01*
X5222736Y6394267D01*
X5049792Y6526971D01*
X5030293Y6541933D01*
X5030292Y6541934D01*
X5030289Y6541936D01*
X4892846Y6621289D01*
X46149500Y6621289D01*
X46149500Y6378712D01*
X46181161Y6138215D01*
X46243947Y5903896D01*
X46278613Y5820206D01*
X46336776Y5679788D01*
X46458064Y5469711D01*
X46458066Y5469708D01*
X46458067Y5469707D01*
X46605733Y5277264D01*
X46605739Y5277257D01*
X46777256Y5105740D01*
X46777262Y5105735D01*
X46969711Y4958064D01*
X47179788Y4836776D01*
X47403900Y4743946D01*
X47638211Y4681162D01*
X47818586Y4657416D01*
X47878711Y4649500D01*
X47878712Y4649500D01*
X48121289Y4649500D01*
X48169388Y4655833D01*
X48361789Y4681162D01*
X48596100Y4743946D01*
X48820212Y4836776D01*
X49030289Y4958064D01*
X49222738Y5105735D01*
X49238292Y5121289D01*
X57649500Y5121289D01*
X57649500Y4878712D01*
X57681161Y4638215D01*
X57743947Y4403896D01*
X57836773Y4179795D01*
X57836776Y4179788D01*
X57958064Y3969711D01*
X57958066Y3969708D01*
X57958067Y3969707D01*
X58105733Y3777264D01*
X58105739Y3777257D01*
X58277256Y3605740D01*
X58277262Y3605735D01*
X58469711Y3458064D01*
X58679788Y3336776D01*
X58903900Y3243946D01*
X59138211Y3181162D01*
X59318586Y3157416D01*
X59378711Y3149500D01*
X59378712Y3149500D01*
X59621289Y3149500D01*
X59674057Y3156447D01*
X59861789Y3181162D01*
X60096100Y3243946D01*
X60320212Y3336776D01*
X60530289Y3458064D01*
X60722738Y3605735D01*
X60894265Y3777262D01*
X61041936Y3969711D01*
X61163224Y4179788D01*
X61256054Y4403900D01*
X61318838Y4638211D01*
X61350500Y4878712D01*
X61350500Y5121288D01*
X61318838Y5361789D01*
X61256054Y5596100D01*
X61163224Y5820212D01*
X61041936Y6030289D01*
X60894265Y6222738D01*
X60894260Y6222744D01*
X60722743Y6394261D01*
X60722736Y6394267D01*
X60530293Y6541933D01*
X60530292Y6541934D01*
X60530289Y6541936D01*
X60320212Y6663224D01*
X60320205Y6663227D01*
X60096104Y6756053D01*
X59861785Y6818839D01*
X59621289Y6850500D01*
X59621288Y6850500D01*
X59378712Y6850500D01*
X59378711Y6850500D01*
X59138214Y6818839D01*
X58903895Y6756053D01*
X58679794Y6663227D01*
X58679785Y6663223D01*
X58469706Y6541933D01*
X58277263Y6394267D01*
X58277256Y6394261D01*
X58105739Y6222744D01*
X58105733Y6222737D01*
X57958067Y6030294D01*
X57958064Y6030290D01*
X57958064Y6030289D01*
X57941817Y6002149D01*
X57836777Y5820215D01*
X57836773Y5820206D01*
X57743947Y5596105D01*
X57681161Y5361786D01*
X57649500Y5121289D01*
X49238292Y5121289D01*
X49330032Y5213028D01*
X49394260Y5277257D01*
X49394265Y5277262D01*
X49541936Y5469711D01*
X49663224Y5679788D01*
X49756054Y5903900D01*
X49818838Y6138211D01*
X49850500Y6378712D01*
X49850500Y6621288D01*
X49818838Y6861789D01*
X49756054Y7096100D01*
X49663224Y7320212D01*
X49541936Y7530289D01*
X49394265Y7722738D01*
X49394260Y7722744D01*
X49222743Y7894261D01*
X49222736Y7894267D01*
X49030293Y8041933D01*
X49030292Y8041934D01*
X49030289Y8041936D01*
X48820212Y8163224D01*
X48820205Y8163227D01*
X48596104Y8256053D01*
X48361785Y8318839D01*
X48121289Y8350500D01*
X48121288Y8350500D01*
X47878712Y8350500D01*
X47878711Y8350500D01*
X47638214Y8318839D01*
X47403895Y8256053D01*
X47179794Y8163227D01*
X47179785Y8163223D01*
X46969706Y8041933D01*
X46777263Y7894267D01*
X46777256Y7894261D01*
X46605739Y7722744D01*
X46605733Y7722737D01*
X46458067Y7530294D01*
X46336777Y7320215D01*
X46336773Y7320206D01*
X46243947Y7096105D01*
X46181161Y6861786D01*
X46149500Y6621289D01*
X4892846Y6621289D01*
X4820212Y6663224D01*
X4820205Y6663227D01*
X4596104Y6756053D01*
X4361785Y6818839D01*
X4121289Y6850500D01*
X4121288Y6850500D01*
X3878712Y6850500D01*
X3878711Y6850500D01*
X3638214Y6818839D01*
X3403895Y6756053D01*
X3179794Y6663227D01*
X3179785Y6663223D01*
X2969706Y6541933D01*
X2777263Y6394267D01*
X2777256Y6394261D01*
X2605739Y6222744D01*
X2605733Y6222737D01*
X2458067Y6030294D01*
X2458064Y6030290D01*
X2458064Y6030289D01*
X2441817Y6002149D01*
X2336777Y5820215D01*
X2336773Y5820206D01*
X2243947Y5596105D01*
X2181161Y5361786D01*
X2149500Y5121289D01*
X1000500Y5121289D01*
X1000500Y9238053D01*
X24500000Y9238053D01*
X24500000Y9001948D01*
X24536934Y8768753D01*
X24609897Y8544198D01*
X24717087Y8333826D01*
X24777338Y8250896D01*
X24777340Y8250895D01*
X25476212Y8949767D01*
X25487482Y8907708D01*
X25559890Y8782292D01*
X25662292Y8679890D01*
X25787708Y8607482D01*
X25829765Y8596213D01*
X25130893Y7897342D01*
X25213828Y7837086D01*
X25424197Y7729898D01*
X25648752Y7656935D01*
X25648751Y7656935D01*
X25881948Y7620000D01*
X26118052Y7620000D01*
X26351247Y7656935D01*
X26575802Y7729898D01*
X26786163Y7837082D01*
X26786169Y7837086D01*
X26869104Y7897342D01*
X26869105Y7897342D01*
X26170233Y8596213D01*
X26212292Y8607482D01*
X26337708Y8679890D01*
X26440110Y8782292D01*
X26512518Y8907708D01*
X26523787Y8949767D01*
X27222658Y8250895D01*
X27222658Y8250896D01*
X27282914Y8333831D01*
X27282918Y8333837D01*
X27390102Y8544198D01*
X27463065Y8768753D01*
X27500000Y9001948D01*
X27500000Y9238053D01*
X31000000Y9238053D01*
X31000000Y9001948D01*
X31036934Y8768753D01*
X31109897Y8544198D01*
X31217087Y8333826D01*
X31277338Y8250896D01*
X31277340Y8250895D01*
X31976212Y8949767D01*
X31987482Y8907708D01*
X32059890Y8782292D01*
X32162292Y8679890D01*
X32287708Y8607482D01*
X32329765Y8596213D01*
X31630893Y7897342D01*
X31713828Y7837086D01*
X31924197Y7729898D01*
X32148752Y7656935D01*
X32148751Y7656935D01*
X32381948Y7620000D01*
X32618052Y7620000D01*
X32851247Y7656935D01*
X33075802Y7729898D01*
X33286163Y7837082D01*
X33286169Y7837086D01*
X33369104Y7897342D01*
X33369105Y7897342D01*
X32670233Y8596213D01*
X32712292Y8607482D01*
X32837708Y8679890D01*
X32940110Y8782292D01*
X33012518Y8907708D01*
X33023787Y8949766D01*
X33722658Y8250895D01*
X33722658Y8250896D01*
X33782914Y8333831D01*
X33782918Y8333837D01*
X33890102Y8544198D01*
X33963065Y8768753D01*
X34000000Y9001948D01*
X34000000Y9238053D01*
X33963065Y9471248D01*
X33890102Y9695803D01*
X33782914Y9906172D01*
X33722658Y9989106D01*
X33722658Y9989107D01*
X33023787Y9290235D01*
X33012518Y9332292D01*
X32940110Y9457708D01*
X32837708Y9560110D01*
X32712292Y9632518D01*
X32670234Y9643788D01*
X33369105Y10342660D01*
X33369104Y10342662D01*
X33286174Y10402913D01*
X33075802Y10510103D01*
X32851247Y10583066D01*
X32851248Y10583066D01*
X32618052Y10620000D01*
X32381948Y10620000D01*
X32148752Y10583066D01*
X31924197Y10510103D01*
X31713830Y10402916D01*
X31630894Y10342660D01*
X32329766Y9643788D01*
X32287708Y9632518D01*
X32162292Y9560110D01*
X32059890Y9457708D01*
X31987482Y9332292D01*
X31976212Y9290234D01*
X31277340Y9989106D01*
X31217084Y9906170D01*
X31109897Y9695803D01*
X31036934Y9471248D01*
X31000000Y9238053D01*
X27500000Y9238053D01*
X27463065Y9471248D01*
X27390102Y9695803D01*
X27282914Y9906172D01*
X27222658Y9989106D01*
X27222658Y9989107D01*
X26523787Y9290235D01*
X26512518Y9332292D01*
X26440110Y9457708D01*
X26337708Y9560110D01*
X26212292Y9632518D01*
X26170234Y9643788D01*
X26869105Y10342660D01*
X26869104Y10342661D01*
X26786174Y10402913D01*
X26575802Y10510103D01*
X26351247Y10583066D01*
X26351248Y10583066D01*
X26118052Y10620000D01*
X25881948Y10620000D01*
X25648752Y10583066D01*
X25424197Y10510103D01*
X25213830Y10402916D01*
X25130894Y10342660D01*
X25829766Y9643788D01*
X25787708Y9632518D01*
X25662292Y9560110D01*
X25559890Y9457708D01*
X25487482Y9332292D01*
X25476212Y9290234D01*
X24777340Y9989106D01*
X24717084Y9906170D01*
X24609897Y9695803D01*
X24536934Y9471248D01*
X24500000Y9238053D01*
X1000500Y9238053D01*
X1000500Y25197865D01*
X5674500Y25197865D01*
X5674500Y23402130D01*
X5674501Y23402124D01*
X5680908Y23342517D01*
X5731202Y23207672D01*
X5731206Y23207665D01*
X5817452Y23092456D01*
X5817455Y23092453D01*
X5932664Y23006207D01*
X5932671Y23006203D01*
X6064082Y22957190D01*
X6120016Y22915319D01*
X6144433Y22849855D01*
X6129582Y22781582D01*
X6108431Y22753327D01*
X5994889Y22639785D01*
X5869951Y22467821D01*
X5773444Y22278415D01*
X5707753Y22076240D01*
X5692228Y21978218D01*
X5674500Y21866287D01*
X5674500Y21653713D01*
X5707754Y21443757D01*
X5771112Y21248761D01*
X5773444Y21241586D01*
X5869951Y21052180D01*
X5994890Y20880214D01*
X6145213Y20729891D01*
X6317179Y20604952D01*
X6317181Y20604951D01*
X6317184Y20604949D01*
X6326493Y20600206D01*
X6377290Y20552234D01*
X6394087Y20484413D01*
X6371552Y20418278D01*
X6326502Y20379238D01*
X6317443Y20374622D01*
X6145540Y20249728D01*
X6145535Y20249724D01*
X5995276Y20099465D01*
X5995272Y20099460D01*
X5870379Y19927558D01*
X5773904Y19738218D01*
X5708242Y19536130D01*
X5708242Y19536127D01*
X5697769Y19470000D01*
X6591988Y19470000D01*
X6559075Y19412993D01*
X6525000Y19285826D01*
X6525000Y19154174D01*
X6559075Y19027007D01*
X6591988Y18970000D01*
X5697769Y18970000D01*
X5708242Y18903874D01*
X5708242Y18903871D01*
X5773904Y18701783D01*
X5870379Y18512443D01*
X5995272Y18340541D01*
X5995276Y18340536D01*
X6145535Y18190277D01*
X6145540Y18190273D01*
X6317444Y18065378D01*
X6326495Y18060766D01*
X6377292Y18012792D01*
X6394087Y17944971D01*
X6371550Y17878836D01*
X6326499Y17839798D01*
X6317182Y17835051D01*
X6145213Y17710110D01*
X5994890Y17559787D01*
X5869951Y17387821D01*
X5773444Y17198415D01*
X5707753Y16996240D01*
X5684151Y16847219D01*
X5674500Y16786287D01*
X5674500Y16573713D01*
X5707754Y16363757D01*
X5771112Y16168761D01*
X5773444Y16161586D01*
X5869951Y15972180D01*
X5994890Y15800214D01*
X6145213Y15649891D01*
X6317179Y15524952D01*
X6317181Y15524951D01*
X6317184Y15524949D01*
X6506588Y15428443D01*
X6708757Y15362754D01*
X6918713Y15329500D01*
X6918714Y15329500D01*
X7131286Y15329500D01*
X7131287Y15329500D01*
X7341243Y15362754D01*
X7543412Y15428443D01*
X7732816Y15524949D01*
X7808874Y15580208D01*
X7904786Y15649891D01*
X7904788Y15649894D01*
X7904792Y15649896D01*
X8055104Y15800208D01*
X8055106Y15800212D01*
X8055109Y15800214D01*
X8180048Y15972180D01*
X8180047Y15972180D01*
X8180051Y15972184D01*
X8246375Y16102352D01*
X13149500Y16102352D01*
X13149500Y15897649D01*
X13181522Y15695466D01*
X13244781Y15500777D01*
X13280900Y15429891D01*
X13334098Y15325484D01*
X13337715Y15318387D01*
X13458028Y15152787D01*
X13602786Y15008029D01*
X13682515Y14950104D01*
X13768390Y14887713D01*
X13884607Y14828497D01*
X13950776Y14794782D01*
X13950778Y14794782D01*
X13950781Y14794780D01*
X14055137Y14760873D01*
X14145465Y14731523D01*
X14227834Y14718477D01*
X14347648Y14699500D01*
X14347649Y14699500D01*
X14552351Y14699500D01*
X14552352Y14699500D01*
X14754534Y14731523D01*
X14949219Y14794780D01*
X15131610Y14887713D01*
X15224590Y14955268D01*
X15297213Y15008029D01*
X15297215Y15008032D01*
X15297219Y15008034D01*
X15441966Y15152781D01*
X15441968Y15152785D01*
X15441971Y15152787D01*
X15514422Y15252509D01*
X15562287Y15318390D01*
X15655220Y15500781D01*
X15718477Y15695466D01*
X15750500Y15897648D01*
X15750500Y16102352D01*
X15718477Y16304534D01*
X15702497Y16353714D01*
X15694374Y16378714D01*
X15655220Y16499219D01*
X15655217Y16499223D01*
X15655217Y16499226D01*
X15634511Y16539863D01*
X15634510Y16539864D01*
X15562284Y16681615D01*
X15441971Y16847214D01*
X15297213Y16991972D01*
X15131611Y17112287D01*
X15077621Y17139797D01*
X15026825Y17187772D01*
X15010031Y17255593D01*
X15032569Y17321728D01*
X15077624Y17360767D01*
X15131349Y17388141D01*
X15175921Y17420526D01*
X14496447Y18100000D01*
X14502661Y18100000D01*
X14604394Y18127259D01*
X14695606Y18179920D01*
X14770080Y18254394D01*
X14822741Y18345606D01*
X14850000Y18447339D01*
X14850000Y18453553D01*
X15529474Y17774079D01*
X15561859Y17818651D01*
X15654755Y18000969D01*
X15717990Y18195583D01*
X15750000Y18397683D01*
X15750000Y18602318D01*
X15717990Y18804418D01*
X15656767Y18992840D01*
X15656766Y18992841D01*
X15654755Y18999031D01*
X15561859Y19181350D01*
X15529474Y19225923D01*
X15529474Y19225924D01*
X14850000Y18546449D01*
X14850000Y18552661D01*
X14822741Y18654394D01*
X14770080Y18745606D01*
X14695606Y18820080D01*
X14604394Y18872741D01*
X14502661Y18900000D01*
X14496446Y18900000D01*
X15175922Y19579476D01*
X15175921Y19579477D01*
X15131359Y19611853D01*
X15131350Y19611859D01*
X14949031Y19704756D01*
X14754417Y19767991D01*
X14552317Y19800000D01*
X14347683Y19800000D01*
X14145582Y19767991D01*
X13950968Y19704756D01*
X13768644Y19611857D01*
X13724077Y19579477D01*
X13724077Y19579476D01*
X14403554Y18900000D01*
X14397339Y18900000D01*
X14295606Y18872741D01*
X14204394Y18820080D01*
X14129920Y18745606D01*
X14077259Y18654394D01*
X14050000Y18552661D01*
X14050000Y18546447D01*
X13370524Y19225923D01*
X13370523Y19225923D01*
X13338143Y19181356D01*
X13245244Y18999032D01*
X13182009Y18804418D01*
X13150000Y18602318D01*
X13150000Y18397683D01*
X13182009Y18195583D01*
X13245244Y18000969D01*
X13338141Y17818650D01*
X13338147Y17818641D01*
X13370523Y17774079D01*
X13370524Y17774078D01*
X14050000Y18453554D01*
X14050000Y18447339D01*
X14077259Y18345606D01*
X14129920Y18254394D01*
X14204394Y18179920D01*
X14295606Y18127259D01*
X14397339Y18100000D01*
X14403553Y18100000D01*
X13724076Y17420526D01*
X13768652Y17388139D01*
X13822376Y17360766D01*
X13873172Y17312792D01*
X13889968Y17244972D01*
X13867431Y17178836D01*
X13822379Y17139797D01*
X13768386Y17112286D01*
X13602786Y16991972D01*
X13458028Y16847214D01*
X13337715Y16681614D01*
X13244781Y16499224D01*
X13181522Y16304535D01*
X13149500Y16102352D01*
X8246375Y16102352D01*
X8276557Y16161588D01*
X8342246Y16363757D01*
X8375500Y16573713D01*
X8375500Y16786287D01*
X8342246Y16996243D01*
X8276557Y17198412D01*
X8180051Y17387816D01*
X8180049Y17387819D01*
X8180048Y17387821D01*
X8055109Y17559787D01*
X7904786Y17710110D01*
X7732817Y17835051D01*
X7723504Y17839796D01*
X7672707Y17887770D01*
X7655912Y17955591D01*
X7678449Y18021726D01*
X7723507Y18060768D01*
X7732558Y18065380D01*
X7904459Y18190273D01*
X7904464Y18190277D01*
X8054723Y18340536D01*
X8054727Y18340541D01*
X8179620Y18512443D01*
X8256579Y18663479D01*
X8256580Y18663481D01*
X8276094Y18701780D01*
X8341757Y18903871D01*
X8341757Y18903874D01*
X8352231Y18970000D01*
X7458012Y18970000D01*
X7490925Y19027007D01*
X7525000Y19154174D01*
X7525000Y19285826D01*
X7490925Y19412993D01*
X7458012Y19470000D01*
X8352231Y19470000D01*
X8345449Y19512819D01*
X8345448Y19512821D01*
X8341756Y19536133D01*
X8276095Y19738218D01*
X8179620Y19927558D01*
X8054727Y20099460D01*
X8054723Y20099465D01*
X7904464Y20249724D01*
X7904459Y20249728D01*
X7732555Y20374623D01*
X7723500Y20379237D01*
X7672706Y20427212D01*
X7655912Y20495034D01*
X7678451Y20561168D01*
X7723508Y20600207D01*
X7732816Y20604949D01*
X7843292Y20685214D01*
X7904786Y20729891D01*
X7904788Y20729894D01*
X7904792Y20729896D01*
X8055104Y20880208D01*
X8055106Y20880212D01*
X8055109Y20880214D01*
X8180048Y21052180D01*
X8180047Y21052180D01*
X8180051Y21052184D01*
X8276557Y21241588D01*
X8342246Y21443757D01*
X8375500Y21653713D01*
X8375500Y21866287D01*
X8342246Y22076243D01*
X8276557Y22278412D01*
X8180051Y22467816D01*
X8180049Y22467819D01*
X8180048Y22467821D01*
X8055109Y22639787D01*
X7941569Y22753327D01*
X7908084Y22814650D01*
X7913068Y22884342D01*
X7954940Y22940275D01*
X7985915Y22957190D01*
X8117331Y23006204D01*
X8232546Y23092454D01*
X8318796Y23207669D01*
X8369091Y23342517D01*
X8375500Y23402127D01*
X8375499Y25197872D01*
X8369091Y25257483D01*
X8368133Y25260051D01*
X8318797Y25392329D01*
X8318793Y25392336D01*
X8232547Y25507545D01*
X8232544Y25507548D01*
X8117335Y25593794D01*
X8117328Y25593798D01*
X7982482Y25644092D01*
X7982483Y25644092D01*
X7922883Y25650499D01*
X7922881Y25650500D01*
X7922873Y25650500D01*
X7922864Y25650500D01*
X6127129Y25650500D01*
X6127123Y25650499D01*
X6067516Y25644092D01*
X5932671Y25593798D01*
X5932664Y25593794D01*
X5817455Y25507548D01*
X5817452Y25507545D01*
X5731206Y25392336D01*
X5731202Y25392329D01*
X5680908Y25257483D01*
X5674501Y25197884D01*
X5674501Y25197877D01*
X5674500Y25197865D01*
X1000500Y25197865D01*
X1000500Y34617986D01*
X5200000Y34617986D01*
X5200000Y34382015D01*
X5230799Y34148086D01*
X5291870Y33920163D01*
X5382160Y33702181D01*
X5382165Y33702172D01*
X5500144Y33497829D01*
X5500145Y33497828D01*
X5562721Y33416277D01*
X6398958Y34252513D01*
X6423978Y34192110D01*
X6495112Y34085649D01*
X6585649Y33995112D01*
X6692110Y33923978D01*
X6752511Y33898959D01*
X5916275Y33062723D01*
X5997827Y33000146D01*
X5997828Y33000145D01*
X6202171Y32882166D01*
X6202180Y32882161D01*
X6420163Y32791871D01*
X6420161Y32791871D01*
X6648085Y32730800D01*
X6882014Y32700001D01*
X6882029Y32700000D01*
X7117971Y32700000D01*
X7117985Y32700001D01*
X7351914Y32730800D01*
X7579837Y32791871D01*
X7797819Y32882161D01*
X7797828Y32882166D01*
X8002181Y33000150D01*
X8083723Y33062721D01*
X8083723Y33062724D01*
X7247487Y33898959D01*
X7307890Y33923978D01*
X7414351Y33995112D01*
X7504888Y34085649D01*
X7576022Y34192110D01*
X7601041Y34252512D01*
X8437276Y33416277D01*
X8437279Y33416277D01*
X8499850Y33497819D01*
X8617834Y33702172D01*
X8617839Y33702181D01*
X8708129Y33920163D01*
X8769200Y34148086D01*
X8799999Y34382015D01*
X8800000Y34382029D01*
X8800000Y34617972D01*
X8799999Y34617986D01*
X8769200Y34851915D01*
X8708129Y35079838D01*
X8617839Y35297820D01*
X8617834Y35297829D01*
X8499855Y35502172D01*
X8499854Y35502173D01*
X8437277Y35583725D01*
X7601041Y34747489D01*
X7576022Y34807890D01*
X7504888Y34914351D01*
X7414351Y35004888D01*
X7307890Y35076022D01*
X7247488Y35101042D01*
X8083723Y35937279D01*
X8002172Y35999855D01*
X8002171Y35999856D01*
X7797828Y36117835D01*
X7797819Y36117840D01*
X7579836Y36208130D01*
X7579838Y36208130D01*
X7351914Y36269201D01*
X7117985Y36300000D01*
X6882014Y36300000D01*
X6648085Y36269201D01*
X6420162Y36208130D01*
X6202180Y36117840D01*
X6202171Y36117835D01*
X5997828Y35999856D01*
X5997818Y35999850D01*
X5916275Y35937280D01*
X5916275Y35937279D01*
X6752512Y35101042D01*
X6692110Y35076022D01*
X6585649Y35004888D01*
X6495112Y34914351D01*
X6423978Y34807890D01*
X6398958Y34747488D01*
X5562721Y35583725D01*
X5562720Y35583725D01*
X5500150Y35502182D01*
X5500144Y35502172D01*
X5382165Y35297829D01*
X5382160Y35297820D01*
X5291870Y35079838D01*
X5230799Y34851915D01*
X5200000Y34617986D01*
X1000500Y34617986D01*
X1000500Y39618005D01*
X5199500Y39618005D01*
X5199500Y39381996D01*
X5199501Y39381980D01*
X5230306Y39147990D01*
X5291394Y38920007D01*
X5381714Y38701955D01*
X5381719Y38701944D01*
X5433542Y38612186D01*
X5499727Y38497550D01*
X5499729Y38497547D01*
X5499730Y38497546D01*
X5643406Y38310303D01*
X5643412Y38310296D01*
X5810295Y38143413D01*
X5810302Y38143407D01*
X5838925Y38121444D01*
X5997550Y37999727D01*
X6101842Y37939514D01*
X6201943Y37881720D01*
X6201948Y37881718D01*
X6201951Y37881716D01*
X6420007Y37791394D01*
X6647986Y37730307D01*
X6881989Y37699500D01*
X6881996Y37699500D01*
X7118004Y37699500D01*
X7118011Y37699500D01*
X7352014Y37730307D01*
X7579993Y37791394D01*
X7798049Y37881716D01*
X8002450Y37999727D01*
X8189699Y38143408D01*
X8356592Y38310301D01*
X8500273Y38497550D01*
X8618284Y38701951D01*
X8708606Y38920007D01*
X8769693Y39147986D01*
X8800500Y39381989D01*
X8800500Y39618011D01*
X8769693Y39852014D01*
X8708606Y40079993D01*
X8618284Y40298049D01*
X8618282Y40298052D01*
X8618280Y40298057D01*
X8573793Y40375110D01*
X8500273Y40502450D01*
X8417987Y40609688D01*
X8356593Y40689698D01*
X8356587Y40689705D01*
X8189704Y40856588D01*
X8189697Y40856594D01*
X8002454Y41000270D01*
X8002453Y41000271D01*
X8002450Y41000273D01*
X7920957Y41047323D01*
X7798056Y41118281D01*
X7798045Y41118286D01*
X7579993Y41208606D01*
X7352010Y41269694D01*
X7118020Y41300499D01*
X7118017Y41300500D01*
X7118011Y41300500D01*
X6881989Y41300500D01*
X6881983Y41300500D01*
X6881979Y41300499D01*
X6647989Y41269694D01*
X6420006Y41208606D01*
X6201954Y41118286D01*
X6201943Y41118281D01*
X5997545Y41000270D01*
X5810302Y40856594D01*
X5810295Y40856588D01*
X5643412Y40689705D01*
X5643406Y40689698D01*
X5499730Y40502455D01*
X5381719Y40298057D01*
X5381714Y40298046D01*
X5291394Y40079994D01*
X5230306Y39852011D01*
X5199501Y39618021D01*
X5199500Y39618005D01*
X1000500Y39618005D01*
X1000500Y44617986D01*
X5200000Y44617986D01*
X5200000Y44382015D01*
X5230799Y44148086D01*
X5291870Y43920163D01*
X5382160Y43702181D01*
X5382165Y43702172D01*
X5500144Y43497829D01*
X5500145Y43497828D01*
X5562721Y43416277D01*
X6398958Y44252513D01*
X6423978Y44192110D01*
X6495112Y44085649D01*
X6585649Y43995112D01*
X6692110Y43923978D01*
X6752511Y43898959D01*
X5916275Y43062723D01*
X5997827Y43000146D01*
X5997828Y43000145D01*
X6202171Y42882166D01*
X6202180Y42882161D01*
X6420163Y42791871D01*
X6420161Y42791871D01*
X6648085Y42730800D01*
X6882014Y42700001D01*
X6882029Y42700000D01*
X7117971Y42700000D01*
X7117985Y42700001D01*
X7351914Y42730800D01*
X7579837Y42791871D01*
X7797819Y42882161D01*
X7797828Y42882166D01*
X8002181Y43000150D01*
X8083723Y43062721D01*
X8083723Y43062724D01*
X7247487Y43898959D01*
X7307890Y43923978D01*
X7414351Y43995112D01*
X7504888Y44085649D01*
X7576022Y44192110D01*
X7601041Y44252512D01*
X8437276Y43416277D01*
X8437279Y43416277D01*
X8499850Y43497819D01*
X8617834Y43702172D01*
X8617839Y43702181D01*
X8708129Y43920163D01*
X8769200Y44148086D01*
X8799999Y44382015D01*
X8800000Y44382029D01*
X8800000Y44617972D01*
X8799999Y44617986D01*
X8769200Y44851915D01*
X8708129Y45079838D01*
X8617839Y45297820D01*
X8617834Y45297829D01*
X8499855Y45502172D01*
X8499854Y45502173D01*
X8437277Y45583725D01*
X7601041Y44747489D01*
X7576022Y44807890D01*
X7504888Y44914351D01*
X7414351Y45004888D01*
X7307890Y45076022D01*
X7247488Y45101042D01*
X8083723Y45937279D01*
X8002172Y45999855D01*
X8002171Y45999856D01*
X7797828Y46117835D01*
X7797819Y46117840D01*
X7579836Y46208130D01*
X7579838Y46208130D01*
X7351914Y46269201D01*
X7117985Y46300000D01*
X6882014Y46300000D01*
X6648085Y46269201D01*
X6420162Y46208130D01*
X6202180Y46117840D01*
X6202171Y46117835D01*
X5997828Y45999856D01*
X5997818Y45999850D01*
X5916275Y45937280D01*
X5916275Y45937279D01*
X6752512Y45101042D01*
X6692110Y45076022D01*
X6585649Y45004888D01*
X6495112Y44914351D01*
X6423978Y44807890D01*
X6398958Y44747488D01*
X5562721Y45583725D01*
X5562720Y45583725D01*
X5500150Y45502182D01*
X5500144Y45502172D01*
X5382165Y45297829D01*
X5382160Y45297820D01*
X5291870Y45079838D01*
X5230799Y44851915D01*
X5200000Y44617986D01*
X1000500Y44617986D01*
X1000500Y49617986D01*
X5200000Y49617986D01*
X5200000Y49382015D01*
X5230799Y49148086D01*
X5291870Y48920163D01*
X5382160Y48702181D01*
X5382165Y48702172D01*
X5500144Y48497829D01*
X5500145Y48497828D01*
X5562721Y48416277D01*
X6398958Y49252513D01*
X6423978Y49192110D01*
X6495112Y49085649D01*
X6585649Y48995112D01*
X6692110Y48923978D01*
X6752511Y48898959D01*
X5916275Y48062723D01*
X5997827Y48000146D01*
X5997828Y48000145D01*
X6202171Y47882166D01*
X6202180Y47882161D01*
X6420163Y47791871D01*
X6420161Y47791871D01*
X6648085Y47730800D01*
X6882014Y47700001D01*
X6882029Y47700000D01*
X7117971Y47700000D01*
X7117985Y47700001D01*
X7351914Y47730800D01*
X7579837Y47791871D01*
X7797819Y47882161D01*
X7797828Y47882166D01*
X8002181Y48000150D01*
X8083723Y48062721D01*
X8083723Y48062724D01*
X7247487Y48898959D01*
X7307890Y48923978D01*
X7414351Y48995112D01*
X7504888Y49085649D01*
X7576022Y49192110D01*
X7601041Y49252512D01*
X8437276Y48416277D01*
X8437279Y48416277D01*
X8499850Y48497819D01*
X8617834Y48702172D01*
X8617839Y48702181D01*
X8708129Y48920163D01*
X8769200Y49148086D01*
X8799999Y49382015D01*
X8800000Y49382029D01*
X8800000Y49617972D01*
X8799999Y49617986D01*
X8769200Y49851915D01*
X8708129Y50079838D01*
X8617839Y50297820D01*
X8617834Y50297829D01*
X8499855Y50502172D01*
X8499854Y50502173D01*
X8437277Y50583725D01*
X7601041Y49747489D01*
X7576022Y49807890D01*
X7504888Y49914351D01*
X7414351Y50004888D01*
X7307890Y50076022D01*
X7247488Y50101042D01*
X8083723Y50937279D01*
X8002172Y50999855D01*
X8002171Y50999856D01*
X7797828Y51117835D01*
X7797819Y51117840D01*
X7579836Y51208130D01*
X7579838Y51208130D01*
X7351914Y51269201D01*
X7117985Y51300000D01*
X6882014Y51300000D01*
X6648085Y51269201D01*
X6420162Y51208130D01*
X6202180Y51117840D01*
X6202171Y51117835D01*
X5997828Y50999856D01*
X5997818Y50999850D01*
X5916275Y50937280D01*
X5916275Y50937279D01*
X6752512Y50101042D01*
X6692110Y50076022D01*
X6585649Y50004888D01*
X6495112Y49914351D01*
X6423978Y49807890D01*
X6398958Y49747488D01*
X5562721Y50583725D01*
X5562720Y50583725D01*
X5500150Y50502182D01*
X5500144Y50502172D01*
X5382165Y50297829D01*
X5382160Y50297820D01*
X5291870Y50079838D01*
X5230799Y49851915D01*
X5200000Y49617986D01*
X1000500Y49617986D01*
X1000500Y54618005D01*
X5199500Y54618005D01*
X5199500Y54381996D01*
X5199501Y54381980D01*
X5230306Y54147990D01*
X5291394Y53920007D01*
X5381714Y53701955D01*
X5381719Y53701944D01*
X5452677Y53579043D01*
X5499727Y53497550D01*
X5499729Y53497547D01*
X5499730Y53497546D01*
X5643406Y53310303D01*
X5643412Y53310296D01*
X5810295Y53143413D01*
X5810302Y53143407D01*
X5899309Y53075110D01*
X5997550Y52999727D01*
X6127341Y52924792D01*
X6201943Y52881720D01*
X6201948Y52881718D01*
X6201951Y52881716D01*
X6420007Y52791394D01*
X6647986Y52730307D01*
X6881989Y52699500D01*
X6881996Y52699500D01*
X7118004Y52699500D01*
X7118011Y52699500D01*
X7352014Y52730307D01*
X7579993Y52791394D01*
X7798049Y52881716D01*
X8002450Y52999727D01*
X8189699Y53143408D01*
X8356592Y53310301D01*
X8500273Y53497550D01*
X8618284Y53701951D01*
X8708606Y53920007D01*
X8769693Y54147986D01*
X8800500Y54381989D01*
X8800500Y54618011D01*
X8796460Y54648697D01*
X8792343Y54679974D01*
X8769693Y54852011D01*
X8769693Y54852014D01*
X8708606Y55079993D01*
X8618284Y55298049D01*
X8618282Y55298052D01*
X8618280Y55298057D01*
X8576118Y55371082D01*
X8500273Y55502450D01*
X8356592Y55689699D01*
X8356587Y55689705D01*
X8189704Y55856588D01*
X8189697Y55856594D01*
X8002454Y56000270D01*
X8002453Y56000271D01*
X8002450Y56000273D01*
X7920957Y56047323D01*
X7798056Y56118281D01*
X7798045Y56118286D01*
X7579993Y56208606D01*
X7352010Y56269694D01*
X7118020Y56300499D01*
X7118017Y56300500D01*
X7118011Y56300500D01*
X6881989Y56300500D01*
X6881983Y56300500D01*
X6881979Y56300499D01*
X6647989Y56269694D01*
X6420006Y56208606D01*
X6201954Y56118286D01*
X6201943Y56118281D01*
X5997545Y56000270D01*
X5810302Y55856594D01*
X5810295Y55856588D01*
X5643412Y55689705D01*
X5643406Y55689698D01*
X5499730Y55502455D01*
X5381719Y55298057D01*
X5381714Y55298046D01*
X5291394Y55079994D01*
X5230306Y54852011D01*
X5199501Y54618021D01*
X5199500Y54618005D01*
X1000500Y54618005D01*
X1000500Y60600017D01*
X5199500Y60600017D01*
X5199500Y58399999D01*
X5199501Y58399982D01*
X5210000Y58297204D01*
X5210001Y58297201D01*
X5265185Y58130669D01*
X5265187Y58130664D01*
X5265767Y58129724D01*
X5357288Y57981344D01*
X5481344Y57857288D01*
X5630666Y57765186D01*
X5797203Y57710001D01*
X5899991Y57699500D01*
X8100008Y57699501D01*
X8202797Y57710001D01*
X8369334Y57765186D01*
X8518656Y57857288D01*
X8642712Y57981344D01*
X8734814Y58130666D01*
X8789999Y58297203D01*
X8800500Y58399991D01*
X8800499Y60600008D01*
X8797095Y60633327D01*
X8789999Y60702797D01*
X8789998Y60702800D01*
X8781033Y60729855D01*
X8734814Y60869334D01*
X8642712Y61018656D01*
X8518656Y61142712D01*
X8369334Y61234814D01*
X8202797Y61289999D01*
X8202795Y61290000D01*
X8100010Y61300500D01*
X5899998Y61300500D01*
X5899981Y61300499D01*
X5797203Y61290000D01*
X5797200Y61289999D01*
X5630668Y61234815D01*
X5630663Y61234813D01*
X5481342Y61142711D01*
X5357289Y61018658D01*
X5265187Y60869337D01*
X5265185Y60869332D01*
X5245686Y60810486D01*
X5210001Y60702797D01*
X5210001Y60702796D01*
X5210000Y60702796D01*
X5199500Y60600017D01*
X1000500Y60600017D01*
X1000500Y63102865D01*
X18869500Y63102865D01*
X18869500Y61307130D01*
X18869501Y61307124D01*
X18875908Y61247517D01*
X18926202Y61112672D01*
X18926206Y61112665D01*
X19012452Y60997456D01*
X19012455Y60997453D01*
X19127664Y60911207D01*
X19127671Y60911203D01*
X19259082Y60862190D01*
X19315016Y60820319D01*
X19339433Y60754855D01*
X19324582Y60686582D01*
X19303431Y60658327D01*
X19189889Y60544785D01*
X19064951Y60372821D01*
X18968444Y60183415D01*
X18902753Y59981240D01*
X18897554Y59948412D01*
X18869500Y59771287D01*
X18869500Y59558713D01*
X18902754Y59348757D01*
X18910891Y59323713D01*
X18968444Y59146586D01*
X19064951Y58957180D01*
X19189890Y58785214D01*
X19340213Y58634891D01*
X19512179Y58509952D01*
X19512181Y58509951D01*
X19512184Y58509949D01*
X19521493Y58505206D01*
X19572290Y58457234D01*
X19589087Y58389413D01*
X19566552Y58323278D01*
X19521502Y58284238D01*
X19512443Y58279622D01*
X19340540Y58154728D01*
X19340535Y58154724D01*
X19190276Y58004465D01*
X19190272Y58004460D01*
X19065379Y57832558D01*
X18968904Y57643218D01*
X18903242Y57441130D01*
X18903242Y57441127D01*
X18892769Y57375000D01*
X19786988Y57375000D01*
X19754075Y57317993D01*
X19720000Y57190826D01*
X19720000Y57059174D01*
X19754075Y56932007D01*
X19786988Y56875000D01*
X18892769Y56875000D01*
X18903242Y56808874D01*
X18903242Y56808871D01*
X18968904Y56606783D01*
X19065379Y56417443D01*
X19190272Y56245541D01*
X19190276Y56245536D01*
X19340535Y56095277D01*
X19340540Y56095273D01*
X19512444Y55970378D01*
X19521495Y55965766D01*
X19572292Y55917792D01*
X19589087Y55849971D01*
X19566550Y55783836D01*
X19521499Y55744798D01*
X19512182Y55740051D01*
X19340213Y55615110D01*
X19189890Y55464787D01*
X19064951Y55292821D01*
X18968444Y55103415D01*
X18902753Y54901240D01*
X18894956Y54852011D01*
X18869500Y54691287D01*
X18869500Y54478713D01*
X18873460Y54453713D01*
X18902753Y54268761D01*
X18968444Y54066586D01*
X19064951Y53877180D01*
X19189890Y53705214D01*
X19340213Y53554891D01*
X19512182Y53429950D01*
X19520946Y53425484D01*
X19571742Y53377509D01*
X19588536Y53309688D01*
X19565998Y53243553D01*
X19520946Y53204516D01*
X19512182Y53200051D01*
X19340213Y53075110D01*
X19189890Y52924787D01*
X19064951Y52752821D01*
X18968444Y52563415D01*
X18902753Y52361240D01*
X18869500Y52151287D01*
X18869500Y51938713D01*
X18873460Y51913713D01*
X18902753Y51728761D01*
X18968444Y51526586D01*
X19064951Y51337180D01*
X19189890Y51165214D01*
X19340213Y51014891D01*
X19512182Y50889950D01*
X19520946Y50885484D01*
X19571742Y50837509D01*
X19588536Y50769688D01*
X19565998Y50703553D01*
X19520946Y50664516D01*
X19512182Y50660051D01*
X19340213Y50535110D01*
X19189890Y50384787D01*
X19064951Y50212821D01*
X18968444Y50023415D01*
X18902753Y49821240D01*
X18881903Y49689598D01*
X18869500Y49611287D01*
X18869500Y49398713D01*
X18902754Y49188757D01*
X18965673Y48995112D01*
X18968444Y48986586D01*
X19064951Y48797180D01*
X19189890Y48625214D01*
X19340213Y48474891D01*
X19512182Y48349950D01*
X19520946Y48345484D01*
X19571742Y48297509D01*
X19588536Y48229688D01*
X19565998Y48163553D01*
X19520946Y48124516D01*
X19512182Y48120051D01*
X19340213Y47995110D01*
X19189890Y47844787D01*
X19064951Y47672821D01*
X18968444Y47483415D01*
X18902753Y47281240D01*
X18897087Y47245466D01*
X18869500Y47071287D01*
X18869500Y46858713D01*
X18902754Y46648757D01*
X18932233Y46558029D01*
X18968444Y46446586D01*
X19064951Y46257180D01*
X19189890Y46085214D01*
X19340213Y45934891D01*
X19512179Y45809952D01*
X19512181Y45809951D01*
X19512184Y45809949D01*
X19521493Y45805206D01*
X19572290Y45757234D01*
X19589087Y45689413D01*
X19566552Y45623278D01*
X19521502Y45584238D01*
X19512443Y45579622D01*
X19340540Y45454728D01*
X19340535Y45454724D01*
X19190276Y45304465D01*
X19190272Y45304460D01*
X19065379Y45132558D01*
X18968904Y44943218D01*
X18903242Y44741130D01*
X18903242Y44741127D01*
X18892769Y44675000D01*
X19786988Y44675000D01*
X19754075Y44617993D01*
X19720000Y44490826D01*
X19720000Y44359174D01*
X19754075Y44232007D01*
X19786988Y44175000D01*
X18892769Y44175000D01*
X18903242Y44108874D01*
X18903242Y44108871D01*
X18968904Y43906783D01*
X19065379Y43717443D01*
X19190272Y43545541D01*
X19190276Y43545536D01*
X19340535Y43395277D01*
X19340540Y43395273D01*
X19512444Y43270378D01*
X19521495Y43265766D01*
X19572292Y43217792D01*
X19589087Y43149971D01*
X19566550Y43083836D01*
X19521499Y43044798D01*
X19512182Y43040051D01*
X19340213Y42915110D01*
X19189890Y42764787D01*
X19064951Y42592821D01*
X18968444Y42403415D01*
X18902753Y42201240D01*
X18869500Y41991287D01*
X18869500Y41778713D01*
X18873460Y41753713D01*
X18902753Y41568761D01*
X18968444Y41366586D01*
X19064951Y41177180D01*
X19189890Y41005214D01*
X19340213Y40854891D01*
X19512182Y40729950D01*
X19520946Y40725484D01*
X19571742Y40677509D01*
X19588536Y40609688D01*
X19565998Y40543553D01*
X19520946Y40504516D01*
X19512182Y40500051D01*
X19340213Y40375110D01*
X19189890Y40224787D01*
X19064951Y40052821D01*
X18968444Y39863415D01*
X18902753Y39661240D01*
X18882013Y39530289D01*
X18869500Y39451287D01*
X18869500Y39238713D01*
X18902754Y39028757D01*
X18957006Y38861786D01*
X18968444Y38826586D01*
X19064951Y38637180D01*
X19189890Y38465214D01*
X19340213Y38314891D01*
X19512182Y38189950D01*
X19520946Y38185484D01*
X19571742Y38137509D01*
X19588536Y38069688D01*
X19565998Y38003553D01*
X19520946Y37964516D01*
X19512182Y37960051D01*
X19340213Y37835110D01*
X19189890Y37684787D01*
X19064951Y37512821D01*
X18968444Y37323415D01*
X18902753Y37121240D01*
X18876909Y36958068D01*
X18869500Y36911287D01*
X18869500Y36698713D01*
X18902754Y36488757D01*
X18964085Y36300000D01*
X18968444Y36286586D01*
X19064951Y36097180D01*
X19189890Y35925214D01*
X19340213Y35774891D01*
X19512182Y35649950D01*
X19520946Y35645484D01*
X19571742Y35597509D01*
X19588536Y35529688D01*
X19565998Y35463553D01*
X19520946Y35424516D01*
X19512182Y35420051D01*
X19340213Y35295110D01*
X19189890Y35144787D01*
X19064951Y34972821D01*
X18968444Y34783415D01*
X18902753Y34581240D01*
X18871201Y34382029D01*
X18869500Y34371287D01*
X18869500Y34158713D01*
X18902754Y33948757D01*
X18934842Y33850000D01*
X18968444Y33746586D01*
X19064951Y33557180D01*
X19189890Y33385214D01*
X19340213Y33234891D01*
X19512179Y33109952D01*
X19512181Y33109951D01*
X19512184Y33109949D01*
X19521493Y33105206D01*
X19572290Y33057234D01*
X19589087Y32989413D01*
X19566552Y32923278D01*
X19521502Y32884238D01*
X19512443Y32879622D01*
X19340540Y32754728D01*
X19340535Y32754724D01*
X19190276Y32604465D01*
X19190272Y32604460D01*
X19065379Y32432558D01*
X18968904Y32243218D01*
X18903242Y32041130D01*
X18903242Y32041127D01*
X18892769Y31975000D01*
X19786988Y31975000D01*
X19754075Y31917993D01*
X19720000Y31790826D01*
X19720000Y31659174D01*
X19754075Y31532007D01*
X19786988Y31475000D01*
X18892769Y31475000D01*
X18903242Y31408874D01*
X18903242Y31408871D01*
X18968904Y31206783D01*
X19065379Y31017443D01*
X19190272Y30845541D01*
X19190276Y30845536D01*
X19340535Y30695277D01*
X19340540Y30695273D01*
X19512444Y30570378D01*
X19521495Y30565766D01*
X19572292Y30517792D01*
X19589087Y30449971D01*
X19566550Y30383836D01*
X19521499Y30344798D01*
X19512182Y30340051D01*
X19340213Y30215110D01*
X19189890Y30064787D01*
X19064951Y29892821D01*
X18968444Y29703415D01*
X18902753Y29501240D01*
X18869500Y29291287D01*
X18869500Y29078713D01*
X18873460Y29053713D01*
X18902753Y28868761D01*
X18968444Y28666586D01*
X19064951Y28477180D01*
X19189890Y28305214D01*
X19340213Y28154891D01*
X19512182Y28029950D01*
X19520946Y28025484D01*
X19571742Y27977509D01*
X19588536Y27909688D01*
X19565998Y27843553D01*
X19520946Y27804516D01*
X19512182Y27800051D01*
X19340213Y27675110D01*
X19189890Y27524787D01*
X19064951Y27352821D01*
X18968444Y27163415D01*
X18902753Y26961240D01*
X18869500Y26751287D01*
X18869500Y26538713D01*
X18873460Y26513713D01*
X18902753Y26328761D01*
X18968444Y26126586D01*
X19064951Y25937180D01*
X19189890Y25765214D01*
X19340213Y25614891D01*
X19512182Y25489950D01*
X19520946Y25485484D01*
X19571742Y25437509D01*
X19588536Y25369688D01*
X19565998Y25303553D01*
X19520946Y25264516D01*
X19512182Y25260051D01*
X19340213Y25135110D01*
X19189890Y24984787D01*
X19064951Y24812821D01*
X18968444Y24623415D01*
X18902753Y24421240D01*
X18886123Y24316240D01*
X18869500Y24211287D01*
X18869500Y23998713D01*
X18902754Y23788757D01*
X18936869Y23683761D01*
X18968444Y23586586D01*
X19064951Y23397180D01*
X19189890Y23225214D01*
X19340213Y23074891D01*
X19512182Y22949950D01*
X19520946Y22945484D01*
X19571742Y22897509D01*
X19588536Y22829688D01*
X19565998Y22763553D01*
X19520946Y22724516D01*
X19512182Y22720051D01*
X19340213Y22595110D01*
X19189890Y22444787D01*
X19064951Y22272821D01*
X18968444Y22083415D01*
X18902753Y21881240D01*
X18869500Y21671287D01*
X18869500Y21458713D01*
X18902754Y21248757D01*
X18964117Y21059901D01*
X18968444Y21046586D01*
X19064951Y20857180D01*
X19189890Y20685214D01*
X19340213Y20534891D01*
X19512179Y20409952D01*
X19512181Y20409951D01*
X19512184Y20409949D01*
X19521493Y20405206D01*
X19572290Y20357234D01*
X19589087Y20289413D01*
X19566552Y20223278D01*
X19521502Y20184238D01*
X19512443Y20179622D01*
X19340540Y20054728D01*
X19340535Y20054724D01*
X19190276Y19904465D01*
X19190272Y19904460D01*
X19065379Y19732558D01*
X18968904Y19543218D01*
X18903242Y19341130D01*
X18903242Y19341127D01*
X18892769Y19275000D01*
X19786988Y19275000D01*
X19754075Y19217993D01*
X19720000Y19090826D01*
X19720000Y18959174D01*
X19754075Y18832007D01*
X19786988Y18775000D01*
X18892769Y18775000D01*
X18903242Y18708874D01*
X18903242Y18708871D01*
X18968904Y18506783D01*
X19065379Y18317443D01*
X19190272Y18145541D01*
X19190276Y18145536D01*
X19340535Y17995277D01*
X19340540Y17995273D01*
X19512444Y17870378D01*
X19521495Y17865766D01*
X19572292Y17817792D01*
X19589087Y17749971D01*
X19566550Y17683836D01*
X19521499Y17644798D01*
X19512182Y17640051D01*
X19340213Y17515110D01*
X19189890Y17364787D01*
X19064951Y17192821D01*
X18968444Y17003415D01*
X18902753Y16801240D01*
X18883806Y16681614D01*
X18869500Y16591287D01*
X18869500Y16378713D01*
X18902754Y16168757D01*
X18924330Y16102352D01*
X18968444Y15966586D01*
X19064951Y15777180D01*
X19189890Y15605214D01*
X19340213Y15454891D01*
X19512182Y15329950D01*
X19520946Y15325484D01*
X19571742Y15277509D01*
X19588536Y15209688D01*
X19565998Y15143553D01*
X19520946Y15104516D01*
X19512182Y15100051D01*
X19340213Y14975110D01*
X19189890Y14824787D01*
X19064951Y14652821D01*
X18968444Y14463415D01*
X18902753Y14261240D01*
X18873671Y14077624D01*
X18869500Y14051287D01*
X18869500Y13838713D01*
X18902754Y13628757D01*
X18960836Y13449999D01*
X18968444Y13426586D01*
X19064951Y13237180D01*
X19189890Y13065214D01*
X19340213Y12914891D01*
X19512179Y12789952D01*
X19512181Y12789951D01*
X19512184Y12789949D01*
X19701588Y12693443D01*
X19903757Y12627754D01*
X20113713Y12594500D01*
X20113714Y12594500D01*
X20326286Y12594500D01*
X20326287Y12594500D01*
X20536243Y12627754D01*
X20738412Y12693443D01*
X20927816Y12789949D01*
X20972448Y12822376D01*
X21099786Y12914891D01*
X21099788Y12914894D01*
X21099792Y12914896D01*
X21250104Y13065208D01*
X21250106Y13065212D01*
X21250109Y13065214D01*
X21375048Y13237180D01*
X21375047Y13237180D01*
X21375051Y13237184D01*
X21471557Y13426588D01*
X21537246Y13628757D01*
X21570500Y13838713D01*
X21570500Y14051287D01*
X21537246Y14261243D01*
X21471557Y14463412D01*
X21375051Y14652816D01*
X21375049Y14652819D01*
X21375048Y14652821D01*
X21250109Y14824787D01*
X21099786Y14975110D01*
X20927820Y15100049D01*
X20927115Y15100409D01*
X20919054Y15104515D01*
X20868259Y15152488D01*
X20851463Y15220308D01*
X20873999Y15286444D01*
X20919054Y15325485D01*
X20927816Y15329949D01*
X20972969Y15362754D01*
X21099786Y15454891D01*
X21099788Y15454894D01*
X21099792Y15454896D01*
X21250104Y15605208D01*
X21250106Y15605212D01*
X21250109Y15605214D01*
X21375048Y15777180D01*
X21375047Y15777180D01*
X21375051Y15777184D01*
X21471557Y15966588D01*
X21537246Y16168757D01*
X21570500Y16378713D01*
X21570500Y16591287D01*
X21537246Y16801243D01*
X21471557Y17003412D01*
X21375051Y17192816D01*
X21375049Y17192819D01*
X21375048Y17192821D01*
X21250109Y17364787D01*
X21099786Y17515110D01*
X20927817Y17640051D01*
X20918504Y17644796D01*
X20867707Y17692770D01*
X20850912Y17760591D01*
X20873449Y17826726D01*
X20918507Y17865768D01*
X20927558Y17870380D01*
X21099459Y17995273D01*
X21099464Y17995277D01*
X21249723Y18145536D01*
X21249727Y18145541D01*
X21374620Y18317443D01*
X21471095Y18506783D01*
X21536757Y18708871D01*
X21536757Y18708874D01*
X21547231Y18775000D01*
X20653012Y18775000D01*
X20685925Y18832007D01*
X20720000Y18959174D01*
X20720000Y19090826D01*
X20685925Y19217993D01*
X20653012Y19275000D01*
X21547231Y19275000D01*
X21536757Y19341127D01*
X21536757Y19341130D01*
X21471095Y19543218D01*
X21374620Y19732558D01*
X21249727Y19904460D01*
X21249723Y19904465D01*
X21099464Y20054724D01*
X21099459Y20054728D01*
X20927555Y20179623D01*
X20918500Y20184237D01*
X20867706Y20232212D01*
X20850912Y20300034D01*
X20873451Y20366168D01*
X20918508Y20405207D01*
X20927816Y20409949D01*
X21030308Y20484413D01*
X21099786Y20534891D01*
X21099788Y20534894D01*
X21099792Y20534896D01*
X21250104Y20685208D01*
X21250106Y20685212D01*
X21250109Y20685214D01*
X21375048Y20857180D01*
X21375047Y20857180D01*
X21375051Y20857184D01*
X21471557Y21046588D01*
X21537246Y21248757D01*
X21570500Y21458713D01*
X21570500Y21671287D01*
X21537246Y21881243D01*
X21471557Y22083412D01*
X21375051Y22272816D01*
X21375049Y22272819D01*
X21375048Y22272821D01*
X21250109Y22444787D01*
X21099786Y22595110D01*
X20927820Y22720049D01*
X20927115Y22720409D01*
X20919054Y22724515D01*
X20868259Y22772488D01*
X20851463Y22840308D01*
X20873999Y22906444D01*
X20919054Y22945485D01*
X20927816Y22949949D01*
X21005249Y23006207D01*
X21099786Y23074891D01*
X21099788Y23074894D01*
X21099792Y23074896D01*
X21250104Y23225208D01*
X21250106Y23225212D01*
X21250109Y23225214D01*
X21375048Y23397180D01*
X21375047Y23397180D01*
X21375051Y23397184D01*
X21471557Y23586588D01*
X21537246Y23788757D01*
X21570500Y23998713D01*
X21570500Y24211287D01*
X21537246Y24421243D01*
X21471557Y24623412D01*
X21375051Y24812816D01*
X21375049Y24812819D01*
X21375048Y24812821D01*
X21250109Y24984787D01*
X21099786Y25135110D01*
X20927820Y25260049D01*
X20927115Y25260409D01*
X20919054Y25264515D01*
X20868259Y25312488D01*
X20851463Y25380308D01*
X20873999Y25446444D01*
X20919054Y25485485D01*
X20927816Y25489949D01*
X21055226Y25582517D01*
X21099786Y25614891D01*
X21099788Y25614894D01*
X21099792Y25614896D01*
X21250104Y25765208D01*
X21250106Y25765212D01*
X21250109Y25765214D01*
X21375048Y25937180D01*
X21375047Y25937180D01*
X21375051Y25937184D01*
X21471557Y26126588D01*
X21537246Y26328757D01*
X21570500Y26538713D01*
X21570500Y26751287D01*
X21537246Y26961243D01*
X21471557Y27163412D01*
X21375051Y27352816D01*
X21375049Y27352819D01*
X21375048Y27352821D01*
X21250109Y27524787D01*
X21099786Y27675110D01*
X20927820Y27800049D01*
X20927115Y27800409D01*
X20919054Y27804515D01*
X20868259Y27852488D01*
X20851463Y27920308D01*
X20873999Y27986444D01*
X20919054Y28025485D01*
X20927816Y28029949D01*
X20949789Y28045914D01*
X21099786Y28154891D01*
X21099788Y28154894D01*
X21099792Y28154896D01*
X21250104Y28305208D01*
X21250106Y28305212D01*
X21250109Y28305214D01*
X21375048Y28477180D01*
X21375047Y28477180D01*
X21375051Y28477184D01*
X21471557Y28666588D01*
X21537246Y28868757D01*
X21570500Y29078713D01*
X21570500Y29291287D01*
X21537246Y29501243D01*
X21471557Y29703412D01*
X21375051Y29892816D01*
X21375049Y29892819D01*
X21375048Y29892821D01*
X21250109Y30064787D01*
X21099786Y30215110D01*
X20927817Y30340051D01*
X20918504Y30344796D01*
X20867707Y30392770D01*
X20850912Y30460591D01*
X20873449Y30526726D01*
X20918507Y30565768D01*
X20927558Y30570380D01*
X21099459Y30695273D01*
X21099464Y30695277D01*
X21249723Y30845536D01*
X21249727Y30845541D01*
X21374620Y31017443D01*
X21471095Y31206783D01*
X21536757Y31408871D01*
X21536757Y31408874D01*
X21547231Y31475000D01*
X20653012Y31475000D01*
X20685925Y31532007D01*
X20720000Y31659174D01*
X20720000Y31790826D01*
X20685925Y31917993D01*
X20653012Y31975000D01*
X21547231Y31975000D01*
X21536757Y32041127D01*
X21536757Y32041130D01*
X21471095Y32243218D01*
X21374620Y32432558D01*
X21249727Y32604460D01*
X21249723Y32604465D01*
X21099464Y32754724D01*
X21099459Y32754728D01*
X20927555Y32879623D01*
X20918500Y32884237D01*
X20867706Y32932212D01*
X20850912Y33000034D01*
X20873451Y33066168D01*
X20918508Y33105207D01*
X20927816Y33109949D01*
X21007007Y33167485D01*
X21099786Y33234891D01*
X21099788Y33234894D01*
X21099792Y33234896D01*
X21250104Y33385208D01*
X21250106Y33385212D01*
X21250109Y33385214D01*
X21375048Y33557180D01*
X21375047Y33557180D01*
X21375051Y33557184D01*
X21471557Y33746588D01*
X21537246Y33948757D01*
X21570500Y34158713D01*
X21570500Y34371287D01*
X21537246Y34581243D01*
X21471557Y34783412D01*
X21375051Y34972816D01*
X21375049Y34972819D01*
X21375048Y34972821D01*
X21250109Y35144787D01*
X21099786Y35295110D01*
X20927820Y35420049D01*
X20927115Y35420409D01*
X20919054Y35424515D01*
X20868259Y35472488D01*
X20851463Y35540308D01*
X20873999Y35606444D01*
X20919054Y35645485D01*
X20927816Y35649949D01*
X20949789Y35665914D01*
X21099786Y35774891D01*
X21099788Y35774894D01*
X21099792Y35774896D01*
X21250104Y35925208D01*
X21250106Y35925212D01*
X21250109Y35925214D01*
X21375048Y36097180D01*
X21375047Y36097180D01*
X21375051Y36097184D01*
X21471557Y36286588D01*
X21537246Y36488757D01*
X21570500Y36698713D01*
X21570500Y36911287D01*
X21537246Y37121243D01*
X21471557Y37323412D01*
X21375051Y37512816D01*
X21375049Y37512819D01*
X21375048Y37512821D01*
X21250109Y37684787D01*
X21099786Y37835110D01*
X20927820Y37960049D01*
X20927115Y37960409D01*
X20919054Y37964515D01*
X20868259Y38012488D01*
X20851463Y38080308D01*
X20873999Y38146444D01*
X20919054Y38185485D01*
X20927816Y38189949D01*
X20949789Y38205914D01*
X21099786Y38314891D01*
X21099788Y38314894D01*
X21099792Y38314896D01*
X21250104Y38465208D01*
X21250106Y38465212D01*
X21250109Y38465214D01*
X21375048Y38637180D01*
X21375047Y38637180D01*
X21375051Y38637184D01*
X21471557Y38826588D01*
X21537246Y39028757D01*
X21570500Y39238713D01*
X21570500Y39451287D01*
X21537246Y39661243D01*
X21471557Y39863412D01*
X21375051Y40052816D01*
X21375049Y40052819D01*
X21375048Y40052821D01*
X21250109Y40224787D01*
X21099786Y40375110D01*
X20927820Y40500049D01*
X20927115Y40500409D01*
X20919054Y40504515D01*
X20868259Y40552488D01*
X20851463Y40620308D01*
X20873999Y40686444D01*
X20919054Y40725485D01*
X20927816Y40729949D01*
X20949789Y40745914D01*
X21099786Y40854891D01*
X21099788Y40854894D01*
X21099792Y40854896D01*
X21250104Y41005208D01*
X21250106Y41005212D01*
X21250109Y41005214D01*
X21375048Y41177180D01*
X21375047Y41177180D01*
X21375051Y41177184D01*
X21471557Y41366588D01*
X21537246Y41568757D01*
X21570500Y41778713D01*
X21570500Y41991287D01*
X21537246Y42201243D01*
X21471557Y42403412D01*
X21375051Y42592816D01*
X21375049Y42592819D01*
X21375048Y42592821D01*
X21250109Y42764787D01*
X21099786Y42915110D01*
X20927817Y43040051D01*
X20918504Y43044796D01*
X20867707Y43092770D01*
X20850912Y43160591D01*
X20873449Y43226726D01*
X20918507Y43265768D01*
X20927558Y43270380D01*
X21099459Y43395273D01*
X21099464Y43395277D01*
X21249723Y43545536D01*
X21249727Y43545541D01*
X21374620Y43717443D01*
X21471095Y43906783D01*
X21536757Y44108871D01*
X21536757Y44108874D01*
X21547231Y44175000D01*
X20653012Y44175000D01*
X20685925Y44232007D01*
X20720000Y44359174D01*
X20720000Y44490826D01*
X20685925Y44617993D01*
X20653012Y44675000D01*
X21547231Y44675000D01*
X21536757Y44741127D01*
X21536757Y44741130D01*
X21471095Y44943218D01*
X21374620Y45132558D01*
X21249727Y45304460D01*
X21249723Y45304465D01*
X21099464Y45454724D01*
X21099459Y45454728D01*
X20927555Y45579623D01*
X20918500Y45584237D01*
X20867706Y45632212D01*
X20850912Y45700034D01*
X20873451Y45766168D01*
X20918508Y45805207D01*
X20927816Y45809949D01*
X21007007Y45867485D01*
X21099786Y45934891D01*
X21099788Y45934894D01*
X21099792Y45934896D01*
X21250104Y46085208D01*
X21250106Y46085212D01*
X21250109Y46085214D01*
X21375048Y46257180D01*
X21375047Y46257180D01*
X21375051Y46257184D01*
X21471557Y46446588D01*
X21537246Y46648757D01*
X21570500Y46858713D01*
X21570500Y47071287D01*
X21537246Y47281243D01*
X21471557Y47483412D01*
X21375051Y47672816D01*
X21375049Y47672819D01*
X21375048Y47672821D01*
X21250109Y47844787D01*
X21099786Y47995110D01*
X20927820Y48120049D01*
X20927115Y48120409D01*
X20919054Y48124515D01*
X20868259Y48172488D01*
X20851463Y48240308D01*
X20873999Y48306444D01*
X20919054Y48345485D01*
X20927816Y48349949D01*
X20992878Y48397219D01*
X21099786Y48474891D01*
X21099788Y48474894D01*
X21099792Y48474896D01*
X21250104Y48625208D01*
X21250106Y48625212D01*
X21250109Y48625214D01*
X21375048Y48797180D01*
X21375047Y48797180D01*
X21375051Y48797184D01*
X21471557Y48986588D01*
X21537246Y49188757D01*
X21570500Y49398713D01*
X21570500Y49611287D01*
X21537246Y49821243D01*
X21471557Y50023412D01*
X21375051Y50212816D01*
X21375049Y50212819D01*
X21375048Y50212821D01*
X21250109Y50384787D01*
X21099786Y50535110D01*
X20927820Y50660049D01*
X20927115Y50660409D01*
X20919054Y50664515D01*
X20868259Y50712488D01*
X20851463Y50780308D01*
X20873999Y50846444D01*
X20919054Y50885485D01*
X20927816Y50889949D01*
X20992962Y50937280D01*
X21099786Y51014891D01*
X21099788Y51014894D01*
X21099792Y51014896D01*
X21250104Y51165208D01*
X21250106Y51165212D01*
X21250109Y51165214D01*
X21375048Y51337180D01*
X21375047Y51337180D01*
X21375051Y51337184D01*
X21471557Y51526588D01*
X21537246Y51728757D01*
X21570500Y51938713D01*
X21570500Y52151287D01*
X21537246Y52361243D01*
X21471557Y52563412D01*
X21375051Y52752816D01*
X21375049Y52752819D01*
X21375048Y52752821D01*
X21250109Y52924787D01*
X21099786Y53075110D01*
X20927820Y53200049D01*
X20927115Y53200409D01*
X20919054Y53204515D01*
X20868259Y53252488D01*
X20851463Y53320308D01*
X20873999Y53386444D01*
X20919054Y53425485D01*
X20927816Y53429949D01*
X20958328Y53452117D01*
X21099786Y53554891D01*
X21099788Y53554894D01*
X21099792Y53554896D01*
X21250104Y53705208D01*
X21250106Y53705212D01*
X21250109Y53705214D01*
X21375048Y53877180D01*
X21375047Y53877180D01*
X21375051Y53877184D01*
X21471557Y54066588D01*
X21537246Y54268757D01*
X21570500Y54478713D01*
X21570500Y54691287D01*
X21537246Y54901243D01*
X21471557Y55103412D01*
X21375051Y55292816D01*
X21375049Y55292819D01*
X21375048Y55292821D01*
X21250109Y55464787D01*
X21099786Y55615110D01*
X20927817Y55740051D01*
X20918504Y55744796D01*
X20867707Y55792770D01*
X20850912Y55860591D01*
X20873449Y55926726D01*
X20918507Y55965768D01*
X20927558Y55970380D01*
X21099459Y56095273D01*
X21099464Y56095277D01*
X21249723Y56245536D01*
X21249727Y56245541D01*
X21374620Y56417443D01*
X21471095Y56606783D01*
X21536757Y56808871D01*
X21536757Y56808874D01*
X21547231Y56875000D01*
X20653012Y56875000D01*
X20685925Y56932007D01*
X20720000Y57059174D01*
X20720000Y57190826D01*
X20685925Y57317993D01*
X20653012Y57375000D01*
X21547231Y57375000D01*
X21536757Y57441127D01*
X21536757Y57441130D01*
X21471095Y57643218D01*
X21374620Y57832558D01*
X21249727Y58004460D01*
X21249723Y58004465D01*
X21099464Y58154724D01*
X21099459Y58154728D01*
X20927555Y58279623D01*
X20918500Y58284237D01*
X20867706Y58332212D01*
X20850912Y58400034D01*
X20873451Y58466168D01*
X20918508Y58505207D01*
X20927816Y58509949D01*
X21007007Y58567485D01*
X21099786Y58634891D01*
X21099788Y58634894D01*
X21099792Y58634896D01*
X21250104Y58785208D01*
X21250106Y58785212D01*
X21250109Y58785214D01*
X21375048Y58957180D01*
X21375047Y58957180D01*
X21375051Y58957184D01*
X21471557Y59146588D01*
X21537246Y59348757D01*
X21570500Y59558713D01*
X21570500Y59771287D01*
X21537246Y59981243D01*
X21471557Y60183412D01*
X21375051Y60372816D01*
X21375049Y60372819D01*
X21375048Y60372821D01*
X21250109Y60544787D01*
X21136569Y60658327D01*
X21103084Y60719650D01*
X21108068Y60789342D01*
X21149940Y60845275D01*
X21180915Y60862190D01*
X21312331Y60911204D01*
X21427546Y60997454D01*
X21513796Y61112669D01*
X21564091Y61247517D01*
X21570500Y61307127D01*
X21570499Y63077865D01*
X36649500Y63077865D01*
X36649500Y61282130D01*
X36649501Y61282124D01*
X36655908Y61222517D01*
X36706202Y61087672D01*
X36706206Y61087665D01*
X36792452Y60972456D01*
X36792455Y60972453D01*
X36907664Y60886207D01*
X36907671Y60886203D01*
X37039082Y60837190D01*
X37095016Y60795319D01*
X37119433Y60729855D01*
X37104582Y60661582D01*
X37083431Y60633327D01*
X36969889Y60519785D01*
X36844951Y60347821D01*
X36748444Y60158415D01*
X36682753Y59956240D01*
X36649500Y59746287D01*
X36649500Y59533714D01*
X36678793Y59348761D01*
X36682754Y59323757D01*
X36682768Y59323713D01*
X36748444Y59121586D01*
X36844951Y58932180D01*
X36969890Y58760214D01*
X37120213Y58609891D01*
X37292179Y58484952D01*
X37292181Y58484951D01*
X37292184Y58484949D01*
X37301493Y58480206D01*
X37352290Y58432234D01*
X37369087Y58364413D01*
X37346552Y58298278D01*
X37301502Y58259238D01*
X37292443Y58254622D01*
X37120540Y58129728D01*
X37120535Y58129724D01*
X36970276Y57979465D01*
X36970272Y57979460D01*
X36845379Y57807558D01*
X36748904Y57618218D01*
X36683242Y57416130D01*
X36683242Y57416127D01*
X36672769Y57350000D01*
X37566988Y57350000D01*
X37534075Y57292993D01*
X37500000Y57165826D01*
X37500000Y57034174D01*
X37534075Y56907007D01*
X37566988Y56850000D01*
X36672769Y56850000D01*
X36683242Y56783874D01*
X36683242Y56783871D01*
X36748904Y56581783D01*
X36845379Y56392443D01*
X36970272Y56220541D01*
X36970276Y56220536D01*
X37120535Y56070277D01*
X37120540Y56070273D01*
X37292444Y55945378D01*
X37301495Y55940766D01*
X37352292Y55892792D01*
X37369087Y55824971D01*
X37346550Y55758836D01*
X37301499Y55719798D01*
X37292182Y55715051D01*
X37120213Y55590110D01*
X36969890Y55439787D01*
X36844951Y55267821D01*
X36748444Y55078415D01*
X36682753Y54876240D01*
X36649500Y54666287D01*
X36649500Y54453714D01*
X36682753Y54243761D01*
X36748444Y54041586D01*
X36844951Y53852180D01*
X36969890Y53680214D01*
X37120213Y53529891D01*
X37292182Y53404950D01*
X37300946Y53400484D01*
X37351742Y53352509D01*
X37368536Y53284688D01*
X37345998Y53218553D01*
X37300946Y53179516D01*
X37292182Y53175051D01*
X37120213Y53050110D01*
X36969890Y52899787D01*
X36844951Y52727821D01*
X36748444Y52538415D01*
X36682753Y52336240D01*
X36649500Y52126287D01*
X36649500Y51913714D01*
X36682753Y51703761D01*
X36748444Y51501586D01*
X36844951Y51312180D01*
X36969890Y51140214D01*
X37120213Y50989891D01*
X37292182Y50864950D01*
X37300946Y50860484D01*
X37351742Y50812509D01*
X37368536Y50744688D01*
X37345998Y50678553D01*
X37300946Y50639516D01*
X37292182Y50635051D01*
X37120213Y50510110D01*
X36969890Y50359787D01*
X36844951Y50187821D01*
X36748444Y49998415D01*
X36682753Y49796240D01*
X36649500Y49586287D01*
X36649500Y49373714D01*
X36678793Y49188761D01*
X36682754Y49163757D01*
X36737550Y48995112D01*
X36748444Y48961586D01*
X36844951Y48772180D01*
X36969890Y48600214D01*
X37120213Y48449891D01*
X37292182Y48324950D01*
X37300946Y48320484D01*
X37351742Y48272509D01*
X37368536Y48204688D01*
X37345998Y48138553D01*
X37300946Y48099516D01*
X37292182Y48095051D01*
X37120213Y47970110D01*
X36969890Y47819787D01*
X36844951Y47647821D01*
X36748444Y47458415D01*
X36682753Y47256240D01*
X36649500Y47046287D01*
X36649500Y46833714D01*
X36678793Y46648761D01*
X36682754Y46623757D01*
X36743203Y46437714D01*
X36748444Y46421586D01*
X36844951Y46232180D01*
X36969890Y46060214D01*
X37120213Y45909891D01*
X37292179Y45784952D01*
X37292181Y45784951D01*
X37292184Y45784949D01*
X37301493Y45780206D01*
X37352290Y45732234D01*
X37369087Y45664413D01*
X37346552Y45598278D01*
X37301502Y45559238D01*
X37292443Y45554622D01*
X37120540Y45429728D01*
X37120535Y45429724D01*
X36970276Y45279465D01*
X36970272Y45279460D01*
X36845379Y45107558D01*
X36748904Y44918218D01*
X36683242Y44716130D01*
X36683242Y44716127D01*
X36672769Y44650000D01*
X37566988Y44650000D01*
X37534075Y44592993D01*
X37500000Y44465826D01*
X37500000Y44334174D01*
X37534075Y44207007D01*
X37566988Y44150000D01*
X36672769Y44150000D01*
X36683242Y44083874D01*
X36683242Y44083871D01*
X36748904Y43881783D01*
X36845379Y43692443D01*
X36970272Y43520541D01*
X36970276Y43520536D01*
X37120535Y43370277D01*
X37120540Y43370273D01*
X37292444Y43245378D01*
X37301495Y43240766D01*
X37352292Y43192792D01*
X37369087Y43124971D01*
X37346550Y43058836D01*
X37301499Y43019798D01*
X37292182Y43015051D01*
X37120213Y42890110D01*
X36969890Y42739787D01*
X36844951Y42567821D01*
X36748444Y42378415D01*
X36682753Y42176240D01*
X36649500Y41966287D01*
X36649500Y41753714D01*
X36682753Y41543761D01*
X36748444Y41341586D01*
X36844951Y41152180D01*
X36969890Y40980214D01*
X37120213Y40829891D01*
X37292182Y40704950D01*
X37300946Y40700484D01*
X37351742Y40652509D01*
X37368536Y40584688D01*
X37345998Y40518553D01*
X37300946Y40479516D01*
X37292182Y40475051D01*
X37120213Y40350110D01*
X36969890Y40199787D01*
X36844951Y40027821D01*
X36748444Y39838415D01*
X36682753Y39636240D01*
X36649500Y39426287D01*
X36649500Y39213714D01*
X36678793Y39028761D01*
X36682754Y39003757D01*
X36728883Y38861786D01*
X36748444Y38801586D01*
X36844951Y38612180D01*
X36969890Y38440214D01*
X37120213Y38289891D01*
X37292182Y38164950D01*
X37300946Y38160484D01*
X37351742Y38112509D01*
X37368536Y38044688D01*
X37345998Y37978553D01*
X37300946Y37939516D01*
X37292182Y37935051D01*
X37120213Y37810110D01*
X36969890Y37659787D01*
X36844951Y37487821D01*
X36748444Y37298415D01*
X36682753Y37096240D01*
X36649500Y36886287D01*
X36649500Y36673714D01*
X36678793Y36488761D01*
X36682754Y36463757D01*
X36745969Y36269201D01*
X36748444Y36261586D01*
X36844951Y36072180D01*
X36969890Y35900214D01*
X37120213Y35749891D01*
X37292182Y35624950D01*
X37300946Y35620484D01*
X37351742Y35572509D01*
X37368536Y35504688D01*
X37345998Y35438553D01*
X37300946Y35399516D01*
X37292182Y35395051D01*
X37120213Y35270110D01*
X36969890Y35119787D01*
X36844951Y34947821D01*
X36748444Y34758415D01*
X36682753Y34556240D01*
X36649500Y34346287D01*
X36649500Y34133714D01*
X36678793Y33948761D01*
X36682754Y33923757D01*
X36706719Y33850000D01*
X36748444Y33721586D01*
X36844951Y33532180D01*
X36969890Y33360214D01*
X37120213Y33209891D01*
X37292179Y33084952D01*
X37292181Y33084951D01*
X37292184Y33084949D01*
X37301493Y33080206D01*
X37352290Y33032234D01*
X37369087Y32964413D01*
X37346552Y32898278D01*
X37301502Y32859238D01*
X37292443Y32854622D01*
X37120540Y32729728D01*
X37120535Y32729724D01*
X36970276Y32579465D01*
X36970272Y32579460D01*
X36845379Y32407558D01*
X36748904Y32218218D01*
X36683242Y32016130D01*
X36683242Y32016127D01*
X36672769Y31950000D01*
X37566988Y31950000D01*
X37534075Y31892993D01*
X37500000Y31765826D01*
X37500000Y31634174D01*
X37534075Y31507007D01*
X37566988Y31450000D01*
X36672769Y31450000D01*
X36683242Y31383874D01*
X36683242Y31383871D01*
X36748904Y31181783D01*
X36845379Y30992443D01*
X36970272Y30820541D01*
X36970276Y30820536D01*
X37120535Y30670277D01*
X37120540Y30670273D01*
X37292444Y30545378D01*
X37301495Y30540766D01*
X37352292Y30492792D01*
X37369087Y30424971D01*
X37346550Y30358836D01*
X37301499Y30319798D01*
X37292182Y30315051D01*
X37120213Y30190110D01*
X36969890Y30039787D01*
X36844951Y29867821D01*
X36748444Y29678415D01*
X36682753Y29476240D01*
X36649500Y29266287D01*
X36649500Y29053714D01*
X36682753Y28843761D01*
X36748444Y28641586D01*
X36844951Y28452180D01*
X36969890Y28280214D01*
X37120213Y28129891D01*
X37292182Y28004950D01*
X37300946Y28000484D01*
X37351742Y27952509D01*
X37368536Y27884688D01*
X37345998Y27818553D01*
X37300946Y27779516D01*
X37292182Y27775051D01*
X37120213Y27650110D01*
X36969890Y27499787D01*
X36844951Y27327821D01*
X36748444Y27138415D01*
X36682753Y26936240D01*
X36649500Y26726287D01*
X36649500Y26513714D01*
X36682753Y26303761D01*
X36748444Y26101586D01*
X36844951Y25912180D01*
X36969890Y25740214D01*
X37120213Y25589891D01*
X37292182Y25464950D01*
X37300946Y25460484D01*
X37351742Y25412509D01*
X37368536Y25344688D01*
X37345998Y25278553D01*
X37300946Y25239516D01*
X37292182Y25235051D01*
X37120213Y25110110D01*
X36969890Y24959787D01*
X36844951Y24787821D01*
X36748444Y24598415D01*
X36682753Y24396240D01*
X36649500Y24186287D01*
X36649500Y23973714D01*
X36678793Y23788761D01*
X36682754Y23763757D01*
X36708746Y23683761D01*
X36748444Y23561586D01*
X36844951Y23372180D01*
X36969890Y23200214D01*
X37120213Y23049891D01*
X37292182Y22924950D01*
X37300946Y22920484D01*
X37351742Y22872509D01*
X37368536Y22804688D01*
X37345998Y22738553D01*
X37300946Y22699516D01*
X37292182Y22695051D01*
X37120213Y22570110D01*
X36969890Y22419787D01*
X36844951Y22247821D01*
X36748444Y22058415D01*
X36682753Y21856240D01*
X36649500Y21646287D01*
X36649500Y21433714D01*
X36678793Y21248761D01*
X36682754Y21223757D01*
X36735994Y21059901D01*
X36748444Y21021586D01*
X36844951Y20832180D01*
X36969890Y20660214D01*
X37120213Y20509891D01*
X37292179Y20384952D01*
X37292181Y20384951D01*
X37292184Y20384949D01*
X37301493Y20380206D01*
X37352290Y20332234D01*
X37369087Y20264413D01*
X37346552Y20198278D01*
X37301502Y20159238D01*
X37292443Y20154622D01*
X37120540Y20029728D01*
X37120535Y20029724D01*
X36970276Y19879465D01*
X36970272Y19879460D01*
X36845379Y19707558D01*
X36748904Y19518218D01*
X36683242Y19316130D01*
X36683242Y19316127D01*
X36672769Y19250000D01*
X37566988Y19250000D01*
X37534075Y19192993D01*
X37500000Y19065826D01*
X37500000Y18934174D01*
X37534075Y18807007D01*
X37566988Y18750000D01*
X36672769Y18750000D01*
X36683242Y18683874D01*
X36683242Y18683871D01*
X36748904Y18481783D01*
X36845379Y18292443D01*
X36970272Y18120541D01*
X36970276Y18120536D01*
X37120535Y17970277D01*
X37120540Y17970273D01*
X37292444Y17845378D01*
X37301495Y17840766D01*
X37352292Y17792792D01*
X37369087Y17724971D01*
X37346550Y17658836D01*
X37301499Y17619798D01*
X37292182Y17615051D01*
X37120213Y17490110D01*
X36969890Y17339787D01*
X36844951Y17167821D01*
X36748444Y16978415D01*
X36682753Y16776240D01*
X36649500Y16566287D01*
X36649500Y16353714D01*
X36678793Y16168761D01*
X36682754Y16143757D01*
X36696207Y16102352D01*
X36748444Y15941586D01*
X36844951Y15752180D01*
X36969890Y15580214D01*
X37120213Y15429891D01*
X37292182Y15304950D01*
X37300946Y15300484D01*
X37351742Y15252509D01*
X37368536Y15184688D01*
X37345998Y15118553D01*
X37300946Y15079516D01*
X37292182Y15075051D01*
X37120213Y14950110D01*
X36969890Y14799787D01*
X36844951Y14627821D01*
X36748444Y14438415D01*
X36682753Y14236240D01*
X36649500Y14026287D01*
X36649500Y13813714D01*
X36678793Y13628761D01*
X36682754Y13603757D01*
X36732713Y13449999D01*
X36748444Y13401586D01*
X36844951Y13212180D01*
X36969890Y13040214D01*
X37120213Y12889891D01*
X37292179Y12764952D01*
X37292181Y12764951D01*
X37292184Y12764949D01*
X37481588Y12668443D01*
X37683757Y12602754D01*
X37893713Y12569500D01*
X37893714Y12569500D01*
X38106286Y12569500D01*
X38106287Y12569500D01*
X38316243Y12602754D01*
X38518412Y12668443D01*
X38707816Y12764949D01*
X38786858Y12822376D01*
X38879786Y12889891D01*
X38879788Y12889894D01*
X38879792Y12889896D01*
X39030104Y13040208D01*
X39030106Y13040212D01*
X39030109Y13040214D01*
X39155048Y13212180D01*
X39155047Y13212180D01*
X39155051Y13212184D01*
X39251557Y13401588D01*
X39300532Y13552318D01*
X41800000Y13552318D01*
X41800000Y13347683D01*
X41832009Y13145583D01*
X41895244Y12950969D01*
X41988141Y12768650D01*
X41988147Y12768641D01*
X42020523Y12724079D01*
X42020524Y12724078D01*
X42700000Y13403554D01*
X42700000Y13397339D01*
X42727259Y13295606D01*
X42779920Y13204394D01*
X42854394Y13129920D01*
X42945606Y13077259D01*
X43047339Y13050000D01*
X43053553Y13050000D01*
X42374076Y12370526D01*
X42418650Y12338141D01*
X42600968Y12245245D01*
X42795582Y12182010D01*
X42997683Y12150000D01*
X43202317Y12150000D01*
X43404417Y12182010D01*
X43599031Y12245245D01*
X43781349Y12338141D01*
X43825921Y12370526D01*
X43146447Y13050000D01*
X43152661Y13050000D01*
X43254394Y13077259D01*
X43345606Y13129920D01*
X43420080Y13204394D01*
X43472741Y13295606D01*
X43500000Y13397339D01*
X43500000Y13403552D01*
X44179474Y12724078D01*
X44179474Y12724079D01*
X44211859Y12768651D01*
X44239233Y12822376D01*
X44287207Y12873173D01*
X44355028Y12889969D01*
X44421163Y12867433D01*
X44460203Y12822379D01*
X44487713Y12768389D01*
X44608028Y12602787D01*
X44752786Y12458029D01*
X44873226Y12370526D01*
X44918390Y12337713D01*
X45034607Y12278497D01*
X45100776Y12244782D01*
X45100778Y12244782D01*
X45100781Y12244780D01*
X45205137Y12210873D01*
X45295465Y12181523D01*
X45396557Y12165512D01*
X45497648Y12149500D01*
X45497649Y12149500D01*
X45702351Y12149500D01*
X45702352Y12149500D01*
X45904534Y12181523D01*
X46099219Y12244780D01*
X46281610Y12337713D01*
X46374590Y12405268D01*
X46447213Y12458029D01*
X46447215Y12458032D01*
X46447219Y12458034D01*
X46591966Y12602781D01*
X46591968Y12602785D01*
X46591971Y12602787D01*
X46657837Y12693445D01*
X46712287Y12768390D01*
X46805220Y12950781D01*
X46868477Y13145466D01*
X46900500Y13347648D01*
X46900500Y13552352D01*
X46892358Y13603757D01*
X46868477Y13754535D01*
X46837458Y13850000D01*
X46805220Y13949219D01*
X46805218Y13949222D01*
X46805218Y13949224D01*
X46762750Y14032571D01*
X46712287Y14131610D01*
X46680092Y14175923D01*
X46591971Y14297214D01*
X46447213Y14441972D01*
X46281613Y14562285D01*
X46281612Y14562286D01*
X46281610Y14562287D01*
X46224653Y14591309D01*
X46099223Y14655219D01*
X45904534Y14718478D01*
X45729995Y14746122D01*
X45702352Y14750500D01*
X45497648Y14750500D01*
X45473329Y14746649D01*
X45295465Y14718478D01*
X45100776Y14655219D01*
X44918386Y14562285D01*
X44752786Y14441972D01*
X44608028Y14297214D01*
X44487714Y14131614D01*
X44460203Y14077621D01*
X44412227Y14026826D01*
X44344406Y14010032D01*
X44278272Y14032571D01*
X44239234Y14077624D01*
X44211861Y14131348D01*
X44179474Y14175923D01*
X44179474Y14175924D01*
X43500000Y13496449D01*
X43500000Y13502661D01*
X43472741Y13604394D01*
X43420080Y13695606D01*
X43345606Y13770080D01*
X43254394Y13822741D01*
X43152661Y13850000D01*
X43146446Y13850000D01*
X43825922Y14529476D01*
X43825921Y14529477D01*
X43781359Y14561853D01*
X43781350Y14561859D01*
X43599031Y14654756D01*
X43404417Y14717991D01*
X43202317Y14750000D01*
X42997683Y14750000D01*
X42795582Y14717991D01*
X42600968Y14654756D01*
X42418644Y14561857D01*
X42374077Y14529477D01*
X42374077Y14529476D01*
X43053554Y13850000D01*
X43047339Y13850000D01*
X42945606Y13822741D01*
X42854394Y13770080D01*
X42779920Y13695606D01*
X42727259Y13604394D01*
X42700000Y13502661D01*
X42700000Y13496447D01*
X42020524Y14175923D01*
X42020523Y14175923D01*
X41988143Y14131356D01*
X41895244Y13949032D01*
X41832009Y13754418D01*
X41800000Y13552318D01*
X39300532Y13552318D01*
X39317246Y13603757D01*
X39350500Y13813713D01*
X39350500Y14026287D01*
X39317246Y14236243D01*
X39251557Y14438412D01*
X39155051Y14627816D01*
X39155049Y14627819D01*
X39155048Y14627821D01*
X39030109Y14799787D01*
X38879786Y14950110D01*
X38707820Y15075049D01*
X38707115Y15075409D01*
X38699054Y15079515D01*
X38648259Y15127488D01*
X38631463Y15195308D01*
X38653999Y15261444D01*
X38699054Y15300485D01*
X38707816Y15304949D01*
X38742230Y15329952D01*
X38879786Y15429891D01*
X38879788Y15429894D01*
X38879792Y15429896D01*
X39030104Y15580208D01*
X39030106Y15580212D01*
X39030109Y15580214D01*
X39155048Y15752180D01*
X39155047Y15752180D01*
X39155051Y15752184D01*
X39251557Y15941588D01*
X39317246Y16143757D01*
X39350500Y16353713D01*
X39350500Y16566287D01*
X39317246Y16776243D01*
X39251557Y16978412D01*
X39155051Y17167816D01*
X39155049Y17167819D01*
X39155048Y17167821D01*
X39030109Y17339787D01*
X38879786Y17490110D01*
X38707817Y17615051D01*
X38698504Y17619796D01*
X38647707Y17667770D01*
X38630912Y17735591D01*
X38653449Y17801726D01*
X38698507Y17840768D01*
X38707558Y17845380D01*
X38879459Y17970273D01*
X38879464Y17970277D01*
X39029723Y18120536D01*
X39029727Y18120541D01*
X39154620Y18292443D01*
X39251095Y18481783D01*
X39316757Y18683871D01*
X39316757Y18683874D01*
X39327231Y18750000D01*
X38433012Y18750000D01*
X38465925Y18807007D01*
X38500000Y18934174D01*
X38500000Y19065826D01*
X38465925Y19192993D01*
X38433012Y19250000D01*
X39327231Y19250000D01*
X39316757Y19316127D01*
X39316757Y19316130D01*
X39251095Y19518218D01*
X39154620Y19707558D01*
X39029727Y19879460D01*
X39029723Y19879465D01*
X38879464Y20029724D01*
X38879459Y20029728D01*
X38707555Y20154623D01*
X38698500Y20159237D01*
X38647706Y20207212D01*
X38630912Y20275034D01*
X38653451Y20341168D01*
X38698508Y20380207D01*
X38707816Y20384949D01*
X38787378Y20442754D01*
X38879786Y20509891D01*
X38879788Y20509894D01*
X38879792Y20509896D01*
X39030104Y20660208D01*
X39030106Y20660212D01*
X39030109Y20660214D01*
X39155048Y20832180D01*
X39155047Y20832180D01*
X39155051Y20832184D01*
X39251557Y21021588D01*
X39317246Y21223757D01*
X39350500Y21433713D01*
X39350500Y21646287D01*
X39317246Y21856243D01*
X39251557Y22058412D01*
X39155051Y22247816D01*
X39155049Y22247819D01*
X39155048Y22247821D01*
X39030109Y22419787D01*
X38879786Y22570110D01*
X38707820Y22695049D01*
X38707115Y22695409D01*
X38699054Y22699515D01*
X38648259Y22747488D01*
X38631463Y22815308D01*
X38653999Y22881444D01*
X38699054Y22920485D01*
X38707816Y22924949D01*
X38769681Y22969896D01*
X38879786Y23049891D01*
X38879788Y23049894D01*
X38879792Y23049896D01*
X39030104Y23200208D01*
X39030106Y23200212D01*
X39030109Y23200214D01*
X39155048Y23372180D01*
X39155047Y23372180D01*
X39155051Y23372184D01*
X39251557Y23561588D01*
X39317246Y23763757D01*
X39350500Y23973713D01*
X39350500Y24186287D01*
X39317246Y24396243D01*
X39251557Y24598412D01*
X39155051Y24787816D01*
X39155049Y24787819D01*
X39155048Y24787821D01*
X39030109Y24959787D01*
X38879786Y25110110D01*
X38707820Y25235049D01*
X38707115Y25235409D01*
X38699054Y25239515D01*
X38648259Y25287488D01*
X38631463Y25355308D01*
X38653999Y25421444D01*
X38699054Y25460485D01*
X38707816Y25464949D01*
X38869636Y25582517D01*
X38879786Y25589891D01*
X38879788Y25589894D01*
X38879792Y25589896D01*
X39030104Y25740208D01*
X39030106Y25740212D01*
X39030109Y25740214D01*
X39155048Y25912180D01*
X39155047Y25912180D01*
X39155051Y25912184D01*
X39251557Y26101588D01*
X39317246Y26303757D01*
X39350500Y26513713D01*
X39350500Y26726287D01*
X39317246Y26936243D01*
X39251557Y27138412D01*
X39155051Y27327816D01*
X39136884Y27352821D01*
X39125632Y27368309D01*
X39075097Y27437865D01*
X46149500Y27437865D01*
X46149500Y25642130D01*
X46149501Y25642124D01*
X46155908Y25582517D01*
X46206202Y25447672D01*
X46206206Y25447665D01*
X46292452Y25332456D01*
X46292455Y25332453D01*
X46407664Y25246207D01*
X46407671Y25246203D01*
X46539082Y25197190D01*
X46595016Y25155319D01*
X46619433Y25089855D01*
X46604582Y25021582D01*
X46583431Y24993327D01*
X46469889Y24879785D01*
X46344951Y24707821D01*
X46248444Y24518415D01*
X46182753Y24316240D01*
X46149500Y24106287D01*
X46149500Y23893714D01*
X46170082Y23763761D01*
X46182754Y23683757D01*
X46222449Y23561588D01*
X46248444Y23481586D01*
X46344951Y23292180D01*
X46469890Y23120214D01*
X46620213Y22969891D01*
X46792179Y22844952D01*
X46792181Y22844951D01*
X46792184Y22844949D01*
X46801493Y22840206D01*
X46852290Y22792234D01*
X46869087Y22724413D01*
X46846552Y22658278D01*
X46801502Y22619238D01*
X46792443Y22614622D01*
X46620540Y22489728D01*
X46620535Y22489724D01*
X46470276Y22339465D01*
X46470272Y22339460D01*
X46345379Y22167558D01*
X46248904Y21978218D01*
X46183242Y21776130D01*
X46183242Y21776127D01*
X46172769Y21710000D01*
X47066988Y21710000D01*
X47034075Y21652993D01*
X47000000Y21525826D01*
X47000000Y21394174D01*
X47034075Y21267007D01*
X47066988Y21210000D01*
X46172769Y21210000D01*
X46183242Y21143874D01*
X46183242Y21143871D01*
X46248904Y20941783D01*
X46345379Y20752443D01*
X46470272Y20580541D01*
X46470276Y20580536D01*
X46620535Y20430277D01*
X46620540Y20430273D01*
X46792444Y20305378D01*
X46801495Y20300766D01*
X46852292Y20252792D01*
X46869087Y20184971D01*
X46846550Y20118836D01*
X46801499Y20079798D01*
X46792182Y20075051D01*
X46620213Y19950110D01*
X46469890Y19799787D01*
X46344951Y19627821D01*
X46248444Y19438415D01*
X46182753Y19236240D01*
X46149500Y19026287D01*
X46149500Y18813714D01*
X46173294Y18663481D01*
X46182754Y18603757D01*
X46216467Y18499999D01*
X46248444Y18401586D01*
X46344951Y18212180D01*
X46469890Y18040214D01*
X46620213Y17889891D01*
X46792179Y17764952D01*
X46792181Y17764951D01*
X46792184Y17764949D01*
X46981588Y17668443D01*
X47183757Y17602754D01*
X47393713Y17569500D01*
X47393714Y17569500D01*
X47606286Y17569500D01*
X47606287Y17569500D01*
X47816243Y17602754D01*
X48018412Y17668443D01*
X48207816Y17764949D01*
X48280549Y17817792D01*
X48379786Y17889891D01*
X48379788Y17889894D01*
X48379792Y17889896D01*
X48530104Y18040208D01*
X48530106Y18040212D01*
X48530109Y18040214D01*
X48655048Y18212180D01*
X48655047Y18212180D01*
X48655051Y18212184D01*
X48751557Y18401588D01*
X48817246Y18603757D01*
X48850500Y18813713D01*
X48850500Y19026287D01*
X48817246Y19236243D01*
X48751557Y19438412D01*
X48655051Y19627816D01*
X48655049Y19627819D01*
X48655048Y19627821D01*
X48530109Y19799787D01*
X48379786Y19950110D01*
X48207817Y20075051D01*
X48198504Y20079796D01*
X48147707Y20127770D01*
X48130912Y20195591D01*
X48153449Y20261726D01*
X48198507Y20300768D01*
X48207558Y20305380D01*
X48379459Y20430273D01*
X48379464Y20430277D01*
X48529723Y20580536D01*
X48529727Y20580541D01*
X48654620Y20752443D01*
X48751095Y20941783D01*
X48816757Y21143871D01*
X48816757Y21143874D01*
X48827231Y21210000D01*
X47933012Y21210000D01*
X47965925Y21267007D01*
X48000000Y21394174D01*
X48000000Y21525826D01*
X47965925Y21652993D01*
X47933012Y21710000D01*
X48827231Y21710000D01*
X48816757Y21776127D01*
X48816757Y21776130D01*
X48751095Y21978218D01*
X48654620Y22167558D01*
X48529727Y22339460D01*
X48529723Y22339465D01*
X48379464Y22489724D01*
X48379459Y22489728D01*
X48207555Y22614623D01*
X48198500Y22619237D01*
X48147706Y22667212D01*
X48130912Y22735034D01*
X48153451Y22801168D01*
X48198508Y22840207D01*
X48207816Y22844949D01*
X48311782Y22920484D01*
X48379786Y22969891D01*
X48379788Y22969894D01*
X48379792Y22969896D01*
X48530104Y23120208D01*
X48530106Y23120212D01*
X48530109Y23120214D01*
X48655048Y23292180D01*
X48655047Y23292180D01*
X48655051Y23292184D01*
X48751557Y23481588D01*
X48817246Y23683757D01*
X48850500Y23893713D01*
X48850500Y24106287D01*
X48817246Y24316243D01*
X48751557Y24518412D01*
X48655051Y24707816D01*
X48655049Y24707819D01*
X48655048Y24707821D01*
X48530109Y24879787D01*
X48416569Y24993327D01*
X48383084Y25054650D01*
X48388068Y25124342D01*
X48429940Y25180275D01*
X48460915Y25197190D01*
X48592331Y25246204D01*
X48707546Y25332454D01*
X48793796Y25447669D01*
X48844091Y25582517D01*
X48850500Y25642127D01*
X48850499Y27437872D01*
X48844091Y27497483D01*
X48833907Y27524787D01*
X48793797Y27632329D01*
X48793793Y27632336D01*
X48707547Y27747545D01*
X48707544Y27747548D01*
X48592335Y27833794D01*
X48592328Y27833798D01*
X48457482Y27884092D01*
X48457483Y27884092D01*
X48397883Y27890499D01*
X48397881Y27890500D01*
X48397873Y27890500D01*
X48397864Y27890500D01*
X46602129Y27890500D01*
X46602123Y27890499D01*
X46542516Y27884092D01*
X46407671Y27833798D01*
X46407664Y27833794D01*
X46292455Y27747548D01*
X46292452Y27747545D01*
X46206206Y27632336D01*
X46206202Y27632329D01*
X46155908Y27497483D01*
X46149501Y27437884D01*
X46149501Y27437877D01*
X46149500Y27437865D01*
X39075097Y27437865D01*
X39030109Y27499787D01*
X38879786Y27650110D01*
X38707820Y27775049D01*
X38707115Y27775409D01*
X38699054Y27779515D01*
X38648259Y27827488D01*
X38631463Y27895308D01*
X38653999Y27961444D01*
X38699054Y28000485D01*
X38707816Y28004949D01*
X38742230Y28029952D01*
X38879786Y28129891D01*
X38879788Y28129894D01*
X38879792Y28129896D01*
X39030104Y28280208D01*
X39030106Y28280212D01*
X39030109Y28280214D01*
X39155048Y28452180D01*
X39155047Y28452180D01*
X39155051Y28452184D01*
X39251557Y28641588D01*
X39317246Y28843757D01*
X39350500Y29053713D01*
X39350500Y29266287D01*
X39317246Y29476243D01*
X39251557Y29678412D01*
X39155051Y29867816D01*
X39155049Y29867819D01*
X39155048Y29867821D01*
X39030109Y30039787D01*
X38879786Y30190110D01*
X38707817Y30315051D01*
X38698504Y30319796D01*
X38647707Y30367770D01*
X38630912Y30435591D01*
X38653449Y30501726D01*
X38698507Y30540768D01*
X38707558Y30545380D01*
X38879459Y30670273D01*
X38879464Y30670277D01*
X39029723Y30820536D01*
X39029727Y30820541D01*
X39154620Y30992443D01*
X39251095Y31181783D01*
X39316757Y31383871D01*
X39316757Y31383874D01*
X39327231Y31450000D01*
X38433012Y31450000D01*
X38465925Y31507007D01*
X38500000Y31634174D01*
X38500000Y31765826D01*
X38465925Y31892993D01*
X38433012Y31950000D01*
X39327231Y31950000D01*
X39316757Y32016127D01*
X39316757Y32016130D01*
X39251095Y32218218D01*
X39154620Y32407558D01*
X39029727Y32579460D01*
X39029723Y32579465D01*
X38879464Y32729724D01*
X38879459Y32729728D01*
X38707555Y32854623D01*
X38698500Y32859237D01*
X38647706Y32907212D01*
X38630912Y32975034D01*
X38653451Y33041168D01*
X38698508Y33080207D01*
X38707816Y33084949D01*
X38787007Y33142485D01*
X38879786Y33209891D01*
X38879788Y33209894D01*
X38879792Y33209896D01*
X39030104Y33360208D01*
X39030106Y33360212D01*
X39030109Y33360214D01*
X39155048Y33532180D01*
X39155047Y33532180D01*
X39155051Y33532184D01*
X39251557Y33721588D01*
X39317246Y33923757D01*
X39350500Y34133713D01*
X39350500Y34346287D01*
X39317246Y34556243D01*
X39251557Y34758412D01*
X39155051Y34947816D01*
X39155049Y34947819D01*
X39155048Y34947821D01*
X39030109Y35119787D01*
X38879786Y35270110D01*
X38707820Y35395049D01*
X38707115Y35395409D01*
X38699054Y35399515D01*
X38648259Y35447488D01*
X38631463Y35515308D01*
X38653999Y35581444D01*
X38699054Y35620485D01*
X38707816Y35624949D01*
X38742230Y35649952D01*
X38879786Y35749891D01*
X38879788Y35749894D01*
X38879792Y35749896D01*
X39030104Y35900208D01*
X39030106Y35900212D01*
X39030109Y35900214D01*
X39155048Y36072180D01*
X39155047Y36072180D01*
X39155051Y36072184D01*
X39251557Y36261588D01*
X39317246Y36463757D01*
X39350500Y36673713D01*
X39350500Y36886287D01*
X39317246Y37096243D01*
X39251557Y37298412D01*
X39155051Y37487816D01*
X39155049Y37487819D01*
X39155048Y37487821D01*
X39030109Y37659787D01*
X38879786Y37810110D01*
X38707820Y37935049D01*
X38707115Y37935409D01*
X38699054Y37939515D01*
X38648259Y37987488D01*
X38631463Y38055308D01*
X38653999Y38121444D01*
X38699054Y38160485D01*
X38707816Y38164949D01*
X38742230Y38189952D01*
X38879786Y38289891D01*
X38879788Y38289894D01*
X38879792Y38289896D01*
X39030104Y38440208D01*
X39030106Y38440212D01*
X39030109Y38440214D01*
X39088661Y38520807D01*
X39155051Y38612184D01*
X39159690Y38621289D01*
X46149500Y38621289D01*
X46149500Y38378712D01*
X46180477Y38143407D01*
X46181162Y38138211D01*
X46199523Y38069688D01*
X46243947Y37903896D01*
X46272442Y37835104D01*
X46336776Y37679788D01*
X46458064Y37469711D01*
X46458066Y37469708D01*
X46458067Y37469707D01*
X46605733Y37277264D01*
X46605739Y37277257D01*
X46777256Y37105740D01*
X46777262Y37105735D01*
X46969711Y36958064D01*
X47179788Y36836776D01*
X47403900Y36743946D01*
X47638211Y36681162D01*
X47818586Y36657416D01*
X47878711Y36649500D01*
X47878712Y36649500D01*
X48121289Y36649500D01*
X48169388Y36655833D01*
X48361789Y36681162D01*
X48596100Y36743946D01*
X48820212Y36836776D01*
X49030289Y36958064D01*
X49222738Y37105735D01*
X49394265Y37277262D01*
X49541936Y37469711D01*
X49663224Y37679788D01*
X49756054Y37903900D01*
X49818838Y38138211D01*
X49850500Y38378712D01*
X49850500Y38621288D01*
X49818838Y38861789D01*
X49756054Y39096100D01*
X49663224Y39320212D01*
X49541936Y39530289D01*
X49394265Y39722738D01*
X49394260Y39722744D01*
X49222743Y39894261D01*
X49222736Y39894267D01*
X49030293Y40041933D01*
X49030292Y40041934D01*
X49030289Y40041936D01*
X48820212Y40163224D01*
X48820205Y40163227D01*
X48596104Y40256053D01*
X48361785Y40318839D01*
X48121289Y40350500D01*
X48121288Y40350500D01*
X47878712Y40350500D01*
X47878711Y40350500D01*
X47638214Y40318839D01*
X47403895Y40256053D01*
X47179794Y40163227D01*
X47179785Y40163223D01*
X46969706Y40041933D01*
X46777263Y39894267D01*
X46777256Y39894261D01*
X46605739Y39722744D01*
X46605733Y39722737D01*
X46458067Y39530294D01*
X46336777Y39320215D01*
X46336773Y39320206D01*
X46243947Y39096105D01*
X46181161Y38861786D01*
X46149500Y38621289D01*
X39159690Y38621289D01*
X39167789Y38637184D01*
X39190440Y38681637D01*
X39190442Y38681642D01*
X39209346Y38718746D01*
X39251557Y38801588D01*
X39317246Y39003757D01*
X39350500Y39213713D01*
X39350500Y39426287D01*
X39317246Y39636243D01*
X39251557Y39838412D01*
X39155051Y40027816D01*
X39155049Y40027819D01*
X39155048Y40027821D01*
X39030109Y40199787D01*
X38879786Y40350110D01*
X38707820Y40475049D01*
X38707115Y40475409D01*
X38699054Y40479515D01*
X38648259Y40527488D01*
X38631463Y40595308D01*
X38653999Y40661444D01*
X38699054Y40700485D01*
X38707816Y40704949D01*
X38742230Y40729952D01*
X38879786Y40829891D01*
X38879788Y40829894D01*
X38879792Y40829896D01*
X39030104Y40980208D01*
X39030106Y40980212D01*
X39030109Y40980214D01*
X39155048Y41152180D01*
X39155047Y41152180D01*
X39155051Y41152184D01*
X39251557Y41341588D01*
X39317246Y41543757D01*
X39350500Y41753713D01*
X39350500Y41966287D01*
X39317246Y42176243D01*
X39251557Y42378412D01*
X39155051Y42567816D01*
X39155049Y42567819D01*
X39155048Y42567821D01*
X39030109Y42739787D01*
X38879786Y42890110D01*
X38707817Y43015051D01*
X38698504Y43019796D01*
X38647707Y43067770D01*
X38630912Y43135591D01*
X38653449Y43201726D01*
X38698507Y43240768D01*
X38707558Y43245380D01*
X38879459Y43370273D01*
X38879464Y43370277D01*
X39029723Y43520536D01*
X39029727Y43520541D01*
X39154620Y43692443D01*
X39251095Y43881783D01*
X39307735Y44056103D01*
X39316757Y44083871D01*
X39316757Y44083874D01*
X39327231Y44150000D01*
X38433012Y44150000D01*
X38465925Y44207007D01*
X38500000Y44334174D01*
X38500000Y44465826D01*
X38465925Y44592993D01*
X38433012Y44650000D01*
X39327231Y44650000D01*
X39316757Y44716127D01*
X39316757Y44716130D01*
X39251095Y44918218D01*
X39158019Y45100889D01*
X39158018Y45100891D01*
X39154622Y45107556D01*
X39029727Y45279460D01*
X39029723Y45279465D01*
X38879464Y45429724D01*
X38879459Y45429728D01*
X38707555Y45554623D01*
X38698500Y45559237D01*
X38647706Y45607212D01*
X38630912Y45675034D01*
X38653451Y45741168D01*
X38698508Y45780207D01*
X38707816Y45784949D01*
X38787007Y45842485D01*
X38879786Y45909891D01*
X38879788Y45909894D01*
X38879792Y45909896D01*
X39030104Y46060208D01*
X39030106Y46060212D01*
X39030109Y46060214D01*
X39155048Y46232180D01*
X39155047Y46232180D01*
X39155051Y46232184D01*
X39251557Y46421588D01*
X39317246Y46623757D01*
X39350500Y46833713D01*
X39350500Y47046287D01*
X39317246Y47256243D01*
X39251557Y47458412D01*
X39155051Y47647816D01*
X39155049Y47647819D01*
X39155048Y47647821D01*
X39151756Y47652352D01*
X51049500Y47652352D01*
X51049500Y47447649D01*
X51081522Y47245466D01*
X51144781Y47050777D01*
X51237715Y46868387D01*
X51358028Y46702787D01*
X51502786Y46558029D01*
X51668385Y46437716D01*
X51668387Y46437715D01*
X51668390Y46437713D01*
X51722378Y46410205D01*
X51773174Y46362231D01*
X51789969Y46294410D01*
X51767432Y46228275D01*
X51722378Y46189235D01*
X51668644Y46161857D01*
X51624077Y46129477D01*
X51624077Y46129476D01*
X52303554Y45450000D01*
X52297339Y45450000D01*
X52195606Y45422741D01*
X52104394Y45370080D01*
X52029920Y45295606D01*
X51977259Y45204394D01*
X51950000Y45102661D01*
X51950000Y45096447D01*
X51270524Y45775923D01*
X51270523Y45775923D01*
X51238143Y45731356D01*
X51145244Y45549032D01*
X51082009Y45354418D01*
X51050000Y45152318D01*
X51050000Y44947683D01*
X51082009Y44745583D01*
X51145244Y44550969D01*
X51238141Y44368650D01*
X51238147Y44368641D01*
X51270523Y44324079D01*
X51270524Y44324078D01*
X51950000Y45003554D01*
X51950000Y44997339D01*
X51977259Y44895606D01*
X52029920Y44804394D01*
X52104394Y44729920D01*
X52195606Y44677259D01*
X52297339Y44650000D01*
X52303553Y44650000D01*
X51624076Y43970526D01*
X51668650Y43938141D01*
X51850968Y43845245D01*
X52045582Y43782010D01*
X52247683Y43750000D01*
X52452317Y43750000D01*
X52654417Y43782010D01*
X52849031Y43845245D01*
X53031349Y43938141D01*
X53075921Y43970526D01*
X52396447Y44650000D01*
X52402661Y44650000D01*
X52504394Y44677259D01*
X52595606Y44729920D01*
X52670080Y44804394D01*
X52722741Y44895606D01*
X52750000Y44997339D01*
X52750000Y45003552D01*
X53429474Y44324078D01*
X53429474Y44324079D01*
X53461859Y44368651D01*
X53554755Y44550969D01*
X53617990Y44745583D01*
X53650000Y44947683D01*
X53650000Y45152318D01*
X53617990Y45354418D01*
X53554755Y45549032D01*
X53461859Y45731350D01*
X53429474Y45775923D01*
X53429474Y45775924D01*
X52750000Y45096449D01*
X52750000Y45102661D01*
X52722741Y45204394D01*
X52670080Y45295606D01*
X52595606Y45370080D01*
X52504394Y45422741D01*
X52402661Y45450000D01*
X52396446Y45450000D01*
X53075922Y46129476D01*
X53075921Y46129477D01*
X53031359Y46161853D01*
X53031350Y46161859D01*
X52977621Y46189235D01*
X52926825Y46237209D01*
X52910030Y46305030D01*
X52932567Y46371165D01*
X52977621Y46410205D01*
X53031610Y46437713D01*
X53081144Y46473702D01*
X53197213Y46558029D01*
X53197215Y46558032D01*
X53197219Y46558034D01*
X53341966Y46702781D01*
X53341968Y46702785D01*
X53341971Y46702787D01*
X53394732Y46775410D01*
X53462287Y46868390D01*
X53555220Y47050781D01*
X53618477Y47245466D01*
X53650500Y47447648D01*
X53650500Y47652352D01*
X53628402Y47791871D01*
X53618477Y47854535D01*
X53555218Y48049224D01*
X53505149Y48147488D01*
X53462287Y48231610D01*
X53446425Y48253443D01*
X53341971Y48397214D01*
X53197213Y48541972D01*
X53031613Y48662285D01*
X53031612Y48662286D01*
X53031610Y48662287D01*
X52974653Y48691309D01*
X52849223Y48755219D01*
X52654534Y48818478D01*
X52479995Y48846122D01*
X52452352Y48850500D01*
X52247648Y48850500D01*
X52223329Y48846649D01*
X52045465Y48818478D01*
X51850776Y48755219D01*
X51668386Y48662285D01*
X51502786Y48541972D01*
X51358028Y48397214D01*
X51237715Y48231614D01*
X51144781Y48049224D01*
X51081522Y47854535D01*
X51049500Y47652352D01*
X39151756Y47652352D01*
X39030109Y47819787D01*
X38879786Y47970110D01*
X38707820Y48095049D01*
X38707115Y48095409D01*
X38699054Y48099515D01*
X38648259Y48147488D01*
X38631463Y48215308D01*
X38653999Y48281444D01*
X38699054Y48320485D01*
X38707816Y48324949D01*
X38807288Y48397219D01*
X38879786Y48449891D01*
X38879788Y48449894D01*
X38879792Y48449896D01*
X39030104Y48600208D01*
X39030106Y48600212D01*
X39030109Y48600214D01*
X39155048Y48772180D01*
X39155047Y48772180D01*
X39155051Y48772184D01*
X39251557Y48961588D01*
X39317246Y49163757D01*
X39350500Y49373713D01*
X39350500Y49586287D01*
X39317246Y49796243D01*
X39251557Y49998412D01*
X39155051Y50187816D01*
X39155049Y50187819D01*
X39155048Y50187821D01*
X39030109Y50359787D01*
X38879786Y50510110D01*
X38707820Y50635049D01*
X38707115Y50635409D01*
X38699054Y50639515D01*
X38648259Y50687488D01*
X38631463Y50755308D01*
X38653999Y50821444D01*
X38699054Y50860485D01*
X38707816Y50864949D01*
X38742230Y50889952D01*
X38879786Y50989891D01*
X38879788Y50989894D01*
X38879792Y50989896D01*
X39030104Y51140208D01*
X39030106Y51140212D01*
X39030109Y51140214D01*
X39155048Y51312180D01*
X39155047Y51312180D01*
X39155051Y51312184D01*
X39251557Y51501588D01*
X39317246Y51703757D01*
X39350500Y51913713D01*
X39350500Y52126287D01*
X39317246Y52336243D01*
X39251557Y52538412D01*
X39155051Y52727816D01*
X39155049Y52727819D01*
X39155048Y52727821D01*
X39030109Y52899787D01*
X38879786Y53050110D01*
X38707820Y53175049D01*
X38707115Y53175409D01*
X38699054Y53179515D01*
X38648259Y53227488D01*
X38631463Y53295308D01*
X38653999Y53361444D01*
X38699054Y53400485D01*
X38707816Y53404949D01*
X38772738Y53452117D01*
X38879786Y53529891D01*
X38879788Y53529894D01*
X38879792Y53529896D01*
X39030104Y53680208D01*
X39030106Y53680212D01*
X39030109Y53680214D01*
X39155048Y53852180D01*
X39155047Y53852180D01*
X39155051Y53852184D01*
X39251557Y54041588D01*
X39317246Y54243757D01*
X39350500Y54453713D01*
X39350500Y54666287D01*
X39317246Y54876243D01*
X39251557Y55078412D01*
X39155051Y55267816D01*
X39133080Y55298057D01*
X39030109Y55439787D01*
X38879786Y55590110D01*
X38707817Y55715051D01*
X38698504Y55719796D01*
X38647707Y55767770D01*
X38630912Y55835591D01*
X38653449Y55901726D01*
X38698507Y55940768D01*
X38707558Y55945380D01*
X38879459Y56070273D01*
X38879464Y56070277D01*
X39029723Y56220536D01*
X39029727Y56220541D01*
X39154620Y56392443D01*
X39251095Y56581783D01*
X39316757Y56783871D01*
X39316757Y56783874D01*
X39327231Y56850000D01*
X38433012Y56850000D01*
X38465925Y56907007D01*
X38500000Y57034174D01*
X38500000Y57165826D01*
X38465925Y57292993D01*
X38433012Y57350000D01*
X39327231Y57350000D01*
X39316757Y57416127D01*
X39316757Y57416130D01*
X39251095Y57618218D01*
X39154620Y57807558D01*
X39029727Y57979460D01*
X39029723Y57979465D01*
X38879464Y58129724D01*
X38879459Y58129728D01*
X38707555Y58254623D01*
X38698500Y58259237D01*
X38647706Y58307212D01*
X38630912Y58375034D01*
X38653451Y58441168D01*
X38698508Y58480207D01*
X38707816Y58484949D01*
X38797646Y58550214D01*
X38879786Y58609891D01*
X38879788Y58609894D01*
X38879792Y58609896D01*
X39030104Y58760208D01*
X39030106Y58760212D01*
X39030109Y58760214D01*
X39155048Y58932180D01*
X39155047Y58932180D01*
X39155051Y58932184D01*
X39251557Y59121588D01*
X39317246Y59323757D01*
X39350500Y59533713D01*
X39350500Y59746287D01*
X39317246Y59956243D01*
X39251557Y60158412D01*
X39155051Y60347816D01*
X39155049Y60347819D01*
X39155048Y60347821D01*
X39030109Y60519787D01*
X38916569Y60633327D01*
X38883084Y60694650D01*
X38888068Y60764342D01*
X38929940Y60820275D01*
X38960915Y60837190D01*
X39092331Y60886204D01*
X39207546Y60972454D01*
X39293796Y61087669D01*
X39344091Y61222517D01*
X39350500Y61282127D01*
X39350499Y62076287D01*
X47649500Y62076287D01*
X47649500Y61863714D01*
X47682753Y61653761D01*
X47748444Y61451586D01*
X47844951Y61262180D01*
X47969890Y61090214D01*
X48120213Y60939891D01*
X48292182Y60814950D01*
X48300946Y60810484D01*
X48351742Y60762509D01*
X48368536Y60694688D01*
X48345998Y60628553D01*
X48300946Y60589516D01*
X48292182Y60585051D01*
X48120213Y60460110D01*
X47969890Y60309787D01*
X47844951Y60137821D01*
X47748444Y59948415D01*
X47682753Y59746240D01*
X47649500Y59536287D01*
X47649500Y59323714D01*
X47681513Y59121588D01*
X47682754Y59113757D01*
X47741752Y58932180D01*
X47748444Y58911586D01*
X47844951Y58722180D01*
X47969890Y58550214D01*
X48120213Y58399891D01*
X48292179Y58274952D01*
X48292181Y58274951D01*
X48292184Y58274949D01*
X48301493Y58270206D01*
X48352290Y58222234D01*
X48369087Y58154413D01*
X48346552Y58088278D01*
X48301502Y58049238D01*
X48292443Y58044622D01*
X48120540Y57919728D01*
X48120535Y57919724D01*
X47970276Y57769465D01*
X47970272Y57769460D01*
X47845379Y57597558D01*
X47748904Y57408218D01*
X47683242Y57206130D01*
X47683242Y57206127D01*
X47672769Y57140000D01*
X48566988Y57140000D01*
X48534075Y57082993D01*
X48500000Y56955826D01*
X48500000Y56824174D01*
X48534075Y56697007D01*
X48566988Y56640000D01*
X47672769Y56640000D01*
X47683242Y56573874D01*
X47683242Y56573871D01*
X47748904Y56371783D01*
X47845379Y56182443D01*
X47970272Y56010541D01*
X47970276Y56010536D01*
X48083946Y55896866D01*
X48117431Y55835543D01*
X48112447Y55765851D01*
X48070575Y55709918D01*
X48039598Y55693003D01*
X47907671Y55643798D01*
X47907664Y55643794D01*
X47792455Y55557548D01*
X47792452Y55557545D01*
X47706206Y55442336D01*
X47706202Y55442329D01*
X47655908Y55307483D01*
X47651644Y55267816D01*
X47649501Y55247877D01*
X47649500Y55247865D01*
X47649500Y53452130D01*
X47649501Y53452124D01*
X47655908Y53392517D01*
X47706202Y53257672D01*
X47706206Y53257665D01*
X47792452Y53142456D01*
X47792455Y53142453D01*
X47907664Y53056207D01*
X47907671Y53056203D01*
X48042517Y53005909D01*
X48042516Y53005909D01*
X48049444Y53005165D01*
X48102127Y52999500D01*
X49897872Y52999501D01*
X49957483Y53005909D01*
X50092331Y53056204D01*
X50207546Y53142454D01*
X50293796Y53257669D01*
X50344091Y53392517D01*
X50350500Y53452127D01*
X50350499Y55247872D01*
X50344091Y55307483D01*
X50293796Y55442331D01*
X50293795Y55442332D01*
X50293793Y55442336D01*
X50207547Y55557545D01*
X50207544Y55557548D01*
X50092335Y55643794D01*
X50092328Y55643798D01*
X49960401Y55693003D01*
X49904467Y55734874D01*
X49880050Y55800338D01*
X49894902Y55868611D01*
X49916053Y55896867D01*
X50029728Y56010542D01*
X50154620Y56182443D01*
X50251095Y56371783D01*
X50316757Y56573871D01*
X50316757Y56573874D01*
X50327231Y56640000D01*
X49433012Y56640000D01*
X49465925Y56697007D01*
X49500000Y56824174D01*
X49500000Y56955826D01*
X49465925Y57082993D01*
X49433012Y57140000D01*
X50327231Y57140000D01*
X50316757Y57206127D01*
X50316757Y57206130D01*
X50251095Y57408218D01*
X50154620Y57597558D01*
X50029727Y57769460D01*
X50029723Y57769465D01*
X49879464Y57919724D01*
X49879459Y57919728D01*
X49707555Y58044623D01*
X49698500Y58049237D01*
X49647706Y58097212D01*
X49630912Y58165034D01*
X49653451Y58231168D01*
X49698508Y58270207D01*
X49707816Y58274949D01*
X49808024Y58347754D01*
X49879786Y58399891D01*
X49879788Y58399894D01*
X49879792Y58399896D01*
X50030104Y58550208D01*
X50030106Y58550212D01*
X50030109Y58550214D01*
X50155048Y58722180D01*
X50155047Y58722180D01*
X50155051Y58722184D01*
X50251557Y58911588D01*
X50317246Y59113757D01*
X50350500Y59323713D01*
X50350500Y59536287D01*
X50317246Y59746243D01*
X50251557Y59948412D01*
X50155051Y60137816D01*
X50155049Y60137819D01*
X50155048Y60137821D01*
X50030109Y60309787D01*
X49879786Y60460110D01*
X49707820Y60585049D01*
X49707115Y60585409D01*
X49699054Y60589515D01*
X49648259Y60637488D01*
X49631463Y60705308D01*
X49653999Y60771444D01*
X49699054Y60810485D01*
X49707816Y60814949D01*
X49738428Y60837190D01*
X49879786Y60939891D01*
X49879788Y60939894D01*
X49879792Y60939896D01*
X50030104Y61090208D01*
X50030106Y61090212D01*
X50030109Y61090214D01*
X50155048Y61262180D01*
X50155047Y61262180D01*
X50155051Y61262184D01*
X50251557Y61451588D01*
X50317246Y61653757D01*
X50350500Y61863713D01*
X50350500Y62076287D01*
X50317246Y62286243D01*
X50251557Y62488412D01*
X50155051Y62677816D01*
X50155049Y62677819D01*
X50155048Y62677821D01*
X50030109Y62849787D01*
X49879786Y63000110D01*
X49707820Y63125049D01*
X49518414Y63221556D01*
X49518413Y63221557D01*
X49518412Y63221557D01*
X49316243Y63287246D01*
X49316241Y63287247D01*
X49316240Y63287247D01*
X49154957Y63312792D01*
X49106287Y63320500D01*
X48893713Y63320500D01*
X48845042Y63312792D01*
X48683760Y63287247D01*
X48481585Y63221556D01*
X48292179Y63125049D01*
X48120213Y63000110D01*
X47969890Y62849787D01*
X47844951Y62677821D01*
X47748444Y62488415D01*
X47682753Y62286240D01*
X47649500Y62076287D01*
X39350499Y62076287D01*
X39350499Y62286240D01*
X39350499Y63077871D01*
X39350498Y63077877D01*
X39350497Y63077884D01*
X39344091Y63137483D01*
X39334766Y63162484D01*
X39293797Y63272329D01*
X39293793Y63272336D01*
X39207547Y63387545D01*
X39207544Y63387548D01*
X39092335Y63473794D01*
X39092328Y63473798D01*
X38957482Y63524092D01*
X38957483Y63524092D01*
X38897883Y63530499D01*
X38897881Y63530500D01*
X38897873Y63530500D01*
X38897864Y63530500D01*
X37102129Y63530500D01*
X37102123Y63530499D01*
X37042516Y63524092D01*
X36907671Y63473798D01*
X36907664Y63473794D01*
X36792455Y63387548D01*
X36792452Y63387545D01*
X36706206Y63272336D01*
X36706202Y63272329D01*
X36655908Y63137483D01*
X36652187Y63102865D01*
X36649501Y63077877D01*
X36649500Y63077865D01*
X21570499Y63077865D01*
X21570499Y63102872D01*
X21564091Y63162483D01*
X21542058Y63221556D01*
X21513797Y63297329D01*
X21513793Y63297336D01*
X21427547Y63412545D01*
X21427544Y63412548D01*
X21312335Y63498794D01*
X21312328Y63498798D01*
X21177482Y63549092D01*
X21177483Y63549092D01*
X21117883Y63555499D01*
X21117881Y63555500D01*
X21117873Y63555500D01*
X21117864Y63555500D01*
X19322129Y63555500D01*
X19322123Y63555499D01*
X19262516Y63549092D01*
X19127671Y63498798D01*
X19127664Y63498794D01*
X19012455Y63412548D01*
X19012452Y63412545D01*
X18926206Y63297336D01*
X18926202Y63297329D01*
X18875908Y63162483D01*
X18871884Y63125051D01*
X18869501Y63102877D01*
X18869500Y63102865D01*
X1000500Y63102865D01*
X1000500Y71621289D01*
X2149500Y71621289D01*
X2149500Y71378712D01*
X2181161Y71138215D01*
X2243947Y70903896D01*
X2318447Y70724038D01*
X2336776Y70679788D01*
X2458064Y70469711D01*
X2458066Y70469708D01*
X2458067Y70469707D01*
X2605733Y70277264D01*
X2605739Y70277257D01*
X2777256Y70105740D01*
X2777263Y70105734D01*
X2859733Y70042453D01*
X2969711Y69958064D01*
X3179788Y69836776D01*
X3403900Y69743946D01*
X3638211Y69681162D01*
X3818586Y69657416D01*
X3878711Y69649500D01*
X3878712Y69649500D01*
X4121289Y69649500D01*
X4169388Y69655833D01*
X4361789Y69681162D01*
X4596100Y69743946D01*
X4820212Y69836776D01*
X5030289Y69958064D01*
X5222738Y70105735D01*
X5394265Y70277262D01*
X5541936Y70469711D01*
X5663224Y70679788D01*
X5756054Y70903900D01*
X5818838Y71138211D01*
X5850500Y71378712D01*
X5850500Y71621288D01*
X5818838Y71861789D01*
X5756054Y72096100D01*
X5748481Y72114384D01*
X5699191Y72233382D01*
X5681554Y72275962D01*
X11199500Y72275962D01*
X11199500Y70724038D01*
X11206509Y70679788D01*
X11238910Y70475215D01*
X11316760Y70235617D01*
X11395413Y70081253D01*
X11415182Y70042454D01*
X11431132Y70011152D01*
X11579201Y69807351D01*
X11579205Y69807346D01*
X11757345Y69629206D01*
X11757350Y69629202D01*
X11935117Y69500048D01*
X11961155Y69481130D01*
X12104184Y69408253D01*
X12185616Y69366761D01*
X12185618Y69366761D01*
X12185621Y69366759D01*
X12425215Y69288910D01*
X12674038Y69249500D01*
X12674039Y69249500D01*
X12925961Y69249500D01*
X12925962Y69249500D01*
X13174785Y69288910D01*
X13414379Y69366759D01*
X13638845Y69481130D01*
X13842656Y69629207D01*
X14020793Y69807344D01*
X14084298Y69894753D01*
X14139628Y69937419D01*
X14209241Y69943398D01*
X14240912Y69932353D01*
X14244593Y69930478D01*
X14244595Y69930476D01*
X14292811Y69905909D01*
X14419970Y69841118D01*
X14419972Y69841118D01*
X14419975Y69841116D01*
X14520317Y69808513D01*
X14607173Y69780291D01*
X14801578Y69749500D01*
X14801583Y69749500D01*
X14998422Y69749500D01*
X15192826Y69780291D01*
X15272574Y69806203D01*
X15380025Y69841116D01*
X15555405Y69930476D01*
X15714646Y70046172D01*
X15812319Y70143845D01*
X15873642Y70177330D01*
X15943334Y70172346D01*
X15987681Y70143845D01*
X16085354Y70046172D01*
X16244595Y69930476D01*
X16305389Y69899500D01*
X16419970Y69841118D01*
X16419972Y69841118D01*
X16419975Y69841116D01*
X16520317Y69808513D01*
X16607173Y69780291D01*
X16801578Y69749500D01*
X16801583Y69749500D01*
X16998422Y69749500D01*
X17192826Y69780291D01*
X17272574Y69806203D01*
X17380025Y69841116D01*
X17555405Y69930476D01*
X17591614Y69956785D01*
X17657417Y69980264D01*
X17725471Y69964440D01*
X17763763Y69930780D01*
X17792454Y69892454D01*
X17792455Y69892454D01*
X17792456Y69892452D01*
X17907664Y69806207D01*
X17907671Y69806203D01*
X18042517Y69755909D01*
X18042516Y69755909D01*
X18049444Y69755165D01*
X18102127Y69749500D01*
X19697872Y69749501D01*
X19757483Y69755909D01*
X19757486Y69755911D01*
X19764554Y69756670D01*
X19833314Y69744264D01*
X19865490Y69721061D01*
X19957345Y69629206D01*
X19957350Y69629202D01*
X20135117Y69500048D01*
X20161155Y69481130D01*
X20304184Y69408253D01*
X20385616Y69366761D01*
X20385618Y69366761D01*
X20385621Y69366759D01*
X20625215Y69288910D01*
X20874038Y69249500D01*
X20874039Y69249500D01*
X21125961Y69249500D01*
X21125962Y69249500D01*
X21374785Y69288910D01*
X21614379Y69366759D01*
X21838845Y69481130D01*
X22042656Y69629207D01*
X22220793Y69807344D01*
X22368870Y70011155D01*
X22483241Y70235621D01*
X22561090Y70475215D01*
X22600500Y70724038D01*
X22600500Y71625962D01*
X26319500Y71625962D01*
X26319500Y71374039D01*
X26358910Y71125215D01*
X26436760Y70885617D01*
X26471015Y70818389D01*
X26541632Y70679795D01*
X26551132Y70661152D01*
X26699201Y70457351D01*
X26699205Y70457346D01*
X26877345Y70279206D01*
X26877350Y70279202D01*
X27006522Y70185354D01*
X27081155Y70131130D01*
X27224184Y70058253D01*
X27305616Y70016761D01*
X27305618Y70016761D01*
X27305621Y70016759D01*
X27545215Y69938910D01*
X27794038Y69899500D01*
X27794039Y69899500D01*
X28045961Y69899500D01*
X28045962Y69899500D01*
X28294785Y69938910D01*
X28534379Y70016759D01*
X28758845Y70131130D01*
X28962656Y70279207D01*
X29140793Y70457344D01*
X29288870Y70661155D01*
X29403241Y70885621D01*
X29481090Y71125215D01*
X29520500Y71374038D01*
X29520500Y71625962D01*
X29481090Y71874785D01*
X29403241Y72114379D01*
X29403239Y72114382D01*
X29403239Y72114384D01*
X29361747Y72195816D01*
X29288870Y72338845D01*
X29269952Y72364883D01*
X29140798Y72542650D01*
X29140794Y72542655D01*
X29035584Y72647865D01*
X36479500Y72647865D01*
X36479500Y70352130D01*
X36479501Y70352124D01*
X36485908Y70292517D01*
X36536202Y70157672D01*
X36536206Y70157665D01*
X36622452Y70042456D01*
X36622455Y70042453D01*
X36737664Y69956207D01*
X36737671Y69956203D01*
X36872517Y69905909D01*
X36872516Y69905909D01*
X36879444Y69905165D01*
X36932127Y69899500D01*
X39227872Y69899501D01*
X39287483Y69905909D01*
X39422331Y69956204D01*
X39537546Y70042454D01*
X39623796Y70157669D01*
X39674091Y70292517D01*
X39680500Y70352127D01*
X39680499Y71602352D01*
X43449500Y71602352D01*
X43449500Y71397649D01*
X43481522Y71195466D01*
X43544781Y71000777D01*
X43587248Y70917433D01*
X43637585Y70818641D01*
X43637715Y70818387D01*
X43758028Y70652787D01*
X43902786Y70508029D01*
X44023226Y70420526D01*
X44068390Y70387713D01*
X44184607Y70328497D01*
X44250776Y70294782D01*
X44250778Y70294782D01*
X44250781Y70294780D01*
X44355137Y70260873D01*
X44445465Y70231523D01*
X44546557Y70215512D01*
X44647648Y70199500D01*
X44647649Y70199500D01*
X44852351Y70199500D01*
X44852352Y70199500D01*
X45054534Y70231523D01*
X45249219Y70294780D01*
X45431610Y70387713D01*
X45544466Y70469707D01*
X45597213Y70508029D01*
X45597215Y70508032D01*
X45597219Y70508034D01*
X45741966Y70652781D01*
X45741968Y70652785D01*
X45741971Y70652787D01*
X45862286Y70818389D01*
X45862415Y70818641D01*
X45889795Y70872379D01*
X45937769Y70923174D01*
X46005589Y70939970D01*
X46071725Y70917433D01*
X46110765Y70872379D01*
X46138141Y70818650D01*
X46138147Y70818641D01*
X46170523Y70774079D01*
X46170524Y70774078D01*
X46850000Y71453554D01*
X46850000Y71447339D01*
X46877259Y71345606D01*
X46929920Y71254394D01*
X47004394Y71179920D01*
X47095606Y71127259D01*
X47197339Y71100000D01*
X47203553Y71100000D01*
X46524076Y70420526D01*
X46568650Y70388141D01*
X46750968Y70295245D01*
X46945582Y70232010D01*
X47147683Y70200000D01*
X47352317Y70200000D01*
X47554417Y70232010D01*
X47749031Y70295245D01*
X47931349Y70388141D01*
X47975921Y70420526D01*
X47296447Y71100000D01*
X47302661Y71100000D01*
X47404394Y71127259D01*
X47495606Y71179920D01*
X47570080Y71254394D01*
X47622741Y71345606D01*
X47650000Y71447339D01*
X47650000Y71453553D01*
X48329474Y70774079D01*
X48361859Y70818651D01*
X48454755Y71000969D01*
X48517990Y71195583D01*
X48550000Y71397683D01*
X48550000Y71602315D01*
X48549424Y71605952D01*
X48549424Y71605954D01*
X48546995Y71621289D01*
X57649500Y71621289D01*
X57649500Y71378712D01*
X57681161Y71138215D01*
X57743947Y70903896D01*
X57818447Y70724038D01*
X57836776Y70679788D01*
X57958064Y70469711D01*
X57958066Y70469708D01*
X57958067Y70469707D01*
X58105733Y70277264D01*
X58105739Y70277257D01*
X58277256Y70105740D01*
X58277263Y70105734D01*
X58359733Y70042453D01*
X58469711Y69958064D01*
X58679788Y69836776D01*
X58903900Y69743946D01*
X59138211Y69681162D01*
X59318586Y69657416D01*
X59378711Y69649500D01*
X59378712Y69649500D01*
X59621289Y69649500D01*
X59669388Y69655833D01*
X59861789Y69681162D01*
X60096100Y69743946D01*
X60320212Y69836776D01*
X60530289Y69958064D01*
X60722738Y70105735D01*
X60894265Y70277262D01*
X61041936Y70469711D01*
X61163224Y70679788D01*
X61256054Y70903900D01*
X61318838Y71138211D01*
X61350500Y71378712D01*
X61350500Y71621288D01*
X61318838Y71861789D01*
X61256054Y72096100D01*
X61163224Y72320212D01*
X61041936Y72530289D01*
X60905970Y72707484D01*
X60894266Y72722737D01*
X60894260Y72722744D01*
X60722743Y72894261D01*
X60722736Y72894267D01*
X60530293Y73041933D01*
X60530292Y73041934D01*
X60530289Y73041936D01*
X60320212Y73163224D01*
X60320205Y73163227D01*
X60096104Y73256053D01*
X59861785Y73318839D01*
X59621289Y73350500D01*
X59621288Y73350500D01*
X59378712Y73350500D01*
X59378711Y73350500D01*
X59138214Y73318839D01*
X58903895Y73256053D01*
X58679794Y73163227D01*
X58679785Y73163223D01*
X58469706Y73041933D01*
X58277263Y72894267D01*
X58277256Y72894261D01*
X58105739Y72722744D01*
X58105733Y72722737D01*
X57958067Y72530294D01*
X57836777Y72320215D01*
X57836773Y72320206D01*
X57743947Y72096105D01*
X57681161Y71861786D01*
X57649500Y71621289D01*
X48546995Y71621289D01*
X48517990Y71804418D01*
X48454755Y71999032D01*
X48361859Y72181350D01*
X48329474Y72225923D01*
X48329474Y72225924D01*
X47650000Y71546449D01*
X47650000Y71552661D01*
X47622741Y71654394D01*
X47570080Y71745606D01*
X47495606Y71820080D01*
X47404394Y71872741D01*
X47302661Y71900000D01*
X47296446Y71900000D01*
X47975922Y72579476D01*
X47975921Y72579477D01*
X47931359Y72611853D01*
X47931350Y72611859D01*
X47749031Y72704756D01*
X47554417Y72767991D01*
X47352317Y72800000D01*
X47147683Y72800000D01*
X46945582Y72767991D01*
X46750968Y72704756D01*
X46568644Y72611857D01*
X46524077Y72579477D01*
X46524077Y72579476D01*
X47203554Y71900000D01*
X47197339Y71900000D01*
X47095606Y71872741D01*
X47004394Y71820080D01*
X46929920Y71745606D01*
X46877259Y71654394D01*
X46850000Y71552661D01*
X46850000Y71546447D01*
X46170524Y72225923D01*
X46170523Y72225923D01*
X46138143Y72181356D01*
X46110765Y72127622D01*
X46062790Y72076826D01*
X45994969Y72060031D01*
X45928834Y72082569D01*
X45889795Y72127622D01*
X45862284Y72181615D01*
X45741971Y72347214D01*
X45597213Y72491972D01*
X45431613Y72612285D01*
X45431612Y72612286D01*
X45431610Y72612287D01*
X45374653Y72641309D01*
X45249223Y72705219D01*
X45054534Y72768478D01*
X44879995Y72796122D01*
X44852352Y72800500D01*
X44647648Y72800500D01*
X44623329Y72796649D01*
X44445465Y72768478D01*
X44250776Y72705219D01*
X44068386Y72612285D01*
X43902786Y72491972D01*
X43758028Y72347214D01*
X43637715Y72181614D01*
X43544781Y71999224D01*
X43481522Y71804535D01*
X43449500Y71602352D01*
X39680499Y71602352D01*
X39680499Y72647872D01*
X39674091Y72707483D01*
X39669124Y72720799D01*
X39623797Y72842329D01*
X39623793Y72842336D01*
X39537547Y72957545D01*
X39537544Y72957548D01*
X39422335Y73043794D01*
X39422328Y73043798D01*
X39287482Y73094092D01*
X39287483Y73094092D01*
X39227883Y73100499D01*
X39227881Y73100500D01*
X39227873Y73100500D01*
X39227864Y73100500D01*
X36932129Y73100500D01*
X36932123Y73100499D01*
X36872516Y73094092D01*
X36737671Y73043798D01*
X36737664Y73043794D01*
X36622455Y72957548D01*
X36622452Y72957545D01*
X36536206Y72842336D01*
X36536202Y72842329D01*
X36485908Y72707483D01*
X36479501Y72647884D01*
X36479501Y72647877D01*
X36479500Y72647865D01*
X29035584Y72647865D01*
X28962654Y72720795D01*
X28962649Y72720799D01*
X28758848Y72868868D01*
X28758847Y72868869D01*
X28758845Y72868870D01*
X28688747Y72904587D01*
X28534383Y72983240D01*
X28294785Y73061090D01*
X28253380Y73067648D01*
X28045962Y73100500D01*
X27794038Y73100500D01*
X27671104Y73081029D01*
X27545214Y73061090D01*
X27305616Y72983240D01*
X27081151Y72868868D01*
X26877350Y72720799D01*
X26877345Y72720795D01*
X26699205Y72542655D01*
X26699201Y72542650D01*
X26551132Y72338849D01*
X26436760Y72114384D01*
X26358910Y71874786D01*
X26319500Y71625962D01*
X22600500Y71625962D01*
X22600500Y72275962D01*
X22561090Y72524785D01*
X22483241Y72764379D01*
X22483239Y72764382D01*
X22483239Y72764384D01*
X22417060Y72894267D01*
X22368870Y72988845D01*
X22340893Y73027352D01*
X22220798Y73192650D01*
X22220794Y73192655D01*
X22042654Y73370795D01*
X22042649Y73370799D01*
X21838848Y73518868D01*
X21838847Y73518869D01*
X21838845Y73518870D01*
X21768747Y73554587D01*
X21614383Y73633240D01*
X21374785Y73711090D01*
X21125962Y73750500D01*
X20874038Y73750500D01*
X20749626Y73730795D01*
X20625214Y73711090D01*
X20385616Y73633240D01*
X20161151Y73518868D01*
X19957350Y73370800D01*
X19865487Y73278938D01*
X19804163Y73245454D01*
X19764553Y73243331D01*
X19755522Y73244302D01*
X19697873Y73250500D01*
X19697865Y73250500D01*
X18102129Y73250500D01*
X18102123Y73250499D01*
X18042516Y73244092D01*
X17907671Y73193798D01*
X17907664Y73193794D01*
X17792455Y73107548D01*
X17763765Y73069223D01*
X17707830Y73027352D01*
X17638139Y73022369D01*
X17591613Y73043217D01*
X17590813Y73043798D01*
X17555405Y73069524D01*
X17532825Y73081029D01*
X17380029Y73158883D01*
X17192826Y73219710D01*
X16998422Y73250500D01*
X16998417Y73250500D01*
X16801583Y73250500D01*
X16801578Y73250500D01*
X16607173Y73219710D01*
X16419970Y73158883D01*
X16244594Y73069524D01*
X16179692Y73022369D01*
X16085354Y72953828D01*
X16085352Y72953826D01*
X16085351Y72953826D01*
X15987681Y72856155D01*
X15926358Y72822670D01*
X15856666Y72827654D01*
X15812319Y72856155D01*
X15714648Y72953826D01*
X15714646Y72953828D01*
X15555405Y73069524D01*
X15532825Y73081029D01*
X15380029Y73158883D01*
X15192826Y73219710D01*
X14998422Y73250500D01*
X14998417Y73250500D01*
X14801583Y73250500D01*
X14801578Y73250500D01*
X14607173Y73219710D01*
X14419967Y73158882D01*
X14240911Y73067648D01*
X14172242Y73054752D01*
X14107502Y73081029D01*
X14084299Y73105248D01*
X14020798Y73192651D01*
X13842654Y73370795D01*
X13842649Y73370799D01*
X13638848Y73518868D01*
X13638847Y73518869D01*
X13638845Y73518870D01*
X13568747Y73554587D01*
X13414383Y73633240D01*
X13174785Y73711090D01*
X12925962Y73750500D01*
X12674038Y73750500D01*
X12549626Y73730795D01*
X12425214Y73711090D01*
X12185616Y73633240D01*
X11961151Y73518868D01*
X11757350Y73370799D01*
X11757345Y73370795D01*
X11579205Y73192655D01*
X11579201Y73192650D01*
X11431132Y72988849D01*
X11316760Y72764384D01*
X11240700Y72530294D01*
X11238910Y72524785D01*
X11199500Y72275962D01*
X5681554Y72275962D01*
X5663227Y72320206D01*
X5663222Y72320215D01*
X5647634Y72347214D01*
X5541936Y72530289D01*
X5405970Y72707484D01*
X5394266Y72722737D01*
X5394260Y72722744D01*
X5222743Y72894261D01*
X5222736Y72894267D01*
X5030293Y73041933D01*
X5030292Y73041934D01*
X5030289Y73041936D01*
X4820212Y73163224D01*
X4820205Y73163227D01*
X4596104Y73256053D01*
X4361785Y73318839D01*
X4121289Y73350500D01*
X4121288Y73350500D01*
X3878712Y73350500D01*
X3878711Y73350500D01*
X3638214Y73318839D01*
X3403895Y73256053D01*
X3179794Y73163227D01*
X3179785Y73163223D01*
X2969706Y73041933D01*
X2777263Y72894267D01*
X2777256Y72894261D01*
X2605739Y72722744D01*
X2605733Y72722737D01*
X2458067Y72530294D01*
X2336777Y72320215D01*
X2336773Y72320206D01*
X2243947Y72096105D01*
X2181161Y71861786D01*
X2149500Y71621289D01*
X1000500Y71621289D01*
X1000500Y75375500D01*
X1020185Y75442539D01*
X1072989Y75488294D01*
X1124500Y75499500D01*
X62375500Y75499500D01*
X62442539Y75479815D01*
G37*
G04 #@! TD.AperFunction*
G04 #@! TD*
D21*
X0Y76500000D02*
X63500000Y76500000D01*
X63500000Y0D01*
X0Y0D01*
X0Y76500000D01*
M02*
