M48
; DRILL file {KiCad 9.0.0} date 2025-03-16T21:41:08+0100
; FORMAT={-:-/ absolute / inch / decimal}
; #@! TF.CreationDate,2025-03-16T21:41:08+01:00
; #@! TF.GenerationSoftware,Kicad,Pcbnew,9.0.0
; #@! TF.FileFunction,MixedPlating,1,2
FMAT,2
INCH
; #@! TA.AperFunction,Plated,PTH,ComponentDrill
T1C0.0315
; #@! TA.AperFunction,Plated,PTH,ComponentDrill
T2C0.0394
; #@! TA.AperFunction,Plated,PTH,ComponentDrill
T3C0.0433
; #@! TA.AperFunction,Plated,PTH,ComponentDrill
T4C0.0512
; #@! TA.AperFunction,Plated,PTH,ComponentDrill
T5C0.0591
; #@! TA.AperFunction,NonPlated,NPTH,ComponentDrill
T6C0.1260
%
G90
G05
T1
X0.5689Y0.7283
X0.5689Y0.6299
X0.5866Y2.815
X0.6654Y2.815
X0.7441Y2.815
X1.6969Y0.5295
X1.7618Y2.815
X1.7953Y0.5295
X1.8602Y2.815
X2.061Y1.872
X2.061Y1.7736
T2
X0.2766Y0.9567
X0.2766Y0.8567
X0.2766Y0.7567
X0.2766Y0.6567
X0.7961Y2.449
X0.7961Y2.349
X0.7961Y2.249
X0.7961Y2.149
X0.7961Y2.049
X0.7961Y1.949
X0.7961Y1.849
X0.7961Y1.749
X0.7961Y1.649
X0.7961Y1.549
X0.7961Y1.449
X0.7961Y1.349
X0.7961Y1.249
X0.7961Y1.149
X0.7961Y1.049
X0.7961Y0.949
X0.7961Y0.849
X0.7961Y0.749
X0.7961Y0.649
X0.7961Y0.549
X1.4961Y2.448
X1.4961Y2.348
X1.4961Y2.248
X1.4961Y2.148
X1.4961Y2.048
X1.4961Y1.948
X1.4961Y1.848
X1.4961Y1.748
X1.4961Y1.648
X1.4961Y1.548
X1.4961Y1.448
X1.4961Y1.348
X1.4961Y1.248
X1.4961Y1.148
X1.4961Y1.048
X1.4961Y0.948
X1.4961Y0.848
X1.4961Y0.748
X1.4961Y0.648
X1.4961Y0.548
X1.8701Y1.0449
X1.8701Y0.9449
X1.8701Y0.8449
X1.8701Y0.7449
X1.9291Y2.4398
X1.9291Y2.3398
X1.9291Y2.2398
X1.9291Y2.1398
T3
X1.0236Y0.3591
X1.0236Y0.1819
X1.0992Y2.815
X1.2795Y0.3591
X1.2795Y0.1819
X1.4992Y2.815
T4
X0.2756Y2.3425
X0.2756Y2.1457
X0.2756Y1.9488
X0.2756Y1.752
X0.2756Y1.5551
X0.2756Y1.3583
T5
X0.5039Y2.815
X0.8268Y2.815
T6
X0.1575Y2.815
X0.1575Y0.1969
X1.8898Y1.5157
X1.8898Y0.2559
X2.3425Y2.815
X2.3425Y0.1969
M30
