G04 #@! TF.GenerationSoftware,KiCad,Pcbnew,9.0.0*
G04 #@! TF.CreationDate,2025-03-16T21:50:12+01:00*
G04 #@! TF.ProjectId,lightThermo_panel,6c696768-7454-4686-9572-6d6f5f70616e,1.1*
G04 #@! TF.SameCoordinates,PX3f9c2e0PY1312d00*
G04 #@! TF.FileFunction,Legend,Top*
G04 #@! TF.FilePolarity,Positive*
%FSLAX46Y46*%
G04 Gerber Fmt 4.6, Leading zero omitted, Abs format (unit mm)*
G04 Created by KiCad (PCBNEW 9.0.0) date 2025-03-16 21:50:12*
%MOMM*%
%LPD*%
G01*
G04 APERTURE LIST*
%ADD10C,0.100000*%
%ADD11C,0.150000*%
%ADD12C,0.120000*%
G04 #@! TA.AperFunction,Profile*
%ADD13C,0.100000*%
G04 #@! TD*
G04 APERTURE END LIST*
D10*
X30375312Y-18872419D02*
X30041979Y-18396228D01*
X29803884Y-18872419D02*
X29803884Y-17872419D01*
X29803884Y-17872419D02*
X30184836Y-17872419D01*
X30184836Y-17872419D02*
X30280074Y-17920038D01*
X30280074Y-17920038D02*
X30327693Y-17967657D01*
X30327693Y-17967657D02*
X30375312Y-18062895D01*
X30375312Y-18062895D02*
X30375312Y-18205752D01*
X30375312Y-18205752D02*
X30327693Y-18300990D01*
X30327693Y-18300990D02*
X30280074Y-18348609D01*
X30280074Y-18348609D02*
X30184836Y-18396228D01*
X30184836Y-18396228D02*
X29803884Y-18396228D01*
X31232455Y-18872419D02*
X31232455Y-18348609D01*
X31232455Y-18348609D02*
X31184836Y-18253371D01*
X31184836Y-18253371D02*
X31089598Y-18205752D01*
X31089598Y-18205752D02*
X30899122Y-18205752D01*
X30899122Y-18205752D02*
X30803884Y-18253371D01*
X31232455Y-18824800D02*
X31137217Y-18872419D01*
X31137217Y-18872419D02*
X30899122Y-18872419D01*
X30899122Y-18872419D02*
X30803884Y-18824800D01*
X30803884Y-18824800D02*
X30756265Y-18729561D01*
X30756265Y-18729561D02*
X30756265Y-18634323D01*
X30756265Y-18634323D02*
X30803884Y-18539085D01*
X30803884Y-18539085D02*
X30899122Y-18491466D01*
X30899122Y-18491466D02*
X31137217Y-18491466D01*
X31137217Y-18491466D02*
X31232455Y-18443847D01*
X31661027Y-18824800D02*
X31756265Y-18872419D01*
X31756265Y-18872419D02*
X31946741Y-18872419D01*
X31946741Y-18872419D02*
X32041979Y-18824800D01*
X32041979Y-18824800D02*
X32089598Y-18729561D01*
X32089598Y-18729561D02*
X32089598Y-18681942D01*
X32089598Y-18681942D02*
X32041979Y-18586704D01*
X32041979Y-18586704D02*
X31946741Y-18539085D01*
X31946741Y-18539085D02*
X31803884Y-18539085D01*
X31803884Y-18539085D02*
X31708646Y-18491466D01*
X31708646Y-18491466D02*
X31661027Y-18396228D01*
X31661027Y-18396228D02*
X31661027Y-18348609D01*
X31661027Y-18348609D02*
X31708646Y-18253371D01*
X31708646Y-18253371D02*
X31803884Y-18205752D01*
X31803884Y-18205752D02*
X31946741Y-18205752D01*
X31946741Y-18205752D02*
X32041979Y-18253371D01*
X32518170Y-18205752D02*
X32518170Y-19205752D01*
X32518170Y-18253371D02*
X32613408Y-18205752D01*
X32613408Y-18205752D02*
X32803884Y-18205752D01*
X32803884Y-18205752D02*
X32899122Y-18253371D01*
X32899122Y-18253371D02*
X32946741Y-18300990D01*
X32946741Y-18300990D02*
X32994360Y-18396228D01*
X32994360Y-18396228D02*
X32994360Y-18681942D01*
X32994360Y-18681942D02*
X32946741Y-18777180D01*
X32946741Y-18777180D02*
X32899122Y-18824800D01*
X32899122Y-18824800D02*
X32803884Y-18872419D01*
X32803884Y-18872419D02*
X32613408Y-18872419D01*
X32613408Y-18872419D02*
X32518170Y-18824800D01*
X33422932Y-18872419D02*
X33422932Y-17872419D01*
X33422932Y-18253371D02*
X33518170Y-18205752D01*
X33518170Y-18205752D02*
X33708646Y-18205752D01*
X33708646Y-18205752D02*
X33803884Y-18253371D01*
X33803884Y-18253371D02*
X33851503Y-18300990D01*
X33851503Y-18300990D02*
X33899122Y-18396228D01*
X33899122Y-18396228D02*
X33899122Y-18681942D01*
X33899122Y-18681942D02*
X33851503Y-18777180D01*
X33851503Y-18777180D02*
X33803884Y-18824800D01*
X33803884Y-18824800D02*
X33708646Y-18872419D01*
X33708646Y-18872419D02*
X33518170Y-18872419D01*
X33518170Y-18872419D02*
X33422932Y-18824800D01*
X34708646Y-18824800D02*
X34613408Y-18872419D01*
X34613408Y-18872419D02*
X34422932Y-18872419D01*
X34422932Y-18872419D02*
X34327694Y-18824800D01*
X34327694Y-18824800D02*
X34280075Y-18729561D01*
X34280075Y-18729561D02*
X34280075Y-18348609D01*
X34280075Y-18348609D02*
X34327694Y-18253371D01*
X34327694Y-18253371D02*
X34422932Y-18205752D01*
X34422932Y-18205752D02*
X34613408Y-18205752D01*
X34613408Y-18205752D02*
X34708646Y-18253371D01*
X34708646Y-18253371D02*
X34756265Y-18348609D01*
X34756265Y-18348609D02*
X34756265Y-18443847D01*
X34756265Y-18443847D02*
X34280075Y-18539085D01*
X35184837Y-18872419D02*
X35184837Y-18205752D01*
X35184837Y-18396228D02*
X35232456Y-18300990D01*
X35232456Y-18300990D02*
X35280075Y-18253371D01*
X35280075Y-18253371D02*
X35375313Y-18205752D01*
X35375313Y-18205752D02*
X35470551Y-18205752D01*
X35803885Y-18872419D02*
X35803885Y-18205752D01*
X35803885Y-18396228D02*
X35851504Y-18300990D01*
X35851504Y-18300990D02*
X35899123Y-18253371D01*
X35899123Y-18253371D02*
X35994361Y-18205752D01*
X35994361Y-18205752D02*
X36089599Y-18205752D01*
X36327695Y-18205752D02*
X36565790Y-18872419D01*
X36803885Y-18205752D02*
X36565790Y-18872419D01*
X36565790Y-18872419D02*
X36470552Y-19110514D01*
X36470552Y-19110514D02*
X36422933Y-19158133D01*
X36422933Y-19158133D02*
X36327695Y-19205752D01*
X37946743Y-18872419D02*
X37946743Y-17872419D01*
X37946743Y-17872419D02*
X38327695Y-17872419D01*
X38327695Y-17872419D02*
X38422933Y-17920038D01*
X38422933Y-17920038D02*
X38470552Y-17967657D01*
X38470552Y-17967657D02*
X38518171Y-18062895D01*
X38518171Y-18062895D02*
X38518171Y-18205752D01*
X38518171Y-18205752D02*
X38470552Y-18300990D01*
X38470552Y-18300990D02*
X38422933Y-18348609D01*
X38422933Y-18348609D02*
X38327695Y-18396228D01*
X38327695Y-18396228D02*
X37946743Y-18396228D01*
X38946743Y-18872419D02*
X38946743Y-17872419D01*
X39994361Y-18777180D02*
X39946742Y-18824800D01*
X39946742Y-18824800D02*
X39803885Y-18872419D01*
X39803885Y-18872419D02*
X39708647Y-18872419D01*
X39708647Y-18872419D02*
X39565790Y-18824800D01*
X39565790Y-18824800D02*
X39470552Y-18729561D01*
X39470552Y-18729561D02*
X39422933Y-18634323D01*
X39422933Y-18634323D02*
X39375314Y-18443847D01*
X39375314Y-18443847D02*
X39375314Y-18300990D01*
X39375314Y-18300990D02*
X39422933Y-18110514D01*
X39422933Y-18110514D02*
X39470552Y-18015276D01*
X39470552Y-18015276D02*
X39565790Y-17920038D01*
X39565790Y-17920038D02*
X39708647Y-17872419D01*
X39708647Y-17872419D02*
X39803885Y-17872419D01*
X39803885Y-17872419D02*
X39946742Y-17920038D01*
X39946742Y-17920038D02*
X39994361Y-17967657D01*
X40613409Y-17872419D02*
X40803885Y-17872419D01*
X40803885Y-17872419D02*
X40899123Y-17920038D01*
X40899123Y-17920038D02*
X40994361Y-18015276D01*
X40994361Y-18015276D02*
X41041980Y-18205752D01*
X41041980Y-18205752D02*
X41041980Y-18539085D01*
X41041980Y-18539085D02*
X40994361Y-18729561D01*
X40994361Y-18729561D02*
X40899123Y-18824800D01*
X40899123Y-18824800D02*
X40803885Y-18872419D01*
X40803885Y-18872419D02*
X40613409Y-18872419D01*
X40613409Y-18872419D02*
X40518171Y-18824800D01*
X40518171Y-18824800D02*
X40422933Y-18729561D01*
X40422933Y-18729561D02*
X40375314Y-18539085D01*
X40375314Y-18539085D02*
X40375314Y-18205752D01*
X40375314Y-18205752D02*
X40422933Y-18015276D01*
X40422933Y-18015276D02*
X40518171Y-17920038D01*
X40518171Y-17920038D02*
X40613409Y-17872419D01*
X59872419Y-30146115D02*
X58872419Y-30146115D01*
X58872419Y-30146115D02*
X59586704Y-29812782D01*
X59586704Y-29812782D02*
X58872419Y-29479449D01*
X58872419Y-29479449D02*
X59872419Y-29479449D01*
X59824800Y-28622306D02*
X59872419Y-28717544D01*
X59872419Y-28717544D02*
X59872419Y-28908020D01*
X59872419Y-28908020D02*
X59824800Y-29003258D01*
X59824800Y-29003258D02*
X59729561Y-29050877D01*
X59729561Y-29050877D02*
X59348609Y-29050877D01*
X59348609Y-29050877D02*
X59253371Y-29003258D01*
X59253371Y-29003258D02*
X59205752Y-28908020D01*
X59205752Y-28908020D02*
X59205752Y-28717544D01*
X59205752Y-28717544D02*
X59253371Y-28622306D01*
X59253371Y-28622306D02*
X59348609Y-28574687D01*
X59348609Y-28574687D02*
X59443847Y-28574687D01*
X59443847Y-28574687D02*
X59539085Y-29050877D01*
X59872419Y-28146115D02*
X59205752Y-28146115D01*
X59300990Y-28146115D02*
X59253371Y-28098496D01*
X59253371Y-28098496D02*
X59205752Y-28003258D01*
X59205752Y-28003258D02*
X59205752Y-27860401D01*
X59205752Y-27860401D02*
X59253371Y-27765163D01*
X59253371Y-27765163D02*
X59348609Y-27717544D01*
X59348609Y-27717544D02*
X59872419Y-27717544D01*
X59348609Y-27717544D02*
X59253371Y-27669925D01*
X59253371Y-27669925D02*
X59205752Y-27574687D01*
X59205752Y-27574687D02*
X59205752Y-27431830D01*
X59205752Y-27431830D02*
X59253371Y-27336591D01*
X59253371Y-27336591D02*
X59348609Y-27288972D01*
X59348609Y-27288972D02*
X59872419Y-27288972D01*
X59872419Y-26669925D02*
X59824800Y-26765163D01*
X59824800Y-26765163D02*
X59777180Y-26812782D01*
X59777180Y-26812782D02*
X59681942Y-26860401D01*
X59681942Y-26860401D02*
X59396228Y-26860401D01*
X59396228Y-26860401D02*
X59300990Y-26812782D01*
X59300990Y-26812782D02*
X59253371Y-26765163D01*
X59253371Y-26765163D02*
X59205752Y-26669925D01*
X59205752Y-26669925D02*
X59205752Y-26527068D01*
X59205752Y-26527068D02*
X59253371Y-26431830D01*
X59253371Y-26431830D02*
X59300990Y-26384211D01*
X59300990Y-26384211D02*
X59396228Y-26336592D01*
X59396228Y-26336592D02*
X59681942Y-26336592D01*
X59681942Y-26336592D02*
X59777180Y-26384211D01*
X59777180Y-26384211D02*
X59824800Y-26431830D01*
X59824800Y-26431830D02*
X59872419Y-26527068D01*
X59872419Y-26527068D02*
X59872419Y-26669925D01*
X59872419Y-25908020D02*
X59205752Y-25908020D01*
X59396228Y-25908020D02*
X59300990Y-25860401D01*
X59300990Y-25860401D02*
X59253371Y-25812782D01*
X59253371Y-25812782D02*
X59205752Y-25717544D01*
X59205752Y-25717544D02*
X59205752Y-25622306D01*
X59205752Y-25384210D02*
X59872419Y-25146115D01*
X59205752Y-24908020D02*
X59872419Y-25146115D01*
X59872419Y-25146115D02*
X60110514Y-25241353D01*
X60110514Y-25241353D02*
X60158133Y-25288972D01*
X60158133Y-25288972D02*
X60205752Y-25384210D01*
X58872419Y-23574686D02*
X58872419Y-23384210D01*
X58872419Y-23384210D02*
X58920038Y-23288972D01*
X58920038Y-23288972D02*
X59015276Y-23193734D01*
X59015276Y-23193734D02*
X59205752Y-23146115D01*
X59205752Y-23146115D02*
X59539085Y-23146115D01*
X59539085Y-23146115D02*
X59729561Y-23193734D01*
X59729561Y-23193734D02*
X59824800Y-23288972D01*
X59824800Y-23288972D02*
X59872419Y-23384210D01*
X59872419Y-23384210D02*
X59872419Y-23574686D01*
X59872419Y-23574686D02*
X59824800Y-23669924D01*
X59824800Y-23669924D02*
X59729561Y-23765162D01*
X59729561Y-23765162D02*
X59539085Y-23812781D01*
X59539085Y-23812781D02*
X59205752Y-23812781D01*
X59205752Y-23812781D02*
X59015276Y-23765162D01*
X59015276Y-23765162D02*
X58920038Y-23669924D01*
X58920038Y-23669924D02*
X58872419Y-23574686D01*
X59205752Y-22717543D02*
X60205752Y-22717543D01*
X59253371Y-22717543D02*
X59205752Y-22622305D01*
X59205752Y-22622305D02*
X59205752Y-22431829D01*
X59205752Y-22431829D02*
X59253371Y-22336591D01*
X59253371Y-22336591D02*
X59300990Y-22288972D01*
X59300990Y-22288972D02*
X59396228Y-22241353D01*
X59396228Y-22241353D02*
X59681942Y-22241353D01*
X59681942Y-22241353D02*
X59777180Y-22288972D01*
X59777180Y-22288972D02*
X59824800Y-22336591D01*
X59824800Y-22336591D02*
X59872419Y-22431829D01*
X59872419Y-22431829D02*
X59872419Y-22622305D01*
X59872419Y-22622305D02*
X59824800Y-22717543D01*
X59205752Y-21955638D02*
X59205752Y-21574686D01*
X58872419Y-21812781D02*
X59729561Y-21812781D01*
X59729561Y-21812781D02*
X59824800Y-21765162D01*
X59824800Y-21765162D02*
X59872419Y-21669924D01*
X59872419Y-21669924D02*
X59872419Y-21574686D01*
X59872419Y-21241352D02*
X59205752Y-21241352D01*
X58872419Y-21241352D02*
X58920038Y-21288971D01*
X58920038Y-21288971D02*
X58967657Y-21241352D01*
X58967657Y-21241352D02*
X58920038Y-21193733D01*
X58920038Y-21193733D02*
X58872419Y-21241352D01*
X58872419Y-21241352D02*
X58967657Y-21241352D01*
X59872419Y-20622305D02*
X59824800Y-20717543D01*
X59824800Y-20717543D02*
X59777180Y-20765162D01*
X59777180Y-20765162D02*
X59681942Y-20812781D01*
X59681942Y-20812781D02*
X59396228Y-20812781D01*
X59396228Y-20812781D02*
X59300990Y-20765162D01*
X59300990Y-20765162D02*
X59253371Y-20717543D01*
X59253371Y-20717543D02*
X59205752Y-20622305D01*
X59205752Y-20622305D02*
X59205752Y-20479448D01*
X59205752Y-20479448D02*
X59253371Y-20384210D01*
X59253371Y-20384210D02*
X59300990Y-20336591D01*
X59300990Y-20336591D02*
X59396228Y-20288972D01*
X59396228Y-20288972D02*
X59681942Y-20288972D01*
X59681942Y-20288972D02*
X59777180Y-20336591D01*
X59777180Y-20336591D02*
X59824800Y-20384210D01*
X59824800Y-20384210D02*
X59872419Y-20479448D01*
X59872419Y-20479448D02*
X59872419Y-20622305D01*
X59205752Y-19860400D02*
X59872419Y-19860400D01*
X59300990Y-19860400D02*
X59253371Y-19812781D01*
X59253371Y-19812781D02*
X59205752Y-19717543D01*
X59205752Y-19717543D02*
X59205752Y-19574686D01*
X59205752Y-19574686D02*
X59253371Y-19479448D01*
X59253371Y-19479448D02*
X59348609Y-19431829D01*
X59348609Y-19431829D02*
X59872419Y-19431829D01*
X8372419Y-25624687D02*
X7896228Y-25958020D01*
X8372419Y-26196115D02*
X7372419Y-26196115D01*
X7372419Y-26196115D02*
X7372419Y-25815163D01*
X7372419Y-25815163D02*
X7420038Y-25719925D01*
X7420038Y-25719925D02*
X7467657Y-25672306D01*
X7467657Y-25672306D02*
X7562895Y-25624687D01*
X7562895Y-25624687D02*
X7705752Y-25624687D01*
X7705752Y-25624687D02*
X7800990Y-25672306D01*
X7800990Y-25672306D02*
X7848609Y-25719925D01*
X7848609Y-25719925D02*
X7896228Y-25815163D01*
X7896228Y-25815163D02*
X7896228Y-26196115D01*
X7372419Y-25291353D02*
X8372419Y-24624687D01*
X7372419Y-24624687D02*
X8372419Y-25291353D01*
X7372419Y-29838972D02*
X7372419Y-29267544D01*
X8372419Y-29553258D02*
X7372419Y-29553258D01*
X7372419Y-29029448D02*
X8372419Y-28362782D01*
X7372419Y-28362782D02*
X8372419Y-29029448D01*
X68586704Y-42243734D02*
X68586704Y-41767544D01*
X68872419Y-42338972D02*
X67872419Y-42005639D01*
X67872419Y-42005639D02*
X68872419Y-41672306D01*
X68872419Y-41338972D02*
X67872419Y-41338972D01*
X67872419Y-41338972D02*
X68586704Y-41005639D01*
X68586704Y-41005639D02*
X67872419Y-40672306D01*
X67872419Y-40672306D02*
X68872419Y-40672306D01*
X67872419Y-40005639D02*
X67872419Y-39910401D01*
X67872419Y-39910401D02*
X67920038Y-39815163D01*
X67920038Y-39815163D02*
X67967657Y-39767544D01*
X67967657Y-39767544D02*
X68062895Y-39719925D01*
X68062895Y-39719925D02*
X68253371Y-39672306D01*
X68253371Y-39672306D02*
X68491466Y-39672306D01*
X68491466Y-39672306D02*
X68681942Y-39719925D01*
X68681942Y-39719925D02*
X68777180Y-39767544D01*
X68777180Y-39767544D02*
X68824800Y-39815163D01*
X68824800Y-39815163D02*
X68872419Y-39910401D01*
X68872419Y-39910401D02*
X68872419Y-40005639D01*
X68872419Y-40005639D02*
X68824800Y-40100877D01*
X68824800Y-40100877D02*
X68777180Y-40148496D01*
X68777180Y-40148496D02*
X68681942Y-40196115D01*
X68681942Y-40196115D02*
X68491466Y-40243734D01*
X68491466Y-40243734D02*
X68253371Y-40243734D01*
X68253371Y-40243734D02*
X68062895Y-40196115D01*
X68062895Y-40196115D02*
X67967657Y-40148496D01*
X67967657Y-40148496D02*
X67920038Y-40100877D01*
X67920038Y-40100877D02*
X67872419Y-40005639D01*
X67872419Y-39053258D02*
X67872419Y-38958020D01*
X67872419Y-38958020D02*
X67920038Y-38862782D01*
X67920038Y-38862782D02*
X67967657Y-38815163D01*
X67967657Y-38815163D02*
X68062895Y-38767544D01*
X68062895Y-38767544D02*
X68253371Y-38719925D01*
X68253371Y-38719925D02*
X68491466Y-38719925D01*
X68491466Y-38719925D02*
X68681942Y-38767544D01*
X68681942Y-38767544D02*
X68777180Y-38815163D01*
X68777180Y-38815163D02*
X68824800Y-38862782D01*
X68824800Y-38862782D02*
X68872419Y-38958020D01*
X68872419Y-38958020D02*
X68872419Y-39053258D01*
X68872419Y-39053258D02*
X68824800Y-39148496D01*
X68824800Y-39148496D02*
X68777180Y-39196115D01*
X68777180Y-39196115D02*
X68681942Y-39243734D01*
X68681942Y-39243734D02*
X68491466Y-39291353D01*
X68491466Y-39291353D02*
X68253371Y-39291353D01*
X68253371Y-39291353D02*
X68062895Y-39243734D01*
X68062895Y-39243734D02*
X67967657Y-39196115D01*
X67967657Y-39196115D02*
X67920038Y-39148496D01*
X67920038Y-39148496D02*
X67872419Y-39053258D01*
X67967657Y-38338972D02*
X67920038Y-38291353D01*
X67920038Y-38291353D02*
X67872419Y-38196115D01*
X67872419Y-38196115D02*
X67872419Y-37958020D01*
X67872419Y-37958020D02*
X67920038Y-37862782D01*
X67920038Y-37862782D02*
X67967657Y-37815163D01*
X67967657Y-37815163D02*
X68062895Y-37767544D01*
X68062895Y-37767544D02*
X68158133Y-37767544D01*
X68158133Y-37767544D02*
X68300990Y-37815163D01*
X68300990Y-37815163D02*
X68872419Y-38386591D01*
X68872419Y-38386591D02*
X68872419Y-37767544D01*
X75872419Y-29838972D02*
X75872419Y-29267544D01*
X76872419Y-29553258D02*
X75872419Y-29553258D01*
X75872419Y-29029448D02*
X76872419Y-28362782D01*
X75872419Y-28362782D02*
X76872419Y-29029448D01*
X93637217Y-79348609D02*
X93303884Y-79348609D01*
X93303884Y-79872419D02*
X93303884Y-78872419D01*
X93303884Y-78872419D02*
X93780074Y-78872419D01*
X94589598Y-79205752D02*
X94589598Y-79872419D01*
X94161027Y-79205752D02*
X94161027Y-79729561D01*
X94161027Y-79729561D02*
X94208646Y-79824800D01*
X94208646Y-79824800D02*
X94303884Y-79872419D01*
X94303884Y-79872419D02*
X94446741Y-79872419D01*
X94446741Y-79872419D02*
X94541979Y-79824800D01*
X94541979Y-79824800D02*
X94589598Y-79777180D01*
X95065789Y-79205752D02*
X95065789Y-79872419D01*
X95065789Y-79300990D02*
X95113408Y-79253371D01*
X95113408Y-79253371D02*
X95208646Y-79205752D01*
X95208646Y-79205752D02*
X95351503Y-79205752D01*
X95351503Y-79205752D02*
X95446741Y-79253371D01*
X95446741Y-79253371D02*
X95494360Y-79348609D01*
X95494360Y-79348609D02*
X95494360Y-79872419D01*
X96399122Y-79824800D02*
X96303884Y-79872419D01*
X96303884Y-79872419D02*
X96113408Y-79872419D01*
X96113408Y-79872419D02*
X96018170Y-79824800D01*
X96018170Y-79824800D02*
X95970551Y-79777180D01*
X95970551Y-79777180D02*
X95922932Y-79681942D01*
X95922932Y-79681942D02*
X95922932Y-79396228D01*
X95922932Y-79396228D02*
X95970551Y-79300990D01*
X95970551Y-79300990D02*
X96018170Y-79253371D01*
X96018170Y-79253371D02*
X96113408Y-79205752D01*
X96113408Y-79205752D02*
X96303884Y-79205752D01*
X96303884Y-79205752D02*
X96399122Y-79253371D01*
X96684837Y-79205752D02*
X97065789Y-79205752D01*
X96827694Y-78872419D02*
X96827694Y-79729561D01*
X96827694Y-79729561D02*
X96875313Y-79824800D01*
X96875313Y-79824800D02*
X96970551Y-79872419D01*
X96970551Y-79872419D02*
X97065789Y-79872419D01*
X97399123Y-79872419D02*
X97399123Y-79205752D01*
X97399123Y-78872419D02*
X97351504Y-78920038D01*
X97351504Y-78920038D02*
X97399123Y-78967657D01*
X97399123Y-78967657D02*
X97446742Y-78920038D01*
X97446742Y-78920038D02*
X97399123Y-78872419D01*
X97399123Y-78872419D02*
X97399123Y-78967657D01*
X98018170Y-79872419D02*
X97922932Y-79824800D01*
X97922932Y-79824800D02*
X97875313Y-79777180D01*
X97875313Y-79777180D02*
X97827694Y-79681942D01*
X97827694Y-79681942D02*
X97827694Y-79396228D01*
X97827694Y-79396228D02*
X97875313Y-79300990D01*
X97875313Y-79300990D02*
X97922932Y-79253371D01*
X97922932Y-79253371D02*
X98018170Y-79205752D01*
X98018170Y-79205752D02*
X98161027Y-79205752D01*
X98161027Y-79205752D02*
X98256265Y-79253371D01*
X98256265Y-79253371D02*
X98303884Y-79300990D01*
X98303884Y-79300990D02*
X98351503Y-79396228D01*
X98351503Y-79396228D02*
X98351503Y-79681942D01*
X98351503Y-79681942D02*
X98303884Y-79777180D01*
X98303884Y-79777180D02*
X98256265Y-79824800D01*
X98256265Y-79824800D02*
X98161027Y-79872419D01*
X98161027Y-79872419D02*
X98018170Y-79872419D01*
X98780075Y-79205752D02*
X98780075Y-79872419D01*
X98780075Y-79300990D02*
X98827694Y-79253371D01*
X98827694Y-79253371D02*
X98922932Y-79205752D01*
X98922932Y-79205752D02*
X99065789Y-79205752D01*
X99065789Y-79205752D02*
X99161027Y-79253371D01*
X99161027Y-79253371D02*
X99208646Y-79348609D01*
X99208646Y-79348609D02*
X99208646Y-79872419D01*
X76491466Y-45196115D02*
X76491466Y-44434211D01*
X76872419Y-44815163D02*
X76110514Y-44815163D01*
X75872419Y-43481830D02*
X75872419Y-43958020D01*
X75872419Y-43958020D02*
X76348609Y-44005639D01*
X76348609Y-44005639D02*
X76300990Y-43958020D01*
X76300990Y-43958020D02*
X76253371Y-43862782D01*
X76253371Y-43862782D02*
X76253371Y-43624687D01*
X76253371Y-43624687D02*
X76300990Y-43529449D01*
X76300990Y-43529449D02*
X76348609Y-43481830D01*
X76348609Y-43481830D02*
X76443847Y-43434211D01*
X76443847Y-43434211D02*
X76681942Y-43434211D01*
X76681942Y-43434211D02*
X76777180Y-43481830D01*
X76777180Y-43481830D02*
X76824800Y-43529449D01*
X76824800Y-43529449D02*
X76872419Y-43624687D01*
X76872419Y-43624687D02*
X76872419Y-43862782D01*
X76872419Y-43862782D02*
X76824800Y-43958020D01*
X76824800Y-43958020D02*
X76777180Y-44005639D01*
X75872419Y-43148496D02*
X76872419Y-42815163D01*
X76872419Y-42815163D02*
X75872419Y-42481830D01*
X25137217Y-79348609D02*
X24803884Y-79348609D01*
X24803884Y-79872419D02*
X24803884Y-78872419D01*
X24803884Y-78872419D02*
X25280074Y-78872419D01*
X26089598Y-79205752D02*
X26089598Y-79872419D01*
X25661027Y-79205752D02*
X25661027Y-79729561D01*
X25661027Y-79729561D02*
X25708646Y-79824800D01*
X25708646Y-79824800D02*
X25803884Y-79872419D01*
X25803884Y-79872419D02*
X25946741Y-79872419D01*
X25946741Y-79872419D02*
X26041979Y-79824800D01*
X26041979Y-79824800D02*
X26089598Y-79777180D01*
X26565789Y-79205752D02*
X26565789Y-79872419D01*
X26565789Y-79300990D02*
X26613408Y-79253371D01*
X26613408Y-79253371D02*
X26708646Y-79205752D01*
X26708646Y-79205752D02*
X26851503Y-79205752D01*
X26851503Y-79205752D02*
X26946741Y-79253371D01*
X26946741Y-79253371D02*
X26994360Y-79348609D01*
X26994360Y-79348609D02*
X26994360Y-79872419D01*
X27899122Y-79824800D02*
X27803884Y-79872419D01*
X27803884Y-79872419D02*
X27613408Y-79872419D01*
X27613408Y-79872419D02*
X27518170Y-79824800D01*
X27518170Y-79824800D02*
X27470551Y-79777180D01*
X27470551Y-79777180D02*
X27422932Y-79681942D01*
X27422932Y-79681942D02*
X27422932Y-79396228D01*
X27422932Y-79396228D02*
X27470551Y-79300990D01*
X27470551Y-79300990D02*
X27518170Y-79253371D01*
X27518170Y-79253371D02*
X27613408Y-79205752D01*
X27613408Y-79205752D02*
X27803884Y-79205752D01*
X27803884Y-79205752D02*
X27899122Y-79253371D01*
X28184837Y-79205752D02*
X28565789Y-79205752D01*
X28327694Y-78872419D02*
X28327694Y-79729561D01*
X28327694Y-79729561D02*
X28375313Y-79824800D01*
X28375313Y-79824800D02*
X28470551Y-79872419D01*
X28470551Y-79872419D02*
X28565789Y-79872419D01*
X28899123Y-79872419D02*
X28899123Y-79205752D01*
X28899123Y-78872419D02*
X28851504Y-78920038D01*
X28851504Y-78920038D02*
X28899123Y-78967657D01*
X28899123Y-78967657D02*
X28946742Y-78920038D01*
X28946742Y-78920038D02*
X28899123Y-78872419D01*
X28899123Y-78872419D02*
X28899123Y-78967657D01*
X29518170Y-79872419D02*
X29422932Y-79824800D01*
X29422932Y-79824800D02*
X29375313Y-79777180D01*
X29375313Y-79777180D02*
X29327694Y-79681942D01*
X29327694Y-79681942D02*
X29327694Y-79396228D01*
X29327694Y-79396228D02*
X29375313Y-79300990D01*
X29375313Y-79300990D02*
X29422932Y-79253371D01*
X29422932Y-79253371D02*
X29518170Y-79205752D01*
X29518170Y-79205752D02*
X29661027Y-79205752D01*
X29661027Y-79205752D02*
X29756265Y-79253371D01*
X29756265Y-79253371D02*
X29803884Y-79300990D01*
X29803884Y-79300990D02*
X29851503Y-79396228D01*
X29851503Y-79396228D02*
X29851503Y-79681942D01*
X29851503Y-79681942D02*
X29803884Y-79777180D01*
X29803884Y-79777180D02*
X29756265Y-79824800D01*
X29756265Y-79824800D02*
X29661027Y-79872419D01*
X29661027Y-79872419D02*
X29518170Y-79872419D01*
X30280075Y-79205752D02*
X30280075Y-79872419D01*
X30280075Y-79300990D02*
X30327694Y-79253371D01*
X30327694Y-79253371D02*
X30422932Y-79205752D01*
X30422932Y-79205752D02*
X30565789Y-79205752D01*
X30565789Y-79205752D02*
X30661027Y-79253371D01*
X30661027Y-79253371D02*
X30708646Y-79348609D01*
X30708646Y-79348609D02*
X30708646Y-79872419D01*
X57372419Y-65415639D02*
X57372419Y-65225163D01*
X57372419Y-65225163D02*
X57420038Y-65129925D01*
X57420038Y-65129925D02*
X57515276Y-65034687D01*
X57515276Y-65034687D02*
X57705752Y-64987068D01*
X57705752Y-64987068D02*
X58039085Y-64987068D01*
X58039085Y-64987068D02*
X58229561Y-65034687D01*
X58229561Y-65034687D02*
X58324800Y-65129925D01*
X58324800Y-65129925D02*
X58372419Y-65225163D01*
X58372419Y-65225163D02*
X58372419Y-65415639D01*
X58372419Y-65415639D02*
X58324800Y-65510877D01*
X58324800Y-65510877D02*
X58229561Y-65606115D01*
X58229561Y-65606115D02*
X58039085Y-65653734D01*
X58039085Y-65653734D02*
X57705752Y-65653734D01*
X57705752Y-65653734D02*
X57515276Y-65606115D01*
X57515276Y-65606115D02*
X57420038Y-65510877D01*
X57420038Y-65510877D02*
X57372419Y-65415639D01*
X58372419Y-64082306D02*
X58372419Y-64558496D01*
X58372419Y-64558496D02*
X57372419Y-64558496D01*
X57848609Y-63748972D02*
X57848609Y-63415639D01*
X58372419Y-63272782D02*
X58372419Y-63748972D01*
X58372419Y-63748972D02*
X57372419Y-63748972D01*
X57372419Y-63748972D02*
X57372419Y-63272782D01*
X58372419Y-62844210D02*
X57372419Y-62844210D01*
X57372419Y-62844210D02*
X57372419Y-62606115D01*
X57372419Y-62606115D02*
X57420038Y-62463258D01*
X57420038Y-62463258D02*
X57515276Y-62368020D01*
X57515276Y-62368020D02*
X57610514Y-62320401D01*
X57610514Y-62320401D02*
X57800990Y-62272782D01*
X57800990Y-62272782D02*
X57943847Y-62272782D01*
X57943847Y-62272782D02*
X58134323Y-62320401D01*
X58134323Y-62320401D02*
X58229561Y-62368020D01*
X58229561Y-62368020D02*
X58324800Y-62463258D01*
X58324800Y-62463258D02*
X58372419Y-62606115D01*
X58372419Y-62606115D02*
X58372419Y-62844210D01*
X58372419Y-61082305D02*
X57372419Y-61082305D01*
X57372419Y-61082305D02*
X57372419Y-60844210D01*
X57372419Y-60844210D02*
X57420038Y-60701353D01*
X57420038Y-60701353D02*
X57515276Y-60606115D01*
X57515276Y-60606115D02*
X57610514Y-60558496D01*
X57610514Y-60558496D02*
X57800990Y-60510877D01*
X57800990Y-60510877D02*
X57943847Y-60510877D01*
X57943847Y-60510877D02*
X58134323Y-60558496D01*
X58134323Y-60558496D02*
X58229561Y-60606115D01*
X58229561Y-60606115D02*
X58324800Y-60701353D01*
X58324800Y-60701353D02*
X58372419Y-60844210D01*
X58372419Y-60844210D02*
X58372419Y-61082305D01*
X58372419Y-60082305D02*
X57705752Y-60082305D01*
X57372419Y-60082305D02*
X57420038Y-60129924D01*
X57420038Y-60129924D02*
X57467657Y-60082305D01*
X57467657Y-60082305D02*
X57420038Y-60034686D01*
X57420038Y-60034686D02*
X57372419Y-60082305D01*
X57372419Y-60082305D02*
X57467657Y-60082305D01*
X58324800Y-59653734D02*
X58372419Y-59558496D01*
X58372419Y-59558496D02*
X58372419Y-59368020D01*
X58372419Y-59368020D02*
X58324800Y-59272782D01*
X58324800Y-59272782D02*
X58229561Y-59225163D01*
X58229561Y-59225163D02*
X58181942Y-59225163D01*
X58181942Y-59225163D02*
X58086704Y-59272782D01*
X58086704Y-59272782D02*
X58039085Y-59368020D01*
X58039085Y-59368020D02*
X58039085Y-59510877D01*
X58039085Y-59510877D02*
X57991466Y-59606115D01*
X57991466Y-59606115D02*
X57896228Y-59653734D01*
X57896228Y-59653734D02*
X57848609Y-59653734D01*
X57848609Y-59653734D02*
X57753371Y-59606115D01*
X57753371Y-59606115D02*
X57705752Y-59510877D01*
X57705752Y-59510877D02*
X57705752Y-59368020D01*
X57705752Y-59368020D02*
X57753371Y-59272782D01*
X57705752Y-58796591D02*
X58705752Y-58796591D01*
X57753371Y-58796591D02*
X57705752Y-58701353D01*
X57705752Y-58701353D02*
X57705752Y-58510877D01*
X57705752Y-58510877D02*
X57753371Y-58415639D01*
X57753371Y-58415639D02*
X57800990Y-58368020D01*
X57800990Y-58368020D02*
X57896228Y-58320401D01*
X57896228Y-58320401D02*
X58181942Y-58320401D01*
X58181942Y-58320401D02*
X58277180Y-58368020D01*
X58277180Y-58368020D02*
X58324800Y-58415639D01*
X58324800Y-58415639D02*
X58372419Y-58510877D01*
X58372419Y-58510877D02*
X58372419Y-58701353D01*
X58372419Y-58701353D02*
X58324800Y-58796591D01*
X58372419Y-57748972D02*
X58324800Y-57844210D01*
X58324800Y-57844210D02*
X58229561Y-57891829D01*
X58229561Y-57891829D02*
X57372419Y-57891829D01*
X58372419Y-56939448D02*
X57848609Y-56939448D01*
X57848609Y-56939448D02*
X57753371Y-56987067D01*
X57753371Y-56987067D02*
X57705752Y-57082305D01*
X57705752Y-57082305D02*
X57705752Y-57272781D01*
X57705752Y-57272781D02*
X57753371Y-57368019D01*
X58324800Y-56939448D02*
X58372419Y-57034686D01*
X58372419Y-57034686D02*
X58372419Y-57272781D01*
X58372419Y-57272781D02*
X58324800Y-57368019D01*
X58324800Y-57368019D02*
X58229561Y-57415638D01*
X58229561Y-57415638D02*
X58134323Y-57415638D01*
X58134323Y-57415638D02*
X58039085Y-57368019D01*
X58039085Y-57368019D02*
X57991466Y-57272781D01*
X57991466Y-57272781D02*
X57991466Y-57034686D01*
X57991466Y-57034686D02*
X57943847Y-56939448D01*
X57705752Y-56558495D02*
X58372419Y-56320400D01*
X57705752Y-56082305D02*
X58372419Y-56320400D01*
X58372419Y-56320400D02*
X58610514Y-56415638D01*
X58610514Y-56415638D02*
X58658133Y-56463257D01*
X58658133Y-56463257D02*
X58705752Y-56558495D01*
X75920038Y-34672306D02*
X75872419Y-34767544D01*
X75872419Y-34767544D02*
X75872419Y-34910401D01*
X75872419Y-34910401D02*
X75920038Y-35053258D01*
X75920038Y-35053258D02*
X76015276Y-35148496D01*
X76015276Y-35148496D02*
X76110514Y-35196115D01*
X76110514Y-35196115D02*
X76300990Y-35243734D01*
X76300990Y-35243734D02*
X76443847Y-35243734D01*
X76443847Y-35243734D02*
X76634323Y-35196115D01*
X76634323Y-35196115D02*
X76729561Y-35148496D01*
X76729561Y-35148496D02*
X76824800Y-35053258D01*
X76824800Y-35053258D02*
X76872419Y-34910401D01*
X76872419Y-34910401D02*
X76872419Y-34815163D01*
X76872419Y-34815163D02*
X76824800Y-34672306D01*
X76824800Y-34672306D02*
X76777180Y-34624687D01*
X76777180Y-34624687D02*
X76443847Y-34624687D01*
X76443847Y-34624687D02*
X76443847Y-34815163D01*
X76872419Y-34196115D02*
X75872419Y-34196115D01*
X75872419Y-34196115D02*
X76872419Y-33624687D01*
X76872419Y-33624687D02*
X75872419Y-33624687D01*
X76872419Y-33148496D02*
X75872419Y-33148496D01*
X75872419Y-33148496D02*
X75872419Y-32910401D01*
X75872419Y-32910401D02*
X75920038Y-32767544D01*
X75920038Y-32767544D02*
X76015276Y-32672306D01*
X76015276Y-32672306D02*
X76110514Y-32624687D01*
X76110514Y-32624687D02*
X76300990Y-32577068D01*
X76300990Y-32577068D02*
X76443847Y-32577068D01*
X76443847Y-32577068D02*
X76634323Y-32624687D01*
X76634323Y-32624687D02*
X76729561Y-32672306D01*
X76729561Y-32672306D02*
X76824800Y-32767544D01*
X76824800Y-32767544D02*
X76872419Y-32910401D01*
X76872419Y-32910401D02*
X76872419Y-33148496D01*
X78372419Y-66838972D02*
X78372419Y-66267544D01*
X79372419Y-66553258D02*
X78372419Y-66553258D01*
X78324800Y-65219925D02*
X79610514Y-66077067D01*
X79372419Y-64886591D02*
X78372419Y-64886591D01*
X78848609Y-64886591D02*
X78848609Y-64315163D01*
X79372419Y-64315163D02*
X78372419Y-64315163D01*
X79324800Y-63124686D02*
X79372419Y-62981829D01*
X79372419Y-62981829D02*
X79372419Y-62743734D01*
X79372419Y-62743734D02*
X79324800Y-62648496D01*
X79324800Y-62648496D02*
X79277180Y-62600877D01*
X79277180Y-62600877D02*
X79181942Y-62553258D01*
X79181942Y-62553258D02*
X79086704Y-62553258D01*
X79086704Y-62553258D02*
X78991466Y-62600877D01*
X78991466Y-62600877D02*
X78943847Y-62648496D01*
X78943847Y-62648496D02*
X78896228Y-62743734D01*
X78896228Y-62743734D02*
X78848609Y-62934210D01*
X78848609Y-62934210D02*
X78800990Y-63029448D01*
X78800990Y-63029448D02*
X78753371Y-63077067D01*
X78753371Y-63077067D02*
X78658133Y-63124686D01*
X78658133Y-63124686D02*
X78562895Y-63124686D01*
X78562895Y-63124686D02*
X78467657Y-63077067D01*
X78467657Y-63077067D02*
X78420038Y-63029448D01*
X78420038Y-63029448D02*
X78372419Y-62934210D01*
X78372419Y-62934210D02*
X78372419Y-62696115D01*
X78372419Y-62696115D02*
X78420038Y-62553258D01*
X79324800Y-61743734D02*
X79372419Y-61838972D01*
X79372419Y-61838972D02*
X79372419Y-62029448D01*
X79372419Y-62029448D02*
X79324800Y-62124686D01*
X79324800Y-62124686D02*
X79229561Y-62172305D01*
X79229561Y-62172305D02*
X78848609Y-62172305D01*
X78848609Y-62172305D02*
X78753371Y-62124686D01*
X78753371Y-62124686D02*
X78705752Y-62029448D01*
X78705752Y-62029448D02*
X78705752Y-61838972D01*
X78705752Y-61838972D02*
X78753371Y-61743734D01*
X78753371Y-61743734D02*
X78848609Y-61696115D01*
X78848609Y-61696115D02*
X78943847Y-61696115D01*
X78943847Y-61696115D02*
X79039085Y-62172305D01*
X78705752Y-61267543D02*
X79372419Y-61267543D01*
X78800990Y-61267543D02*
X78753371Y-61219924D01*
X78753371Y-61219924D02*
X78705752Y-61124686D01*
X78705752Y-61124686D02*
X78705752Y-60981829D01*
X78705752Y-60981829D02*
X78753371Y-60886591D01*
X78753371Y-60886591D02*
X78848609Y-60838972D01*
X78848609Y-60838972D02*
X79372419Y-60838972D01*
X79324800Y-60410400D02*
X79372419Y-60315162D01*
X79372419Y-60315162D02*
X79372419Y-60124686D01*
X79372419Y-60124686D02*
X79324800Y-60029448D01*
X79324800Y-60029448D02*
X79229561Y-59981829D01*
X79229561Y-59981829D02*
X79181942Y-59981829D01*
X79181942Y-59981829D02*
X79086704Y-60029448D01*
X79086704Y-60029448D02*
X79039085Y-60124686D01*
X79039085Y-60124686D02*
X79039085Y-60267543D01*
X79039085Y-60267543D02*
X78991466Y-60362781D01*
X78991466Y-60362781D02*
X78896228Y-60410400D01*
X78896228Y-60410400D02*
X78848609Y-60410400D01*
X78848609Y-60410400D02*
X78753371Y-60362781D01*
X78753371Y-60362781D02*
X78705752Y-60267543D01*
X78705752Y-60267543D02*
X78705752Y-60124686D01*
X78705752Y-60124686D02*
X78753371Y-60029448D01*
X79372419Y-59410400D02*
X79324800Y-59505638D01*
X79324800Y-59505638D02*
X79277180Y-59553257D01*
X79277180Y-59553257D02*
X79181942Y-59600876D01*
X79181942Y-59600876D02*
X78896228Y-59600876D01*
X78896228Y-59600876D02*
X78800990Y-59553257D01*
X78800990Y-59553257D02*
X78753371Y-59505638D01*
X78753371Y-59505638D02*
X78705752Y-59410400D01*
X78705752Y-59410400D02*
X78705752Y-59267543D01*
X78705752Y-59267543D02*
X78753371Y-59172305D01*
X78753371Y-59172305D02*
X78800990Y-59124686D01*
X78800990Y-59124686D02*
X78896228Y-59077067D01*
X78896228Y-59077067D02*
X79181942Y-59077067D01*
X79181942Y-59077067D02*
X79277180Y-59124686D01*
X79277180Y-59124686D02*
X79324800Y-59172305D01*
X79324800Y-59172305D02*
X79372419Y-59267543D01*
X79372419Y-59267543D02*
X79372419Y-59410400D01*
X79372419Y-58648495D02*
X78705752Y-58648495D01*
X78896228Y-58648495D02*
X78800990Y-58600876D01*
X78800990Y-58600876D02*
X78753371Y-58553257D01*
X78753371Y-58553257D02*
X78705752Y-58458019D01*
X78705752Y-58458019D02*
X78705752Y-58362781D01*
X98875312Y-18872419D02*
X98541979Y-18396228D01*
X98303884Y-18872419D02*
X98303884Y-17872419D01*
X98303884Y-17872419D02*
X98684836Y-17872419D01*
X98684836Y-17872419D02*
X98780074Y-17920038D01*
X98780074Y-17920038D02*
X98827693Y-17967657D01*
X98827693Y-17967657D02*
X98875312Y-18062895D01*
X98875312Y-18062895D02*
X98875312Y-18205752D01*
X98875312Y-18205752D02*
X98827693Y-18300990D01*
X98827693Y-18300990D02*
X98780074Y-18348609D01*
X98780074Y-18348609D02*
X98684836Y-18396228D01*
X98684836Y-18396228D02*
X98303884Y-18396228D01*
X99732455Y-18872419D02*
X99732455Y-18348609D01*
X99732455Y-18348609D02*
X99684836Y-18253371D01*
X99684836Y-18253371D02*
X99589598Y-18205752D01*
X99589598Y-18205752D02*
X99399122Y-18205752D01*
X99399122Y-18205752D02*
X99303884Y-18253371D01*
X99732455Y-18824800D02*
X99637217Y-18872419D01*
X99637217Y-18872419D02*
X99399122Y-18872419D01*
X99399122Y-18872419D02*
X99303884Y-18824800D01*
X99303884Y-18824800D02*
X99256265Y-18729561D01*
X99256265Y-18729561D02*
X99256265Y-18634323D01*
X99256265Y-18634323D02*
X99303884Y-18539085D01*
X99303884Y-18539085D02*
X99399122Y-18491466D01*
X99399122Y-18491466D02*
X99637217Y-18491466D01*
X99637217Y-18491466D02*
X99732455Y-18443847D01*
X100161027Y-18824800D02*
X100256265Y-18872419D01*
X100256265Y-18872419D02*
X100446741Y-18872419D01*
X100446741Y-18872419D02*
X100541979Y-18824800D01*
X100541979Y-18824800D02*
X100589598Y-18729561D01*
X100589598Y-18729561D02*
X100589598Y-18681942D01*
X100589598Y-18681942D02*
X100541979Y-18586704D01*
X100541979Y-18586704D02*
X100446741Y-18539085D01*
X100446741Y-18539085D02*
X100303884Y-18539085D01*
X100303884Y-18539085D02*
X100208646Y-18491466D01*
X100208646Y-18491466D02*
X100161027Y-18396228D01*
X100161027Y-18396228D02*
X100161027Y-18348609D01*
X100161027Y-18348609D02*
X100208646Y-18253371D01*
X100208646Y-18253371D02*
X100303884Y-18205752D01*
X100303884Y-18205752D02*
X100446741Y-18205752D01*
X100446741Y-18205752D02*
X100541979Y-18253371D01*
X101018170Y-18205752D02*
X101018170Y-19205752D01*
X101018170Y-18253371D02*
X101113408Y-18205752D01*
X101113408Y-18205752D02*
X101303884Y-18205752D01*
X101303884Y-18205752D02*
X101399122Y-18253371D01*
X101399122Y-18253371D02*
X101446741Y-18300990D01*
X101446741Y-18300990D02*
X101494360Y-18396228D01*
X101494360Y-18396228D02*
X101494360Y-18681942D01*
X101494360Y-18681942D02*
X101446741Y-18777180D01*
X101446741Y-18777180D02*
X101399122Y-18824800D01*
X101399122Y-18824800D02*
X101303884Y-18872419D01*
X101303884Y-18872419D02*
X101113408Y-18872419D01*
X101113408Y-18872419D02*
X101018170Y-18824800D01*
X101922932Y-18872419D02*
X101922932Y-17872419D01*
X101922932Y-18253371D02*
X102018170Y-18205752D01*
X102018170Y-18205752D02*
X102208646Y-18205752D01*
X102208646Y-18205752D02*
X102303884Y-18253371D01*
X102303884Y-18253371D02*
X102351503Y-18300990D01*
X102351503Y-18300990D02*
X102399122Y-18396228D01*
X102399122Y-18396228D02*
X102399122Y-18681942D01*
X102399122Y-18681942D02*
X102351503Y-18777180D01*
X102351503Y-18777180D02*
X102303884Y-18824800D01*
X102303884Y-18824800D02*
X102208646Y-18872419D01*
X102208646Y-18872419D02*
X102018170Y-18872419D01*
X102018170Y-18872419D02*
X101922932Y-18824800D01*
X103208646Y-18824800D02*
X103113408Y-18872419D01*
X103113408Y-18872419D02*
X102922932Y-18872419D01*
X102922932Y-18872419D02*
X102827694Y-18824800D01*
X102827694Y-18824800D02*
X102780075Y-18729561D01*
X102780075Y-18729561D02*
X102780075Y-18348609D01*
X102780075Y-18348609D02*
X102827694Y-18253371D01*
X102827694Y-18253371D02*
X102922932Y-18205752D01*
X102922932Y-18205752D02*
X103113408Y-18205752D01*
X103113408Y-18205752D02*
X103208646Y-18253371D01*
X103208646Y-18253371D02*
X103256265Y-18348609D01*
X103256265Y-18348609D02*
X103256265Y-18443847D01*
X103256265Y-18443847D02*
X102780075Y-18539085D01*
X103684837Y-18872419D02*
X103684837Y-18205752D01*
X103684837Y-18396228D02*
X103732456Y-18300990D01*
X103732456Y-18300990D02*
X103780075Y-18253371D01*
X103780075Y-18253371D02*
X103875313Y-18205752D01*
X103875313Y-18205752D02*
X103970551Y-18205752D01*
X104303885Y-18872419D02*
X104303885Y-18205752D01*
X104303885Y-18396228D02*
X104351504Y-18300990D01*
X104351504Y-18300990D02*
X104399123Y-18253371D01*
X104399123Y-18253371D02*
X104494361Y-18205752D01*
X104494361Y-18205752D02*
X104589599Y-18205752D01*
X104827695Y-18205752D02*
X105065790Y-18872419D01*
X105303885Y-18205752D02*
X105065790Y-18872419D01*
X105065790Y-18872419D02*
X104970552Y-19110514D01*
X104970552Y-19110514D02*
X104922933Y-19158133D01*
X104922933Y-19158133D02*
X104827695Y-19205752D01*
X106446743Y-18872419D02*
X106446743Y-17872419D01*
X106446743Y-17872419D02*
X106827695Y-17872419D01*
X106827695Y-17872419D02*
X106922933Y-17920038D01*
X106922933Y-17920038D02*
X106970552Y-17967657D01*
X106970552Y-17967657D02*
X107018171Y-18062895D01*
X107018171Y-18062895D02*
X107018171Y-18205752D01*
X107018171Y-18205752D02*
X106970552Y-18300990D01*
X106970552Y-18300990D02*
X106922933Y-18348609D01*
X106922933Y-18348609D02*
X106827695Y-18396228D01*
X106827695Y-18396228D02*
X106446743Y-18396228D01*
X107446743Y-18872419D02*
X107446743Y-17872419D01*
X108494361Y-18777180D02*
X108446742Y-18824800D01*
X108446742Y-18824800D02*
X108303885Y-18872419D01*
X108303885Y-18872419D02*
X108208647Y-18872419D01*
X108208647Y-18872419D02*
X108065790Y-18824800D01*
X108065790Y-18824800D02*
X107970552Y-18729561D01*
X107970552Y-18729561D02*
X107922933Y-18634323D01*
X107922933Y-18634323D02*
X107875314Y-18443847D01*
X107875314Y-18443847D02*
X107875314Y-18300990D01*
X107875314Y-18300990D02*
X107922933Y-18110514D01*
X107922933Y-18110514D02*
X107970552Y-18015276D01*
X107970552Y-18015276D02*
X108065790Y-17920038D01*
X108065790Y-17920038D02*
X108208647Y-17872419D01*
X108208647Y-17872419D02*
X108303885Y-17872419D01*
X108303885Y-17872419D02*
X108446742Y-17920038D01*
X108446742Y-17920038D02*
X108494361Y-17967657D01*
X109113409Y-17872419D02*
X109303885Y-17872419D01*
X109303885Y-17872419D02*
X109399123Y-17920038D01*
X109399123Y-17920038D02*
X109494361Y-18015276D01*
X109494361Y-18015276D02*
X109541980Y-18205752D01*
X109541980Y-18205752D02*
X109541980Y-18539085D01*
X109541980Y-18539085D02*
X109494361Y-18729561D01*
X109494361Y-18729561D02*
X109399123Y-18824800D01*
X109399123Y-18824800D02*
X109303885Y-18872419D01*
X109303885Y-18872419D02*
X109113409Y-18872419D01*
X109113409Y-18872419D02*
X109018171Y-18824800D01*
X109018171Y-18824800D02*
X108922933Y-18729561D01*
X108922933Y-18729561D02*
X108875314Y-18539085D01*
X108875314Y-18539085D02*
X108875314Y-18205752D01*
X108875314Y-18205752D02*
X108922933Y-18015276D01*
X108922933Y-18015276D02*
X109018171Y-17920038D01*
X109018171Y-17920038D02*
X109113409Y-17872419D01*
X7420038Y-34672306D02*
X7372419Y-34767544D01*
X7372419Y-34767544D02*
X7372419Y-34910401D01*
X7372419Y-34910401D02*
X7420038Y-35053258D01*
X7420038Y-35053258D02*
X7515276Y-35148496D01*
X7515276Y-35148496D02*
X7610514Y-35196115D01*
X7610514Y-35196115D02*
X7800990Y-35243734D01*
X7800990Y-35243734D02*
X7943847Y-35243734D01*
X7943847Y-35243734D02*
X8134323Y-35196115D01*
X8134323Y-35196115D02*
X8229561Y-35148496D01*
X8229561Y-35148496D02*
X8324800Y-35053258D01*
X8324800Y-35053258D02*
X8372419Y-34910401D01*
X8372419Y-34910401D02*
X8372419Y-34815163D01*
X8372419Y-34815163D02*
X8324800Y-34672306D01*
X8324800Y-34672306D02*
X8277180Y-34624687D01*
X8277180Y-34624687D02*
X7943847Y-34624687D01*
X7943847Y-34624687D02*
X7943847Y-34815163D01*
X8372419Y-34196115D02*
X7372419Y-34196115D01*
X7372419Y-34196115D02*
X8372419Y-33624687D01*
X8372419Y-33624687D02*
X7372419Y-33624687D01*
X8372419Y-33148496D02*
X7372419Y-33148496D01*
X7372419Y-33148496D02*
X7372419Y-32910401D01*
X7372419Y-32910401D02*
X7420038Y-32767544D01*
X7420038Y-32767544D02*
X7515276Y-32672306D01*
X7515276Y-32672306D02*
X7610514Y-32624687D01*
X7610514Y-32624687D02*
X7800990Y-32577068D01*
X7800990Y-32577068D02*
X7943847Y-32577068D01*
X7943847Y-32577068D02*
X8134323Y-32624687D01*
X8134323Y-32624687D02*
X8229561Y-32672306D01*
X8229561Y-32672306D02*
X8324800Y-32767544D01*
X8324800Y-32767544D02*
X8372419Y-32910401D01*
X8372419Y-32910401D02*
X8372419Y-33148496D01*
X76872419Y-25624687D02*
X76396228Y-25958020D01*
X76872419Y-26196115D02*
X75872419Y-26196115D01*
X75872419Y-26196115D02*
X75872419Y-25815163D01*
X75872419Y-25815163D02*
X75920038Y-25719925D01*
X75920038Y-25719925D02*
X75967657Y-25672306D01*
X75967657Y-25672306D02*
X76062895Y-25624687D01*
X76062895Y-25624687D02*
X76205752Y-25624687D01*
X76205752Y-25624687D02*
X76300990Y-25672306D01*
X76300990Y-25672306D02*
X76348609Y-25719925D01*
X76348609Y-25719925D02*
X76396228Y-25815163D01*
X76396228Y-25815163D02*
X76396228Y-26196115D01*
X75872419Y-25291353D02*
X76872419Y-24624687D01*
X75872419Y-24624687D02*
X76872419Y-25291353D01*
X7420038Y-39672306D02*
X7372419Y-39767544D01*
X7372419Y-39767544D02*
X7372419Y-39910401D01*
X7372419Y-39910401D02*
X7420038Y-40053258D01*
X7420038Y-40053258D02*
X7515276Y-40148496D01*
X7515276Y-40148496D02*
X7610514Y-40196115D01*
X7610514Y-40196115D02*
X7800990Y-40243734D01*
X7800990Y-40243734D02*
X7943847Y-40243734D01*
X7943847Y-40243734D02*
X8134323Y-40196115D01*
X8134323Y-40196115D02*
X8229561Y-40148496D01*
X8229561Y-40148496D02*
X8324800Y-40053258D01*
X8324800Y-40053258D02*
X8372419Y-39910401D01*
X8372419Y-39910401D02*
X8372419Y-39815163D01*
X8372419Y-39815163D02*
X8324800Y-39672306D01*
X8324800Y-39672306D02*
X8277180Y-39624687D01*
X8277180Y-39624687D02*
X7943847Y-39624687D01*
X7943847Y-39624687D02*
X7943847Y-39815163D01*
X8372419Y-39196115D02*
X7372419Y-39196115D01*
X7372419Y-39196115D02*
X8372419Y-38624687D01*
X8372419Y-38624687D02*
X7372419Y-38624687D01*
X8372419Y-38148496D02*
X7372419Y-38148496D01*
X7372419Y-38148496D02*
X7372419Y-37910401D01*
X7372419Y-37910401D02*
X7420038Y-37767544D01*
X7420038Y-37767544D02*
X7515276Y-37672306D01*
X7515276Y-37672306D02*
X7610514Y-37624687D01*
X7610514Y-37624687D02*
X7800990Y-37577068D01*
X7800990Y-37577068D02*
X7943847Y-37577068D01*
X7943847Y-37577068D02*
X8134323Y-37624687D01*
X8134323Y-37624687D02*
X8229561Y-37672306D01*
X8229561Y-37672306D02*
X8324800Y-37767544D01*
X8324800Y-37767544D02*
X8372419Y-37910401D01*
X8372419Y-37910401D02*
X8372419Y-38148496D01*
X24394360Y-8372419D02*
X24584836Y-8372419D01*
X24584836Y-8372419D02*
X24680074Y-8420038D01*
X24680074Y-8420038D02*
X24775312Y-8515276D01*
X24775312Y-8515276D02*
X24822931Y-8705752D01*
X24822931Y-8705752D02*
X24822931Y-9039085D01*
X24822931Y-9039085D02*
X24775312Y-9229561D01*
X24775312Y-9229561D02*
X24680074Y-9324800D01*
X24680074Y-9324800D02*
X24584836Y-9372419D01*
X24584836Y-9372419D02*
X24394360Y-9372419D01*
X24394360Y-9372419D02*
X24299122Y-9324800D01*
X24299122Y-9324800D02*
X24203884Y-9229561D01*
X24203884Y-9229561D02*
X24156265Y-9039085D01*
X24156265Y-9039085D02*
X24156265Y-8705752D01*
X24156265Y-8705752D02*
X24203884Y-8515276D01*
X24203884Y-8515276D02*
X24299122Y-8420038D01*
X24299122Y-8420038D02*
X24394360Y-8372419D01*
X25251503Y-9372419D02*
X25251503Y-8372419D01*
X25251503Y-8372419D02*
X25822931Y-9372419D01*
X25822931Y-9372419D02*
X25822931Y-8372419D01*
X75920038Y-39672306D02*
X75872419Y-39767544D01*
X75872419Y-39767544D02*
X75872419Y-39910401D01*
X75872419Y-39910401D02*
X75920038Y-40053258D01*
X75920038Y-40053258D02*
X76015276Y-40148496D01*
X76015276Y-40148496D02*
X76110514Y-40196115D01*
X76110514Y-40196115D02*
X76300990Y-40243734D01*
X76300990Y-40243734D02*
X76443847Y-40243734D01*
X76443847Y-40243734D02*
X76634323Y-40196115D01*
X76634323Y-40196115D02*
X76729561Y-40148496D01*
X76729561Y-40148496D02*
X76824800Y-40053258D01*
X76824800Y-40053258D02*
X76872419Y-39910401D01*
X76872419Y-39910401D02*
X76872419Y-39815163D01*
X76872419Y-39815163D02*
X76824800Y-39672306D01*
X76824800Y-39672306D02*
X76777180Y-39624687D01*
X76777180Y-39624687D02*
X76443847Y-39624687D01*
X76443847Y-39624687D02*
X76443847Y-39815163D01*
X76872419Y-39196115D02*
X75872419Y-39196115D01*
X75872419Y-39196115D02*
X76872419Y-38624687D01*
X76872419Y-38624687D02*
X75872419Y-38624687D01*
X76872419Y-38148496D02*
X75872419Y-38148496D01*
X75872419Y-38148496D02*
X75872419Y-37910401D01*
X75872419Y-37910401D02*
X75920038Y-37767544D01*
X75920038Y-37767544D02*
X76015276Y-37672306D01*
X76015276Y-37672306D02*
X76110514Y-37624687D01*
X76110514Y-37624687D02*
X76300990Y-37577068D01*
X76300990Y-37577068D02*
X76443847Y-37577068D01*
X76443847Y-37577068D02*
X76634323Y-37624687D01*
X76634323Y-37624687D02*
X76729561Y-37672306D01*
X76729561Y-37672306D02*
X76824800Y-37767544D01*
X76824800Y-37767544D02*
X76872419Y-37910401D01*
X76872419Y-37910401D02*
X76872419Y-38148496D01*
X128372419Y-30146115D02*
X127372419Y-30146115D01*
X127372419Y-30146115D02*
X128086704Y-29812782D01*
X128086704Y-29812782D02*
X127372419Y-29479449D01*
X127372419Y-29479449D02*
X128372419Y-29479449D01*
X128324800Y-28622306D02*
X128372419Y-28717544D01*
X128372419Y-28717544D02*
X128372419Y-28908020D01*
X128372419Y-28908020D02*
X128324800Y-29003258D01*
X128324800Y-29003258D02*
X128229561Y-29050877D01*
X128229561Y-29050877D02*
X127848609Y-29050877D01*
X127848609Y-29050877D02*
X127753371Y-29003258D01*
X127753371Y-29003258D02*
X127705752Y-28908020D01*
X127705752Y-28908020D02*
X127705752Y-28717544D01*
X127705752Y-28717544D02*
X127753371Y-28622306D01*
X127753371Y-28622306D02*
X127848609Y-28574687D01*
X127848609Y-28574687D02*
X127943847Y-28574687D01*
X127943847Y-28574687D02*
X128039085Y-29050877D01*
X128372419Y-28146115D02*
X127705752Y-28146115D01*
X127800990Y-28146115D02*
X127753371Y-28098496D01*
X127753371Y-28098496D02*
X127705752Y-28003258D01*
X127705752Y-28003258D02*
X127705752Y-27860401D01*
X127705752Y-27860401D02*
X127753371Y-27765163D01*
X127753371Y-27765163D02*
X127848609Y-27717544D01*
X127848609Y-27717544D02*
X128372419Y-27717544D01*
X127848609Y-27717544D02*
X127753371Y-27669925D01*
X127753371Y-27669925D02*
X127705752Y-27574687D01*
X127705752Y-27574687D02*
X127705752Y-27431830D01*
X127705752Y-27431830D02*
X127753371Y-27336591D01*
X127753371Y-27336591D02*
X127848609Y-27288972D01*
X127848609Y-27288972D02*
X128372419Y-27288972D01*
X128372419Y-26669925D02*
X128324800Y-26765163D01*
X128324800Y-26765163D02*
X128277180Y-26812782D01*
X128277180Y-26812782D02*
X128181942Y-26860401D01*
X128181942Y-26860401D02*
X127896228Y-26860401D01*
X127896228Y-26860401D02*
X127800990Y-26812782D01*
X127800990Y-26812782D02*
X127753371Y-26765163D01*
X127753371Y-26765163D02*
X127705752Y-26669925D01*
X127705752Y-26669925D02*
X127705752Y-26527068D01*
X127705752Y-26527068D02*
X127753371Y-26431830D01*
X127753371Y-26431830D02*
X127800990Y-26384211D01*
X127800990Y-26384211D02*
X127896228Y-26336592D01*
X127896228Y-26336592D02*
X128181942Y-26336592D01*
X128181942Y-26336592D02*
X128277180Y-26384211D01*
X128277180Y-26384211D02*
X128324800Y-26431830D01*
X128324800Y-26431830D02*
X128372419Y-26527068D01*
X128372419Y-26527068D02*
X128372419Y-26669925D01*
X128372419Y-25908020D02*
X127705752Y-25908020D01*
X127896228Y-25908020D02*
X127800990Y-25860401D01*
X127800990Y-25860401D02*
X127753371Y-25812782D01*
X127753371Y-25812782D02*
X127705752Y-25717544D01*
X127705752Y-25717544D02*
X127705752Y-25622306D01*
X127705752Y-25384210D02*
X128372419Y-25146115D01*
X127705752Y-24908020D02*
X128372419Y-25146115D01*
X128372419Y-25146115D02*
X128610514Y-25241353D01*
X128610514Y-25241353D02*
X128658133Y-25288972D01*
X128658133Y-25288972D02*
X128705752Y-25384210D01*
X127372419Y-23574686D02*
X127372419Y-23384210D01*
X127372419Y-23384210D02*
X127420038Y-23288972D01*
X127420038Y-23288972D02*
X127515276Y-23193734D01*
X127515276Y-23193734D02*
X127705752Y-23146115D01*
X127705752Y-23146115D02*
X128039085Y-23146115D01*
X128039085Y-23146115D02*
X128229561Y-23193734D01*
X128229561Y-23193734D02*
X128324800Y-23288972D01*
X128324800Y-23288972D02*
X128372419Y-23384210D01*
X128372419Y-23384210D02*
X128372419Y-23574686D01*
X128372419Y-23574686D02*
X128324800Y-23669924D01*
X128324800Y-23669924D02*
X128229561Y-23765162D01*
X128229561Y-23765162D02*
X128039085Y-23812781D01*
X128039085Y-23812781D02*
X127705752Y-23812781D01*
X127705752Y-23812781D02*
X127515276Y-23765162D01*
X127515276Y-23765162D02*
X127420038Y-23669924D01*
X127420038Y-23669924D02*
X127372419Y-23574686D01*
X127705752Y-22717543D02*
X128705752Y-22717543D01*
X127753371Y-22717543D02*
X127705752Y-22622305D01*
X127705752Y-22622305D02*
X127705752Y-22431829D01*
X127705752Y-22431829D02*
X127753371Y-22336591D01*
X127753371Y-22336591D02*
X127800990Y-22288972D01*
X127800990Y-22288972D02*
X127896228Y-22241353D01*
X127896228Y-22241353D02*
X128181942Y-22241353D01*
X128181942Y-22241353D02*
X128277180Y-22288972D01*
X128277180Y-22288972D02*
X128324800Y-22336591D01*
X128324800Y-22336591D02*
X128372419Y-22431829D01*
X128372419Y-22431829D02*
X128372419Y-22622305D01*
X128372419Y-22622305D02*
X128324800Y-22717543D01*
X127705752Y-21955638D02*
X127705752Y-21574686D01*
X127372419Y-21812781D02*
X128229561Y-21812781D01*
X128229561Y-21812781D02*
X128324800Y-21765162D01*
X128324800Y-21765162D02*
X128372419Y-21669924D01*
X128372419Y-21669924D02*
X128372419Y-21574686D01*
X128372419Y-21241352D02*
X127705752Y-21241352D01*
X127372419Y-21241352D02*
X127420038Y-21288971D01*
X127420038Y-21288971D02*
X127467657Y-21241352D01*
X127467657Y-21241352D02*
X127420038Y-21193733D01*
X127420038Y-21193733D02*
X127372419Y-21241352D01*
X127372419Y-21241352D02*
X127467657Y-21241352D01*
X128372419Y-20622305D02*
X128324800Y-20717543D01*
X128324800Y-20717543D02*
X128277180Y-20765162D01*
X128277180Y-20765162D02*
X128181942Y-20812781D01*
X128181942Y-20812781D02*
X127896228Y-20812781D01*
X127896228Y-20812781D02*
X127800990Y-20765162D01*
X127800990Y-20765162D02*
X127753371Y-20717543D01*
X127753371Y-20717543D02*
X127705752Y-20622305D01*
X127705752Y-20622305D02*
X127705752Y-20479448D01*
X127705752Y-20479448D02*
X127753371Y-20384210D01*
X127753371Y-20384210D02*
X127800990Y-20336591D01*
X127800990Y-20336591D02*
X127896228Y-20288972D01*
X127896228Y-20288972D02*
X128181942Y-20288972D01*
X128181942Y-20288972D02*
X128277180Y-20336591D01*
X128277180Y-20336591D02*
X128324800Y-20384210D01*
X128324800Y-20384210D02*
X128372419Y-20479448D01*
X128372419Y-20479448D02*
X128372419Y-20622305D01*
X127705752Y-19860400D02*
X128372419Y-19860400D01*
X127800990Y-19860400D02*
X127753371Y-19812781D01*
X127753371Y-19812781D02*
X127705752Y-19717543D01*
X127705752Y-19717543D02*
X127705752Y-19574686D01*
X127705752Y-19574686D02*
X127753371Y-19479448D01*
X127753371Y-19479448D02*
X127848609Y-19431829D01*
X127848609Y-19431829D02*
X128372419Y-19431829D01*
X68777180Y-35624687D02*
X68824800Y-35672306D01*
X68824800Y-35672306D02*
X68872419Y-35815163D01*
X68872419Y-35815163D02*
X68872419Y-35910401D01*
X68872419Y-35910401D02*
X68824800Y-36053258D01*
X68824800Y-36053258D02*
X68729561Y-36148496D01*
X68729561Y-36148496D02*
X68634323Y-36196115D01*
X68634323Y-36196115D02*
X68443847Y-36243734D01*
X68443847Y-36243734D02*
X68300990Y-36243734D01*
X68300990Y-36243734D02*
X68110514Y-36196115D01*
X68110514Y-36196115D02*
X68015276Y-36148496D01*
X68015276Y-36148496D02*
X67920038Y-36053258D01*
X67920038Y-36053258D02*
X67872419Y-35910401D01*
X67872419Y-35910401D02*
X67872419Y-35815163D01*
X67872419Y-35815163D02*
X67920038Y-35672306D01*
X67920038Y-35672306D02*
X67967657Y-35624687D01*
X68872419Y-34767544D02*
X68348609Y-34767544D01*
X68348609Y-34767544D02*
X68253371Y-34815163D01*
X68253371Y-34815163D02*
X68205752Y-34910401D01*
X68205752Y-34910401D02*
X68205752Y-35100877D01*
X68205752Y-35100877D02*
X68253371Y-35196115D01*
X68824800Y-34767544D02*
X68872419Y-34862782D01*
X68872419Y-34862782D02*
X68872419Y-35100877D01*
X68872419Y-35100877D02*
X68824800Y-35196115D01*
X68824800Y-35196115D02*
X68729561Y-35243734D01*
X68729561Y-35243734D02*
X68634323Y-35243734D01*
X68634323Y-35243734D02*
X68539085Y-35196115D01*
X68539085Y-35196115D02*
X68491466Y-35100877D01*
X68491466Y-35100877D02*
X68491466Y-34862782D01*
X68491466Y-34862782D02*
X68443847Y-34767544D01*
X68872419Y-34291353D02*
X68205752Y-34291353D01*
X68396228Y-34291353D02*
X68300990Y-34243734D01*
X68300990Y-34243734D02*
X68253371Y-34196115D01*
X68253371Y-34196115D02*
X68205752Y-34100877D01*
X68205752Y-34100877D02*
X68205752Y-34005639D01*
X68872419Y-33672305D02*
X68205752Y-33672305D01*
X68396228Y-33672305D02*
X68300990Y-33624686D01*
X68300990Y-33624686D02*
X68253371Y-33577067D01*
X68253371Y-33577067D02*
X68205752Y-33481829D01*
X68205752Y-33481829D02*
X68205752Y-33386591D01*
X68872419Y-33053257D02*
X68205752Y-33053257D01*
X67872419Y-33053257D02*
X67920038Y-33100876D01*
X67920038Y-33100876D02*
X67967657Y-33053257D01*
X67967657Y-33053257D02*
X67920038Y-33005638D01*
X67920038Y-33005638D02*
X67872419Y-33053257D01*
X67872419Y-33053257D02*
X67967657Y-33053257D01*
X68824800Y-32196115D02*
X68872419Y-32291353D01*
X68872419Y-32291353D02*
X68872419Y-32481829D01*
X68872419Y-32481829D02*
X68824800Y-32577067D01*
X68824800Y-32577067D02*
X68729561Y-32624686D01*
X68729561Y-32624686D02*
X68348609Y-32624686D01*
X68348609Y-32624686D02*
X68253371Y-32577067D01*
X68253371Y-32577067D02*
X68205752Y-32481829D01*
X68205752Y-32481829D02*
X68205752Y-32291353D01*
X68205752Y-32291353D02*
X68253371Y-32196115D01*
X68253371Y-32196115D02*
X68348609Y-32148496D01*
X68348609Y-32148496D02*
X68443847Y-32148496D01*
X68443847Y-32148496D02*
X68539085Y-32624686D01*
X68872419Y-31719924D02*
X68205752Y-31719924D01*
X68396228Y-31719924D02*
X68300990Y-31672305D01*
X68300990Y-31672305D02*
X68253371Y-31624686D01*
X68253371Y-31624686D02*
X68205752Y-31529448D01*
X68205752Y-31529448D02*
X68205752Y-31434210D01*
X68205752Y-30481828D02*
X68205752Y-30100876D01*
X68872419Y-30338971D02*
X68015276Y-30338971D01*
X68015276Y-30338971D02*
X67920038Y-30291352D01*
X67920038Y-30291352D02*
X67872419Y-30196114D01*
X67872419Y-30196114D02*
X67872419Y-30100876D01*
X68872419Y-29624685D02*
X68824800Y-29719923D01*
X68824800Y-29719923D02*
X68777180Y-29767542D01*
X68777180Y-29767542D02*
X68681942Y-29815161D01*
X68681942Y-29815161D02*
X68396228Y-29815161D01*
X68396228Y-29815161D02*
X68300990Y-29767542D01*
X68300990Y-29767542D02*
X68253371Y-29719923D01*
X68253371Y-29719923D02*
X68205752Y-29624685D01*
X68205752Y-29624685D02*
X68205752Y-29481828D01*
X68205752Y-29481828D02*
X68253371Y-29386590D01*
X68253371Y-29386590D02*
X68300990Y-29338971D01*
X68300990Y-29338971D02*
X68396228Y-29291352D01*
X68396228Y-29291352D02*
X68681942Y-29291352D01*
X68681942Y-29291352D02*
X68777180Y-29338971D01*
X68777180Y-29338971D02*
X68824800Y-29386590D01*
X68824800Y-29386590D02*
X68872419Y-29481828D01*
X68872419Y-29481828D02*
X68872419Y-29624685D01*
X68872419Y-28862780D02*
X68205752Y-28862780D01*
X68396228Y-28862780D02*
X68300990Y-28815161D01*
X68300990Y-28815161D02*
X68253371Y-28767542D01*
X68253371Y-28767542D02*
X68205752Y-28672304D01*
X68205752Y-28672304D02*
X68205752Y-28577066D01*
X68872419Y-27005637D02*
X68872419Y-27481827D01*
X68872419Y-27481827D02*
X67872419Y-27481827D01*
X68872419Y-26672303D02*
X68205752Y-26672303D01*
X67872419Y-26672303D02*
X67920038Y-26719922D01*
X67920038Y-26719922D02*
X67967657Y-26672303D01*
X67967657Y-26672303D02*
X67920038Y-26624684D01*
X67920038Y-26624684D02*
X67872419Y-26672303D01*
X67872419Y-26672303D02*
X67967657Y-26672303D01*
X68205752Y-25767542D02*
X69015276Y-25767542D01*
X69015276Y-25767542D02*
X69110514Y-25815161D01*
X69110514Y-25815161D02*
X69158133Y-25862780D01*
X69158133Y-25862780D02*
X69205752Y-25958018D01*
X69205752Y-25958018D02*
X69205752Y-26100875D01*
X69205752Y-26100875D02*
X69158133Y-26196113D01*
X68824800Y-25767542D02*
X68872419Y-25862780D01*
X68872419Y-25862780D02*
X68872419Y-26053256D01*
X68872419Y-26053256D02*
X68824800Y-26148494D01*
X68824800Y-26148494D02*
X68777180Y-26196113D01*
X68777180Y-26196113D02*
X68681942Y-26243732D01*
X68681942Y-26243732D02*
X68396228Y-26243732D01*
X68396228Y-26243732D02*
X68300990Y-26196113D01*
X68300990Y-26196113D02*
X68253371Y-26148494D01*
X68253371Y-26148494D02*
X68205752Y-26053256D01*
X68205752Y-26053256D02*
X68205752Y-25862780D01*
X68205752Y-25862780D02*
X68253371Y-25767542D01*
X68872419Y-25291351D02*
X67872419Y-25291351D01*
X68872419Y-24862780D02*
X68348609Y-24862780D01*
X68348609Y-24862780D02*
X68253371Y-24910399D01*
X68253371Y-24910399D02*
X68205752Y-25005637D01*
X68205752Y-25005637D02*
X68205752Y-25148494D01*
X68205752Y-25148494D02*
X68253371Y-25243732D01*
X68253371Y-25243732D02*
X68300990Y-25291351D01*
X68205752Y-24529446D02*
X68205752Y-24148494D01*
X67872419Y-24386589D02*
X68729561Y-24386589D01*
X68729561Y-24386589D02*
X68824800Y-24338970D01*
X68824800Y-24338970D02*
X68872419Y-24243732D01*
X68872419Y-24243732D02*
X68872419Y-24148494D01*
X67872419Y-23958017D02*
X67872419Y-23386589D01*
X68872419Y-23672303D02*
X67872419Y-23672303D01*
X68872419Y-23053255D02*
X67872419Y-23053255D01*
X68872419Y-22624684D02*
X68348609Y-22624684D01*
X68348609Y-22624684D02*
X68253371Y-22672303D01*
X68253371Y-22672303D02*
X68205752Y-22767541D01*
X68205752Y-22767541D02*
X68205752Y-22910398D01*
X68205752Y-22910398D02*
X68253371Y-23005636D01*
X68253371Y-23005636D02*
X68300990Y-23053255D01*
X68824800Y-21767541D02*
X68872419Y-21862779D01*
X68872419Y-21862779D02*
X68872419Y-22053255D01*
X68872419Y-22053255D02*
X68824800Y-22148493D01*
X68824800Y-22148493D02*
X68729561Y-22196112D01*
X68729561Y-22196112D02*
X68348609Y-22196112D01*
X68348609Y-22196112D02*
X68253371Y-22148493D01*
X68253371Y-22148493D02*
X68205752Y-22053255D01*
X68205752Y-22053255D02*
X68205752Y-21862779D01*
X68205752Y-21862779D02*
X68253371Y-21767541D01*
X68253371Y-21767541D02*
X68348609Y-21719922D01*
X68348609Y-21719922D02*
X68443847Y-21719922D01*
X68443847Y-21719922D02*
X68539085Y-22196112D01*
X68872419Y-21291350D02*
X68205752Y-21291350D01*
X68396228Y-21291350D02*
X68300990Y-21243731D01*
X68300990Y-21243731D02*
X68253371Y-21196112D01*
X68253371Y-21196112D02*
X68205752Y-21100874D01*
X68205752Y-21100874D02*
X68205752Y-21005636D01*
X68872419Y-20672302D02*
X68205752Y-20672302D01*
X68300990Y-20672302D02*
X68253371Y-20624683D01*
X68253371Y-20624683D02*
X68205752Y-20529445D01*
X68205752Y-20529445D02*
X68205752Y-20386588D01*
X68205752Y-20386588D02*
X68253371Y-20291350D01*
X68253371Y-20291350D02*
X68348609Y-20243731D01*
X68348609Y-20243731D02*
X68872419Y-20243731D01*
X68348609Y-20243731D02*
X68253371Y-20196112D01*
X68253371Y-20196112D02*
X68205752Y-20100874D01*
X68205752Y-20100874D02*
X68205752Y-19958017D01*
X68205752Y-19958017D02*
X68253371Y-19862778D01*
X68253371Y-19862778D02*
X68348609Y-19815159D01*
X68348609Y-19815159D02*
X68872419Y-19815159D01*
X68872419Y-19196112D02*
X68824800Y-19291350D01*
X68824800Y-19291350D02*
X68777180Y-19338969D01*
X68777180Y-19338969D02*
X68681942Y-19386588D01*
X68681942Y-19386588D02*
X68396228Y-19386588D01*
X68396228Y-19386588D02*
X68300990Y-19338969D01*
X68300990Y-19338969D02*
X68253371Y-19291350D01*
X68253371Y-19291350D02*
X68205752Y-19196112D01*
X68205752Y-19196112D02*
X68205752Y-19053255D01*
X68205752Y-19053255D02*
X68253371Y-18958017D01*
X68253371Y-18958017D02*
X68300990Y-18910398D01*
X68300990Y-18910398D02*
X68396228Y-18862779D01*
X68396228Y-18862779D02*
X68681942Y-18862779D01*
X68681942Y-18862779D02*
X68777180Y-18910398D01*
X68777180Y-18910398D02*
X68824800Y-18958017D01*
X68824800Y-18958017D02*
X68872419Y-19053255D01*
X68872419Y-19053255D02*
X68872419Y-19196112D01*
X92894360Y-8372419D02*
X93084836Y-8372419D01*
X93084836Y-8372419D02*
X93180074Y-8420038D01*
X93180074Y-8420038D02*
X93275312Y-8515276D01*
X93275312Y-8515276D02*
X93322931Y-8705752D01*
X93322931Y-8705752D02*
X93322931Y-9039085D01*
X93322931Y-9039085D02*
X93275312Y-9229561D01*
X93275312Y-9229561D02*
X93180074Y-9324800D01*
X93180074Y-9324800D02*
X93084836Y-9372419D01*
X93084836Y-9372419D02*
X92894360Y-9372419D01*
X92894360Y-9372419D02*
X92799122Y-9324800D01*
X92799122Y-9324800D02*
X92703884Y-9229561D01*
X92703884Y-9229561D02*
X92656265Y-9039085D01*
X92656265Y-9039085D02*
X92656265Y-8705752D01*
X92656265Y-8705752D02*
X92703884Y-8515276D01*
X92703884Y-8515276D02*
X92799122Y-8420038D01*
X92799122Y-8420038D02*
X92894360Y-8372419D01*
X93751503Y-9372419D02*
X93751503Y-8372419D01*
X93751503Y-8372419D02*
X94322931Y-9372419D01*
X94322931Y-9372419D02*
X94322931Y-8372419D01*
X9872419Y-66838972D02*
X9872419Y-66267544D01*
X10872419Y-66553258D02*
X9872419Y-66553258D01*
X9824800Y-65219925D02*
X11110514Y-66077067D01*
X10872419Y-64886591D02*
X9872419Y-64886591D01*
X10348609Y-64886591D02*
X10348609Y-64315163D01*
X10872419Y-64315163D02*
X9872419Y-64315163D01*
X10824800Y-63124686D02*
X10872419Y-62981829D01*
X10872419Y-62981829D02*
X10872419Y-62743734D01*
X10872419Y-62743734D02*
X10824800Y-62648496D01*
X10824800Y-62648496D02*
X10777180Y-62600877D01*
X10777180Y-62600877D02*
X10681942Y-62553258D01*
X10681942Y-62553258D02*
X10586704Y-62553258D01*
X10586704Y-62553258D02*
X10491466Y-62600877D01*
X10491466Y-62600877D02*
X10443847Y-62648496D01*
X10443847Y-62648496D02*
X10396228Y-62743734D01*
X10396228Y-62743734D02*
X10348609Y-62934210D01*
X10348609Y-62934210D02*
X10300990Y-63029448D01*
X10300990Y-63029448D02*
X10253371Y-63077067D01*
X10253371Y-63077067D02*
X10158133Y-63124686D01*
X10158133Y-63124686D02*
X10062895Y-63124686D01*
X10062895Y-63124686D02*
X9967657Y-63077067D01*
X9967657Y-63077067D02*
X9920038Y-63029448D01*
X9920038Y-63029448D02*
X9872419Y-62934210D01*
X9872419Y-62934210D02*
X9872419Y-62696115D01*
X9872419Y-62696115D02*
X9920038Y-62553258D01*
X10824800Y-61743734D02*
X10872419Y-61838972D01*
X10872419Y-61838972D02*
X10872419Y-62029448D01*
X10872419Y-62029448D02*
X10824800Y-62124686D01*
X10824800Y-62124686D02*
X10729561Y-62172305D01*
X10729561Y-62172305D02*
X10348609Y-62172305D01*
X10348609Y-62172305D02*
X10253371Y-62124686D01*
X10253371Y-62124686D02*
X10205752Y-62029448D01*
X10205752Y-62029448D02*
X10205752Y-61838972D01*
X10205752Y-61838972D02*
X10253371Y-61743734D01*
X10253371Y-61743734D02*
X10348609Y-61696115D01*
X10348609Y-61696115D02*
X10443847Y-61696115D01*
X10443847Y-61696115D02*
X10539085Y-62172305D01*
X10205752Y-61267543D02*
X10872419Y-61267543D01*
X10300990Y-61267543D02*
X10253371Y-61219924D01*
X10253371Y-61219924D02*
X10205752Y-61124686D01*
X10205752Y-61124686D02*
X10205752Y-60981829D01*
X10205752Y-60981829D02*
X10253371Y-60886591D01*
X10253371Y-60886591D02*
X10348609Y-60838972D01*
X10348609Y-60838972D02*
X10872419Y-60838972D01*
X10824800Y-60410400D02*
X10872419Y-60315162D01*
X10872419Y-60315162D02*
X10872419Y-60124686D01*
X10872419Y-60124686D02*
X10824800Y-60029448D01*
X10824800Y-60029448D02*
X10729561Y-59981829D01*
X10729561Y-59981829D02*
X10681942Y-59981829D01*
X10681942Y-59981829D02*
X10586704Y-60029448D01*
X10586704Y-60029448D02*
X10539085Y-60124686D01*
X10539085Y-60124686D02*
X10539085Y-60267543D01*
X10539085Y-60267543D02*
X10491466Y-60362781D01*
X10491466Y-60362781D02*
X10396228Y-60410400D01*
X10396228Y-60410400D02*
X10348609Y-60410400D01*
X10348609Y-60410400D02*
X10253371Y-60362781D01*
X10253371Y-60362781D02*
X10205752Y-60267543D01*
X10205752Y-60267543D02*
X10205752Y-60124686D01*
X10205752Y-60124686D02*
X10253371Y-60029448D01*
X10872419Y-59410400D02*
X10824800Y-59505638D01*
X10824800Y-59505638D02*
X10777180Y-59553257D01*
X10777180Y-59553257D02*
X10681942Y-59600876D01*
X10681942Y-59600876D02*
X10396228Y-59600876D01*
X10396228Y-59600876D02*
X10300990Y-59553257D01*
X10300990Y-59553257D02*
X10253371Y-59505638D01*
X10253371Y-59505638D02*
X10205752Y-59410400D01*
X10205752Y-59410400D02*
X10205752Y-59267543D01*
X10205752Y-59267543D02*
X10253371Y-59172305D01*
X10253371Y-59172305D02*
X10300990Y-59124686D01*
X10300990Y-59124686D02*
X10396228Y-59077067D01*
X10396228Y-59077067D02*
X10681942Y-59077067D01*
X10681942Y-59077067D02*
X10777180Y-59124686D01*
X10777180Y-59124686D02*
X10824800Y-59172305D01*
X10824800Y-59172305D02*
X10872419Y-59267543D01*
X10872419Y-59267543D02*
X10872419Y-59410400D01*
X10872419Y-58648495D02*
X10205752Y-58648495D01*
X10396228Y-58648495D02*
X10300990Y-58600876D01*
X10300990Y-58600876D02*
X10253371Y-58553257D01*
X10253371Y-58553257D02*
X10205752Y-58458019D01*
X10205752Y-58458019D02*
X10205752Y-58362781D01*
X137086704Y-42243734D02*
X137086704Y-41767544D01*
X137372419Y-42338972D02*
X136372419Y-42005639D01*
X136372419Y-42005639D02*
X137372419Y-41672306D01*
X137372419Y-41338972D02*
X136372419Y-41338972D01*
X136372419Y-41338972D02*
X137086704Y-41005639D01*
X137086704Y-41005639D02*
X136372419Y-40672306D01*
X136372419Y-40672306D02*
X137372419Y-40672306D01*
X136372419Y-40005639D02*
X136372419Y-39910401D01*
X136372419Y-39910401D02*
X136420038Y-39815163D01*
X136420038Y-39815163D02*
X136467657Y-39767544D01*
X136467657Y-39767544D02*
X136562895Y-39719925D01*
X136562895Y-39719925D02*
X136753371Y-39672306D01*
X136753371Y-39672306D02*
X136991466Y-39672306D01*
X136991466Y-39672306D02*
X137181942Y-39719925D01*
X137181942Y-39719925D02*
X137277180Y-39767544D01*
X137277180Y-39767544D02*
X137324800Y-39815163D01*
X137324800Y-39815163D02*
X137372419Y-39910401D01*
X137372419Y-39910401D02*
X137372419Y-40005639D01*
X137372419Y-40005639D02*
X137324800Y-40100877D01*
X137324800Y-40100877D02*
X137277180Y-40148496D01*
X137277180Y-40148496D02*
X137181942Y-40196115D01*
X137181942Y-40196115D02*
X136991466Y-40243734D01*
X136991466Y-40243734D02*
X136753371Y-40243734D01*
X136753371Y-40243734D02*
X136562895Y-40196115D01*
X136562895Y-40196115D02*
X136467657Y-40148496D01*
X136467657Y-40148496D02*
X136420038Y-40100877D01*
X136420038Y-40100877D02*
X136372419Y-40005639D01*
X136372419Y-39053258D02*
X136372419Y-38958020D01*
X136372419Y-38958020D02*
X136420038Y-38862782D01*
X136420038Y-38862782D02*
X136467657Y-38815163D01*
X136467657Y-38815163D02*
X136562895Y-38767544D01*
X136562895Y-38767544D02*
X136753371Y-38719925D01*
X136753371Y-38719925D02*
X136991466Y-38719925D01*
X136991466Y-38719925D02*
X137181942Y-38767544D01*
X137181942Y-38767544D02*
X137277180Y-38815163D01*
X137277180Y-38815163D02*
X137324800Y-38862782D01*
X137324800Y-38862782D02*
X137372419Y-38958020D01*
X137372419Y-38958020D02*
X137372419Y-39053258D01*
X137372419Y-39053258D02*
X137324800Y-39148496D01*
X137324800Y-39148496D02*
X137277180Y-39196115D01*
X137277180Y-39196115D02*
X137181942Y-39243734D01*
X137181942Y-39243734D02*
X136991466Y-39291353D01*
X136991466Y-39291353D02*
X136753371Y-39291353D01*
X136753371Y-39291353D02*
X136562895Y-39243734D01*
X136562895Y-39243734D02*
X136467657Y-39196115D01*
X136467657Y-39196115D02*
X136420038Y-39148496D01*
X136420038Y-39148496D02*
X136372419Y-39053258D01*
X136467657Y-38338972D02*
X136420038Y-38291353D01*
X136420038Y-38291353D02*
X136372419Y-38196115D01*
X136372419Y-38196115D02*
X136372419Y-37958020D01*
X136372419Y-37958020D02*
X136420038Y-37862782D01*
X136420038Y-37862782D02*
X136467657Y-37815163D01*
X136467657Y-37815163D02*
X136562895Y-37767544D01*
X136562895Y-37767544D02*
X136658133Y-37767544D01*
X136658133Y-37767544D02*
X136800990Y-37815163D01*
X136800990Y-37815163D02*
X137372419Y-38386591D01*
X137372419Y-38386591D02*
X137372419Y-37767544D01*
X125872419Y-65415639D02*
X125872419Y-65225163D01*
X125872419Y-65225163D02*
X125920038Y-65129925D01*
X125920038Y-65129925D02*
X126015276Y-65034687D01*
X126015276Y-65034687D02*
X126205752Y-64987068D01*
X126205752Y-64987068D02*
X126539085Y-64987068D01*
X126539085Y-64987068D02*
X126729561Y-65034687D01*
X126729561Y-65034687D02*
X126824800Y-65129925D01*
X126824800Y-65129925D02*
X126872419Y-65225163D01*
X126872419Y-65225163D02*
X126872419Y-65415639D01*
X126872419Y-65415639D02*
X126824800Y-65510877D01*
X126824800Y-65510877D02*
X126729561Y-65606115D01*
X126729561Y-65606115D02*
X126539085Y-65653734D01*
X126539085Y-65653734D02*
X126205752Y-65653734D01*
X126205752Y-65653734D02*
X126015276Y-65606115D01*
X126015276Y-65606115D02*
X125920038Y-65510877D01*
X125920038Y-65510877D02*
X125872419Y-65415639D01*
X126872419Y-64082306D02*
X126872419Y-64558496D01*
X126872419Y-64558496D02*
X125872419Y-64558496D01*
X126348609Y-63748972D02*
X126348609Y-63415639D01*
X126872419Y-63272782D02*
X126872419Y-63748972D01*
X126872419Y-63748972D02*
X125872419Y-63748972D01*
X125872419Y-63748972D02*
X125872419Y-63272782D01*
X126872419Y-62844210D02*
X125872419Y-62844210D01*
X125872419Y-62844210D02*
X125872419Y-62606115D01*
X125872419Y-62606115D02*
X125920038Y-62463258D01*
X125920038Y-62463258D02*
X126015276Y-62368020D01*
X126015276Y-62368020D02*
X126110514Y-62320401D01*
X126110514Y-62320401D02*
X126300990Y-62272782D01*
X126300990Y-62272782D02*
X126443847Y-62272782D01*
X126443847Y-62272782D02*
X126634323Y-62320401D01*
X126634323Y-62320401D02*
X126729561Y-62368020D01*
X126729561Y-62368020D02*
X126824800Y-62463258D01*
X126824800Y-62463258D02*
X126872419Y-62606115D01*
X126872419Y-62606115D02*
X126872419Y-62844210D01*
X126872419Y-61082305D02*
X125872419Y-61082305D01*
X125872419Y-61082305D02*
X125872419Y-60844210D01*
X125872419Y-60844210D02*
X125920038Y-60701353D01*
X125920038Y-60701353D02*
X126015276Y-60606115D01*
X126015276Y-60606115D02*
X126110514Y-60558496D01*
X126110514Y-60558496D02*
X126300990Y-60510877D01*
X126300990Y-60510877D02*
X126443847Y-60510877D01*
X126443847Y-60510877D02*
X126634323Y-60558496D01*
X126634323Y-60558496D02*
X126729561Y-60606115D01*
X126729561Y-60606115D02*
X126824800Y-60701353D01*
X126824800Y-60701353D02*
X126872419Y-60844210D01*
X126872419Y-60844210D02*
X126872419Y-61082305D01*
X126872419Y-60082305D02*
X126205752Y-60082305D01*
X125872419Y-60082305D02*
X125920038Y-60129924D01*
X125920038Y-60129924D02*
X125967657Y-60082305D01*
X125967657Y-60082305D02*
X125920038Y-60034686D01*
X125920038Y-60034686D02*
X125872419Y-60082305D01*
X125872419Y-60082305D02*
X125967657Y-60082305D01*
X126824800Y-59653734D02*
X126872419Y-59558496D01*
X126872419Y-59558496D02*
X126872419Y-59368020D01*
X126872419Y-59368020D02*
X126824800Y-59272782D01*
X126824800Y-59272782D02*
X126729561Y-59225163D01*
X126729561Y-59225163D02*
X126681942Y-59225163D01*
X126681942Y-59225163D02*
X126586704Y-59272782D01*
X126586704Y-59272782D02*
X126539085Y-59368020D01*
X126539085Y-59368020D02*
X126539085Y-59510877D01*
X126539085Y-59510877D02*
X126491466Y-59606115D01*
X126491466Y-59606115D02*
X126396228Y-59653734D01*
X126396228Y-59653734D02*
X126348609Y-59653734D01*
X126348609Y-59653734D02*
X126253371Y-59606115D01*
X126253371Y-59606115D02*
X126205752Y-59510877D01*
X126205752Y-59510877D02*
X126205752Y-59368020D01*
X126205752Y-59368020D02*
X126253371Y-59272782D01*
X126205752Y-58796591D02*
X127205752Y-58796591D01*
X126253371Y-58796591D02*
X126205752Y-58701353D01*
X126205752Y-58701353D02*
X126205752Y-58510877D01*
X126205752Y-58510877D02*
X126253371Y-58415639D01*
X126253371Y-58415639D02*
X126300990Y-58368020D01*
X126300990Y-58368020D02*
X126396228Y-58320401D01*
X126396228Y-58320401D02*
X126681942Y-58320401D01*
X126681942Y-58320401D02*
X126777180Y-58368020D01*
X126777180Y-58368020D02*
X126824800Y-58415639D01*
X126824800Y-58415639D02*
X126872419Y-58510877D01*
X126872419Y-58510877D02*
X126872419Y-58701353D01*
X126872419Y-58701353D02*
X126824800Y-58796591D01*
X126872419Y-57748972D02*
X126824800Y-57844210D01*
X126824800Y-57844210D02*
X126729561Y-57891829D01*
X126729561Y-57891829D02*
X125872419Y-57891829D01*
X126872419Y-56939448D02*
X126348609Y-56939448D01*
X126348609Y-56939448D02*
X126253371Y-56987067D01*
X126253371Y-56987067D02*
X126205752Y-57082305D01*
X126205752Y-57082305D02*
X126205752Y-57272781D01*
X126205752Y-57272781D02*
X126253371Y-57368019D01*
X126824800Y-56939448D02*
X126872419Y-57034686D01*
X126872419Y-57034686D02*
X126872419Y-57272781D01*
X126872419Y-57272781D02*
X126824800Y-57368019D01*
X126824800Y-57368019D02*
X126729561Y-57415638D01*
X126729561Y-57415638D02*
X126634323Y-57415638D01*
X126634323Y-57415638D02*
X126539085Y-57368019D01*
X126539085Y-57368019D02*
X126491466Y-57272781D01*
X126491466Y-57272781D02*
X126491466Y-57034686D01*
X126491466Y-57034686D02*
X126443847Y-56939448D01*
X126205752Y-56558495D02*
X126872419Y-56320400D01*
X126205752Y-56082305D02*
X126872419Y-56320400D01*
X126872419Y-56320400D02*
X127110514Y-56415638D01*
X127110514Y-56415638D02*
X127158133Y-56463257D01*
X127158133Y-56463257D02*
X127205752Y-56558495D01*
X137277180Y-35624687D02*
X137324800Y-35672306D01*
X137324800Y-35672306D02*
X137372419Y-35815163D01*
X137372419Y-35815163D02*
X137372419Y-35910401D01*
X137372419Y-35910401D02*
X137324800Y-36053258D01*
X137324800Y-36053258D02*
X137229561Y-36148496D01*
X137229561Y-36148496D02*
X137134323Y-36196115D01*
X137134323Y-36196115D02*
X136943847Y-36243734D01*
X136943847Y-36243734D02*
X136800990Y-36243734D01*
X136800990Y-36243734D02*
X136610514Y-36196115D01*
X136610514Y-36196115D02*
X136515276Y-36148496D01*
X136515276Y-36148496D02*
X136420038Y-36053258D01*
X136420038Y-36053258D02*
X136372419Y-35910401D01*
X136372419Y-35910401D02*
X136372419Y-35815163D01*
X136372419Y-35815163D02*
X136420038Y-35672306D01*
X136420038Y-35672306D02*
X136467657Y-35624687D01*
X137372419Y-34767544D02*
X136848609Y-34767544D01*
X136848609Y-34767544D02*
X136753371Y-34815163D01*
X136753371Y-34815163D02*
X136705752Y-34910401D01*
X136705752Y-34910401D02*
X136705752Y-35100877D01*
X136705752Y-35100877D02*
X136753371Y-35196115D01*
X137324800Y-34767544D02*
X137372419Y-34862782D01*
X137372419Y-34862782D02*
X137372419Y-35100877D01*
X137372419Y-35100877D02*
X137324800Y-35196115D01*
X137324800Y-35196115D02*
X137229561Y-35243734D01*
X137229561Y-35243734D02*
X137134323Y-35243734D01*
X137134323Y-35243734D02*
X137039085Y-35196115D01*
X137039085Y-35196115D02*
X136991466Y-35100877D01*
X136991466Y-35100877D02*
X136991466Y-34862782D01*
X136991466Y-34862782D02*
X136943847Y-34767544D01*
X137372419Y-34291353D02*
X136705752Y-34291353D01*
X136896228Y-34291353D02*
X136800990Y-34243734D01*
X136800990Y-34243734D02*
X136753371Y-34196115D01*
X136753371Y-34196115D02*
X136705752Y-34100877D01*
X136705752Y-34100877D02*
X136705752Y-34005639D01*
X137372419Y-33672305D02*
X136705752Y-33672305D01*
X136896228Y-33672305D02*
X136800990Y-33624686D01*
X136800990Y-33624686D02*
X136753371Y-33577067D01*
X136753371Y-33577067D02*
X136705752Y-33481829D01*
X136705752Y-33481829D02*
X136705752Y-33386591D01*
X137372419Y-33053257D02*
X136705752Y-33053257D01*
X136372419Y-33053257D02*
X136420038Y-33100876D01*
X136420038Y-33100876D02*
X136467657Y-33053257D01*
X136467657Y-33053257D02*
X136420038Y-33005638D01*
X136420038Y-33005638D02*
X136372419Y-33053257D01*
X136372419Y-33053257D02*
X136467657Y-33053257D01*
X137324800Y-32196115D02*
X137372419Y-32291353D01*
X137372419Y-32291353D02*
X137372419Y-32481829D01*
X137372419Y-32481829D02*
X137324800Y-32577067D01*
X137324800Y-32577067D02*
X137229561Y-32624686D01*
X137229561Y-32624686D02*
X136848609Y-32624686D01*
X136848609Y-32624686D02*
X136753371Y-32577067D01*
X136753371Y-32577067D02*
X136705752Y-32481829D01*
X136705752Y-32481829D02*
X136705752Y-32291353D01*
X136705752Y-32291353D02*
X136753371Y-32196115D01*
X136753371Y-32196115D02*
X136848609Y-32148496D01*
X136848609Y-32148496D02*
X136943847Y-32148496D01*
X136943847Y-32148496D02*
X137039085Y-32624686D01*
X137372419Y-31719924D02*
X136705752Y-31719924D01*
X136896228Y-31719924D02*
X136800990Y-31672305D01*
X136800990Y-31672305D02*
X136753371Y-31624686D01*
X136753371Y-31624686D02*
X136705752Y-31529448D01*
X136705752Y-31529448D02*
X136705752Y-31434210D01*
X136705752Y-30481828D02*
X136705752Y-30100876D01*
X137372419Y-30338971D02*
X136515276Y-30338971D01*
X136515276Y-30338971D02*
X136420038Y-30291352D01*
X136420038Y-30291352D02*
X136372419Y-30196114D01*
X136372419Y-30196114D02*
X136372419Y-30100876D01*
X137372419Y-29624685D02*
X137324800Y-29719923D01*
X137324800Y-29719923D02*
X137277180Y-29767542D01*
X137277180Y-29767542D02*
X137181942Y-29815161D01*
X137181942Y-29815161D02*
X136896228Y-29815161D01*
X136896228Y-29815161D02*
X136800990Y-29767542D01*
X136800990Y-29767542D02*
X136753371Y-29719923D01*
X136753371Y-29719923D02*
X136705752Y-29624685D01*
X136705752Y-29624685D02*
X136705752Y-29481828D01*
X136705752Y-29481828D02*
X136753371Y-29386590D01*
X136753371Y-29386590D02*
X136800990Y-29338971D01*
X136800990Y-29338971D02*
X136896228Y-29291352D01*
X136896228Y-29291352D02*
X137181942Y-29291352D01*
X137181942Y-29291352D02*
X137277180Y-29338971D01*
X137277180Y-29338971D02*
X137324800Y-29386590D01*
X137324800Y-29386590D02*
X137372419Y-29481828D01*
X137372419Y-29481828D02*
X137372419Y-29624685D01*
X137372419Y-28862780D02*
X136705752Y-28862780D01*
X136896228Y-28862780D02*
X136800990Y-28815161D01*
X136800990Y-28815161D02*
X136753371Y-28767542D01*
X136753371Y-28767542D02*
X136705752Y-28672304D01*
X136705752Y-28672304D02*
X136705752Y-28577066D01*
X137372419Y-27005637D02*
X137372419Y-27481827D01*
X137372419Y-27481827D02*
X136372419Y-27481827D01*
X137372419Y-26672303D02*
X136705752Y-26672303D01*
X136372419Y-26672303D02*
X136420038Y-26719922D01*
X136420038Y-26719922D02*
X136467657Y-26672303D01*
X136467657Y-26672303D02*
X136420038Y-26624684D01*
X136420038Y-26624684D02*
X136372419Y-26672303D01*
X136372419Y-26672303D02*
X136467657Y-26672303D01*
X136705752Y-25767542D02*
X137515276Y-25767542D01*
X137515276Y-25767542D02*
X137610514Y-25815161D01*
X137610514Y-25815161D02*
X137658133Y-25862780D01*
X137658133Y-25862780D02*
X137705752Y-25958018D01*
X137705752Y-25958018D02*
X137705752Y-26100875D01*
X137705752Y-26100875D02*
X137658133Y-26196113D01*
X137324800Y-25767542D02*
X137372419Y-25862780D01*
X137372419Y-25862780D02*
X137372419Y-26053256D01*
X137372419Y-26053256D02*
X137324800Y-26148494D01*
X137324800Y-26148494D02*
X137277180Y-26196113D01*
X137277180Y-26196113D02*
X137181942Y-26243732D01*
X137181942Y-26243732D02*
X136896228Y-26243732D01*
X136896228Y-26243732D02*
X136800990Y-26196113D01*
X136800990Y-26196113D02*
X136753371Y-26148494D01*
X136753371Y-26148494D02*
X136705752Y-26053256D01*
X136705752Y-26053256D02*
X136705752Y-25862780D01*
X136705752Y-25862780D02*
X136753371Y-25767542D01*
X137372419Y-25291351D02*
X136372419Y-25291351D01*
X137372419Y-24862780D02*
X136848609Y-24862780D01*
X136848609Y-24862780D02*
X136753371Y-24910399D01*
X136753371Y-24910399D02*
X136705752Y-25005637D01*
X136705752Y-25005637D02*
X136705752Y-25148494D01*
X136705752Y-25148494D02*
X136753371Y-25243732D01*
X136753371Y-25243732D02*
X136800990Y-25291351D01*
X136705752Y-24529446D02*
X136705752Y-24148494D01*
X136372419Y-24386589D02*
X137229561Y-24386589D01*
X137229561Y-24386589D02*
X137324800Y-24338970D01*
X137324800Y-24338970D02*
X137372419Y-24243732D01*
X137372419Y-24243732D02*
X137372419Y-24148494D01*
X136372419Y-23958017D02*
X136372419Y-23386589D01*
X137372419Y-23672303D02*
X136372419Y-23672303D01*
X137372419Y-23053255D02*
X136372419Y-23053255D01*
X137372419Y-22624684D02*
X136848609Y-22624684D01*
X136848609Y-22624684D02*
X136753371Y-22672303D01*
X136753371Y-22672303D02*
X136705752Y-22767541D01*
X136705752Y-22767541D02*
X136705752Y-22910398D01*
X136705752Y-22910398D02*
X136753371Y-23005636D01*
X136753371Y-23005636D02*
X136800990Y-23053255D01*
X137324800Y-21767541D02*
X137372419Y-21862779D01*
X137372419Y-21862779D02*
X137372419Y-22053255D01*
X137372419Y-22053255D02*
X137324800Y-22148493D01*
X137324800Y-22148493D02*
X137229561Y-22196112D01*
X137229561Y-22196112D02*
X136848609Y-22196112D01*
X136848609Y-22196112D02*
X136753371Y-22148493D01*
X136753371Y-22148493D02*
X136705752Y-22053255D01*
X136705752Y-22053255D02*
X136705752Y-21862779D01*
X136705752Y-21862779D02*
X136753371Y-21767541D01*
X136753371Y-21767541D02*
X136848609Y-21719922D01*
X136848609Y-21719922D02*
X136943847Y-21719922D01*
X136943847Y-21719922D02*
X137039085Y-22196112D01*
X137372419Y-21291350D02*
X136705752Y-21291350D01*
X136896228Y-21291350D02*
X136800990Y-21243731D01*
X136800990Y-21243731D02*
X136753371Y-21196112D01*
X136753371Y-21196112D02*
X136705752Y-21100874D01*
X136705752Y-21100874D02*
X136705752Y-21005636D01*
X137372419Y-20672302D02*
X136705752Y-20672302D01*
X136800990Y-20672302D02*
X136753371Y-20624683D01*
X136753371Y-20624683D02*
X136705752Y-20529445D01*
X136705752Y-20529445D02*
X136705752Y-20386588D01*
X136705752Y-20386588D02*
X136753371Y-20291350D01*
X136753371Y-20291350D02*
X136848609Y-20243731D01*
X136848609Y-20243731D02*
X137372419Y-20243731D01*
X136848609Y-20243731D02*
X136753371Y-20196112D01*
X136753371Y-20196112D02*
X136705752Y-20100874D01*
X136705752Y-20100874D02*
X136705752Y-19958017D01*
X136705752Y-19958017D02*
X136753371Y-19862778D01*
X136753371Y-19862778D02*
X136848609Y-19815159D01*
X136848609Y-19815159D02*
X137372419Y-19815159D01*
X137372419Y-19196112D02*
X137324800Y-19291350D01*
X137324800Y-19291350D02*
X137277180Y-19338969D01*
X137277180Y-19338969D02*
X137181942Y-19386588D01*
X137181942Y-19386588D02*
X136896228Y-19386588D01*
X136896228Y-19386588D02*
X136800990Y-19338969D01*
X136800990Y-19338969D02*
X136753371Y-19291350D01*
X136753371Y-19291350D02*
X136705752Y-19196112D01*
X136705752Y-19196112D02*
X136705752Y-19053255D01*
X136705752Y-19053255D02*
X136753371Y-18958017D01*
X136753371Y-18958017D02*
X136800990Y-18910398D01*
X136800990Y-18910398D02*
X136896228Y-18862779D01*
X136896228Y-18862779D02*
X137181942Y-18862779D01*
X137181942Y-18862779D02*
X137277180Y-18910398D01*
X137277180Y-18910398D02*
X137324800Y-18958017D01*
X137324800Y-18958017D02*
X137372419Y-19053255D01*
X137372419Y-19053255D02*
X137372419Y-19196112D01*
X75920038Y-49672306D02*
X75872419Y-49767544D01*
X75872419Y-49767544D02*
X75872419Y-49910401D01*
X75872419Y-49910401D02*
X75920038Y-50053258D01*
X75920038Y-50053258D02*
X76015276Y-50148496D01*
X76015276Y-50148496D02*
X76110514Y-50196115D01*
X76110514Y-50196115D02*
X76300990Y-50243734D01*
X76300990Y-50243734D02*
X76443847Y-50243734D01*
X76443847Y-50243734D02*
X76634323Y-50196115D01*
X76634323Y-50196115D02*
X76729561Y-50148496D01*
X76729561Y-50148496D02*
X76824800Y-50053258D01*
X76824800Y-50053258D02*
X76872419Y-49910401D01*
X76872419Y-49910401D02*
X76872419Y-49815163D01*
X76872419Y-49815163D02*
X76824800Y-49672306D01*
X76824800Y-49672306D02*
X76777180Y-49624687D01*
X76777180Y-49624687D02*
X76443847Y-49624687D01*
X76443847Y-49624687D02*
X76443847Y-49815163D01*
X76872419Y-49196115D02*
X75872419Y-49196115D01*
X75872419Y-49196115D02*
X76872419Y-48624687D01*
X76872419Y-48624687D02*
X75872419Y-48624687D01*
X76872419Y-48148496D02*
X75872419Y-48148496D01*
X75872419Y-48148496D02*
X75872419Y-47910401D01*
X75872419Y-47910401D02*
X75920038Y-47767544D01*
X75920038Y-47767544D02*
X76015276Y-47672306D01*
X76015276Y-47672306D02*
X76110514Y-47624687D01*
X76110514Y-47624687D02*
X76300990Y-47577068D01*
X76300990Y-47577068D02*
X76443847Y-47577068D01*
X76443847Y-47577068D02*
X76634323Y-47624687D01*
X76634323Y-47624687D02*
X76729561Y-47672306D01*
X76729561Y-47672306D02*
X76824800Y-47767544D01*
X76824800Y-47767544D02*
X76872419Y-47910401D01*
X76872419Y-47910401D02*
X76872419Y-48148496D01*
X7991466Y-45196115D02*
X7991466Y-44434211D01*
X8372419Y-44815163D02*
X7610514Y-44815163D01*
X7372419Y-43481830D02*
X7372419Y-43958020D01*
X7372419Y-43958020D02*
X7848609Y-44005639D01*
X7848609Y-44005639D02*
X7800990Y-43958020D01*
X7800990Y-43958020D02*
X7753371Y-43862782D01*
X7753371Y-43862782D02*
X7753371Y-43624687D01*
X7753371Y-43624687D02*
X7800990Y-43529449D01*
X7800990Y-43529449D02*
X7848609Y-43481830D01*
X7848609Y-43481830D02*
X7943847Y-43434211D01*
X7943847Y-43434211D02*
X8181942Y-43434211D01*
X8181942Y-43434211D02*
X8277180Y-43481830D01*
X8277180Y-43481830D02*
X8324800Y-43529449D01*
X8324800Y-43529449D02*
X8372419Y-43624687D01*
X8372419Y-43624687D02*
X8372419Y-43862782D01*
X8372419Y-43862782D02*
X8324800Y-43958020D01*
X8324800Y-43958020D02*
X8277180Y-44005639D01*
X7372419Y-43148496D02*
X8372419Y-42815163D01*
X8372419Y-42815163D02*
X7372419Y-42481830D01*
X7420038Y-49672306D02*
X7372419Y-49767544D01*
X7372419Y-49767544D02*
X7372419Y-49910401D01*
X7372419Y-49910401D02*
X7420038Y-50053258D01*
X7420038Y-50053258D02*
X7515276Y-50148496D01*
X7515276Y-50148496D02*
X7610514Y-50196115D01*
X7610514Y-50196115D02*
X7800990Y-50243734D01*
X7800990Y-50243734D02*
X7943847Y-50243734D01*
X7943847Y-50243734D02*
X8134323Y-50196115D01*
X8134323Y-50196115D02*
X8229561Y-50148496D01*
X8229561Y-50148496D02*
X8324800Y-50053258D01*
X8324800Y-50053258D02*
X8372419Y-49910401D01*
X8372419Y-49910401D02*
X8372419Y-49815163D01*
X8372419Y-49815163D02*
X8324800Y-49672306D01*
X8324800Y-49672306D02*
X8277180Y-49624687D01*
X8277180Y-49624687D02*
X7943847Y-49624687D01*
X7943847Y-49624687D02*
X7943847Y-49815163D01*
X8372419Y-49196115D02*
X7372419Y-49196115D01*
X7372419Y-49196115D02*
X8372419Y-48624687D01*
X8372419Y-48624687D02*
X7372419Y-48624687D01*
X8372419Y-48148496D02*
X7372419Y-48148496D01*
X7372419Y-48148496D02*
X7372419Y-47910401D01*
X7372419Y-47910401D02*
X7420038Y-47767544D01*
X7420038Y-47767544D02*
X7515276Y-47672306D01*
X7515276Y-47672306D02*
X7610514Y-47624687D01*
X7610514Y-47624687D02*
X7800990Y-47577068D01*
X7800990Y-47577068D02*
X7943847Y-47577068D01*
X7943847Y-47577068D02*
X8134323Y-47624687D01*
X8134323Y-47624687D02*
X8229561Y-47672306D01*
X8229561Y-47672306D02*
X8324800Y-47767544D01*
X8324800Y-47767544D02*
X8372419Y-47910401D01*
X8372419Y-47910401D02*
X8372419Y-48148496D01*
D11*
X13838095Y-9354819D02*
X13838095Y-8354819D01*
X13838095Y-8831009D02*
X14409523Y-8831009D01*
X14409523Y-9354819D02*
X14409523Y-8354819D01*
X15409523Y-9354819D02*
X14838095Y-9354819D01*
X15123809Y-9354819D02*
X15123809Y-8354819D01*
X15123809Y-8354819D02*
X15028571Y-8497676D01*
X15028571Y-8497676D02*
X14933333Y-8592914D01*
X14933333Y-8592914D02*
X14838095Y-8640533D01*
X122738095Y-41254819D02*
X122738095Y-40254819D01*
X122738095Y-40731009D02*
X123309523Y-40731009D01*
X123309523Y-41254819D02*
X123309523Y-40254819D01*
X124261904Y-40254819D02*
X123785714Y-40254819D01*
X123785714Y-40254819D02*
X123738095Y-40731009D01*
X123738095Y-40731009D02*
X123785714Y-40683390D01*
X123785714Y-40683390D02*
X123880952Y-40635771D01*
X123880952Y-40635771D02*
X124119047Y-40635771D01*
X124119047Y-40635771D02*
X124214285Y-40683390D01*
X124214285Y-40683390D02*
X124261904Y-40731009D01*
X124261904Y-40731009D02*
X124309523Y-40826247D01*
X124309523Y-40826247D02*
X124309523Y-41064342D01*
X124309523Y-41064342D02*
X124261904Y-41159580D01*
X124261904Y-41159580D02*
X124214285Y-41207200D01*
X124214285Y-41207200D02*
X124119047Y-41254819D01*
X124119047Y-41254819D02*
X123880952Y-41254819D01*
X123880952Y-41254819D02*
X123785714Y-41207200D01*
X123785714Y-41207200D02*
X123738095Y-41159580D01*
X130788095Y-9304819D02*
X130788095Y-8304819D01*
X130788095Y-8781009D02*
X131359523Y-8781009D01*
X131359523Y-9304819D02*
X131359523Y-8304819D01*
X131788095Y-8400057D02*
X131835714Y-8352438D01*
X131835714Y-8352438D02*
X131930952Y-8304819D01*
X131930952Y-8304819D02*
X132169047Y-8304819D01*
X132169047Y-8304819D02*
X132264285Y-8352438D01*
X132264285Y-8352438D02*
X132311904Y-8400057D01*
X132311904Y-8400057D02*
X132359523Y-8495295D01*
X132359523Y-8495295D02*
X132359523Y-8590533D01*
X132359523Y-8590533D02*
X132311904Y-8733390D01*
X132311904Y-8733390D02*
X131740476Y-9304819D01*
X131740476Y-9304819D02*
X132359523Y-9304819D01*
X13691666Y-55884819D02*
X13691666Y-56599104D01*
X13691666Y-56599104D02*
X13644047Y-56741961D01*
X13644047Y-56741961D02*
X13548809Y-56837200D01*
X13548809Y-56837200D02*
X13405952Y-56884819D01*
X13405952Y-56884819D02*
X13310714Y-56884819D01*
X14072619Y-55884819D02*
X14691666Y-55884819D01*
X14691666Y-55884819D02*
X14358333Y-56265771D01*
X14358333Y-56265771D02*
X14501190Y-56265771D01*
X14501190Y-56265771D02*
X14596428Y-56313390D01*
X14596428Y-56313390D02*
X14644047Y-56361009D01*
X14644047Y-56361009D02*
X14691666Y-56456247D01*
X14691666Y-56456247D02*
X14691666Y-56694342D01*
X14691666Y-56694342D02*
X14644047Y-56789580D01*
X14644047Y-56789580D02*
X14596428Y-56837200D01*
X14596428Y-56837200D02*
X14501190Y-56884819D01*
X14501190Y-56884819D02*
X14215476Y-56884819D01*
X14215476Y-56884819D02*
X14120238Y-56837200D01*
X14120238Y-56837200D02*
X14072619Y-56789580D01*
X59133333Y-41009580D02*
X59085714Y-41057200D01*
X59085714Y-41057200D02*
X58942857Y-41104819D01*
X58942857Y-41104819D02*
X58847619Y-41104819D01*
X58847619Y-41104819D02*
X58704762Y-41057200D01*
X58704762Y-41057200D02*
X58609524Y-40961961D01*
X58609524Y-40961961D02*
X58561905Y-40866723D01*
X58561905Y-40866723D02*
X58514286Y-40676247D01*
X58514286Y-40676247D02*
X58514286Y-40533390D01*
X58514286Y-40533390D02*
X58561905Y-40342914D01*
X58561905Y-40342914D02*
X58609524Y-40247676D01*
X58609524Y-40247676D02*
X58704762Y-40152438D01*
X58704762Y-40152438D02*
X58847619Y-40104819D01*
X58847619Y-40104819D02*
X58942857Y-40104819D01*
X58942857Y-40104819D02*
X59085714Y-40152438D01*
X59085714Y-40152438D02*
X59133333Y-40200057D01*
X59990476Y-40438152D02*
X59990476Y-41104819D01*
X59752381Y-40057200D02*
X59514286Y-40771485D01*
X59514286Y-40771485D02*
X60133333Y-40771485D01*
X82191666Y-55884819D02*
X82191666Y-56599104D01*
X82191666Y-56599104D02*
X82144047Y-56741961D01*
X82144047Y-56741961D02*
X82048809Y-56837200D01*
X82048809Y-56837200D02*
X81905952Y-56884819D01*
X81905952Y-56884819D02*
X81810714Y-56884819D01*
X82572619Y-55884819D02*
X83191666Y-55884819D01*
X83191666Y-55884819D02*
X82858333Y-56265771D01*
X82858333Y-56265771D02*
X83001190Y-56265771D01*
X83001190Y-56265771D02*
X83096428Y-56313390D01*
X83096428Y-56313390D02*
X83144047Y-56361009D01*
X83144047Y-56361009D02*
X83191666Y-56456247D01*
X83191666Y-56456247D02*
X83191666Y-56694342D01*
X83191666Y-56694342D02*
X83144047Y-56789580D01*
X83144047Y-56789580D02*
X83096428Y-56837200D01*
X83096428Y-56837200D02*
X83001190Y-56884819D01*
X83001190Y-56884819D02*
X82715476Y-56884819D01*
X82715476Y-56884819D02*
X82620238Y-56837200D01*
X82620238Y-56837200D02*
X82572619Y-56789580D01*
X87286666Y-35954819D02*
X87286666Y-36669104D01*
X87286666Y-36669104D02*
X87239047Y-36811961D01*
X87239047Y-36811961D02*
X87143809Y-36907200D01*
X87143809Y-36907200D02*
X87000952Y-36954819D01*
X87000952Y-36954819D02*
X86905714Y-36954819D01*
X88191428Y-35954819D02*
X88000952Y-35954819D01*
X88000952Y-35954819D02*
X87905714Y-36002438D01*
X87905714Y-36002438D02*
X87858095Y-36050057D01*
X87858095Y-36050057D02*
X87762857Y-36192914D01*
X87762857Y-36192914D02*
X87715238Y-36383390D01*
X87715238Y-36383390D02*
X87715238Y-36764342D01*
X87715238Y-36764342D02*
X87762857Y-36859580D01*
X87762857Y-36859580D02*
X87810476Y-36907200D01*
X87810476Y-36907200D02*
X87905714Y-36954819D01*
X87905714Y-36954819D02*
X88096190Y-36954819D01*
X88096190Y-36954819D02*
X88191428Y-36907200D01*
X88191428Y-36907200D02*
X88239047Y-36859580D01*
X88239047Y-36859580D02*
X88286666Y-36764342D01*
X88286666Y-36764342D02*
X88286666Y-36526247D01*
X88286666Y-36526247D02*
X88239047Y-36431009D01*
X88239047Y-36431009D02*
X88191428Y-36383390D01*
X88191428Y-36383390D02*
X88096190Y-36335771D01*
X88096190Y-36335771D02*
X87905714Y-36335771D01*
X87905714Y-36335771D02*
X87810476Y-36383390D01*
X87810476Y-36383390D02*
X87762857Y-36431009D01*
X87762857Y-36431009D02*
X87715238Y-36526247D01*
X103416667Y-72787200D02*
X103559524Y-72834819D01*
X103559524Y-72834819D02*
X103797619Y-72834819D01*
X103797619Y-72834819D02*
X103892857Y-72787200D01*
X103892857Y-72787200D02*
X103940476Y-72739580D01*
X103940476Y-72739580D02*
X103988095Y-72644342D01*
X103988095Y-72644342D02*
X103988095Y-72549104D01*
X103988095Y-72549104D02*
X103940476Y-72453866D01*
X103940476Y-72453866D02*
X103892857Y-72406247D01*
X103892857Y-72406247D02*
X103797619Y-72358628D01*
X103797619Y-72358628D02*
X103607143Y-72311009D01*
X103607143Y-72311009D02*
X103511905Y-72263390D01*
X103511905Y-72263390D02*
X103464286Y-72215771D01*
X103464286Y-72215771D02*
X103416667Y-72120533D01*
X103416667Y-72120533D02*
X103416667Y-72025295D01*
X103416667Y-72025295D02*
X103464286Y-71930057D01*
X103464286Y-71930057D02*
X103511905Y-71882438D01*
X103511905Y-71882438D02*
X103607143Y-71834819D01*
X103607143Y-71834819D02*
X103845238Y-71834819D01*
X103845238Y-71834819D02*
X103988095Y-71882438D01*
X104321429Y-71834819D02*
X104559524Y-72834819D01*
X104559524Y-72834819D02*
X104750000Y-72120533D01*
X104750000Y-72120533D02*
X104940476Y-72834819D01*
X104940476Y-72834819D02*
X105178572Y-71834819D01*
X105511905Y-71930057D02*
X105559524Y-71882438D01*
X105559524Y-71882438D02*
X105654762Y-71834819D01*
X105654762Y-71834819D02*
X105892857Y-71834819D01*
X105892857Y-71834819D02*
X105988095Y-71882438D01*
X105988095Y-71882438D02*
X106035714Y-71930057D01*
X106035714Y-71930057D02*
X106083333Y-72025295D01*
X106083333Y-72025295D02*
X106083333Y-72120533D01*
X106083333Y-72120533D02*
X106035714Y-72263390D01*
X106035714Y-72263390D02*
X105464286Y-72834819D01*
X105464286Y-72834819D02*
X106083333Y-72834819D01*
X44666666Y-18004819D02*
X44666666Y-18719104D01*
X44666666Y-18719104D02*
X44619047Y-18861961D01*
X44619047Y-18861961D02*
X44523809Y-18957200D01*
X44523809Y-18957200D02*
X44380952Y-19004819D01*
X44380952Y-19004819D02*
X44285714Y-19004819D01*
X45666666Y-19004819D02*
X45095238Y-19004819D01*
X45380952Y-19004819D02*
X45380952Y-18004819D01*
X45380952Y-18004819D02*
X45285714Y-18147676D01*
X45285714Y-18147676D02*
X45190476Y-18242914D01*
X45190476Y-18242914D02*
X45095238Y-18290533D01*
X26886666Y-17979819D02*
X26886666Y-18694104D01*
X26886666Y-18694104D02*
X26839047Y-18836961D01*
X26839047Y-18836961D02*
X26743809Y-18932200D01*
X26743809Y-18932200D02*
X26600952Y-18979819D01*
X26600952Y-18979819D02*
X26505714Y-18979819D01*
X27315238Y-18075057D02*
X27362857Y-18027438D01*
X27362857Y-18027438D02*
X27458095Y-17979819D01*
X27458095Y-17979819D02*
X27696190Y-17979819D01*
X27696190Y-17979819D02*
X27791428Y-18027438D01*
X27791428Y-18027438D02*
X27839047Y-18075057D01*
X27839047Y-18075057D02*
X27886666Y-18170295D01*
X27886666Y-18170295D02*
X27886666Y-18265533D01*
X27886666Y-18265533D02*
X27839047Y-18408390D01*
X27839047Y-18408390D02*
X27267619Y-18979819D01*
X27267619Y-18979819D02*
X27886666Y-18979819D01*
X82338095Y-9354819D02*
X82338095Y-8354819D01*
X82338095Y-8831009D02*
X82909523Y-8831009D01*
X82909523Y-9354819D02*
X82909523Y-8354819D01*
X83909523Y-9354819D02*
X83338095Y-9354819D01*
X83623809Y-9354819D02*
X83623809Y-8354819D01*
X83623809Y-8354819D02*
X83528571Y-8497676D01*
X83528571Y-8497676D02*
X83433333Y-8592914D01*
X83433333Y-8592914D02*
X83338095Y-8640533D01*
X122033333Y-14509580D02*
X121985714Y-14557200D01*
X121985714Y-14557200D02*
X121842857Y-14604819D01*
X121842857Y-14604819D02*
X121747619Y-14604819D01*
X121747619Y-14604819D02*
X121604762Y-14557200D01*
X121604762Y-14557200D02*
X121509524Y-14461961D01*
X121509524Y-14461961D02*
X121461905Y-14366723D01*
X121461905Y-14366723D02*
X121414286Y-14176247D01*
X121414286Y-14176247D02*
X121414286Y-14033390D01*
X121414286Y-14033390D02*
X121461905Y-13842914D01*
X121461905Y-13842914D02*
X121509524Y-13747676D01*
X121509524Y-13747676D02*
X121604762Y-13652438D01*
X121604762Y-13652438D02*
X121747619Y-13604819D01*
X121747619Y-13604819D02*
X121842857Y-13604819D01*
X121842857Y-13604819D02*
X121985714Y-13652438D01*
X121985714Y-13652438D02*
X122033333Y-13700057D01*
X122985714Y-14604819D02*
X122414286Y-14604819D01*
X122700000Y-14604819D02*
X122700000Y-13604819D01*
X122700000Y-13604819D02*
X122604762Y-13747676D01*
X122604762Y-13747676D02*
X122509524Y-13842914D01*
X122509524Y-13842914D02*
X122414286Y-13890533D01*
X95386666Y-17979819D02*
X95386666Y-18694104D01*
X95386666Y-18694104D02*
X95339047Y-18836961D01*
X95339047Y-18836961D02*
X95243809Y-18932200D01*
X95243809Y-18932200D02*
X95100952Y-18979819D01*
X95100952Y-18979819D02*
X95005714Y-18979819D01*
X95815238Y-18075057D02*
X95862857Y-18027438D01*
X95862857Y-18027438D02*
X95958095Y-17979819D01*
X95958095Y-17979819D02*
X96196190Y-17979819D01*
X96196190Y-17979819D02*
X96291428Y-18027438D01*
X96291428Y-18027438D02*
X96339047Y-18075057D01*
X96339047Y-18075057D02*
X96386666Y-18170295D01*
X96386666Y-18170295D02*
X96386666Y-18265533D01*
X96386666Y-18265533D02*
X96339047Y-18408390D01*
X96339047Y-18408390D02*
X95767619Y-18979819D01*
X95767619Y-18979819D02*
X96386666Y-18979819D01*
X134238095Y-74754819D02*
X134238095Y-73754819D01*
X134238095Y-74231009D02*
X134809523Y-74231009D01*
X134809523Y-74754819D02*
X134809523Y-73754819D01*
X135714285Y-74088152D02*
X135714285Y-74754819D01*
X135476190Y-73707200D02*
X135238095Y-74421485D01*
X135238095Y-74421485D02*
X135857142Y-74421485D01*
X119083333Y-72459580D02*
X119035714Y-72507200D01*
X119035714Y-72507200D02*
X118892857Y-72554819D01*
X118892857Y-72554819D02*
X118797619Y-72554819D01*
X118797619Y-72554819D02*
X118654762Y-72507200D01*
X118654762Y-72507200D02*
X118559524Y-72411961D01*
X118559524Y-72411961D02*
X118511905Y-72316723D01*
X118511905Y-72316723D02*
X118464286Y-72126247D01*
X118464286Y-72126247D02*
X118464286Y-71983390D01*
X118464286Y-71983390D02*
X118511905Y-71792914D01*
X118511905Y-71792914D02*
X118559524Y-71697676D01*
X118559524Y-71697676D02*
X118654762Y-71602438D01*
X118654762Y-71602438D02*
X118797619Y-71554819D01*
X118797619Y-71554819D02*
X118892857Y-71554819D01*
X118892857Y-71554819D02*
X119035714Y-71602438D01*
X119035714Y-71602438D02*
X119083333Y-71650057D01*
X119416667Y-71554819D02*
X120035714Y-71554819D01*
X120035714Y-71554819D02*
X119702381Y-71935771D01*
X119702381Y-71935771D02*
X119845238Y-71935771D01*
X119845238Y-71935771D02*
X119940476Y-71983390D01*
X119940476Y-71983390D02*
X119988095Y-72031009D01*
X119988095Y-72031009D02*
X120035714Y-72126247D01*
X120035714Y-72126247D02*
X120035714Y-72364342D01*
X120035714Y-72364342D02*
X119988095Y-72459580D01*
X119988095Y-72459580D02*
X119940476Y-72507200D01*
X119940476Y-72507200D02*
X119845238Y-72554819D01*
X119845238Y-72554819D02*
X119559524Y-72554819D01*
X119559524Y-72554819D02*
X119464286Y-72507200D01*
X119464286Y-72507200D02*
X119416667Y-72459580D01*
X62288095Y-9304819D02*
X62288095Y-8304819D01*
X62288095Y-8781009D02*
X62859523Y-8781009D01*
X62859523Y-9304819D02*
X62859523Y-8304819D01*
X63288095Y-8400057D02*
X63335714Y-8352438D01*
X63335714Y-8352438D02*
X63430952Y-8304819D01*
X63430952Y-8304819D02*
X63669047Y-8304819D01*
X63669047Y-8304819D02*
X63764285Y-8352438D01*
X63764285Y-8352438D02*
X63811904Y-8400057D01*
X63811904Y-8400057D02*
X63859523Y-8495295D01*
X63859523Y-8495295D02*
X63859523Y-8590533D01*
X63859523Y-8590533D02*
X63811904Y-8733390D01*
X63811904Y-8733390D02*
X63240476Y-9304819D01*
X63240476Y-9304819D02*
X63859523Y-9304819D01*
X126438095Y-74654819D02*
X126438095Y-73654819D01*
X126438095Y-74131009D02*
X127009523Y-74131009D01*
X127009523Y-74654819D02*
X127009523Y-73654819D01*
X127914285Y-73654819D02*
X127723809Y-73654819D01*
X127723809Y-73654819D02*
X127628571Y-73702438D01*
X127628571Y-73702438D02*
X127580952Y-73750057D01*
X127580952Y-73750057D02*
X127485714Y-73892914D01*
X127485714Y-73892914D02*
X127438095Y-74083390D01*
X127438095Y-74083390D02*
X127438095Y-74464342D01*
X127438095Y-74464342D02*
X127485714Y-74559580D01*
X127485714Y-74559580D02*
X127533333Y-74607200D01*
X127533333Y-74607200D02*
X127628571Y-74654819D01*
X127628571Y-74654819D02*
X127819047Y-74654819D01*
X127819047Y-74654819D02*
X127914285Y-74607200D01*
X127914285Y-74607200D02*
X127961904Y-74559580D01*
X127961904Y-74559580D02*
X128009523Y-74464342D01*
X128009523Y-74464342D02*
X128009523Y-74226247D01*
X128009523Y-74226247D02*
X127961904Y-74131009D01*
X127961904Y-74131009D02*
X127914285Y-74083390D01*
X127914285Y-74083390D02*
X127819047Y-74035771D01*
X127819047Y-74035771D02*
X127628571Y-74035771D01*
X127628571Y-74035771D02*
X127533333Y-74083390D01*
X127533333Y-74083390D02*
X127485714Y-74131009D01*
X127485714Y-74131009D02*
X127438095Y-74226247D01*
X20576667Y-15397200D02*
X20719524Y-15444819D01*
X20719524Y-15444819D02*
X20957619Y-15444819D01*
X20957619Y-15444819D02*
X21052857Y-15397200D01*
X21052857Y-15397200D02*
X21100476Y-15349580D01*
X21100476Y-15349580D02*
X21148095Y-15254342D01*
X21148095Y-15254342D02*
X21148095Y-15159104D01*
X21148095Y-15159104D02*
X21100476Y-15063866D01*
X21100476Y-15063866D02*
X21052857Y-15016247D01*
X21052857Y-15016247D02*
X20957619Y-14968628D01*
X20957619Y-14968628D02*
X20767143Y-14921009D01*
X20767143Y-14921009D02*
X20671905Y-14873390D01*
X20671905Y-14873390D02*
X20624286Y-14825771D01*
X20624286Y-14825771D02*
X20576667Y-14730533D01*
X20576667Y-14730533D02*
X20576667Y-14635295D01*
X20576667Y-14635295D02*
X20624286Y-14540057D01*
X20624286Y-14540057D02*
X20671905Y-14492438D01*
X20671905Y-14492438D02*
X20767143Y-14444819D01*
X20767143Y-14444819D02*
X21005238Y-14444819D01*
X21005238Y-14444819D02*
X21148095Y-14492438D01*
X21481429Y-14444819D02*
X21719524Y-15444819D01*
X21719524Y-15444819D02*
X21910000Y-14730533D01*
X21910000Y-14730533D02*
X22100476Y-15444819D01*
X22100476Y-15444819D02*
X22338572Y-14444819D01*
X23243333Y-15444819D02*
X22671905Y-15444819D01*
X22957619Y-15444819D02*
X22957619Y-14444819D01*
X22957619Y-14444819D02*
X22862381Y-14587676D01*
X22862381Y-14587676D02*
X22767143Y-14682914D01*
X22767143Y-14682914D02*
X22671905Y-14730533D01*
X122666666Y-53644819D02*
X122666666Y-54359104D01*
X122666666Y-54359104D02*
X122619047Y-54501961D01*
X122619047Y-54501961D02*
X122523809Y-54597200D01*
X122523809Y-54597200D02*
X122380952Y-54644819D01*
X122380952Y-54644819D02*
X122285714Y-54644819D01*
X123619047Y-53644819D02*
X123142857Y-53644819D01*
X123142857Y-53644819D02*
X123095238Y-54121009D01*
X123095238Y-54121009D02*
X123142857Y-54073390D01*
X123142857Y-54073390D02*
X123238095Y-54025771D01*
X123238095Y-54025771D02*
X123476190Y-54025771D01*
X123476190Y-54025771D02*
X123571428Y-54073390D01*
X123571428Y-54073390D02*
X123619047Y-54121009D01*
X123619047Y-54121009D02*
X123666666Y-54216247D01*
X123666666Y-54216247D02*
X123666666Y-54454342D01*
X123666666Y-54454342D02*
X123619047Y-54549580D01*
X123619047Y-54549580D02*
X123571428Y-54597200D01*
X123571428Y-54597200D02*
X123476190Y-54644819D01*
X123476190Y-54644819D02*
X123238095Y-54644819D01*
X123238095Y-54644819D02*
X123142857Y-54597200D01*
X123142857Y-54597200D02*
X123095238Y-54549580D01*
X54238095Y-41254819D02*
X54238095Y-40254819D01*
X54238095Y-40731009D02*
X54809523Y-40731009D01*
X54809523Y-41254819D02*
X54809523Y-40254819D01*
X55761904Y-40254819D02*
X55285714Y-40254819D01*
X55285714Y-40254819D02*
X55238095Y-40731009D01*
X55238095Y-40731009D02*
X55285714Y-40683390D01*
X55285714Y-40683390D02*
X55380952Y-40635771D01*
X55380952Y-40635771D02*
X55619047Y-40635771D01*
X55619047Y-40635771D02*
X55714285Y-40683390D01*
X55714285Y-40683390D02*
X55761904Y-40731009D01*
X55761904Y-40731009D02*
X55809523Y-40826247D01*
X55809523Y-40826247D02*
X55809523Y-41064342D01*
X55809523Y-41064342D02*
X55761904Y-41159580D01*
X55761904Y-41159580D02*
X55714285Y-41207200D01*
X55714285Y-41207200D02*
X55619047Y-41254819D01*
X55619047Y-41254819D02*
X55380952Y-41254819D01*
X55380952Y-41254819D02*
X55285714Y-41207200D01*
X55285714Y-41207200D02*
X55238095Y-41159580D01*
X92033333Y-66609580D02*
X91985714Y-66657200D01*
X91985714Y-66657200D02*
X91842857Y-66704819D01*
X91842857Y-66704819D02*
X91747619Y-66704819D01*
X91747619Y-66704819D02*
X91604762Y-66657200D01*
X91604762Y-66657200D02*
X91509524Y-66561961D01*
X91509524Y-66561961D02*
X91461905Y-66466723D01*
X91461905Y-66466723D02*
X91414286Y-66276247D01*
X91414286Y-66276247D02*
X91414286Y-66133390D01*
X91414286Y-66133390D02*
X91461905Y-65942914D01*
X91461905Y-65942914D02*
X91509524Y-65847676D01*
X91509524Y-65847676D02*
X91604762Y-65752438D01*
X91604762Y-65752438D02*
X91747619Y-65704819D01*
X91747619Y-65704819D02*
X91842857Y-65704819D01*
X91842857Y-65704819D02*
X91985714Y-65752438D01*
X91985714Y-65752438D02*
X92033333Y-65800057D01*
X92414286Y-65800057D02*
X92461905Y-65752438D01*
X92461905Y-65752438D02*
X92557143Y-65704819D01*
X92557143Y-65704819D02*
X92795238Y-65704819D01*
X92795238Y-65704819D02*
X92890476Y-65752438D01*
X92890476Y-65752438D02*
X92938095Y-65800057D01*
X92938095Y-65800057D02*
X92985714Y-65895295D01*
X92985714Y-65895295D02*
X92985714Y-65990533D01*
X92985714Y-65990533D02*
X92938095Y-66133390D01*
X92938095Y-66133390D02*
X92366667Y-66704819D01*
X92366667Y-66704819D02*
X92985714Y-66704819D01*
X34916667Y-72787200D02*
X35059524Y-72834819D01*
X35059524Y-72834819D02*
X35297619Y-72834819D01*
X35297619Y-72834819D02*
X35392857Y-72787200D01*
X35392857Y-72787200D02*
X35440476Y-72739580D01*
X35440476Y-72739580D02*
X35488095Y-72644342D01*
X35488095Y-72644342D02*
X35488095Y-72549104D01*
X35488095Y-72549104D02*
X35440476Y-72453866D01*
X35440476Y-72453866D02*
X35392857Y-72406247D01*
X35392857Y-72406247D02*
X35297619Y-72358628D01*
X35297619Y-72358628D02*
X35107143Y-72311009D01*
X35107143Y-72311009D02*
X35011905Y-72263390D01*
X35011905Y-72263390D02*
X34964286Y-72215771D01*
X34964286Y-72215771D02*
X34916667Y-72120533D01*
X34916667Y-72120533D02*
X34916667Y-72025295D01*
X34916667Y-72025295D02*
X34964286Y-71930057D01*
X34964286Y-71930057D02*
X35011905Y-71882438D01*
X35011905Y-71882438D02*
X35107143Y-71834819D01*
X35107143Y-71834819D02*
X35345238Y-71834819D01*
X35345238Y-71834819D02*
X35488095Y-71882438D01*
X35821429Y-71834819D02*
X36059524Y-72834819D01*
X36059524Y-72834819D02*
X36250000Y-72120533D01*
X36250000Y-72120533D02*
X36440476Y-72834819D01*
X36440476Y-72834819D02*
X36678572Y-71834819D01*
X37011905Y-71930057D02*
X37059524Y-71882438D01*
X37059524Y-71882438D02*
X37154762Y-71834819D01*
X37154762Y-71834819D02*
X37392857Y-71834819D01*
X37392857Y-71834819D02*
X37488095Y-71882438D01*
X37488095Y-71882438D02*
X37535714Y-71930057D01*
X37535714Y-71930057D02*
X37583333Y-72025295D01*
X37583333Y-72025295D02*
X37583333Y-72120533D01*
X37583333Y-72120533D02*
X37535714Y-72263390D01*
X37535714Y-72263390D02*
X36964286Y-72834819D01*
X36964286Y-72834819D02*
X37583333Y-72834819D01*
X57938095Y-74654819D02*
X57938095Y-73654819D01*
X57938095Y-74131009D02*
X58509523Y-74131009D01*
X58509523Y-74654819D02*
X58509523Y-73654819D01*
X59414285Y-73654819D02*
X59223809Y-73654819D01*
X59223809Y-73654819D02*
X59128571Y-73702438D01*
X59128571Y-73702438D02*
X59080952Y-73750057D01*
X59080952Y-73750057D02*
X58985714Y-73892914D01*
X58985714Y-73892914D02*
X58938095Y-74083390D01*
X58938095Y-74083390D02*
X58938095Y-74464342D01*
X58938095Y-74464342D02*
X58985714Y-74559580D01*
X58985714Y-74559580D02*
X59033333Y-74607200D01*
X59033333Y-74607200D02*
X59128571Y-74654819D01*
X59128571Y-74654819D02*
X59319047Y-74654819D01*
X59319047Y-74654819D02*
X59414285Y-74607200D01*
X59414285Y-74607200D02*
X59461904Y-74559580D01*
X59461904Y-74559580D02*
X59509523Y-74464342D01*
X59509523Y-74464342D02*
X59509523Y-74226247D01*
X59509523Y-74226247D02*
X59461904Y-74131009D01*
X59461904Y-74131009D02*
X59414285Y-74083390D01*
X59414285Y-74083390D02*
X59319047Y-74035771D01*
X59319047Y-74035771D02*
X59128571Y-74035771D01*
X59128571Y-74035771D02*
X59033333Y-74083390D01*
X59033333Y-74083390D02*
X58985714Y-74131009D01*
X58985714Y-74131009D02*
X58938095Y-74226247D01*
X65738095Y-74754819D02*
X65738095Y-73754819D01*
X65738095Y-74231009D02*
X66309523Y-74231009D01*
X66309523Y-74754819D02*
X66309523Y-73754819D01*
X67214285Y-74088152D02*
X67214285Y-74754819D01*
X66976190Y-73707200D02*
X66738095Y-74421485D01*
X66738095Y-74421485D02*
X67357142Y-74421485D01*
X122866666Y-31404819D02*
X122866666Y-32119104D01*
X122866666Y-32119104D02*
X122819047Y-32261961D01*
X122819047Y-32261961D02*
X122723809Y-32357200D01*
X122723809Y-32357200D02*
X122580952Y-32404819D01*
X122580952Y-32404819D02*
X122485714Y-32404819D01*
X123771428Y-31738152D02*
X123771428Y-32404819D01*
X123533333Y-31357200D02*
X123295238Y-32071485D01*
X123295238Y-32071485D02*
X123914285Y-32071485D01*
X18786666Y-35954819D02*
X18786666Y-36669104D01*
X18786666Y-36669104D02*
X18739047Y-36811961D01*
X18739047Y-36811961D02*
X18643809Y-36907200D01*
X18643809Y-36907200D02*
X18500952Y-36954819D01*
X18500952Y-36954819D02*
X18405714Y-36954819D01*
X19691428Y-35954819D02*
X19500952Y-35954819D01*
X19500952Y-35954819D02*
X19405714Y-36002438D01*
X19405714Y-36002438D02*
X19358095Y-36050057D01*
X19358095Y-36050057D02*
X19262857Y-36192914D01*
X19262857Y-36192914D02*
X19215238Y-36383390D01*
X19215238Y-36383390D02*
X19215238Y-36764342D01*
X19215238Y-36764342D02*
X19262857Y-36859580D01*
X19262857Y-36859580D02*
X19310476Y-36907200D01*
X19310476Y-36907200D02*
X19405714Y-36954819D01*
X19405714Y-36954819D02*
X19596190Y-36954819D01*
X19596190Y-36954819D02*
X19691428Y-36907200D01*
X19691428Y-36907200D02*
X19739047Y-36859580D01*
X19739047Y-36859580D02*
X19786666Y-36764342D01*
X19786666Y-36764342D02*
X19786666Y-36526247D01*
X19786666Y-36526247D02*
X19739047Y-36431009D01*
X19739047Y-36431009D02*
X19691428Y-36383390D01*
X19691428Y-36383390D02*
X19596190Y-36335771D01*
X19596190Y-36335771D02*
X19405714Y-36335771D01*
X19405714Y-36335771D02*
X19310476Y-36383390D01*
X19310476Y-36383390D02*
X19262857Y-36431009D01*
X19262857Y-36431009D02*
X19215238Y-36526247D01*
X78738095Y-74754819D02*
X78738095Y-73754819D01*
X78738095Y-74231009D02*
X79309523Y-74231009D01*
X79309523Y-74754819D02*
X79309523Y-73754819D01*
X79690476Y-73754819D02*
X80309523Y-73754819D01*
X80309523Y-73754819D02*
X79976190Y-74135771D01*
X79976190Y-74135771D02*
X80119047Y-74135771D01*
X80119047Y-74135771D02*
X80214285Y-74183390D01*
X80214285Y-74183390D02*
X80261904Y-74231009D01*
X80261904Y-74231009D02*
X80309523Y-74326247D01*
X80309523Y-74326247D02*
X80309523Y-74564342D01*
X80309523Y-74564342D02*
X80261904Y-74659580D01*
X80261904Y-74659580D02*
X80214285Y-74707200D01*
X80214285Y-74707200D02*
X80119047Y-74754819D01*
X80119047Y-74754819D02*
X79833333Y-74754819D01*
X79833333Y-74754819D02*
X79738095Y-74707200D01*
X79738095Y-74707200D02*
X79690476Y-74659580D01*
X54366666Y-31404819D02*
X54366666Y-32119104D01*
X54366666Y-32119104D02*
X54319047Y-32261961D01*
X54319047Y-32261961D02*
X54223809Y-32357200D01*
X54223809Y-32357200D02*
X54080952Y-32404819D01*
X54080952Y-32404819D02*
X53985714Y-32404819D01*
X55271428Y-31738152D02*
X55271428Y-32404819D01*
X55033333Y-31357200D02*
X54795238Y-32071485D01*
X54795238Y-32071485D02*
X55414285Y-32071485D01*
X23533333Y-66609580D02*
X23485714Y-66657200D01*
X23485714Y-66657200D02*
X23342857Y-66704819D01*
X23342857Y-66704819D02*
X23247619Y-66704819D01*
X23247619Y-66704819D02*
X23104762Y-66657200D01*
X23104762Y-66657200D02*
X23009524Y-66561961D01*
X23009524Y-66561961D02*
X22961905Y-66466723D01*
X22961905Y-66466723D02*
X22914286Y-66276247D01*
X22914286Y-66276247D02*
X22914286Y-66133390D01*
X22914286Y-66133390D02*
X22961905Y-65942914D01*
X22961905Y-65942914D02*
X23009524Y-65847676D01*
X23009524Y-65847676D02*
X23104762Y-65752438D01*
X23104762Y-65752438D02*
X23247619Y-65704819D01*
X23247619Y-65704819D02*
X23342857Y-65704819D01*
X23342857Y-65704819D02*
X23485714Y-65752438D01*
X23485714Y-65752438D02*
X23533333Y-65800057D01*
X23914286Y-65800057D02*
X23961905Y-65752438D01*
X23961905Y-65752438D02*
X24057143Y-65704819D01*
X24057143Y-65704819D02*
X24295238Y-65704819D01*
X24295238Y-65704819D02*
X24390476Y-65752438D01*
X24390476Y-65752438D02*
X24438095Y-65800057D01*
X24438095Y-65800057D02*
X24485714Y-65895295D01*
X24485714Y-65895295D02*
X24485714Y-65990533D01*
X24485714Y-65990533D02*
X24438095Y-66133390D01*
X24438095Y-66133390D02*
X23866667Y-66704819D01*
X23866667Y-66704819D02*
X24485714Y-66704819D01*
X53533333Y-14509580D02*
X53485714Y-14557200D01*
X53485714Y-14557200D02*
X53342857Y-14604819D01*
X53342857Y-14604819D02*
X53247619Y-14604819D01*
X53247619Y-14604819D02*
X53104762Y-14557200D01*
X53104762Y-14557200D02*
X53009524Y-14461961D01*
X53009524Y-14461961D02*
X52961905Y-14366723D01*
X52961905Y-14366723D02*
X52914286Y-14176247D01*
X52914286Y-14176247D02*
X52914286Y-14033390D01*
X52914286Y-14033390D02*
X52961905Y-13842914D01*
X52961905Y-13842914D02*
X53009524Y-13747676D01*
X53009524Y-13747676D02*
X53104762Y-13652438D01*
X53104762Y-13652438D02*
X53247619Y-13604819D01*
X53247619Y-13604819D02*
X53342857Y-13604819D01*
X53342857Y-13604819D02*
X53485714Y-13652438D01*
X53485714Y-13652438D02*
X53533333Y-13700057D01*
X54485714Y-14604819D02*
X53914286Y-14604819D01*
X54200000Y-14604819D02*
X54200000Y-13604819D01*
X54200000Y-13604819D02*
X54104762Y-13747676D01*
X54104762Y-13747676D02*
X54009524Y-13842914D01*
X54009524Y-13842914D02*
X53914286Y-13890533D01*
X10238095Y-74754819D02*
X10238095Y-73754819D01*
X10238095Y-74231009D02*
X10809523Y-74231009D01*
X10809523Y-74754819D02*
X10809523Y-73754819D01*
X11190476Y-73754819D02*
X11809523Y-73754819D01*
X11809523Y-73754819D02*
X11476190Y-74135771D01*
X11476190Y-74135771D02*
X11619047Y-74135771D01*
X11619047Y-74135771D02*
X11714285Y-74183390D01*
X11714285Y-74183390D02*
X11761904Y-74231009D01*
X11761904Y-74231009D02*
X11809523Y-74326247D01*
X11809523Y-74326247D02*
X11809523Y-74564342D01*
X11809523Y-74564342D02*
X11761904Y-74659580D01*
X11761904Y-74659580D02*
X11714285Y-74707200D01*
X11714285Y-74707200D02*
X11619047Y-74754819D01*
X11619047Y-74754819D02*
X11333333Y-74754819D01*
X11333333Y-74754819D02*
X11238095Y-74707200D01*
X11238095Y-74707200D02*
X11190476Y-74659580D01*
X39261905Y-14924819D02*
X39261905Y-13924819D01*
X39261905Y-13924819D02*
X39500000Y-13924819D01*
X39500000Y-13924819D02*
X39642857Y-13972438D01*
X39642857Y-13972438D02*
X39738095Y-14067676D01*
X39738095Y-14067676D02*
X39785714Y-14162914D01*
X39785714Y-14162914D02*
X39833333Y-14353390D01*
X39833333Y-14353390D02*
X39833333Y-14496247D01*
X39833333Y-14496247D02*
X39785714Y-14686723D01*
X39785714Y-14686723D02*
X39738095Y-14781961D01*
X39738095Y-14781961D02*
X39642857Y-14877200D01*
X39642857Y-14877200D02*
X39500000Y-14924819D01*
X39500000Y-14924819D02*
X39261905Y-14924819D01*
X40785714Y-14924819D02*
X40214286Y-14924819D01*
X40500000Y-14924819D02*
X40500000Y-13924819D01*
X40500000Y-13924819D02*
X40404762Y-14067676D01*
X40404762Y-14067676D02*
X40309524Y-14162914D01*
X40309524Y-14162914D02*
X40214286Y-14210533D01*
X44818095Y-14554819D02*
X44818095Y-13554819D01*
X45389523Y-14554819D02*
X44960952Y-13983390D01*
X45389523Y-13554819D02*
X44818095Y-14126247D01*
X54166666Y-53644819D02*
X54166666Y-54359104D01*
X54166666Y-54359104D02*
X54119047Y-54501961D01*
X54119047Y-54501961D02*
X54023809Y-54597200D01*
X54023809Y-54597200D02*
X53880952Y-54644819D01*
X53880952Y-54644819D02*
X53785714Y-54644819D01*
X55119047Y-53644819D02*
X54642857Y-53644819D01*
X54642857Y-53644819D02*
X54595238Y-54121009D01*
X54595238Y-54121009D02*
X54642857Y-54073390D01*
X54642857Y-54073390D02*
X54738095Y-54025771D01*
X54738095Y-54025771D02*
X54976190Y-54025771D01*
X54976190Y-54025771D02*
X55071428Y-54073390D01*
X55071428Y-54073390D02*
X55119047Y-54121009D01*
X55119047Y-54121009D02*
X55166666Y-54216247D01*
X55166666Y-54216247D02*
X55166666Y-54454342D01*
X55166666Y-54454342D02*
X55119047Y-54549580D01*
X55119047Y-54549580D02*
X55071428Y-54597200D01*
X55071428Y-54597200D02*
X54976190Y-54644819D01*
X54976190Y-54644819D02*
X54738095Y-54644819D01*
X54738095Y-54644819D02*
X54642857Y-54597200D01*
X54642857Y-54597200D02*
X54595238Y-54549580D01*
X113166666Y-18004819D02*
X113166666Y-18719104D01*
X113166666Y-18719104D02*
X113119047Y-18861961D01*
X113119047Y-18861961D02*
X113023809Y-18957200D01*
X113023809Y-18957200D02*
X112880952Y-19004819D01*
X112880952Y-19004819D02*
X112785714Y-19004819D01*
X114166666Y-19004819D02*
X113595238Y-19004819D01*
X113880952Y-19004819D02*
X113880952Y-18004819D01*
X113880952Y-18004819D02*
X113785714Y-18147676D01*
X113785714Y-18147676D02*
X113690476Y-18242914D01*
X113690476Y-18242914D02*
X113595238Y-18290533D01*
X127633333Y-41009580D02*
X127585714Y-41057200D01*
X127585714Y-41057200D02*
X127442857Y-41104819D01*
X127442857Y-41104819D02*
X127347619Y-41104819D01*
X127347619Y-41104819D02*
X127204762Y-41057200D01*
X127204762Y-41057200D02*
X127109524Y-40961961D01*
X127109524Y-40961961D02*
X127061905Y-40866723D01*
X127061905Y-40866723D02*
X127014286Y-40676247D01*
X127014286Y-40676247D02*
X127014286Y-40533390D01*
X127014286Y-40533390D02*
X127061905Y-40342914D01*
X127061905Y-40342914D02*
X127109524Y-40247676D01*
X127109524Y-40247676D02*
X127204762Y-40152438D01*
X127204762Y-40152438D02*
X127347619Y-40104819D01*
X127347619Y-40104819D02*
X127442857Y-40104819D01*
X127442857Y-40104819D02*
X127585714Y-40152438D01*
X127585714Y-40152438D02*
X127633333Y-40200057D01*
X128490476Y-40438152D02*
X128490476Y-41104819D01*
X128252381Y-40057200D02*
X128014286Y-40771485D01*
X128014286Y-40771485D02*
X128633333Y-40771485D01*
X50583333Y-72459580D02*
X50535714Y-72507200D01*
X50535714Y-72507200D02*
X50392857Y-72554819D01*
X50392857Y-72554819D02*
X50297619Y-72554819D01*
X50297619Y-72554819D02*
X50154762Y-72507200D01*
X50154762Y-72507200D02*
X50059524Y-72411961D01*
X50059524Y-72411961D02*
X50011905Y-72316723D01*
X50011905Y-72316723D02*
X49964286Y-72126247D01*
X49964286Y-72126247D02*
X49964286Y-71983390D01*
X49964286Y-71983390D02*
X50011905Y-71792914D01*
X50011905Y-71792914D02*
X50059524Y-71697676D01*
X50059524Y-71697676D02*
X50154762Y-71602438D01*
X50154762Y-71602438D02*
X50297619Y-71554819D01*
X50297619Y-71554819D02*
X50392857Y-71554819D01*
X50392857Y-71554819D02*
X50535714Y-71602438D01*
X50535714Y-71602438D02*
X50583333Y-71650057D01*
X50916667Y-71554819D02*
X51535714Y-71554819D01*
X51535714Y-71554819D02*
X51202381Y-71935771D01*
X51202381Y-71935771D02*
X51345238Y-71935771D01*
X51345238Y-71935771D02*
X51440476Y-71983390D01*
X51440476Y-71983390D02*
X51488095Y-72031009D01*
X51488095Y-72031009D02*
X51535714Y-72126247D01*
X51535714Y-72126247D02*
X51535714Y-72364342D01*
X51535714Y-72364342D02*
X51488095Y-72459580D01*
X51488095Y-72459580D02*
X51440476Y-72507200D01*
X51440476Y-72507200D02*
X51345238Y-72554819D01*
X51345238Y-72554819D02*
X51059524Y-72554819D01*
X51059524Y-72554819D02*
X50964286Y-72507200D01*
X50964286Y-72507200D02*
X50916667Y-72459580D01*
X89076667Y-15397200D02*
X89219524Y-15444819D01*
X89219524Y-15444819D02*
X89457619Y-15444819D01*
X89457619Y-15444819D02*
X89552857Y-15397200D01*
X89552857Y-15397200D02*
X89600476Y-15349580D01*
X89600476Y-15349580D02*
X89648095Y-15254342D01*
X89648095Y-15254342D02*
X89648095Y-15159104D01*
X89648095Y-15159104D02*
X89600476Y-15063866D01*
X89600476Y-15063866D02*
X89552857Y-15016247D01*
X89552857Y-15016247D02*
X89457619Y-14968628D01*
X89457619Y-14968628D02*
X89267143Y-14921009D01*
X89267143Y-14921009D02*
X89171905Y-14873390D01*
X89171905Y-14873390D02*
X89124286Y-14825771D01*
X89124286Y-14825771D02*
X89076667Y-14730533D01*
X89076667Y-14730533D02*
X89076667Y-14635295D01*
X89076667Y-14635295D02*
X89124286Y-14540057D01*
X89124286Y-14540057D02*
X89171905Y-14492438D01*
X89171905Y-14492438D02*
X89267143Y-14444819D01*
X89267143Y-14444819D02*
X89505238Y-14444819D01*
X89505238Y-14444819D02*
X89648095Y-14492438D01*
X89981429Y-14444819D02*
X90219524Y-15444819D01*
X90219524Y-15444819D02*
X90410000Y-14730533D01*
X90410000Y-14730533D02*
X90600476Y-15444819D01*
X90600476Y-15444819D02*
X90838572Y-14444819D01*
X91743333Y-15444819D02*
X91171905Y-15444819D01*
X91457619Y-15444819D02*
X91457619Y-14444819D01*
X91457619Y-14444819D02*
X91362381Y-14587676D01*
X91362381Y-14587676D02*
X91267143Y-14682914D01*
X91267143Y-14682914D02*
X91171905Y-14730533D01*
X107761905Y-14924819D02*
X107761905Y-13924819D01*
X107761905Y-13924819D02*
X108000000Y-13924819D01*
X108000000Y-13924819D02*
X108142857Y-13972438D01*
X108142857Y-13972438D02*
X108238095Y-14067676D01*
X108238095Y-14067676D02*
X108285714Y-14162914D01*
X108285714Y-14162914D02*
X108333333Y-14353390D01*
X108333333Y-14353390D02*
X108333333Y-14496247D01*
X108333333Y-14496247D02*
X108285714Y-14686723D01*
X108285714Y-14686723D02*
X108238095Y-14781961D01*
X108238095Y-14781961D02*
X108142857Y-14877200D01*
X108142857Y-14877200D02*
X108000000Y-14924819D01*
X108000000Y-14924819D02*
X107761905Y-14924819D01*
X109285714Y-14924819D02*
X108714286Y-14924819D01*
X109000000Y-14924819D02*
X109000000Y-13924819D01*
X109000000Y-13924819D02*
X108904762Y-14067676D01*
X108904762Y-14067676D02*
X108809524Y-14162914D01*
X108809524Y-14162914D02*
X108714286Y-14210533D01*
X113318095Y-14554819D02*
X113318095Y-13554819D01*
X113889523Y-14554819D02*
X113460952Y-13983390D01*
X113889523Y-13554819D02*
X113318095Y-14126247D01*
D12*
G04 #@! TO.C,J3*
X12695000Y-60470000D02*
X12695000Y-68150000D01*
X12695000Y-60470000D02*
X15355000Y-60470000D01*
X12695000Y-68150000D02*
X15355000Y-68150000D01*
X14025000Y-57870000D02*
X15355000Y-57870000D01*
X15355000Y-57870000D02*
X15355000Y-59200000D01*
X15355000Y-60470000D02*
X15355000Y-68150000D01*
G04 #@! TO.C,C4*
X58230000Y-35580000D02*
X58230000Y-38820000D01*
X58295000Y-35580000D02*
X58230000Y-35580000D01*
X58295000Y-38820000D02*
X58230000Y-38820000D01*
X60470000Y-35580000D02*
X60405000Y-35580000D01*
X60470000Y-35580000D02*
X60470000Y-38820000D01*
X60470000Y-38820000D02*
X60405000Y-38820000D01*
G04 #@! TO.C,J3*
X81195000Y-60470000D02*
X81195000Y-68150000D01*
X81195000Y-60470000D02*
X83855000Y-60470000D01*
X81195000Y-68150000D02*
X83855000Y-68150000D01*
X82525000Y-57870000D02*
X83855000Y-57870000D01*
X83855000Y-57870000D02*
X83855000Y-59200000D01*
X83855000Y-60470000D02*
X83855000Y-68150000D01*
G04 #@! TO.C,J6*
X77380000Y-21380000D02*
X77380000Y-23700000D01*
X77380000Y-24300000D02*
X77380000Y-51620000D01*
X77900000Y-21380000D02*
X77900000Y-51620000D01*
X79000000Y-21380000D02*
X79000000Y-51620000D01*
X80720000Y-22507000D02*
X80710000Y-22498000D01*
X81009000Y-22220000D02*
X80998000Y-22210000D01*
X81106000Y-27893000D02*
X80710000Y-27498000D01*
X81106000Y-32893000D02*
X80710000Y-32498000D01*
X81106000Y-37893000D02*
X80710000Y-37498000D01*
X81106000Y-42893000D02*
X80710000Y-42498000D01*
X81106000Y-47893000D02*
X80710000Y-47498000D01*
X81394000Y-27605000D02*
X80998000Y-27210000D01*
X81394000Y-32605000D02*
X80998000Y-32210000D01*
X81394000Y-37605000D02*
X80998000Y-37210000D01*
X81394000Y-42605000D02*
X80998000Y-42210000D01*
X81394000Y-47605000D02*
X80998000Y-47210000D01*
X84002000Y-30790000D02*
X83606000Y-30394000D01*
X84002000Y-35790000D02*
X83606000Y-35394000D01*
X84002000Y-40790000D02*
X83606000Y-40394000D01*
X84002000Y-45790000D02*
X83606000Y-45394000D01*
X84002000Y-50790000D02*
X83606000Y-50394000D01*
X84290000Y-30502000D02*
X83894000Y-30106000D01*
X84290000Y-35502000D02*
X83894000Y-35106000D01*
X84290000Y-40502000D02*
X83894000Y-40106000D01*
X84290000Y-45502000D02*
X83894000Y-45106000D01*
X84290000Y-50502000D02*
X83894000Y-50106000D01*
X86620000Y-21380000D02*
X77380000Y-21380000D01*
X86620000Y-21380000D02*
X86620000Y-51620000D01*
X86620000Y-51620000D02*
X77380000Y-51620000D01*
X80720000Y-25550000D02*
G75*
G02*
X80719585Y-22450477I1780000J1550000D01*
G01*
X80950000Y-22220000D02*
G75*
G02*
X84049523Y-22219585I1550000J-1780000D01*
G01*
X84050000Y-25780000D02*
G75*
G02*
X80950477Y-25780415I-1550000J1780001D01*
G01*
X84280000Y-22450000D02*
G75*
G02*
X84280415Y-25549523I-1780001J-1550000D01*
G01*
X84860000Y-29000000D02*
G75*
G02*
X80140000Y-29000000I-2360000J0D01*
G01*
X80140000Y-29000000D02*
G75*
G02*
X84860000Y-29000000I2360000J0D01*
G01*
X84860000Y-34000000D02*
G75*
G02*
X80140000Y-34000000I-2360000J0D01*
G01*
X80140000Y-34000000D02*
G75*
G02*
X84860000Y-34000000I2360000J0D01*
G01*
X84860000Y-39000000D02*
G75*
G02*
X80140000Y-39000000I-2360000J0D01*
G01*
X80140000Y-39000000D02*
G75*
G02*
X84860000Y-39000000I2360000J0D01*
G01*
X84860000Y-44000000D02*
G75*
G02*
X80140000Y-44000000I-2360000J0D01*
G01*
X80140000Y-44000000D02*
G75*
G02*
X84860000Y-44000000I2360000J0D01*
G01*
X84860000Y-49000000D02*
G75*
G02*
X80140000Y-49000000I-2360000J0D01*
G01*
X80140000Y-49000000D02*
G75*
G02*
X84860000Y-49000000I2360000J0D01*
G01*
X77380000Y-24000000D02*
X76770000Y-24440000D01*
X76770000Y-23560000D01*
X77380000Y-24000000D01*
G36*
X77380000Y-24000000D02*
G01*
X76770000Y-24440000D01*
X76770000Y-23560000D01*
X77380000Y-24000000D01*
G37*
G04 #@! TO.C,SW2*
X101250000Y-75880000D02*
X101250000Y-77380000D01*
X102500000Y-79880000D02*
X107000000Y-79880000D01*
X107000000Y-73380000D02*
X102500000Y-73380000D01*
X108250000Y-77380000D02*
X108250000Y-75880000D01*
G04 #@! TO.C,J1*
X43670000Y-22590000D02*
X43670000Y-70910000D01*
X43670000Y-22590000D02*
X46330000Y-22590000D01*
X43670000Y-70910000D02*
X46330000Y-70910000D01*
X45000000Y-19990000D02*
X46330000Y-19990000D01*
X46330000Y-19990000D02*
X46330000Y-21320000D01*
X46330000Y-22590000D02*
X46330000Y-70910000D01*
G04 #@! TO.C,J2*
X25890000Y-22565000D02*
X25890000Y-70885000D01*
X25890000Y-22565000D02*
X28550000Y-22565000D01*
X25890000Y-70885000D02*
X28550000Y-70885000D01*
X27220000Y-19965000D02*
X28550000Y-19965000D01*
X28550000Y-19965000D02*
X28550000Y-21295000D01*
X28550000Y-22565000D02*
X28550000Y-70885000D01*
G04 #@! TO.C,C1*
X119880000Y-10945000D02*
X119880000Y-10880000D01*
X119880000Y-13120000D02*
X119880000Y-13055000D01*
X123120000Y-10880000D02*
X119880000Y-10880000D01*
X123120000Y-10945000D02*
X123120000Y-10880000D01*
X123120000Y-13120000D02*
X119880000Y-13120000D01*
X123120000Y-13120000D02*
X123120000Y-13055000D01*
G04 #@! TO.C,J2*
X94390000Y-22565000D02*
X94390000Y-70885000D01*
X94390000Y-22565000D02*
X97050000Y-22565000D01*
X94390000Y-70885000D02*
X97050000Y-70885000D01*
X95720000Y-19965000D02*
X97050000Y-19965000D01*
X97050000Y-19965000D02*
X97050000Y-21295000D01*
X97050000Y-22565000D02*
X97050000Y-70885000D01*
G04 #@! TO.C,C3*
X118230000Y-68995000D02*
X118230000Y-68930000D01*
X118230000Y-71170000D02*
X118230000Y-71105000D01*
X121470000Y-68930000D02*
X118230000Y-68930000D01*
X121470000Y-68995000D02*
X121470000Y-68930000D01*
X121470000Y-71170000D02*
X118230000Y-71170000D01*
X121470000Y-71170000D02*
X121470000Y-71105000D01*
G04 #@! TO.C,SW1*
X19490000Y-9740000D02*
X19490000Y-10050000D01*
X19490000Y-9740000D02*
X28310000Y-9740000D01*
X19490000Y-14260000D02*
X19490000Y-13950000D01*
X25400000Y-14960000D02*
X26400000Y-14960000D01*
X25900000Y-14460000D02*
X25400000Y-14960000D01*
X26400000Y-14960000D02*
X25900000Y-14460000D01*
X28310000Y-9740000D02*
X28310000Y-10050000D01*
X28310000Y-13950000D02*
X28310000Y-14260000D01*
X28310000Y-14260000D02*
X19490000Y-14260000D01*
G04 #@! TO.C,J5*
X121670000Y-58230000D02*
X121670000Y-65910000D01*
X121670000Y-58230000D02*
X124330000Y-58230000D01*
X121670000Y-65910000D02*
X124330000Y-65910000D01*
X123000000Y-55630000D02*
X124330000Y-55630000D01*
X124330000Y-55630000D02*
X124330000Y-56960000D01*
X124330000Y-58230000D02*
X124330000Y-65910000D01*
G04 #@! TO.C,C2*
X88830000Y-64630000D02*
X88830000Y-67870000D01*
X88895000Y-64630000D02*
X88830000Y-64630000D01*
X88895000Y-67870000D02*
X88830000Y-67870000D01*
X91070000Y-64630000D02*
X91005000Y-64630000D01*
X91070000Y-64630000D02*
X91070000Y-67870000D01*
X91070000Y-67870000D02*
X91005000Y-67870000D01*
G04 #@! TO.C,SW2*
X32750000Y-75880000D02*
X32750000Y-77380000D01*
X34000000Y-79880000D02*
X38500000Y-79880000D01*
X38500000Y-73380000D02*
X34000000Y-73380000D01*
X39750000Y-77380000D02*
X39750000Y-75880000D01*
G04 #@! TO.C,J4*
X123170000Y-27880000D02*
X123170000Y-20200000D01*
X123170000Y-30480000D02*
X123170000Y-29150000D01*
X124500000Y-30480000D02*
X123170000Y-30480000D01*
X125830000Y-20200000D02*
X123170000Y-20200000D01*
X125830000Y-27880000D02*
X123170000Y-27880000D01*
X125830000Y-27880000D02*
X125830000Y-20200000D01*
G04 #@! TO.C,J6*
X8880000Y-21380000D02*
X8880000Y-23700000D01*
X8880000Y-24300000D02*
X8880000Y-51620000D01*
X9400000Y-21380000D02*
X9400000Y-51620000D01*
X10500000Y-21380000D02*
X10500000Y-51620000D01*
X12220000Y-22507000D02*
X12210000Y-22498000D01*
X12509000Y-22220000D02*
X12498000Y-22210000D01*
X12606000Y-27893000D02*
X12210000Y-27498000D01*
X12606000Y-32893000D02*
X12210000Y-32498000D01*
X12606000Y-37893000D02*
X12210000Y-37498000D01*
X12606000Y-42893000D02*
X12210000Y-42498000D01*
X12606000Y-47893000D02*
X12210000Y-47498000D01*
X12894000Y-27605000D02*
X12498000Y-27210000D01*
X12894000Y-32605000D02*
X12498000Y-32210000D01*
X12894000Y-37605000D02*
X12498000Y-37210000D01*
X12894000Y-42605000D02*
X12498000Y-42210000D01*
X12894000Y-47605000D02*
X12498000Y-47210000D01*
X15502000Y-30790000D02*
X15106000Y-30394000D01*
X15502000Y-35790000D02*
X15106000Y-35394000D01*
X15502000Y-40790000D02*
X15106000Y-40394000D01*
X15502000Y-45790000D02*
X15106000Y-45394000D01*
X15502000Y-50790000D02*
X15106000Y-50394000D01*
X15790000Y-30502000D02*
X15394000Y-30106000D01*
X15790000Y-35502000D02*
X15394000Y-35106000D01*
X15790000Y-40502000D02*
X15394000Y-40106000D01*
X15790000Y-45502000D02*
X15394000Y-45106000D01*
X15790000Y-50502000D02*
X15394000Y-50106000D01*
X18120000Y-21380000D02*
X8880000Y-21380000D01*
X18120000Y-21380000D02*
X18120000Y-51620000D01*
X18120000Y-51620000D02*
X8880000Y-51620000D01*
X12220000Y-25550000D02*
G75*
G02*
X12219585Y-22450477I1780000J1550000D01*
G01*
X12450000Y-22220000D02*
G75*
G02*
X15549523Y-22219585I1550000J-1780000D01*
G01*
X15550000Y-25780000D02*
G75*
G02*
X12450477Y-25780415I-1550000J1780001D01*
G01*
X15780000Y-22450000D02*
G75*
G02*
X15780415Y-25549523I-1780001J-1550000D01*
G01*
X16360000Y-29000000D02*
G75*
G02*
X11640000Y-29000000I-2360000J0D01*
G01*
X11640000Y-29000000D02*
G75*
G02*
X16360000Y-29000000I2360000J0D01*
G01*
X16360000Y-34000000D02*
G75*
G02*
X11640000Y-34000000I-2360000J0D01*
G01*
X11640000Y-34000000D02*
G75*
G02*
X16360000Y-34000000I2360000J0D01*
G01*
X16360000Y-39000000D02*
G75*
G02*
X11640000Y-39000000I-2360000J0D01*
G01*
X11640000Y-39000000D02*
G75*
G02*
X16360000Y-39000000I2360000J0D01*
G01*
X16360000Y-44000000D02*
G75*
G02*
X11640000Y-44000000I-2360000J0D01*
G01*
X11640000Y-44000000D02*
G75*
G02*
X16360000Y-44000000I2360000J0D01*
G01*
X16360000Y-49000000D02*
G75*
G02*
X11640000Y-49000000I-2360000J0D01*
G01*
X11640000Y-49000000D02*
G75*
G02*
X16360000Y-49000000I2360000J0D01*
G01*
X8880000Y-24000000D02*
X8270000Y-24440000D01*
X8270000Y-23560000D01*
X8880000Y-24000000D01*
G36*
X8880000Y-24000000D02*
G01*
X8270000Y-24440000D01*
X8270000Y-23560000D01*
X8880000Y-24000000D01*
G37*
G04 #@! TO.C,J4*
X54670000Y-27880000D02*
X54670000Y-20200000D01*
X54670000Y-30480000D02*
X54670000Y-29150000D01*
X56000000Y-30480000D02*
X54670000Y-30480000D01*
X57330000Y-20200000D02*
X54670000Y-20200000D01*
X57330000Y-27880000D02*
X54670000Y-27880000D01*
X57330000Y-27880000D02*
X57330000Y-20200000D01*
G04 #@! TO.C,C2*
X20330000Y-64630000D02*
X20330000Y-67870000D01*
X20395000Y-64630000D02*
X20330000Y-64630000D01*
X20395000Y-67870000D02*
X20330000Y-67870000D01*
X22570000Y-64630000D02*
X22505000Y-64630000D01*
X22570000Y-64630000D02*
X22570000Y-67870000D01*
X22570000Y-67870000D02*
X22505000Y-67870000D01*
G04 #@! TO.C,C1*
X51380000Y-10945000D02*
X51380000Y-10880000D01*
X51380000Y-13120000D02*
X51380000Y-13055000D01*
X54620000Y-10880000D02*
X51380000Y-10880000D01*
X54620000Y-10945000D02*
X54620000Y-10880000D01*
X54620000Y-13120000D02*
X51380000Y-13120000D01*
X54620000Y-13120000D02*
X54620000Y-13055000D01*
G04 #@! TO.C,D1*
X36260000Y-12000000D02*
X37280000Y-12000000D01*
X37280000Y-10530000D02*
X37280000Y-13470000D01*
X37280000Y-13470000D02*
X42720000Y-13470000D01*
X41700000Y-13470000D02*
X41700000Y-10530000D01*
X41820000Y-13470000D02*
X41820000Y-10530000D01*
X41940000Y-13470000D02*
X41940000Y-10530000D01*
X42720000Y-10530000D02*
X37280000Y-10530000D01*
X42720000Y-13470000D02*
X42720000Y-10530000D01*
X43740000Y-12000000D02*
X42720000Y-12000000D01*
G04 #@! TO.C,J5*
X53170000Y-58230000D02*
X53170000Y-65910000D01*
X53170000Y-58230000D02*
X55830000Y-58230000D01*
X53170000Y-65910000D02*
X55830000Y-65910000D01*
X54500000Y-55630000D02*
X55830000Y-55630000D01*
X55830000Y-55630000D02*
X55830000Y-56960000D01*
X55830000Y-58230000D02*
X55830000Y-65910000D01*
G04 #@! TO.C,J1*
X112170000Y-22590000D02*
X112170000Y-70910000D01*
X112170000Y-22590000D02*
X114830000Y-22590000D01*
X112170000Y-70910000D02*
X114830000Y-70910000D01*
X113500000Y-19990000D02*
X114830000Y-19990000D01*
X114830000Y-19990000D02*
X114830000Y-21320000D01*
X114830000Y-22590000D02*
X114830000Y-70910000D01*
G04 #@! TO.C,C4*
X126730000Y-35580000D02*
X126730000Y-38820000D01*
X126795000Y-35580000D02*
X126730000Y-35580000D01*
X126795000Y-38820000D02*
X126730000Y-38820000D01*
X128970000Y-35580000D02*
X128905000Y-35580000D01*
X128970000Y-35580000D02*
X128970000Y-38820000D01*
X128970000Y-38820000D02*
X128905000Y-38820000D01*
G04 #@! TO.C,C3*
X49730000Y-68995000D02*
X49730000Y-68930000D01*
X49730000Y-71170000D02*
X49730000Y-71105000D01*
X52970000Y-68930000D02*
X49730000Y-68930000D01*
X52970000Y-68995000D02*
X52970000Y-68930000D01*
X52970000Y-71170000D02*
X49730000Y-71170000D01*
X52970000Y-71170000D02*
X52970000Y-71105000D01*
G04 #@! TO.C,SW1*
X87990000Y-9740000D02*
X87990000Y-10050000D01*
X87990000Y-9740000D02*
X96810000Y-9740000D01*
X87990000Y-14260000D02*
X87990000Y-13950000D01*
X93900000Y-14960000D02*
X94900000Y-14960000D01*
X94400000Y-14460000D02*
X93900000Y-14960000D01*
X94900000Y-14960000D02*
X94400000Y-14460000D01*
X96810000Y-9740000D02*
X96810000Y-10050000D01*
X96810000Y-13950000D02*
X96810000Y-14260000D01*
X96810000Y-14260000D02*
X87990000Y-14260000D01*
G04 #@! TO.C,D1*
X104760000Y-12000000D02*
X105780000Y-12000000D01*
X105780000Y-10530000D02*
X105780000Y-13470000D01*
X105780000Y-13470000D02*
X111220000Y-13470000D01*
X110200000Y-13470000D02*
X110200000Y-10530000D01*
X110320000Y-13470000D02*
X110320000Y-10530000D01*
X110440000Y-13470000D02*
X110440000Y-10530000D01*
X111220000Y-10530000D02*
X105780000Y-10530000D01*
X111220000Y-13470000D02*
X111220000Y-10530000D01*
X112240000Y-12000000D02*
X111220000Y-12000000D01*
G04 #@! TD*
D13*
X102587552Y-85441602D02*
X102397583Y-85489187D01*
X72096103Y-85303404D02*
X71928127Y-85404085D01*
X72489187Y-40397583D02*
X72441602Y-40587552D01*
X140596103Y-41053404D02*
X140428127Y-41154085D01*
X111251203Y-5949981D02*
X111279939Y-5756262D01*
X75014588Y-49392129D02*
X75171887Y-49508790D01*
X43150140Y-6800000D02*
X43008790Y-6671887D01*
X71352416Y-41239187D02*
X71162447Y-41191602D01*
X71928127Y-41154085D02*
X71743737Y-41220060D01*
X103239187Y-6147583D02*
X103191602Y-6337552D01*
X5076044Y-49866699D02*
X5168362Y-49693985D01*
X102884758Y-85273237D02*
X102764588Y-85357870D01*
X43008790Y-6671887D02*
X42892129Y-6514588D01*
X139200000Y-40849859D02*
X139200000Y-49653445D01*
X5999012Y-5000000D02*
X33750987Y-5000000D01*
X73519195Y-50054104D02*
X73576044Y-49866699D01*
X75171887Y-40991209D02*
X75014588Y-41107870D01*
X43042600Y-85207399D02*
X42918362Y-85056014D01*
X5616699Y-49326044D02*
X5804104Y-49269195D01*
X111345914Y-84928127D02*
X111279939Y-84743737D01*
X71256262Y-49279939D02*
X71401080Y-49254810D01*
X70985411Y-41107870D02*
X70828112Y-40991209D01*
X5000000Y-84500987D02*
X5000000Y-50249012D01*
X34581637Y-83943985D02*
X34654085Y-84071872D01*
X102850049Y-83700000D02*
X102957399Y-83792600D01*
X140428127Y-5095914D02*
X140596103Y-5196595D01*
X6514588Y-41107870D02*
X6337552Y-41191602D01*
X43366699Y-85423955D02*
X43193985Y-85331637D01*
X75500000Y-7000000D02*
X139000000Y-7000000D01*
X34748796Y-5949981D02*
X34739187Y-6147583D01*
X42808397Y-84162447D02*
X42892129Y-83985411D01*
X72404085Y-49821872D02*
X72480804Y-50054104D01*
X71928127Y-85404085D02*
X71695895Y-85480804D01*
X71647583Y-49260812D02*
X71790994Y-49293016D01*
X73758790Y-40921887D02*
X73642129Y-40764588D01*
X6671887Y-40991209D02*
X6514588Y-41107870D01*
X140904085Y-49821872D02*
X140980804Y-50054104D01*
X111345914Y-5571872D02*
X111446595Y-5403896D01*
X74499012Y-85500000D02*
X74304104Y-85480804D01*
X111735411Y-85357870D02*
X111578112Y-85241209D01*
X102397583Y-85489187D02*
X102250987Y-85500000D01*
X42808397Y-6337552D02*
X42760812Y-6147583D01*
X5226762Y-85134758D02*
X5142129Y-85014588D01*
X34654085Y-84928127D02*
X34581637Y-85056014D01*
X5804104Y-5019195D02*
X5999012Y-5000000D01*
X139756262Y-49279939D02*
X139901080Y-49254810D01*
X73558397Y-5662447D02*
X73617960Y-5528074D01*
X102764588Y-5142129D02*
X102921887Y-5258790D01*
X74837552Y-49308397D02*
X75014588Y-49392129D01*
X42750000Y-84499012D02*
X42760812Y-84352416D01*
X71550018Y-41248796D02*
X71352416Y-41239187D01*
X42826044Y-84883300D02*
X42769195Y-84695895D01*
X103239187Y-84352416D02*
X103250000Y-84499012D01*
X5804104Y-85480804D02*
X5571872Y-85404085D01*
X34720060Y-5756262D02*
X34748796Y-5949981D01*
X103154085Y-84071872D02*
X103206983Y-84209005D01*
X73500000Y-50249012D02*
X73519195Y-50054104D01*
X74499012Y-5000000D02*
X102250987Y-5000000D01*
X141000000Y-40250987D02*
X140989187Y-40397583D01*
X5010812Y-84647583D02*
X5000000Y-84500987D01*
X141000000Y-50249012D02*
X141000000Y-84500987D01*
X34264588Y-5142129D02*
X34421887Y-5258790D01*
X111446595Y-5403896D02*
X111578112Y-5258790D01*
X34706983Y-84209005D02*
X34739187Y-84352416D01*
X34491209Y-85171887D02*
X34384758Y-85273237D01*
X74071872Y-41154085D02*
X73903896Y-41053404D01*
X139485411Y-49392129D02*
X139616699Y-49326044D01*
X73642129Y-85014588D02*
X73558397Y-84837552D01*
X34739187Y-84647583D02*
X34706983Y-84790994D01*
X139200000Y-49653445D02*
X139258790Y-49578112D01*
X43193985Y-85331637D02*
X43042600Y-85207399D01*
X111392129Y-6514588D02*
X111308397Y-6337552D01*
X139258790Y-49578112D02*
X139365241Y-49476762D01*
X34491209Y-83828112D02*
X34581637Y-83943985D01*
X34384758Y-83726762D02*
X34491209Y-83828112D01*
X5058397Y-5662447D02*
X5117960Y-5528074D01*
X70985411Y-49392129D02*
X71116699Y-49326044D01*
X74304104Y-49269195D02*
X74500987Y-49250000D01*
X33750987Y-5000000D02*
X33897583Y-5010812D01*
X140741209Y-40921887D02*
X140596103Y-41053404D01*
X102250987Y-85500000D02*
X74499012Y-85500000D01*
X112249012Y-85500000D02*
X112102416Y-85489187D01*
X103248796Y-5949981D02*
X103239187Y-6147583D01*
X34349859Y-6800000D02*
X43150140Y-6800000D01*
X1245Y-270D02*
X735Y-90499574D01*
X43749012Y-5000000D02*
X71500987Y-5000000D01*
X102991209Y-6671887D02*
X102849859Y-6800000D01*
X42946595Y-5403896D02*
X43078112Y-5258790D01*
X74304104Y-5019195D02*
X74499012Y-5000000D01*
X140290994Y-49293016D02*
X140428127Y-49345914D01*
X111251203Y-84550018D02*
X111254810Y-84401080D01*
X5010812Y-40397583D02*
X5000000Y-40250987D01*
X34706983Y-84790994D02*
X34654085Y-84928127D01*
X73792600Y-49542600D02*
X73943985Y-49418362D01*
X111446595Y-85096103D02*
X111345914Y-84928127D01*
X34654085Y-5571872D02*
X34720060Y-5756262D01*
X103107870Y-6514588D02*
X102991209Y-6671887D01*
X73903896Y-5196595D02*
X74071872Y-5095914D01*
X139852416Y-41239187D02*
X139662447Y-41191602D01*
X140882039Y-5528074D02*
X140941602Y-5662447D01*
X5168362Y-49693985D02*
X5292600Y-49542600D01*
X111650140Y-6800000D02*
X111508790Y-6671887D01*
X72357870Y-40764588D02*
X72241209Y-40921887D01*
X72382039Y-5528074D02*
X72441602Y-5662447D01*
X34087552Y-85441602D02*
X33897583Y-85489187D01*
X5142129Y-40764588D02*
X5058397Y-40587552D01*
X73726762Y-85134758D02*
X73642129Y-85014588D01*
X5000000Y-40250987D02*
X5000000Y-5999012D01*
X71695895Y-5019195D02*
X71928127Y-5095914D01*
X140596103Y-85303404D02*
X140428127Y-85404085D01*
X34087552Y-5058397D02*
X34264588Y-5142129D01*
X102849859Y-6800000D02*
X111650140Y-6800000D01*
X70865241Y-49476762D02*
X70985411Y-49392129D01*
X5058397Y-84837552D02*
X5010812Y-84647583D01*
X111279939Y-5756262D02*
X111345914Y-5571872D01*
X73668362Y-49693985D02*
X73792600Y-49542600D01*
X74116699Y-49326044D02*
X74304104Y-49269195D01*
X74500987Y-49250000D02*
X74647583Y-49260812D01*
X73903896Y-85303404D02*
X73726762Y-85134758D01*
X103206983Y-84209005D02*
X103239187Y-84352416D01*
X145999574Y-90499264D02*
X145999264Y-425D01*
X103191602Y-6337552D02*
X103107870Y-6514588D01*
X139328112Y-40991209D02*
X139200000Y-40849859D01*
X5804104Y-49269195D02*
X5999012Y-49250000D01*
X70828112Y-40991209D02*
X70700000Y-40849859D01*
X145999264Y-425D02*
X1245Y-270D01*
X43078112Y-5258790D02*
X43235411Y-5142129D01*
X34654085Y-84071872D02*
X34706983Y-84209005D01*
X5365241Y-5226762D02*
X5571872Y-5095914D01*
X73558397Y-40587552D02*
X73510812Y-40397583D01*
X5117960Y-5528074D02*
X5226762Y-5365241D01*
X139000000Y-83500000D02*
X75500000Y-83500000D01*
X103081637Y-85056014D02*
X102991209Y-85171887D01*
X72441602Y-5662447D02*
X72489187Y-5852416D01*
X102587552Y-5058397D02*
X102764588Y-5142129D01*
X72500000Y-40250987D02*
X72489187Y-40397583D01*
X6147583Y-49260812D02*
X6337552Y-49308397D01*
X140050018Y-41248796D02*
X139852416Y-41239187D01*
X140428127Y-85404085D02*
X140195895Y-85480804D01*
X6147583Y-41239187D02*
X5949981Y-41248796D01*
X43412447Y-5058397D02*
X43602416Y-5010812D01*
X73510812Y-84647583D02*
X73500000Y-84500987D01*
X6337552Y-41191602D02*
X6147583Y-41239187D01*
X5292600Y-49542600D02*
X5443985Y-49418362D01*
X43008790Y-83828112D02*
X43150140Y-83700000D01*
X74304104Y-85480804D02*
X74071872Y-85404085D01*
X73500000Y-84500987D02*
X73500000Y-50249012D01*
X34384758Y-85273237D02*
X34221925Y-85382039D01*
X33897583Y-5010812D02*
X34087552Y-5058397D01*
X111508790Y-6671887D02*
X111392129Y-6514588D01*
X72489187Y-84647583D02*
X72441602Y-84837552D01*
X6337552Y-49308397D02*
X6514588Y-49392129D01*
X5571872Y-5095914D02*
X5804104Y-5019195D01*
X140882039Y-84971925D02*
X140773237Y-85134758D01*
X6671887Y-49508790D02*
X6800000Y-49650140D01*
X111655294Y-83700000D02*
X102850049Y-83700000D01*
X140147583Y-49260812D02*
X140290994Y-49293016D01*
X5571872Y-41154085D02*
X5403896Y-41053404D01*
X72441602Y-40587552D02*
X72357870Y-40764588D01*
X42892129Y-6514588D02*
X42808397Y-6337552D01*
X43150140Y-83700000D02*
X34346758Y-83700000D01*
X140428127Y-41154085D02*
X140243737Y-41220060D01*
X42751203Y-5949981D02*
X42779939Y-5756262D01*
X42760812Y-84352416D02*
X42808397Y-84162447D01*
X74071872Y-5095914D02*
X74304104Y-5019195D01*
X75171887Y-49508790D02*
X75300000Y-49650140D01*
X34750000Y-84499012D02*
X34739187Y-84647583D01*
X71790994Y-49293016D02*
X71928127Y-49345914D01*
X111260812Y-6147583D02*
X111251203Y-5949981D01*
X111615241Y-83726762D02*
X111655294Y-83700000D01*
X141000000Y-84500987D02*
X140989187Y-84647583D01*
X43602416Y-5010812D02*
X43749012Y-5000000D01*
X5000000Y-50249012D02*
X5019195Y-50054104D01*
X34221925Y-85382039D02*
X34087552Y-85441602D01*
X112102416Y-85489187D02*
X111912447Y-85441602D01*
X75300000Y-40849859D02*
X75171887Y-40991209D01*
X102921887Y-5258790D02*
X103053404Y-5403896D01*
X140195895Y-5019195D02*
X140428127Y-5095914D01*
X139365241Y-49476762D02*
X139485411Y-49392129D01*
X70500000Y-83500000D02*
X7000000Y-83500000D01*
X7000000Y-7000000D02*
X70500000Y-7000000D01*
X140428127Y-49345914D02*
X140634758Y-49476762D01*
X42918362Y-85056014D02*
X42826044Y-84883300D01*
X72273237Y-5365241D02*
X72382039Y-5528074D01*
X111912447Y-5058397D02*
X112102416Y-5010812D01*
X111308397Y-6337552D02*
X111260812Y-6147583D01*
X72096103Y-41053404D02*
X71928127Y-41154085D01*
X140941602Y-5662447D02*
X140989187Y-5852416D01*
X34553404Y-5403896D02*
X34654085Y-5571872D01*
X140773237Y-85134758D02*
X140596103Y-85303404D01*
X42760812Y-6147583D02*
X42751203Y-5949981D01*
X5949981Y-41248796D02*
X5756262Y-41220060D01*
X34421887Y-5258790D02*
X34553404Y-5403896D01*
X140941602Y-84837552D02*
X140882039Y-84971925D01*
X140243737Y-41220060D02*
X140050018Y-41248796D01*
X141000000Y-5999012D02*
X141000000Y-40250987D01*
X6800000Y-40849859D02*
X6671887Y-40991209D01*
X74837552Y-41191602D02*
X74647583Y-41239187D01*
X103220060Y-5756262D02*
X103248796Y-5949981D01*
X111912447Y-85441602D02*
X111735411Y-85357870D01*
X75014588Y-41107870D02*
X74837552Y-41191602D01*
X103154085Y-84928127D02*
X103081637Y-85056014D01*
X140941602Y-40587552D02*
X140857870Y-40764588D01*
X111293016Y-84209005D02*
X111367960Y-84028074D01*
X5756262Y-41220060D02*
X5571872Y-41154085D01*
X34607870Y-6514588D02*
X34491209Y-6671887D01*
X102250987Y-5000000D02*
X102397583Y-5010812D01*
X72241209Y-40921887D02*
X72096103Y-41053404D01*
X75300000Y-49650140D02*
X75300000Y-40849859D01*
X34346758Y-83700000D02*
X34384758Y-83726762D01*
X111367960Y-84028074D02*
X111476762Y-83865241D01*
X71500987Y-85500000D02*
X43749012Y-85500000D01*
X71743737Y-41220060D02*
X71550018Y-41248796D01*
X72500000Y-50249012D02*
X72500000Y-84500987D01*
X140989187Y-40397583D02*
X140941602Y-40587552D01*
X112249012Y-5000000D02*
X140000987Y-5000000D01*
X33897583Y-85489187D02*
X33750987Y-85500000D01*
X5999012Y-49250000D02*
X6147583Y-49260812D01*
X5010812Y-5852416D02*
X5058397Y-5662447D01*
X34581637Y-85056014D02*
X34491209Y-85171887D01*
X42845914Y-5571872D02*
X42946595Y-5403896D01*
X140596103Y-5196595D02*
X140773237Y-5365241D01*
X140857870Y-40764588D02*
X140741209Y-40921887D01*
X34739187Y-6147583D02*
X34691602Y-6337552D01*
X73943985Y-49418362D02*
X74116699Y-49326044D01*
X73576044Y-49866699D02*
X73668362Y-49693985D01*
X103250000Y-84499012D02*
X103239187Y-84647583D01*
X139485411Y-41107870D02*
X139328112Y-40991209D01*
X5000000Y-5999012D02*
X5010812Y-5852416D01*
X139901080Y-49254810D02*
X140147583Y-49260812D01*
X5999012Y-85500000D02*
X5804104Y-85480804D01*
X5142129Y-85014588D02*
X5058397Y-84837552D01*
X34491209Y-6671887D02*
X34349859Y-6800000D01*
X43554104Y-85480804D02*
X43366699Y-85423955D01*
X33750987Y-85500000D02*
X5999012Y-85500000D01*
X6800000Y-49650140D02*
X6800000Y-40849859D01*
X139662447Y-41191602D02*
X139485411Y-41107870D01*
X73617960Y-5528074D02*
X73726762Y-5365241D01*
X111476762Y-83865241D02*
X111615241Y-83726762D01*
X71928127Y-49345914D02*
X72134758Y-49476762D01*
X71401080Y-49254810D02*
X71647583Y-49260812D01*
X71116699Y-49326044D02*
X71256262Y-49279939D01*
X103154085Y-5571872D02*
X103220060Y-5756262D01*
X103053404Y-83903896D02*
X103154085Y-84071872D01*
X73903896Y-41053404D02*
X73758790Y-40921887D01*
X42779939Y-5756262D02*
X42845914Y-5571872D01*
X112102416Y-5010812D02*
X112249012Y-5000000D01*
X103206983Y-84790994D02*
X103154085Y-84928127D01*
X140000987Y-85500000D02*
X112249012Y-85500000D01*
X111254810Y-84401080D02*
X111293016Y-84209005D01*
X72357870Y-85014588D02*
X72273237Y-85134758D01*
X5258790Y-40921887D02*
X5142129Y-40764588D01*
X102991209Y-85171887D02*
X102884758Y-85273237D01*
X735Y-90499574D02*
X145999574Y-90499264D01*
X43749012Y-85500000D02*
X43554104Y-85480804D01*
X73558397Y-84837552D02*
X73510812Y-84647583D01*
X70700000Y-49650321D02*
X70865241Y-49476762D01*
X74256262Y-41220060D02*
X74071872Y-41154085D01*
X70700000Y-40849859D02*
X70700000Y-49650321D01*
X111578112Y-85241209D02*
X111446595Y-85096103D01*
X34691602Y-6337552D02*
X34607870Y-6514588D01*
X140773237Y-49615241D02*
X140904085Y-49821872D01*
X43235411Y-5142129D02*
X43412447Y-5058397D01*
X5226762Y-5365241D02*
X5365241Y-5226762D01*
X140980804Y-50054104D02*
X141000000Y-50249012D01*
X74071872Y-85404085D02*
X73903896Y-85303404D01*
X72134758Y-49476762D02*
X72303404Y-49653896D01*
X71695895Y-85480804D02*
X71500987Y-85500000D01*
X7000000Y-83500000D02*
X7000000Y-7000000D01*
X5403896Y-85303404D02*
X5226762Y-85134758D01*
X73726762Y-5365241D02*
X73903896Y-5196595D01*
X140195895Y-85480804D02*
X140000987Y-85500000D01*
X72273237Y-85134758D02*
X72096103Y-85303404D01*
X5443985Y-49418362D02*
X5616699Y-49326044D01*
X111578112Y-5258790D02*
X111735411Y-5142129D01*
X111279939Y-84743737D02*
X111251203Y-84550018D01*
X72500000Y-5999012D02*
X72500000Y-40250987D01*
X102397583Y-5010812D02*
X102587552Y-5058397D01*
X5058397Y-40587552D02*
X5010812Y-40397583D01*
X111735411Y-5142129D02*
X111912447Y-5058397D01*
X72096103Y-5196595D02*
X72273237Y-5365241D01*
X6514588Y-49392129D02*
X6671887Y-49508790D01*
X42769195Y-84695895D02*
X42750000Y-84499012D01*
X74449981Y-41248796D02*
X74256262Y-41220060D01*
X140634758Y-49476762D02*
X140773237Y-49615241D01*
X103053404Y-5403896D02*
X103154085Y-5571872D01*
X73510812Y-40397583D02*
X73500000Y-40250987D01*
X71928127Y-5095914D02*
X72096103Y-5196595D01*
X139000000Y-7000000D02*
X139000000Y-83500000D01*
X140989187Y-5852416D02*
X141000000Y-5999012D01*
X74647583Y-49260812D02*
X74837552Y-49308397D01*
X71162447Y-41191602D02*
X70985411Y-41107870D01*
X74647583Y-41239187D02*
X74449981Y-41248796D01*
X140989187Y-84647583D02*
X140941602Y-84837552D01*
X140773237Y-5365241D02*
X140882039Y-5528074D01*
X70500000Y-7000000D02*
X70500000Y-83500000D01*
X34739187Y-84352416D02*
X34750000Y-84499012D01*
X73642129Y-40764588D02*
X73558397Y-40587552D01*
X42892129Y-83985411D02*
X43008790Y-83828112D01*
X102957399Y-83792600D02*
X103053404Y-83903896D01*
X139616699Y-49326044D02*
X139756262Y-49279939D01*
X72441602Y-84837552D02*
X72357870Y-85014588D01*
X5571872Y-85404085D02*
X5403896Y-85303404D01*
X72480804Y-50054104D02*
X72500000Y-50249012D01*
X72489187Y-5852416D02*
X72500000Y-5999012D01*
X5019195Y-50054104D02*
X5076044Y-49866699D01*
X5403896Y-41053404D02*
X5258790Y-40921887D01*
X73500000Y-40250987D02*
X73500000Y-5999012D01*
X73500000Y-5999012D02*
X73510812Y-5852416D01*
X140000987Y-5000000D02*
X140195895Y-5019195D01*
X103239187Y-84647583D02*
X103206983Y-84790994D01*
X72303404Y-49653896D02*
X72404085Y-49821872D01*
X71500987Y-5000000D02*
X71695895Y-5019195D01*
X73510812Y-5852416D02*
X73558397Y-5662447D01*
X102764588Y-85357870D02*
X102587552Y-85441602D01*
X72500000Y-84500987D02*
X72489187Y-84647583D01*
X75500000Y-83500000D02*
X75500000Y-7000000D01*
M02*
