M48
; DRILL file {KiCad 9.0.0} date 2025-03-16T21:50:16+0100
; FORMAT={-:-/ absolute / inch / decimal}
; #@! TF.CreationDate,2025-03-16T21:50:16+01:00
; #@! TF.GenerationSoftware,Kicad,Pcbnew,9.0.0
; #@! TF.FileFunction,MixedPlating,1,2
FMAT,2
INCH
; #@! TA.AperFunction,Plated,PTH,ComponentDrill
T1C0.0315
; #@! TA.AperFunction,Plated,PTH,ComponentDrill
T2C0.0394
; #@! TA.AperFunction,Plated,PTH,ComponentDrill
T3C0.0433
; #@! TA.AperFunction,Plated,PTH,ComponentDrill
T4C0.0512
; #@! TA.AperFunction,Plated,PTH,ComponentDrill
T5C0.0591
; #@! TA.AperFunction,NonPlated,NPTH,ComponentDrill
T6C0.1260
%
G90
G05
T1
X0.8445Y-2.5591
X0.8445Y-2.6575
X0.8622Y-0.4724
X0.9409Y-0.4724
X1.0197Y-0.4724
X1.9724Y-2.7579
X2.0374Y-0.4724
X2.0709Y-2.7579
X2.1358Y-0.4724
X2.3366Y-1.4154
X2.3366Y-1.5138
X3.5413Y-2.5591
X3.5413Y-2.6575
X3.5591Y-0.4724
X3.6378Y-0.4724
X3.7165Y-0.4724
X4.6693Y-2.7579
X4.7343Y-0.4724
X4.7677Y-2.7579
X4.8327Y-0.4724
X5.0335Y-1.4154
X5.0335Y-1.5138
T2
X0.5522Y-2.3307
X0.5522Y-2.4307
X0.5522Y-2.5307
X0.5522Y-2.6307
X1.0717Y-0.8384
X1.0717Y-0.9384
X1.0717Y-1.0384
X1.0717Y-1.1384
X1.0717Y-1.2384
X1.0717Y-1.3384
X1.0717Y-1.4384
X1.0717Y-1.5384
X1.0717Y-1.6384
X1.0717Y-1.7384
X1.0717Y-1.8384
X1.0717Y-1.9384
X1.0717Y-2.0384
X1.0717Y-2.1384
X1.0717Y-2.2384
X1.0717Y-2.3384
X1.0717Y-2.4384
X1.0717Y-2.5384
X1.0717Y-2.6384
X1.0717Y-2.7384
X1.7717Y-0.8394
X1.7717Y-0.9394
X1.7717Y-1.0394
X1.7717Y-1.1394
X1.7717Y-1.2394
X1.7717Y-1.3394
X1.7717Y-1.4394
X1.7717Y-1.5394
X1.7717Y-1.6394
X1.7717Y-1.7394
X1.7717Y-1.8394
X1.7717Y-1.9394
X1.7717Y-2.0394
X1.7717Y-2.1394
X1.7717Y-2.2394
X1.7717Y-2.3394
X1.7717Y-2.4394
X1.7717Y-2.5394
X1.7717Y-2.6394
X1.7717Y-2.7394
X2.1457Y-2.2425
X2.1457Y-2.3425
X2.1457Y-2.4425
X2.1457Y-2.5425
X2.2047Y-0.8476
X2.2047Y-0.9476
X2.2047Y-1.0476
X2.2047Y-1.1476
X3.249Y-2.3307
X3.249Y-2.4307
X3.249Y-2.5307
X3.249Y-2.6307
X3.7685Y-0.8384
X3.7685Y-0.9384
X3.7685Y-1.0384
X3.7685Y-1.1384
X3.7685Y-1.2384
X3.7685Y-1.3384
X3.7685Y-1.4384
X3.7685Y-1.5384
X3.7685Y-1.6384
X3.7685Y-1.7384
X3.7685Y-1.8384
X3.7685Y-1.9384
X3.7685Y-2.0384
X3.7685Y-2.1384
X3.7685Y-2.2384
X3.7685Y-2.3384
X3.7685Y-2.4384
X3.7685Y-2.5384
X3.7685Y-2.6384
X3.7685Y-2.7384
X4.4685Y-0.8394
X4.4685Y-0.9394
X4.4685Y-1.0394
X4.4685Y-1.1394
X4.4685Y-1.2394
X4.4685Y-1.3394
X4.4685Y-1.4394
X4.4685Y-1.5394
X4.4685Y-1.6394
X4.4685Y-1.7394
X4.4685Y-1.8394
X4.4685Y-1.9394
X4.4685Y-2.0394
X4.4685Y-2.1394
X4.4685Y-2.2394
X4.4685Y-2.3394
X4.4685Y-2.4394
X4.4685Y-2.5394
X4.4685Y-2.6394
X4.4685Y-2.7394
X4.8425Y-2.2425
X4.8425Y-2.3425
X4.8425Y-2.4425
X4.8425Y-2.5425
X4.9016Y-0.8476
X4.9016Y-0.9476
X4.9016Y-1.0476
X4.9016Y-1.1476
T3
X1.2992Y-2.9283
X1.2992Y-3.1055
X1.3748Y-0.4724
X1.5551Y-2.9283
X1.5551Y-3.1055
X1.7748Y-0.4724
X3.9961Y-2.9283
X3.9961Y-3.1055
X4.0717Y-0.4724
X4.252Y-2.9283
X4.252Y-3.1055
X4.4717Y-0.4724
T4
X0.5512Y-0.9449
X0.5512Y-1.1417
X0.5512Y-1.3386
X0.5512Y-1.5354
X0.5512Y-1.7323
X0.5512Y-1.9291
X3.248Y-0.9449
X3.248Y-1.1417
X3.248Y-1.3386
X3.248Y-1.5354
X3.248Y-1.7323
X3.248Y-1.9291
T5
X0.7795Y-0.4724
X1.1024Y-0.4724
X3.4764Y-0.4724
X3.7992Y-0.4724
T6
X0.4331Y-0.4724
X0.4331Y-3.0906
X2.1654Y-1.7717
X2.1654Y-3.0315
X2.6181Y-0.4724
X2.6181Y-3.0906
X3.1299Y-0.4724
X3.1299Y-3.0906
X4.8622Y-1.7717
X4.8622Y-3.0315
X5.315Y-0.4724
X5.315Y-3.0906
M30
